<svg width="282" height="168" viewBox="0 0 282 168" fill="none" xmlns="http://www.w3.org/2000/svg">
<g clip-path="url(#clip0_505_8356)">
<path d="M137.782 141.08C137.62 141.08 139.02 141.994 117.662 127.403C109.872 122.084 103.498 114.944 99.0939 106.602C94.6901 98.2607 92.3897 88.9699 92.3926 79.5371V37.1579C92.3927 37.1031 92.4068 37.0493 92.4334 37.0014C92.4601 36.9535 92.4984 36.9131 92.5449 36.8841C92.5951 36.8517 97.709 33.6514 105.798 30.4982C113.265 27.5815 124.875 24.1172 137.782 24.1172C150.69 24.1172 162.299 27.5864 169.765 30.4982C177.856 33.6514 182.97 36.8517 183.02 36.8841C183.066 36.9131 183.105 36.9535 183.131 37.0014C183.158 37.0493 183.172 37.1031 183.172 37.1579V79.5371C183.174 88.9706 180.873 98.2619 176.467 106.604C172.062 114.945 165.686 122.085 157.894 127.403C136.525 142.007 137.938 141.08 137.782 141.08ZM93.0407 37.341V79.5371C93.0378 88.8642 95.3123 98.0509 99.6667 106.299C104.021 114.547 110.324 121.608 118.027 126.866L137.782 140.363L157.538 126.866C165.241 121.608 171.544 114.547 175.898 106.299C180.252 98.0509 182.527 88.8642 182.524 79.5371V37.341C181.623 36.7933 176.781 33.9285 169.516 31.0977C162.104 28.2086 150.582 24.767 137.782 24.767C124.983 24.767 113.461 28.2086 106.049 31.0977C98.7833 33.9285 93.9417 36.7933 93.0407 37.341Z" fill="#000091"/>
<path d="M121.501 121.783C114.625 117.089 109 110.787 105.113 103.424C101.226 96.062 99.1957 87.8619 99.1982 79.5366V40.9572C105.414 37.7164 120.493 30.9238 137.783 30.9238C155.072 30.9238 170.143 37.7099 176.367 40.9572V79.5366C176.369 87.8619 174.339 96.062 170.452 103.424C166.565 110.787 160.94 117.089 154.064 121.783L137.783 132.905L121.501 121.783Z" fill="#FCC63A"/>
<path d="M64.041 101.964H140.399V115.651H64.041V101.964Z" fill="#CE0500"/>
<path d="M73.8895 112.787C73.8036 112.787 73.7211 112.752 73.6603 112.692C73.5996 112.631 73.5654 112.548 73.5654 112.462V104.967C73.5654 104.881 73.5996 104.798 73.6603 104.738C73.7211 104.677 73.8036 104.643 73.8895 104.643C73.9755 104.643 74.0579 104.677 74.1187 104.738C74.1794 104.798 74.2136 104.881 74.2136 104.967V112.462C74.2136 112.548 74.1794 112.631 74.1187 112.692C74.0579 112.752 73.9755 112.787 73.8895 112.787Z" fill="white"/>
<path d="M70.6438 110.912C70.5726 110.912 70.5034 110.888 70.4469 110.845C70.3904 110.801 70.3498 110.74 70.3314 110.672C70.3129 110.603 70.3177 110.53 70.3448 110.464C70.372 110.398 70.4202 110.343 70.4818 110.307L76.9811 106.559C77.018 106.536 77.0592 106.52 77.1023 106.513C77.1455 106.506 77.1896 106.508 77.232 106.518C77.2745 106.528 77.3144 106.547 77.3494 106.574C77.3843 106.6 77.4136 106.633 77.4355 106.671C77.4574 106.709 77.4714 106.75 77.4766 106.794C77.4819 106.837 77.4784 106.881 77.4662 106.923C77.454 106.965 77.4335 107.004 77.4058 107.038C77.3781 107.072 77.3439 107.1 77.3052 107.12C70.3619 111.126 70.7718 110.912 70.6438 110.912Z" fill="white"/>
<path d="M77.143 110.912C77.0133 110.912 77.4136 111.119 70.4881 107.12C70.4176 107.075 70.3671 107.005 70.3472 106.924C70.3273 106.842 70.3396 106.757 70.3814 106.684C70.4232 106.612 70.4914 106.559 70.5717 106.535C70.6519 106.512 70.7381 106.521 70.8122 106.559L77.305 110.307C77.3666 110.343 77.4147 110.398 77.4419 110.464C77.4691 110.53 77.4739 110.603 77.4554 110.672C77.437 110.74 77.3964 110.801 77.3399 110.845C77.2834 110.888 77.2142 110.912 77.143 110.912ZM85.3194 112.85C85.2334 112.85 85.151 112.816 85.0902 112.755C85.0294 112.694 84.9953 112.612 84.9953 112.526V105.028C84.9953 104.942 85.0294 104.86 85.0902 104.799C85.151 104.738 85.2334 104.704 85.3194 104.704C85.4053 104.704 85.4877 104.738 85.5485 104.799C85.6093 104.86 85.6434 104.942 85.6434 105.028V112.526C85.6434 112.612 85.6093 112.694 85.5485 112.755C85.4877 112.816 85.4053 112.85 85.3194 112.85Z" fill="white"/>
<path d="M82.0735 110.975C82.0023 110.975 81.9331 110.951 81.8766 110.908C81.8201 110.865 81.7795 110.804 81.7611 110.735C81.7426 110.666 81.7473 110.593 81.7745 110.527C81.8017 110.462 81.8498 110.407 81.9115 110.371L88.4043 106.623C88.4412 106.599 88.4824 106.584 88.5255 106.577C88.5687 106.569 88.6128 106.571 88.6552 106.582C88.6977 106.592 88.7376 106.611 88.7726 106.637C88.8075 106.663 88.8368 106.696 88.8587 106.734C88.8806 106.772 88.8946 106.814 88.8999 106.857C88.9051 106.901 88.9016 106.945 88.8894 106.987C88.8772 107.029 88.8567 107.068 88.829 107.102C88.8013 107.135 88.7671 107.163 88.7284 107.183C81.7899 111.187 82.1999 110.975 82.0735 110.975Z" fill="white"/>
<path d="M88.5648 110.975C88.4368 110.975 88.8354 111.183 81.91 107.184C81.8394 107.139 81.789 107.068 81.7691 106.987C81.7492 106.906 81.7614 106.82 81.8033 106.748C81.8451 106.676 81.9133 106.622 81.9935 106.599C82.0738 106.576 82.16 106.584 82.2341 106.623L88.7269 110.371C88.7885 110.407 88.8366 110.462 88.8638 110.527C88.891 110.593 88.8957 110.666 88.8773 110.735C88.8588 110.804 88.8182 110.865 88.7618 110.908C88.7053 110.951 88.6361 110.975 88.5648 110.975ZM96.7493 112.912C96.6634 112.912 96.581 112.877 96.5202 112.817C96.4594 112.756 96.4253 112.673 96.4253 112.587V105.092C96.4253 105.006 96.4594 104.923 96.5202 104.863C96.581 104.802 96.6634 104.768 96.7493 104.768C96.8353 104.768 96.9177 104.802 96.9785 104.863C97.0393 104.923 97.0734 105.006 97.0734 105.092V112.587C97.0734 112.673 97.0393 112.756 96.9785 112.817C96.9177 112.877 96.8353 112.912 96.7493 112.912Z" fill="white"/>
<path d="M93.509 111.046C93.4372 111.047 93.3673 111.023 93.3102 110.98C93.2532 110.936 93.2122 110.875 93.1936 110.806C93.1751 110.736 93.1801 110.663 93.2078 110.597C93.2356 110.53 93.2845 110.475 93.3469 110.44L99.8284 106.684C99.903 106.641 99.9915 106.629 100.075 106.652C100.158 106.674 100.229 106.729 100.272 106.803C100.315 106.878 100.326 106.966 100.304 107.049C100.281 107.132 100.227 107.203 100.152 107.246C93.2189 111.25 93.6305 111.046 93.509 111.046Z" fill="white"/>
<path d="M99.9905 111.046C99.8625 111.046 100.263 111.252 93.3373 107.255C93.2627 107.212 93.2083 107.141 93.1859 107.058C93.1636 106.975 93.1752 106.886 93.2182 106.812C93.2611 106.737 93.332 106.683 93.4151 106.66C93.4982 106.638 93.5868 106.65 93.6613 106.693L100.153 110.432C100.22 110.465 100.273 110.521 100.304 110.589C100.335 110.657 100.341 110.733 100.322 110.806C100.303 110.878 100.26 110.941 100.199 110.985C100.139 111.029 100.065 111.051 99.9905 111.046ZM108.177 112.975C108.091 112.975 108.008 112.941 107.947 112.88C107.887 112.819 107.853 112.737 107.853 112.651V105.153C107.853 105.067 107.887 104.985 107.947 104.924C108.008 104.863 108.091 104.829 108.177 104.829C108.263 104.829 108.345 104.863 108.406 104.924C108.467 104.985 108.501 105.067 108.501 105.153V112.651C108.501 112.737 108.467 112.819 108.406 112.88C108.345 112.941 108.263 112.975 108.177 112.975Z" fill="white"/>
<path d="M104.931 111.1C104.86 111.1 104.79 111.076 104.734 111.033C104.678 110.99 104.637 110.929 104.618 110.86C104.6 110.791 104.605 110.718 104.632 110.652C104.659 110.587 104.707 110.532 104.769 110.496L111.26 106.748C111.297 106.724 111.338 106.709 111.381 106.702C111.424 106.694 111.469 106.696 111.511 106.707C111.553 106.717 111.593 106.736 111.628 106.762C111.663 106.788 111.693 106.821 111.715 106.859C111.736 106.897 111.75 106.939 111.756 106.982C111.761 107.026 111.757 107.07 111.745 107.112C111.733 107.154 111.712 107.193 111.685 107.227C111.657 107.26 111.623 107.288 111.584 107.308C104.649 111.314 105.059 111.1 104.931 111.1Z" fill="white"/>
<path d="M111.422 111.1C111.294 111.1 111.694 111.308 104.769 107.308C104.73 107.288 104.696 107.26 104.668 107.227C104.64 107.193 104.62 107.154 104.608 107.112C104.595 107.07 104.592 107.026 104.597 106.982C104.602 106.939 104.616 106.897 104.638 106.859C104.66 106.821 104.689 106.788 104.724 106.762C104.759 106.736 104.799 106.717 104.842 106.707C104.884 106.696 104.928 106.694 104.971 106.702C105.015 106.709 105.056 106.724 105.093 106.748L111.584 110.496C111.645 110.532 111.694 110.587 111.721 110.652C111.748 110.718 111.753 110.791 111.734 110.86C111.716 110.929 111.675 110.99 111.619 111.033C111.562 111.076 111.493 111.1 111.422 111.1ZM122.176 112.343H115.06C114.974 112.343 114.891 112.309 114.83 112.248C114.77 112.187 114.735 112.105 114.735 112.019C114.735 111.933 114.77 111.851 114.83 111.79C114.891 111.729 114.974 111.695 115.06 111.695H122.181C122.267 111.695 122.349 111.729 122.41 111.79C122.471 111.851 122.505 111.933 122.505 112.019C122.505 112.105 122.471 112.187 122.41 112.248C122.349 112.309 122.267 112.343 122.181 112.343H122.176ZM133.796 112.343H126.674C126.588 112.343 126.506 112.309 126.445 112.248C126.384 112.187 126.35 112.105 126.35 112.019C126.35 111.933 126.384 111.851 126.445 111.79C126.506 111.729 126.588 111.695 126.674 111.695H133.796C133.882 111.695 133.964 111.729 134.025 111.79C134.086 111.851 134.12 111.933 134.12 112.019C134.12 112.105 134.086 112.187 134.025 112.248C133.964 112.309 133.882 112.343 133.796 112.343Z" fill="white"/>
<path d="M149.94 71.9179H145.813V61.8246C145.813 59.6948 144.967 57.6522 143.461 56.1462C141.955 54.6401 139.912 53.7941 137.783 53.7941C135.653 53.7941 133.61 54.6401 132.104 56.1462C130.598 57.6522 129.752 59.6948 129.752 61.8246V71.9179H125.625V61.8246C125.625 58.6002 126.906 55.5079 129.186 53.2279C131.466 50.9479 134.558 49.667 137.783 49.667C141.007 49.667 144.099 50.9479 146.379 53.2279C148.659 55.5079 149.94 58.6002 149.94 61.8246V71.9179Z" fill="#000091"/>
<path d="M152.073 64.7139H123.493C122.181 64.7139 121.117 65.7774 121.117 67.0893V87.9095C121.117 89.2214 122.181 90.2849 123.493 90.2849H152.073C153.385 90.2849 154.448 89.2214 154.448 87.9095V67.0893C154.448 65.7774 153.385 64.7139 152.073 64.7139Z" fill="#000091"/>
<path d="M137.782 78.4476C139.334 78.4476 140.592 77.1896 140.592 75.6378C140.592 74.0861 139.334 72.8281 137.782 72.8281C136.231 72.8281 134.973 74.0861 134.973 75.6378C134.973 77.1896 136.231 78.4476 137.782 78.4476Z" fill="white"/>
<path d="M136.477 76.707H139.089V82.1693H136.477V76.707Z" fill="white"/>
<path d="M205.469 144.387C211.814 144.387 216.959 139.243 216.959 132.897C216.959 126.551 211.814 121.407 205.469 121.407C199.123 121.407 193.979 126.551 193.979 132.897C193.979 139.243 199.123 144.387 205.469 144.387Z" fill="#FCC63A"/>
<path d="M210.423 136.329C212.319 136.329 213.855 134.792 213.855 132.897C213.855 131.001 212.319 129.465 210.423 129.465C208.528 129.465 206.991 131.001 206.991 132.897C206.991 134.792 208.528 136.329 210.423 136.329Z" fill="#000091"/>
<path d="M201.64 128.371V137.423H190.265C190.233 136.922 190.011 136.452 189.645 136.108C189.279 135.765 188.795 135.574 188.294 135.574C187.792 135.574 187.308 135.765 186.942 136.108C186.576 136.452 186.354 136.922 186.322 137.423H180.988L178.893 136.031L176.848 137.423L174.716 136.031L173.095 137.423H167.288L163.806 133.013L167.288 128.371H201.64Z" fill="#FCC63A"/>
<path d="M194.211 132.641H169.376C169.29 132.641 169.207 132.607 169.147 132.546C169.086 132.486 169.052 132.403 169.052 132.317C169.052 132.231 169.086 132.149 169.147 132.088C169.207 132.027 169.29 131.993 169.376 131.993H194.211C194.297 131.993 194.38 132.027 194.44 132.088C194.501 132.149 194.535 132.231 194.535 132.317C194.535 132.403 194.501 132.486 194.44 132.546C194.38 132.607 194.297 132.641 194.211 132.641Z" fill="white"/>
<path d="M206.715 116.271C206.629 116.271 206.546 116.237 206.486 116.176C206.425 116.115 206.391 116.033 206.391 115.947V114.002C206.391 113.916 206.425 113.834 206.486 113.773C206.546 113.712 206.629 113.678 206.715 113.678C206.801 113.678 206.883 113.712 206.944 113.773C207.005 113.834 207.039 113.916 207.039 114.002V115.947C207.039 116.033 207.005 116.115 206.944 116.176C206.883 116.237 206.801 116.271 206.715 116.271ZM206.715 112.382C206.629 112.382 206.546 112.348 206.486 112.287C206.425 112.226 206.391 112.144 206.391 112.058V110.113C206.391 110.027 206.425 109.945 206.486 109.884C206.546 109.823 206.629 109.789 206.715 109.789C206.801 109.789 206.883 109.823 206.944 109.884C207.005 109.945 207.039 110.027 207.039 110.113V112.058C207.039 112.144 207.005 112.226 206.944 112.287C206.883 112.348 206.801 112.382 206.715 112.382ZM206.715 108.493C206.629 108.493 206.546 108.459 206.486 108.398C206.425 108.337 206.391 108.255 206.391 108.169V106.225C206.391 106.139 206.425 106.056 206.486 105.995C206.546 105.935 206.629 105.9 206.715 105.9C206.801 105.9 206.883 105.935 206.944 105.995C207.005 106.056 207.039 106.139 207.039 106.225V108.169C207.039 108.255 207.005 108.337 206.944 108.398C206.883 108.459 206.801 108.493 206.715 108.493ZM206.715 104.604C206.629 104.604 206.546 104.57 206.486 104.509C206.425 104.448 206.391 104.366 206.391 104.28V102.336C206.391 102.25 206.425 102.167 206.486 102.106C206.546 102.046 206.629 102.012 206.715 102.012C206.801 102.012 206.883 102.046 206.944 102.106C207.005 102.167 207.039 102.25 207.039 102.336V104.28C207.039 104.366 207.005 104.448 206.944 104.509C206.883 104.57 206.801 104.604 206.715 104.604ZM206.715 100.715C206.629 100.715 206.546 100.681 206.486 100.62C206.425 100.56 206.391 100.477 206.391 100.391V98.4467C206.391 98.3608 206.425 98.2784 206.486 98.2176C206.546 98.1568 206.629 98.1227 206.715 98.1227C206.801 98.1227 206.883 98.1568 206.944 98.2176C207.005 98.2784 207.039 98.3608 207.039 98.4467V100.391C207.039 100.477 207.005 100.56 206.944 100.62C206.883 100.681 206.801 100.715 206.715 100.715ZM206.715 96.8264C206.629 96.8264 206.546 96.7922 206.486 96.7314C206.425 96.6707 206.391 96.5882 206.391 96.5023V94.5578C206.391 94.4719 206.425 94.3895 206.486 94.3287C206.546 94.2679 206.629 94.2338 206.715 94.2338C206.801 94.2338 206.883 94.2679 206.944 94.3287C207.005 94.3895 207.039 94.4719 207.039 94.5578V96.5023C207.039 96.5882 207.005 96.6707 206.944 96.7314C206.883 96.7922 206.801 96.8264 206.715 96.8264ZM206.715 92.9375C206.629 92.9375 206.546 92.9033 206.486 92.8426C206.425 92.7818 206.391 92.6994 206.391 92.6134V90.669C206.391 90.583 206.425 90.5006 206.486 90.4398C206.546 90.379 206.629 90.3449 206.715 90.3449C206.801 90.3449 206.883 90.379 206.944 90.4398C207.005 90.5006 207.039 90.583 207.039 90.669V92.6134C207.039 92.6994 207.005 92.7818 206.944 92.8426C206.883 92.9033 206.801 92.9375 206.715 92.9375ZM206.715 89.0486C206.629 89.0486 206.546 89.0144 206.486 88.9537C206.425 88.8929 206.391 88.8105 206.391 88.7245V86.7801C206.391 86.6941 206.425 86.6117 206.486 86.5509C206.546 86.4901 206.629 86.456 206.715 86.456C206.801 86.456 206.883 86.4901 206.944 86.5509C207.005 86.6117 207.039 86.6941 207.039 86.7801V88.7245C207.039 88.8105 207.005 88.8929 206.944 88.9537C206.883 89.0144 206.801 89.0486 206.715 89.0486ZM206.715 85.1597C206.629 85.1597 206.546 85.1256 206.486 85.0648C206.425 85.004 206.391 84.9216 206.391 84.8356V82.8912C206.391 82.8052 206.425 82.7228 206.486 82.662C206.546 82.6013 206.629 82.5671 206.715 82.5671C206.801 82.5671 206.883 82.6013 206.944 82.662C207.005 82.7228 207.039 82.8052 207.039 82.8912V84.8356C207.039 84.9216 207.005 85.004 206.944 85.0648C206.883 85.1256 206.801 85.1597 206.715 85.1597ZM206.715 81.2708C206.629 81.2708 206.546 81.2367 206.486 81.1759C206.425 81.1151 206.391 81.0327 206.391 80.9467V79.0023C206.391 78.9163 206.425 78.8339 206.486 78.7731C206.546 78.7124 206.629 78.6782 206.715 78.6782C206.801 78.6782 206.883 78.7124 206.944 78.7731C207.005 78.8339 207.039 78.9163 207.039 79.0023V80.9467C207.039 81.0327 207.005 81.1151 206.944 81.1759C206.883 81.2367 206.801 81.2708 206.715 81.2708ZM206.715 77.3819C206.629 77.3819 206.546 77.3478 206.486 77.287C206.425 77.2262 206.391 77.1438 206.391 77.0578V75.1134C206.391 75.0275 206.425 74.945 206.486 74.8842C206.546 74.8235 206.629 74.7893 206.715 74.7893C206.801 74.7893 206.883 74.8235 206.944 74.8842C207.005 74.945 207.039 75.0275 207.039 75.1134V77.0578C207.039 77.1438 207.005 77.2262 206.944 77.287C206.883 77.3478 206.801 77.3819 206.715 77.3819ZM205.658 74.5495H203.714C203.628 74.5495 203.545 74.5154 203.485 74.4546C203.424 74.3938 203.39 74.3114 203.39 74.2254C203.39 74.1395 203.424 74.0571 203.485 73.9963C203.545 73.9355 203.628 73.9014 203.714 73.9014H205.658C205.744 73.9014 205.827 73.9355 205.887 73.9963C205.948 74.0571 205.982 74.1395 205.982 74.2254C205.982 74.3114 205.948 74.3938 205.887 74.4546C205.827 74.5154 205.744 74.5495 205.658 74.5495ZM201.769 74.5495H199.825C199.739 74.5495 199.657 74.5154 199.596 74.4546C199.535 74.3938 199.501 74.3114 199.501 74.2254C199.501 74.1395 199.535 74.0571 199.596 73.9963C199.657 73.9355 199.739 73.9014 199.825 73.9014H201.769C201.855 73.9014 201.938 73.9355 201.999 73.9963C202.059 74.0571 202.093 74.1395 202.093 74.2254C202.093 74.3114 202.059 74.3938 201.999 74.4546C201.938 74.5154 201.855 74.5495 201.769 74.5495ZM197.88 74.5495H195.936C195.85 74.5495 195.768 74.5154 195.707 74.4546C195.646 74.3938 195.612 74.3114 195.612 74.2254C195.612 74.1395 195.646 74.0571 195.707 73.9963C195.768 73.9355 195.85 73.9014 195.936 73.9014H197.88C197.966 73.9014 198.049 73.9355 198.11 73.9963C198.17 74.0571 198.205 74.1395 198.205 74.2254C198.205 74.3114 198.17 74.3938 198.11 74.4546C198.049 74.5154 197.966 74.5495 197.88 74.5495ZM193.992 74.5495H192.047C191.961 74.5495 191.879 74.5154 191.818 74.4546C191.757 74.3938 191.723 74.3114 191.723 74.2254C191.723 74.1395 191.757 74.0571 191.818 73.9963C191.879 73.9355 191.961 73.9014 192.047 73.9014H193.992C194.078 73.9014 194.16 73.9355 194.221 73.9963C194.282 74.0571 194.316 74.1395 194.316 74.2254C194.316 74.3114 194.282 74.3938 194.221 74.4546C194.16 74.5154 194.078 74.5495 193.992 74.5495ZM190.103 74.5495H188.158C188.072 74.5495 187.99 74.5154 187.929 74.4546C187.868 74.3938 187.834 74.3114 187.834 74.2254C187.834 74.1395 187.868 74.0571 187.929 73.9963C187.99 73.9355 188.072 73.9014 188.158 73.9014H190.103C190.189 73.9014 190.271 73.9355 190.332 73.9963C190.393 74.0571 190.427 74.1395 190.427 74.2254C190.427 74.3114 190.393 74.3938 190.332 74.4546C190.271 74.5154 190.189 74.5495 190.103 74.5495ZM186.214 74.5495H184.269C184.183 74.5495 184.101 74.5154 184.04 74.4546C183.979 74.3938 183.945 74.3114 183.945 74.2254C183.945 74.1395 183.979 74.0571 184.04 73.9963C184.101 73.9355 184.183 73.9014 184.269 73.9014H186.214C186.3 73.9014 186.382 73.9355 186.443 73.9963C186.504 74.0571 186.538 74.1395 186.538 74.2254C186.538 74.3114 186.504 74.3938 186.443 74.4546C186.382 74.5154 186.3 74.5495 186.214 74.5495Z" fill="#000091"/>
<path d="M175.305 23.3293C175.257 23.33 175.21 23.3202 175.166 23.3004C175.122 23.2806 175.084 23.2513 175.053 23.2147C175.022 23.1782 174.999 23.1352 174.987 23.0888C174.974 23.0425 174.972 22.994 174.981 22.9468L177.319 10.1135C177.335 10.0289 177.383 9.95372 177.454 9.90464C177.524 9.85557 177.611 9.83657 177.696 9.85182C177.781 9.86708 177.856 9.91534 177.905 9.98599C177.954 10.0566 177.973 10.1439 177.958 10.2286L175.623 23.0603C175.61 23.1353 175.571 23.2033 175.513 23.2525C175.455 23.3017 175.381 23.3288 175.305 23.3293ZM183.697 27.3008C183.635 27.3005 183.575 27.2827 183.523 27.2494C183.471 27.216 183.43 27.1686 183.404 27.1126C183.378 27.0567 183.369 26.9945 183.377 26.9334C183.386 26.8723 183.411 26.8148 183.451 26.7677L191.893 16.8218C191.949 16.7563 192.028 16.7156 192.114 16.7086C192.199 16.7016 192.284 16.7289 192.35 16.7846C192.415 16.8402 192.456 16.9196 192.463 17.0053C192.47 17.091 192.443 17.176 192.387 17.2415L183.943 27.1874C183.913 27.2229 183.875 27.2515 183.833 27.2711C183.79 27.2906 183.744 27.3008 183.697 27.3008ZM187.615 35.4253C187.548 35.4255 187.483 35.4049 187.428 35.3663C187.373 35.3277 187.331 35.273 187.309 35.2098C187.28 35.129 187.285 35.0402 187.322 34.9627C187.358 34.8853 187.424 34.8256 187.505 34.7966L201.155 29.9161C201.236 29.8873 201.325 29.8918 201.403 29.9288C201.48 29.9657 201.54 30.0319 201.569 30.1129C201.598 30.1939 201.593 30.2831 201.556 30.3607C201.519 30.4384 201.453 30.4981 201.372 30.5269C186.729 35.7624 187.701 35.4253 187.615 35.4253ZM80.5621 156.65C77.622 156.651 74.7328 155.882 72.1816 154.42C72.1447 154.399 72.1123 154.371 72.0863 154.337C72.0604 154.303 72.0413 154.265 72.0303 154.224C72.0192 154.182 72.0164 154.139 72.0219 154.097C72.0274 154.055 72.0412 154.014 72.0625 153.977C72.0838 153.94 72.1121 153.908 72.1459 153.882C72.1797 153.856 72.2183 153.837 72.2594 153.826C72.3006 153.815 72.3435 153.812 72.3857 153.818C72.428 153.823 72.4687 153.837 72.5057 153.858C76.0871 155.912 80.3165 156.523 84.3326 155.567C88.3488 154.612 91.8498 152.161 94.1226 148.715C96.3954 145.268 97.2691 141.085 96.5659 137.017C95.8626 132.949 93.6353 129.302 90.3374 126.819C87.0396 124.336 82.9192 123.203 78.8152 123.651C74.7113 124.099 70.9325 126.095 68.2483 129.231C65.5641 132.368 64.1764 136.409 64.3677 140.533C64.5589 144.657 66.3149 148.553 69.2779 151.428C69.3234 151.49 69.3451 151.567 69.339 151.644C69.333 151.721 69.2995 151.793 69.2447 151.848C69.1899 151.903 69.1174 151.936 69.0403 151.942C68.9632 151.947 68.8865 151.925 68.8242 151.88C66.022 149.157 64.2536 145.544 63.8219 141.661C63.3902 137.778 64.322 133.865 66.4577 130.593C68.5934 127.321 71.8002 124.893 75.5289 123.726C79.2577 122.558 83.2764 122.723 86.8968 124.193C90.5173 125.662 93.5143 128.344 95.3746 131.78C97.2349 135.216 97.8428 139.192 97.0943 143.027C96.3457 146.862 94.2871 150.317 91.2712 152.801C88.2552 155.285 84.4694 156.644 80.5621 156.644V156.65Z" fill="#CE0500"/>
<path d="M92.5663 146.711C91.3523 148.822 89.6033 150.575 87.4956 151.794C85.3879 153.014 82.9959 153.656 80.561 153.656C78.126 153.656 75.7341 153.014 73.6264 151.794C71.5187 150.575 69.7696 148.822 68.5557 146.711C69.7701 144.601 71.5192 142.848 73.6267 141.63C75.7342 140.411 78.1257 139.77 80.5602 139.77C82.9947 139.77 85.3862 140.411 87.4937 141.63C89.6012 142.848 91.3503 144.601 92.5647 146.711H92.5663Z" fill="#CE0500"/>
<path d="M80.5625 140.373C83.9085 140.373 86.621 137.66 86.621 134.314C86.621 130.968 83.9085 128.256 80.5625 128.256C77.2164 128.256 74.5039 130.968 74.5039 134.314C74.5039 137.66 77.2164 140.373 80.5625 140.373Z" fill="#CE0500"/>
<path d="M109.912 139.961H107.967C107.881 139.961 107.799 139.927 107.738 139.866C107.677 139.805 107.643 139.723 107.643 139.637C107.643 139.551 107.677 139.468 107.738 139.407C107.799 139.347 107.881 139.313 107.967 139.313H109.912C109.997 139.313 110.08 139.347 110.141 139.407C110.201 139.468 110.236 139.551 110.236 139.637C110.236 139.723 110.201 139.805 110.141 139.866C110.08 139.927 109.997 139.961 109.912 139.961ZM106.023 139.961H104.078C103.992 139.961 103.91 139.927 103.849 139.866C103.788 139.805 103.754 139.723 103.754 139.637C103.754 139.551 103.788 139.468 103.849 139.407C103.91 139.347 103.992 139.313 104.078 139.313H106.023C106.109 139.313 106.191 139.347 106.252 139.407C106.313 139.468 106.347 139.551 106.347 139.637C106.347 139.723 106.313 139.805 106.252 139.866C106.191 139.927 106.109 139.961 106.023 139.961ZM102.134 139.961H100.189C100.103 139.961 100.021 139.927 99.9602 139.866C99.8994 139.805 99.8652 139.723 99.8652 139.637C99.8652 139.551 99.8994 139.468 99.9602 139.407C100.021 139.347 100.103 139.313 100.189 139.313H102.134C102.22 139.313 102.302 139.347 102.363 139.407C102.424 139.468 102.458 139.551 102.458 139.637C102.458 139.723 102.424 139.805 102.363 139.866C102.302 139.927 102.22 139.961 102.134 139.961ZM111.532 139.637C111.446 139.637 111.364 139.603 111.303 139.542C111.242 139.481 111.208 139.399 111.208 139.313V137.368C111.208 137.282 111.242 137.2 111.303 137.139C111.364 137.078 111.446 137.044 111.532 137.044C111.618 137.044 111.7 137.078 111.761 137.139C111.822 137.2 111.856 137.282 111.856 137.368V139.313C111.856 139.399 111.822 139.481 111.761 139.542C111.7 139.603 111.618 139.637 111.532 139.637ZM111.532 135.748C111.446 135.748 111.364 135.714 111.303 135.653C111.242 135.592 111.208 135.51 111.208 135.424V133.479C111.208 133.393 111.242 133.311 111.303 133.25C111.364 133.189 111.446 133.155 111.532 133.155C111.618 133.155 111.7 133.189 111.761 133.25C111.822 133.311 111.856 133.393 111.856 133.479V135.424C111.856 135.51 111.822 135.592 111.761 135.653C111.7 135.714 111.618 135.748 111.532 135.748ZM111.532 131.859C111.446 131.859 111.364 131.825 111.303 131.764C111.242 131.703 111.208 131.621 111.208 131.535V129.59C111.208 129.504 111.242 129.422 111.303 129.361C111.364 129.3 111.446 129.266 111.532 129.266C111.618 129.266 111.7 129.3 111.761 129.361C111.822 129.422 111.856 129.504 111.856 129.59V131.535C111.856 131.621 111.822 131.703 111.761 131.764C111.7 131.825 111.618 131.859 111.532 131.859ZM111.532 127.97C111.446 127.97 111.364 127.936 111.303 127.875C111.242 127.814 111.208 127.732 111.208 127.646V125.701C111.208 125.616 111.242 125.533 111.303 125.472C111.364 125.412 111.446 125.377 111.532 125.377C111.618 125.377 111.7 125.412 111.761 125.472C111.822 125.533 111.856 125.616 111.856 125.701V127.646C111.856 127.732 111.822 127.814 111.761 127.875C111.7 127.936 111.618 127.97 111.532 127.97ZM111.532 124.081C111.446 124.081 111.364 124.047 111.303 123.986C111.242 123.925 111.208 123.843 111.208 123.757V121.813C111.208 121.727 111.242 121.644 111.303 121.583C111.364 121.523 111.446 121.488 111.532 121.488C111.618 121.488 111.7 121.523 111.761 121.583C111.822 121.644 111.856 121.727 111.856 121.813V123.757C111.856 123.843 111.822 123.925 111.761 123.986C111.7 124.047 111.618 124.081 111.532 124.081ZM111.532 120.192C111.446 120.192 111.364 120.158 111.303 120.097C111.242 120.037 111.208 119.954 111.208 119.868V117.924C111.208 117.838 111.242 117.755 111.303 117.695C111.364 117.634 111.446 117.6 111.532 117.6C111.618 117.6 111.7 117.634 111.761 117.695C111.822 117.755 111.856 117.838 111.856 117.924V119.868C111.856 119.954 111.822 120.037 111.761 120.097C111.7 120.158 111.618 120.192 111.532 120.192Z" fill="#000091"/>
</g>
<defs>
<clipPath id="clip0_505_8356">
<rect width="154" height="148" fill="white" transform="translate(63 9)"/>
</clipPath>
</defs>
</svg>
