<svg width="324" height="324" viewBox="0 0 324 324" fill="none" xmlns="http://www.w3.org/2000/svg">
<path d="M113.463 304.416C113.463 304.416 96.882 317.016 120.663 317.391C144.444 317.766 128.952 305.856 128.952 305.856M169.692 299.73C169.692 300.45 159.6 311.265 173.658 311.985C187.716 312.705 203.937 312.345 202.857 309.102C201.777 305.859 183.75 297.567 183.75 297.567" fill="#CE0500"/>
<path d="M184.473 293.247L184.338 293.421C182.238 296.178 178.734 297.621 174.222 297.621C171.522 297.621 169.239 297.138 166.803 296.472C164.064 288.9 157.38 237.87 156.36 229.8C148.845 214.77 144.246 203.316 143.76 202.059L143.391 201.87L143.421 201.468C142.038 214.323 133.956 289.668 131.862 302.268L131.562 302.394C125.808 304.818 116.103 304.794 110.958 300.831C114.783 220.572 108.339 196.353 108.144 168.165L108.954 168.465C121.23 172.911 156.765 172.185 169.233 167.64C172.182 180.801 177.585 205.317 179.805 218.64C181.155 226.74 181.383 231.636 182.145 247.866C182.784 263.319 184.47 293.217 184.473 293.247Z" fill="#000091"/>
<path d="M135.579 171.429C128.412 171.429 111.303 171.036 105.552 166.686C105.948 157.524 106.026 134.802 106.026 125.664C114.357 118.965 119.943 112.464 131.16 103.464C132.933 103.704 134.604 103.683 135.96 104.709C138.198 106.398 140.397 108.309 141.534 107.337C142.407 106.59 142.245 105.552 141.705 104.538L141 103.2L142.311 103.995C143.136 104.496 144.624 105.246 145.311 104.565C146.196 103.665 145.659 102.282 145.011 101.199L145.611 100.629C146.55 101.229 148.122 102.063 148.854 101.229C149.628 100.344 149.253 99.2311 148.623 98.2471L147.843 97.0471C148.992 97.5751 149.991 98.1361 150.879 98.0611C151.093 98.0468 151.301 97.9841 151.488 97.8778C151.674 97.7715 151.834 97.6243 151.955 97.4473C152.076 97.2702 152.156 97.068 152.188 96.8558C152.22 96.6436 152.203 96.4269 152.139 96.2221C151.575 93.8671 146.589 90.4771 142.197 88.3231C136.497 85.5211 124.098 91.2811 118.341 94.0891C109.773 98.2681 100.485 103.791 92.331 108.762C89.607 107.427 85.674 103.851 83.478 101.778C86.628 95.6731 92.178 87.1081 98.922 78.8551C104.88 71.5741 116.97 69.1141 126.291 69.4231C129.426 73.3471 135.393 78.9421 140.358 77.9011C143.658 77.2111 142.872 70.9711 142.683 69.7261L142.602 69.2101C151.446 69.7741 162.864 72.0811 170.184 77.0731C178.374 82.6561 181.722 86.7631 182.784 88.2721C182.862 88.3831 182.844 88.3381 182.859 88.4671C183.537 94.6711 184.242 101.397 185.745 107.196C184.5 110.121 181.362 113.016 178.5 114.6L178.365 114.579L178.317 114.699C177.567 115.071 176.142 115.722 175.395 115.299C173.853 114.399 169.245 110.595 167.868 109.446C167.721 109.323 167.745 109.353 167.739 109.311C167.667 109.839 171.864 136.14 170.169 167.166C163.317 170.682 143.73 171.429 135.579 171.429Z" fill="#FCC63A"/>
<path d="M105.552 167.28H105.525C105.446 167.277 105.369 167.258 105.297 167.224C105.226 167.191 105.162 167.144 105.109 167.085C105.055 167.027 105.014 166.959 104.987 166.885C104.96 166.811 104.948 166.732 104.952 166.653C105.42 156.219 105.426 131.106 105.426 130.854C105.426 130.695 105.489 130.542 105.602 130.43C105.714 130.317 105.867 130.254 106.026 130.254C106.185 130.254 106.338 130.317 106.45 130.43C106.563 130.542 106.626 130.695 106.626 130.854C106.626 131.106 106.626 156.246 106.152 166.707C106.145 166.861 106.079 167.007 105.967 167.114C105.855 167.221 105.707 167.28 105.552 167.28ZM170.163 167.757H170.13C169.972 167.748 169.824 167.676 169.718 167.558C169.613 167.44 169.558 167.285 169.566 167.127C171.792 127.17 164.19 90.9 164.1 90.534C164.069 90.3749 164.102 90.2099 164.193 90.0755C164.284 89.941 164.424 89.848 164.583 89.817C164.742 89.786 164.907 89.8194 165.042 89.91C165.176 90.0006 165.269 90.1409 165.3 90.3C165.375 90.663 173.01 127.086 170.775 167.205C170.763 167.358 170.693 167.5 170.579 167.603C170.465 167.705 170.316 167.761 170.163 167.757ZM179.073 84.9C178.967 84.901 178.862 84.8737 178.77 84.821C178.678 84.7683 178.601 84.692 178.548 84.6C178.548 84.6 177.126 82.29 169.848 77.565C164.448 74.064 157.332 72.165 152.31 71.181C149.093 70.5443 145.84 70.1084 142.569 69.876C142.41 69.8676 142.261 69.7964 142.154 69.678C142.047 69.5596 141.992 69.4036 142.001 69.2445C142.009 69.0854 142.08 68.9361 142.199 68.8295C142.317 68.7228 142.473 68.6676 142.632 68.676C143.331 68.712 159.876 69.663 170.502 76.554C178.14 81.507 179.55 83.907 179.607 84.009C179.685 84.1475 179.704 84.3112 179.662 84.4641C179.619 84.6171 179.517 84.7469 179.379 84.825C179.286 84.8768 179.18 84.9027 179.073 84.9Z" fill="#000091"/>
<path d="M77.979 25.3951C76.2487 23.0272 73.6635 21.4272 70.7725 20.9349C67.8814 20.4427 64.9123 21.097 62.496 22.7588C60.0796 24.4206 58.4063 26.959 57.8316 29.8348C57.2568 32.7106 57.8259 35.6971 59.418 38.1601L62.949 35.8921C62.4255 35.0784 62.0745 34.166 61.918 33.2113C61.7614 32.2565 61.8025 31.2798 62.0387 30.3416C62.275 29.4034 62.7013 28.5237 63.2914 27.7569C63.8814 26.9902 64.6226 26.3527 65.469 25.8841C66.9763 25.0671 68.727 24.8188 70.4021 25.1844C72.0772 25.5501 73.5652 26.5053 74.595 27.8761C75.4283 29.0051 75.9068 30.3567 75.9693 31.7586C76.0318 33.1605 75.6756 34.5493 74.946 35.7481C74.0531 37.2695 73.6019 39.0097 73.6433 40.7733C73.6846 42.537 74.2168 44.2541 75.18 45.7321L76.515 47.8141L80.043 45.5491L78.708 43.4671C78.1667 42.6511 77.8634 41.7004 77.8322 40.7217C77.8009 39.743 78.0429 38.7749 78.531 37.9261C79.6931 36.0184 80.2611 33.8081 80.1628 31.5765C80.0645 29.3449 79.3043 27.1931 77.979 25.3951ZM80.7 50.4571C80.1878 50.7861 79.7848 51.2596 79.5417 51.8176C79.2986 52.3757 79.2265 52.9933 79.3344 53.5924C79.4424 54.1915 79.7255 54.7451 80.148 55.1833C80.5706 55.6215 81.1136 55.9245 81.7083 56.0541C82.3031 56.1837 82.9229 56.1341 83.4894 55.9114C84.056 55.6888 84.5438 55.3032 84.8912 54.8033C85.2386 54.3035 85.43 53.7118 85.4411 53.1032C85.4523 52.4946 85.2828 51.8963 84.954 51.3841C84.7356 51.0438 84.4523 50.7499 84.1203 50.5192C83.7883 50.2884 83.4141 50.1254 83.019 50.0393C82.624 49.9532 82.2158 49.9458 81.8179 50.0175C81.42 50.0891 81.0401 50.2385 80.7 50.4571Z" fill="#CE0500"/>
<path d="M67.773 222.315C67.6547 222.315 67.5392 222.279 67.441 222.213C67.3428 222.147 67.2663 222.054 67.2211 221.944C67.1759 221.835 67.164 221.715 67.1869 221.599C67.2099 221.483 67.2666 221.376 67.35 221.292L79.758 208.884C79.872 208.78 80.0214 208.725 80.1754 208.728C80.3294 208.732 80.4761 208.794 80.5852 208.903C80.6943 209.012 80.7574 209.158 80.7615 209.312C80.7655 209.466 80.7102 209.616 80.607 209.73L68.196 222.141C68.0835 222.253 67.9315 222.315 67.773 222.315Z" fill="#FCC63A"/>
<path d="M80.1811 222.315C80.0226 222.315 79.8706 222.253 79.7581 222.141L67.3501 209.73C67.2518 209.615 67.2004 209.468 67.2063 209.317C67.2121 209.166 67.2747 209.022 67.3815 208.916C67.4884 208.809 67.6316 208.746 67.7827 208.74C67.9337 208.734 68.0813 208.786 68.1961 208.884L80.6071 221.292C80.6907 221.376 80.7475 221.483 80.7703 221.6C80.7932 221.716 80.781 221.836 80.7355 221.946C80.6899 222.055 80.6129 222.149 80.5142 222.214C80.4156 222.28 80.2996 222.315 80.1811 222.315ZM38.5291 100.05C36.9929 100.05 35.4913 99.5946 34.214 98.7411C32.9367 97.8877 31.9412 96.6747 31.3533 95.2554C30.7655 93.8362 30.6116 92.2745 30.9113 90.7679C31.211 89.2612 31.9508 87.8773 33.037 86.791C34.1232 85.7048 35.5072 84.965 37.0138 84.6654C38.5205 84.3657 40.0822 84.5195 41.5014 85.1073C42.9206 85.6952 44.1337 86.6907 44.9871 87.968C45.8406 89.2453 46.2961 90.7469 46.2961 92.2831C46.2929 94.3421 45.4736 96.3158 44.0177 97.7717C42.5618 99.2276 40.588 100.047 38.5291 100.05ZM38.5291 85.7161C37.2303 85.7161 35.9606 86.1013 34.8807 86.8229C33.8007 87.5444 32.959 88.5701 32.462 89.77C31.9649 90.97 31.8349 92.2904 32.0883 93.5643C32.3417 94.8381 32.9671 96.0083 33.8855 96.9267C34.8039 97.8451 35.9741 98.4705 37.2479 98.7239C38.5218 98.9773 39.8422 98.8473 41.0422 98.3502C42.2421 97.8532 43.2678 97.0115 43.9894 95.9315C44.7109 94.8516 45.0961 93.5819 45.0961 92.2831C45.0937 90.5422 44.4011 88.8732 43.17 87.6422C41.939 86.4111 40.27 85.7185 38.5291 85.7161ZM227.913 265.299H210.843C210.738 265.299 210.634 265.271 210.543 265.219C210.452 265.166 210.377 265.09 210.324 264.999C210.271 264.908 210.244 264.804 210.244 264.699C210.244 264.594 210.271 264.49 210.324 264.399L218.859 249.615C218.912 249.524 218.987 249.448 219.078 249.396C219.17 249.343 219.273 249.315 219.378 249.315C219.483 249.315 219.587 249.343 219.678 249.396C219.769 249.448 219.844 249.524 219.897 249.615L228.435 264.399C228.488 264.49 228.515 264.594 228.515 264.699C228.515 264.804 228.488 264.908 228.435 264.999C228.382 265.091 228.306 265.167 228.214 265.219C228.123 265.272 228.019 265.3 227.913 265.299ZM211.881 264.099H226.881L219.381 251.115L211.881 264.099Z" fill="#FCC63A"/>
<path d="M122.493 304.647C117.792 304.647 113.193 303.48 110.553 301.272C110.482 301.212 110.426 301.137 110.389 301.051C110.352 300.966 110.335 300.873 110.34 300.78C113.094 249.438 110.682 217.38 108.921 193.956C108.144 183.603 107.529 175.428 107.529 167.997C107.529 167.838 107.592 167.685 107.705 167.573C107.817 167.46 107.97 167.397 108.129 167.397C108.288 167.397 108.441 167.46 108.553 167.573C108.666 167.685 108.729 167.838 108.729 167.997C108.729 175.383 109.329 183.54 110.118 193.866C111.879 217.266 114.288 249.3 111.555 300.534C115.782 303.795 125.16 304.413 131.31 301.83C133.581 288.609 144.831 182.514 144.945 181.434C144.962 181.275 145.042 181.129 145.166 181.029C145.291 180.928 145.45 180.881 145.61 180.899C145.769 180.916 145.915 180.995 146.015 181.12C146.115 181.245 146.162 181.404 146.145 181.563C146.031 182.649 134.583 290.58 132.441 302.361C132.424 302.457 132.383 302.547 132.323 302.624C132.263 302.701 132.185 302.762 132.096 302.802C129.282 304.047 125.859 304.647 122.493 304.647Z" fill="#000091"/>
<path d="M171.347 40.239L172.982 39.8306L175.491 49.8752L173.855 50.2836L171.347 40.239Z" fill="#000091"/>
<path d="M176.635 48.7814L178.833 39.6553L180.472 40.05L178.274 49.1761L176.635 48.7814Z" fill="#000091"/>
<path d="M174.849 39.6733L176.535 39.6277L176.805 49.6291L175.12 49.6747L174.849 39.6733Z" fill="#000091"/>
<path d="M146.274 85.2026L149.964 75.5295L151.539 76.1304L147.85 85.8035L146.274 85.2026Z" fill="#000091"/>
<path d="M149.415 85.567L156.438 79.3396L157.557 80.6012L150.533 86.8286L149.415 85.567Z" fill="#000091"/>
<path d="M147.659 85.4254L153.159 77.068L154.568 77.9948L149.067 86.3523L147.659 85.4254Z" fill="#000091"/>
<path d="M176.007 116.034C175.687 116.043 175.37 115.966 175.089 115.812C174.958 115.729 174.865 115.599 174.828 115.448C174.791 115.298 174.814 115.139 174.891 115.005C174.969 114.871 175.095 114.773 175.244 114.729C175.392 114.686 175.552 114.702 175.689 114.774C175.854 114.87 176.289 114.876 177.036 114.612C179.511 113.712 183.936 110.259 185.202 106.848C185.226 106.77 185.266 106.698 185.319 106.636C185.372 106.574 185.438 106.523 185.511 106.487C185.584 106.451 185.664 106.431 185.746 106.427C185.827 106.423 185.909 106.435 185.985 106.464C186.062 106.493 186.132 106.537 186.191 106.593C186.25 106.65 186.296 106.718 186.328 106.793C186.36 106.868 186.376 106.949 186.375 107.031C186.374 107.113 186.357 107.193 186.324 107.268C184.905 111.054 180.192 114.753 177.441 115.74C176.983 115.919 176.498 116.018 176.007 116.034Z" fill="#000091"/>
<path d="M204.495 204.978C203.733 204.84 185.715 201.354 177.741 178.482C173.208 165.477 171.777 119.475 171.3 104.361C170.373 74.5231 170.271 46.7011 170.271 46.4251L182.271 46.3861C182.37 76.8931 183.771 159.381 189.063 174.531C194.64 190.53 206.193 193.08 206.682 193.182L206.61 193.167L204.495 204.978Z" fill="#18753C"/>
<path d="M126.402 46.2991L126.273 69.3991C126.273 69.3991 133.875 79.2271 140.337 77.8741C144.075 77.0881 142.59 69.2641 142.59 69.2641L141.549 58.5751L126.402 46.2991Z" fill="white"/>
<path d="M139.077 78.6001C132.711 78.6001 126.096 70.1521 125.796 69.7651C125.715 69.6591 125.672 69.5293 125.673 69.3961L125.703 63.8221C125.703 63.6629 125.766 63.5103 125.879 63.3978C125.991 63.2853 126.144 63.2221 126.303 63.2221C126.462 63.2221 126.615 63.2853 126.727 63.3978C126.84 63.5103 126.903 63.6629 126.903 63.8221L126.873 69.1801C127.878 70.4221 134.631 78.4501 140.214 77.2801C142.803 76.7371 142.38 71.3851 141.999 69.3691V69.3151L140.961 58.6261C140.945 58.4669 140.994 58.3082 141.095 58.1847C141.197 58.0612 141.343 57.9831 141.502 57.9676C141.662 57.9521 141.82 58.0004 141.944 58.1019C142.067 58.2035 142.145 58.3499 142.161 58.5091L143.199 69.1741C143.313 69.7921 144.66 77.5741 140.475 78.4531C140.015 78.5508 139.547 78.6001 139.077 78.6001Z" fill="#000091"/>
<path d="M134.178 59.6821C139.026 61.8331 144.483 62.6101 149.058 61.6051C159.168 59.3851 156.813 45.8521 156.054 37.2871C154.812 23.2561 144.528 20.1871 134.649 22.8871C124.77 25.5871 119.1 36.3271 121.974 46.9081C122.772 49.8361 124.434 52.4341 126.633 54.6181" fill="white"/>
<path d="M144.858 62.6401C141.091 62.6017 137.372 61.7846 133.935 60.2401C133.863 60.2082 133.798 60.1624 133.743 60.1053C133.689 60.0482 133.646 59.981 133.618 59.9075C133.59 59.8339 133.576 59.7555 133.578 59.6767C133.58 59.5979 133.597 59.5202 133.629 59.4481C133.661 59.376 133.707 59.3109 133.764 59.2565C133.821 59.2021 133.888 59.1595 133.962 59.1311C134.035 59.1027 134.114 59.089 134.192 59.0909C134.271 59.0928 134.349 59.1102 134.421 59.1421C139.278 61.2991 144.567 61.9861 148.932 61.0291C157.632 59.1211 156.549 48.3721 155.685 39.7291C155.604 38.9011 155.523 38.1031 155.457 37.3291C154.95 31.6021 152.907 27.4531 149.385 25.0021C145.707 22.4401 140.529 21.8881 134.805 23.4451C125.259 26.0431 119.763 36.4951 122.553 46.7431C123.291 49.4431 124.803 51.9481 127.053 54.1831C127.166 54.2953 127.23 54.4478 127.23 54.607C127.231 54.7662 127.168 54.9191 127.056 55.0321C126.944 55.1451 126.791 55.2089 126.632 55.2094C126.473 55.21 126.32 55.1473 126.207 55.0351C123.807 52.6501 122.184 49.9651 121.392 47.0581C118.431 36.1711 124.305 25.0591 134.487 22.2871C140.559 20.6341 146.091 21.2491 150.066 24.0181C153.894 26.6821 156.108 31.1251 156.648 37.2181C156.714 37.9741 156.795 38.7691 156.876 39.5911C157.74 48.2221 158.922 60.0391 149.184 62.1751C147.763 62.4862 146.313 62.6421 144.858 62.6401Z" fill="#000091"/>
<path d="M150.075 50.4811H149.775C149.696 50.4738 149.62 50.4511 149.55 50.4142C149.48 50.3773 149.418 50.327 149.367 50.2661C149.316 50.2053 149.278 50.135 149.255 50.0594C149.232 49.9839 149.223 49.9044 149.231 49.8256C149.238 49.7468 149.261 49.6702 149.297 49.6002C149.334 49.5302 149.385 49.4682 149.446 49.4176C149.506 49.367 149.577 49.329 149.652 49.3055C149.728 49.2821 149.807 49.2738 149.886 49.2811C150.216 49.3081 150.999 49.2511 151.158 48.9001C151.182 48.6181 150.387 47.6521 149.517 46.9321C149.399 46.8292 149.326 46.6844 149.314 46.5285C149.301 46.3727 149.35 46.218 149.45 46.0975C149.549 45.9771 149.692 45.9003 149.848 45.8836C150.003 45.8669 150.159 45.9116 150.282 46.0081C151.05 46.6411 152.778 48.2431 152.25 49.3981C151.821 50.3611 150.636 50.4811 150.075 50.4811ZM144.984 46.6111C144.842 46.6133 144.703 46.5647 144.593 46.474C144.483 46.3833 144.409 46.2564 144.384 46.1161L144.135 44.7031C144.108 44.5467 144.145 44.3861 144.236 44.2564C144.328 44.1267 144.467 44.0385 144.623 44.0112C144.779 43.9838 144.94 44.0194 145.07 44.1103C145.2 44.2012 145.289 44.3399 145.317 44.4961L145.566 45.9091C145.593 46.0658 145.557 46.2269 145.465 46.3568C145.373 46.4868 145.234 46.575 145.077 46.6021C145.046 46.6075 145.015 46.6105 144.984 46.6111ZM153.354 45.1441C153.212 45.1463 153.073 45.0977 152.963 45.007C152.853 44.9163 152.779 44.7894 152.754 44.6491L152.508 43.2361C152.494 43.1583 152.496 43.0786 152.513 43.0014C152.529 42.9242 152.561 42.8512 152.607 42.7864C152.652 42.7216 152.71 42.6664 152.776 42.624C152.843 42.5815 152.917 42.5527 152.995 42.539C153.073 42.5254 153.153 42.5273 153.23 42.5446C153.307 42.5618 153.38 42.5942 153.444 42.6397C153.509 42.6852 153.564 42.7431 153.606 42.8099C153.648 42.8767 153.677 42.9512 153.69 43.0291L153.936 44.4391C153.95 44.5167 153.948 44.5963 153.931 44.6733C153.914 44.7503 153.882 44.8232 153.837 44.8878C153.792 44.9525 153.735 45.0076 153.668 45.05C153.602 45.0924 153.528 45.1213 153.45 45.1351L153.354 45.1441ZM143.487 44.2531C143.405 44.2538 143.323 44.2374 143.247 44.2051C143.102 44.1396 142.99 44.0195 142.933 43.8711C142.877 43.7226 142.882 43.558 142.947 43.4131C143.144 42.9645 143.492 42.5989 143.93 42.3798C144.369 42.1606 144.87 42.1017 145.347 42.2131C145.5 42.2491 145.633 42.3437 145.717 42.4764C145.8 42.6092 145.829 42.7696 145.796 42.9231C145.763 43.0767 145.671 43.2112 145.54 43.2978C145.409 43.3843 145.249 43.416 145.095 43.3861C144.889 43.335 144.671 43.3585 144.481 43.4524C144.29 43.5463 144.139 43.7045 144.054 43.8991C144.005 44.0077 143.925 44.0993 143.824 44.1624C143.723 44.2254 143.606 44.257 143.487 44.2531ZM151.323 39.1681C151.165 39.1698 151.013 39.1095 150.9 39.0001C150.844 38.9444 150.8 38.8782 150.77 38.8054C150.74 38.7325 150.724 38.6545 150.724 38.5756C150.724 38.4968 150.74 38.4187 150.77 38.3458C150.8 38.273 150.844 38.2068 150.9 38.1511C151.253 37.8111 151.714 37.6051 152.202 37.569C152.691 37.5328 153.177 37.6687 153.576 37.9531C153.7 38.046 153.784 38.1835 153.809 38.3366C153.834 38.4898 153.799 38.6467 153.711 38.7744C153.623 38.9022 153.488 38.9908 153.336 39.0217C153.184 39.0526 153.026 39.0233 152.895 38.9401C152.723 38.816 152.513 38.7556 152.301 38.7693C152.089 38.783 151.889 38.8699 151.734 39.0151C151.621 39.1161 151.474 39.1708 151.323 39.1681ZM147.3 55.6741C147.185 55.6741 147.073 55.6412 146.976 55.5794C146.88 55.5175 146.803 55.4293 146.755 55.3251C146.707 55.2209 146.69 55.1052 146.706 54.9916C146.721 54.878 146.769 54.7713 146.844 54.6841C146.913 54.6061 148.515 52.7611 150.384 53.1211C150.54 53.1513 150.678 53.2424 150.767 53.3744C150.857 53.5063 150.89 53.6683 150.86 53.8246C150.829 53.9809 150.738 54.1189 150.606 54.208C150.474 54.2972 150.312 54.3303 150.156 54.3001C149.181 54.1111 148.092 55.0771 147.756 55.4671C147.699 55.5324 147.629 55.5847 147.551 55.6205C147.472 55.6562 147.386 55.6745 147.3 55.6741Z" fill="#000091"/>
<path d="M130.137 42.129C126.96 43.629 129.399 47.439 128.877 48.672C128.631 49.248 126.438 46.668 125.445 46.017C121.974 46.917 126.3 53.934 126.3 60.312C124.134 60.471 106.263 43.674 113.4 36.072C107.46 31.638 111.399 22.353 117.438 23.838C113.757 16.236 122.862 10.773 128.007 16.236C126.663 8.241 138.045 6.438 140.184 12.378C139.35 6.795 149.676 2.937 152.298 12.078C154.494 19.737 154.554 25.083 155.208 32.229C153.009 30.369 150.072 34.152 146.835 35.001C137.835 37.359 135.216 32.946 132.165 36.663C130.98 38.1 133.431 40.584 130.137 42.129Z" fill="#000091"/>
<path d="M126.3 60.9001C124.122 60.9001 115.821 52.8391 112.671 46.2511C110.679 42.0781 110.64 38.6011 112.548 36.1411C109.47 33.4831 109.338 29.6341 110.637 26.8831C111.837 24.3541 114.045 22.9441 116.478 23.0761C115.071 19.1761 116.868 16.1521 118.983 14.6971C120.208 13.8469 121.667 13.3995 123.158 13.4173C124.649 13.435 126.098 13.917 127.302 14.7961C127.362 11.1961 130.002 9.17706 132.492 8.52606C134.093 8.09407 135.789 8.17273 137.343 8.75106C138.261 9.09862 139.08 9.66622 139.728 10.4041C140.346 8.23806 142.428 6.62406 144.63 6.14706C147.495 5.52606 151.377 6.66006 152.88 11.9041C154.68 18.1861 155.055 22.8811 155.49 28.3201C155.586 29.5531 155.688 30.8311 155.811 32.1661C155.834 32.2914 155.816 32.4205 155.76 32.535C155.704 32.6494 155.613 32.7431 155.501 32.8025C155.388 32.862 155.26 32.8841 155.134 32.8657C155.008 32.8473 154.891 32.7893 154.8 32.7001C153.813 31.8631 152.574 32.5621 150.633 33.7741C149.472 34.5001 148.272 35.2501 146.964 35.5921C142.464 36.7741 139.485 36.3001 137.316 35.9551C135.078 35.5951 133.953 35.4151 132.609 37.0561C132.333 37.3921 132.372 37.8631 132.459 38.6071C132.603 39.8461 132.801 41.5441 130.38 42.6811C128.775 43.4341 128.931 44.8381 129.324 46.7341C129.504 47.6011 129.657 48.3481 129.417 48.9151C129.371 49.0243 129.3 49.1207 129.208 49.196C129.117 49.2713 129.008 49.3231 128.892 49.3471C128.316 49.4671 127.74 48.9421 126.492 47.7451C126.081 47.3551 125.661 46.9501 125.34 46.6951C125.159 46.773 125.008 46.9064 124.908 47.0761C124.368 47.9911 124.947 50.2021 125.562 52.5421C126.186 54.9421 126.897 57.6421 126.897 60.3211C126.898 60.4727 126.841 60.6189 126.738 60.7302C126.635 60.8415 126.493 60.9097 126.342 60.9211L126.3 60.9001ZM116.145 24.2791C113.985 24.2791 112.434 25.8661 111.708 27.4081C110.55 29.8591 110.733 33.3391 113.748 35.5921C113.816 35.6422 113.872 35.7061 113.913 35.7795C113.955 35.8529 113.98 35.9342 113.988 36.0181C113.996 36.1024 113.986 36.1874 113.958 36.2676C113.931 36.3477 113.887 36.4212 113.829 36.4831C112.068 38.3611 111.849 41.0431 113.181 44.4571C115.764 51.0871 123.27 58.0651 125.676 59.4571C125.547 57.1921 124.944 54.8911 124.404 52.8301C123.666 50.0191 123.084 47.7991 123.876 46.4521C124.031 46.1943 124.237 45.9708 124.481 45.7949C124.725 45.6191 125.002 45.4946 125.295 45.4291C125.376 45.4083 125.461 45.4047 125.544 45.4187C125.626 45.4326 125.705 45.4638 125.775 45.5101C126.325 45.9202 126.843 46.3726 127.323 46.8631C127.623 47.1421 127.998 47.5051 128.313 47.7781C128.277 47.5201 128.214 47.2261 128.16 46.9621C127.815 45.3031 127.296 42.7951 129.882 41.5801C131.52 40.8121 131.415 39.8941 131.277 38.7301C131.184 37.9321 131.079 37.0261 131.694 36.2791C133.473 34.1071 135.258 34.3921 137.517 34.7551C139.581 35.0821 142.407 35.5351 146.673 34.4161C147.801 34.1161 148.926 33.4201 150.009 32.7421C151.509 31.7971 153.075 30.8281 154.509 31.1941C154.428 30.2401 154.356 29.3191 154.284 28.4191C153.855 23.0461 153.486 18.4081 151.719 12.2401C150.438 7.80006 147.342 6.79506 144.87 7.33206C142.563 7.83006 140.4 9.82206 140.766 12.3001C140.792 12.4487 140.761 12.6017 140.68 12.7286C140.598 12.8555 140.472 12.947 140.326 12.9849C140.18 13.0227 140.025 13.0041 139.892 12.9328C139.759 12.8615 139.657 12.7427 139.608 12.6001C138.612 9.83106 135.348 9.04806 132.783 9.72006C130.341 10.3591 127.956 12.3871 128.583 16.1581C128.604 16.2851 128.584 16.4156 128.525 16.5301C128.466 16.6446 128.372 16.7372 128.256 16.7941C128.141 16.8509 128.011 16.8694 127.884 16.8467C127.758 16.824 127.642 16.7614 127.554 16.6681C126.578 15.5715 125.235 14.8696 123.777 14.6945C122.32 14.5193 120.848 14.883 119.64 15.7171C116.598 17.8171 116.832 21.2731 117.96 23.5981C118.002 23.6976 118.016 23.8066 118.001 23.9134C117.986 24.0203 117.942 24.1211 117.874 24.2052C117.807 24.2894 117.718 24.3537 117.617 24.3916C117.516 24.4294 117.406 24.4392 117.3 24.4201C116.922 24.3267 116.534 24.2794 116.145 24.2791Z" fill="#000091"/>
<path d="M127.152 54.7081C123.675 59.1151 118.26 56.3041 116.85 51.1081C116.031 48.1081 118.209 44.6551 121.35 44.7301C122.802 44.8071 124.212 45.2453 125.451 46.0051" fill="white"/>
<path d="M123.114 57.4921C122.752 57.4919 122.391 57.4547 122.037 57.3811C119.397 56.8441 117.135 54.4471 116.271 51.2791C116.046 50.3936 116.027 49.4684 116.214 48.5741C116.401 47.6799 116.79 46.8402 117.351 46.1191C117.817 45.4982 118.423 44.9957 119.119 44.6522C119.815 44.3088 120.583 44.134 121.359 44.1421C122.914 44.2229 124.425 44.69 125.754 45.5011C125.822 45.5415 125.881 45.5948 125.928 45.6581C125.975 45.7213 126.009 45.7932 126.029 45.8697C126.048 45.9462 126.052 46.0257 126.041 46.1037C126.03 46.1818 126.003 46.2569 125.962 46.3246C125.922 46.3924 125.869 46.4515 125.806 46.4987C125.742 46.5458 125.67 46.5801 125.594 46.5994C125.439 46.6385 125.276 46.6147 125.139 46.5331C123.989 45.8226 122.679 45.4102 121.329 45.3331C120.739 45.3256 120.156 45.4591 119.629 45.7227C119.101 45.9862 118.644 46.3721 118.296 46.8481C117.847 47.4209 117.536 48.0889 117.385 48.8009C117.235 49.5129 117.25 50.2498 117.429 50.9551C118.161 53.6551 120.111 55.7551 122.277 56.1961C123.903 56.5291 125.466 55.8661 126.681 54.3271C126.73 54.2653 126.79 54.2136 126.859 54.1752C126.928 54.1367 127.004 54.1122 127.082 54.103C127.16 54.0938 127.24 54.1001 127.315 54.1216C127.391 54.1431 127.462 54.1793 127.524 54.2281C127.586 54.277 127.637 54.3375 127.676 54.4063C127.714 54.4751 127.739 54.5508 127.748 54.6291C127.757 54.7074 127.751 54.7867 127.729 54.8626C127.708 54.9384 127.672 55.0093 127.623 55.0711C126.375 56.6611 124.8 57.4921 123.114 57.4921Z" fill="#000091"/>
<path d="M124.14 53.9461C124.047 53.946 123.956 53.9244 123.873 53.8831C122.274 53.0851 122.004 51.9691 122.286 51.1831C122.547 50.4601 123.264 50.0041 124.134 49.9411C124.024 49.5826 123.808 49.2655 123.516 49.0307C123.223 48.7959 122.867 48.6543 122.493 48.6241C121.275 48.4981 120.012 49.2721 119.877 49.6261C119.849 49.6998 119.806 49.7672 119.752 49.8245C119.698 49.8817 119.633 49.9278 119.561 49.96C119.489 49.9921 119.411 50.0098 119.333 50.012C119.254 50.0142 119.175 50.0008 119.102 49.9726C119.028 49.9444 118.96 49.902 118.903 49.8478C118.846 49.7936 118.8 49.7286 118.768 49.6566C118.736 49.5846 118.718 49.507 118.716 49.4281C118.714 49.3493 118.727 49.2708 118.755 49.1971C119.157 48.1471 121.068 47.2711 122.616 47.4301C123.516 47.5231 125.115 48.0481 125.514 50.5051C125.53 50.6025 125.522 50.7022 125.49 50.7956C125.458 50.889 125.404 50.973 125.332 51.0404C125.259 51.1077 125.172 51.1562 125.077 51.1817C124.981 51.2071 124.881 51.2086 124.785 51.1861C124.053 51.0151 123.531 51.2671 123.414 51.5881C123.297 51.9091 123.57 52.3861 124.407 52.8031C124.528 52.8634 124.625 52.9628 124.683 53.0851C124.74 53.2075 124.754 53.3457 124.724 53.4773C124.693 53.6089 124.618 53.7262 124.512 53.8102C124.406 53.8942 124.275 53.94 124.14 53.9401V53.9461Z" fill="#000091"/>
<path d="M19.518 311.472C17.229 311.472 15.849 311.403 15.618 311.391L16.284 299.4L15.96 305.4L16.278 299.4C16.482 299.4 36.888 300.39 58.11 293.541C85.461 284.724 101.4 267.498 105.435 242.346C108.468 223.503 107.262 207.882 106.092 192.771C105.096 179.892 104.154 167.724 105.696 154.125C108.855 126.276 134.151 93.9001 142.464 83.2561C143.403 82.0561 144.291 80.9191 144.564 80.5291L154.437 87.3481C153.966 88.0291 153.198 89.0131 151.923 90.6481C144.123 100.629 120.399 131.001 117.624 155.481C116.211 167.946 117.108 179.559 118.059 191.853C119.283 207.663 120.546 224.01 117.285 244.26C112.5 273.9 93.204 294.942 61.455 305.079C43.689 310.752 26.889 311.472 19.518 311.472Z" fill="#18753C"/>
<path d="M151.89 97.479C150.798 98.934 148.206 97.26 146.721 96.099C146.16 95.58 145.71 95.235 145.635 95.181C145.701 95.241 146.118 95.628 146.721 96.099C148.11 97.371 150.174 99.699 148.821 101.22C147.468 102.741 143.217 98.82 142.8 98.421C143.202 98.823 147.06 102.768 145.284 104.553C144.084 105.771 140.433 102.684 139.584 101.928C140.376 102.663 143.436 105.711 141.534 107.343C140.406 108.309 138.315 106.494 135.96 104.715C134.796 103.839 133.56 103.734 131.16 103.476C118.737 113.403 112.92 120.639 103.215 127.836C94.1521 134.559 84.4141 134.892 80.1391 128.121C74.6521 119.421 84.2551 106.86 84.2551 106.86L86.0761 104.235C87.2761 105.099 90.0661 107.613 92.2051 108.804C109.143 98.469 133.626 84.102 142.182 88.299C147.561 90.939 153.555 95.259 151.89 97.479Z" fill="white"/>
<path d="M146.721 96.099C146.121 95.628 145.701 95.241 145.635 95.181C145.71 95.235 146.16 95.58 146.721 96.099Z" fill="white"/>
<path d="M92.3671 109.362C92.2845 109.361 92.2029 109.344 92.1271 109.311C89.0641 107.976 83.2891 102.411 83.0431 102.186C82.9514 102.097 82.8903 101.982 82.8688 101.856C82.8472 101.731 82.8662 101.601 82.9231 101.487C82.9741 101.385 88.1221 91.0561 98.4361 78.4501C104.508 71.0311 115.596 69.2701 121.665 68.8801C121.744 68.8752 121.823 68.8858 121.898 68.9114C121.972 68.937 122.041 68.9771 122.1 69.0293C122.16 69.0815 122.208 69.1449 122.243 69.2158C122.277 69.2867 122.298 69.3638 122.303 69.4426C122.308 69.5214 122.297 69.6004 122.271 69.675C122.246 69.7497 122.206 69.8186 122.153 69.8778C122.101 69.937 122.038 69.9853 121.967 70.0201C121.896 70.0548 121.819 70.0752 121.74 70.0801C115.866 70.4581 105.147 72.1441 99.3631 79.2121C90.2641 90.3361 85.2331 99.6421 84.1981 101.631C85.4611 102.831 90.1321 107.136 92.5981 108.213C92.7257 108.267 92.8306 108.364 92.8948 108.487C92.959 108.61 92.9787 108.752 92.9504 108.887C92.9221 109.023 92.8476 109.145 92.7396 109.232C92.6316 109.319 92.4968 109.366 92.3581 109.365L92.3671 109.362Z" fill="#000091"/>
<path d="M89.589 133.641C88.7307 133.644 87.874 133.567 87.03 133.41C85.5152 133.151 84.0724 132.575 82.7963 131.719C81.5202 130.862 80.4398 129.746 79.626 128.442C77.277 124.719 77.259 119.727 79.578 114.006C80.6716 111.346 82.0817 108.828 83.778 106.506C83.8259 106.443 83.8856 106.391 83.9538 106.351C84.022 106.312 84.0973 106.286 84.1755 106.276C84.2536 106.265 84.333 106.27 84.4092 106.29C84.4854 106.311 84.5569 106.346 84.6195 106.394C84.6822 106.441 84.7348 106.501 84.7743 106.569C84.8139 106.638 84.8396 106.713 84.8501 106.791C84.8605 106.869 84.8555 106.949 84.8352 107.025C84.815 107.101 84.7799 107.172 84.732 107.235C84.639 107.355 75.432 119.577 80.643 127.809C81.3692 128.971 82.3325 129.966 83.4698 130.729C84.6072 131.493 85.893 132.008 87.243 132.24C91.827 133.095 97.512 131.319 102.843 127.365C107.796 123.69 111.819 119.925 116.079 115.938C120.123 112.155 124.704 107.865 130.779 103.014C130.904 102.915 131.062 102.87 131.22 102.888L131.436 102.909C133.779 103.158 135.069 103.296 136.329 104.247L137.07 104.811C138.684 106.047 140.511 107.445 141.15 106.911C141.278 106.81 141.381 106.68 141.452 106.532C141.522 106.385 141.557 106.223 141.555 106.059C141.555 104.877 140.109 103.263 139.293 102.489C139.182 102.39 139.086 102.303 138.993 102.225C138.877 102.119 138.808 101.971 138.8 101.814C138.792 101.657 138.847 101.503 138.951 101.385C139.056 101.268 139.203 101.196 139.36 101.186C139.517 101.176 139.672 101.228 139.791 101.331L140.091 101.595C141.984 103.272 144.342 104.682 144.864 104.151C144.966 104.052 145.045 103.932 145.097 103.799C145.148 103.667 145.171 103.525 145.164 103.383C145.164 101.883 143.139 99.5971 142.365 98.8411C142.25 98.7305 142.185 98.5789 142.182 98.4197C142.179 98.2605 142.239 98.1067 142.35 97.9921C142.461 97.8775 142.612 97.8116 142.771 97.8088C142.931 97.8059 143.084 97.8665 143.199 97.9771C144.447 99.1771 146.868 101.043 148.035 100.992C148.101 100.995 148.166 100.984 148.227 100.958C148.288 100.933 148.342 100.894 148.386 100.845C148.496 100.725 148.577 100.582 148.625 100.426C148.674 100.271 148.687 100.106 148.665 99.9451C148.554 98.8891 147.408 97.5811 146.415 96.6451C145.788 96.1561 145.338 95.7451 145.215 95.6281C145.101 95.5236 145.032 95.3792 145.022 95.225C145.012 95.0708 145.062 94.9187 145.161 94.8003C145.261 94.682 145.402 94.6066 145.556 94.5898C145.709 94.573 145.863 94.6161 145.986 94.7101C146.41 95.0324 146.818 95.3758 147.207 95.7391C148.323 96.5971 149.826 97.5391 150.807 97.4611C150.925 97.4562 151.04 97.4248 151.144 97.3692C151.248 97.3136 151.338 97.2353 151.407 97.1401C151.489 97.0298 151.544 96.9013 151.566 96.7655C151.587 96.6297 151.576 96.4907 151.533 96.3601C151.095 94.5331 147.051 91.3771 141.912 88.8601C133.044 84.5101 105.474 101.397 89.004 111.486L86.304 113.136C86.2368 113.179 86.1618 113.208 86.0834 113.221C86.0049 113.234 85.9246 113.232 85.8471 113.214C85.7696 113.196 85.6964 113.163 85.6319 113.116C85.5673 113.07 85.5127 113.011 85.4711 112.943C85.4295 112.875 85.4018 112.8 85.3897 112.721C85.3775 112.642 85.3811 112.562 85.4003 112.485C85.4195 112.408 85.4538 112.335 85.5013 112.271C85.5488 112.207 85.6085 112.154 85.677 112.113L88.377 110.463C106.137 99.5851 132.978 83.1421 142.44 87.7831C145.923 89.4901 152.001 93.1591 152.7 96.0811C152.783 96.3839 152.797 96.7017 152.739 97.0105C152.681 97.3192 152.554 97.6108 152.367 97.8631C152.196 98.0932 151.977 98.2837 151.725 98.4214C151.474 98.5591 151.195 98.6409 150.909 98.6611C150.393 98.6801 149.879 98.5912 149.4 98.4001C149.643 98.8354 149.802 99.3128 149.868 99.8071C149.907 100.134 149.877 100.466 149.779 100.78C149.68 101.095 149.517 101.385 149.298 101.631C149.147 101.801 148.962 101.937 148.756 102.032C148.549 102.127 148.325 102.179 148.098 102.183C147.429 102.213 146.634 101.91 145.851 101.475C146.162 102.06 146.341 102.706 146.373 103.368C146.384 103.668 146.332 103.967 146.222 104.246C146.112 104.525 145.946 104.779 145.734 104.991C144.972 105.759 143.733 105.456 142.503 104.805C142.67 105.202 142.761 105.626 142.77 106.056C142.771 106.392 142.698 106.724 142.555 107.028C142.412 107.332 142.204 107.6 141.945 107.814C140.571 108.996 138.618 107.499 136.356 105.771C136.113 105.585 135.87 105.396 135.621 105.21C134.631 104.463 133.521 104.343 131.352 104.112C125.4 108.855 120.9 113.076 116.907 116.805C112.623 120.816 108.576 124.605 103.569 128.319C98.91 131.775 93.951 133.641 89.589 133.641Z" fill="#000091"/>
<path d="M222.015 195.153L234.015 197.58C234.486 197.676 234.901 197.954 235.166 198.355C235.432 198.756 235.528 199.246 235.433 199.718C235.337 200.189 235.058 200.603 234.657 200.869C234.256 201.135 233.766 201.231 233.295 201.135L221.295 198.708L222.015 195.153ZM219.726 206.475L231.726 208.902C231.959 208.949 232.181 209.042 232.378 209.174C232.576 209.307 232.745 209.478 232.877 209.676C233.008 209.874 233.1 210.096 233.146 210.33C233.191 210.563 233.191 210.803 233.144 211.037C233.096 211.27 233.004 211.491 232.871 211.689C232.738 211.886 232.568 212.056 232.37 212.187C232.172 212.319 231.949 212.41 231.716 212.456C231.482 212.502 231.242 212.501 231.009 212.454L219.009 210.027L219.726 206.475Z" fill="#FCC63A"/>
<path d="M210.114 189.863L224.946 192.859L220.826 213.258L205.993 210.262C204.517 209.964 203.22 209.091 202.387 207.837C201.554 206.582 201.253 205.048 201.551 203.571L203.422 194.308C203.57 193.577 203.86 192.882 204.276 192.263C204.692 191.643 205.226 191.112 205.847 190.699C206.469 190.287 207.165 190 207.898 189.857C208.63 189.713 209.383 189.715 210.114 189.863Z" fill="#CE0500"/>
<path d="M183.132 54.441C178.539 52.5031 169.155 52.8181 168.996 55.5901C168.891 57.3901 171.933 57.795 173.82 57.87C174.663 57.831 175.272 57.87 175.272 57.87C175.272 57.87 174.672 57.903 173.82 57.87C171.933 57.948 168.882 58.395 168.918 60.42C168.954 62.445 174.534 62.205 175.287 62.169C174.555 62.235 169.287 62.787 169.473 65.25C169.608 66.912 174.126 66.945 175.422 66.924C174.198 66.993 170.151 67.401 170.541 69.804C170.778 71.268 172.809 71.391 174.321 71.391C175.779 71.391 178.389 73.752 180.972 73.545C183 86.7 183.336 98.1 185.745 107.268L183.57 110.526C183.57 110.526 183.399 119.226 183.87 119.598C189.252 123.594 194.394 124.641 199.371 122.064C215.535 113.7 192.948 58.5931 183.132 54.441Z" fill="white"/>
<path d="M175.272 57.8671C175.272 57.8671 174.672 57.9001 173.82 57.8671C174.663 57.8311 175.272 57.8671 175.272 57.8671Z" fill="white"/>
<path d="M220.632 189.879L225.354 190.833L220.416 215.281L215.693 214.327L220.632 189.879Z" fill="#CE0500"/>
<path d="M193.815 124.077C190.545 124.077 187.14 122.748 183.522 120.078C183.399 119.982 183.319 119.842 183.298 119.687C183.277 119.533 183.316 119.376 183.409 119.25C183.501 119.125 183.639 119.04 183.793 119.014C183.947 118.988 184.105 119.023 184.233 119.112C189.654 123.111 194.52 123.912 199.107 121.53C202.923 119.553 204.705 114.657 204.405 106.98C204.069 98.3221 200.898 86.3011 195.921 74.8231C191.376 64.3231 186.141 56.3641 182.898 54.9931C179.172 53.4211 171.924 53.4271 169.971 54.9931C169.572 55.3141 169.563 55.5751 169.599 55.7671C169.602 55.791 169.602 55.8151 169.599 55.8391C169.617 55.9098 169.643 55.9783 169.677 56.0431C169.679 56.052 169.679 56.0611 169.677 56.0701C170.058 56.7511 171.75 57.1561 173.538 57.2701C173.627 57.2655 173.716 57.2655 173.805 57.2701C174.132 57.2491 174.9 57.2491 175.284 57.2701C175.443 57.2701 175.596 57.3333 175.708 57.4458C175.821 57.5583 175.884 57.7109 175.884 57.8701C175.884 58.0292 175.821 58.1818 175.708 58.2943C175.596 58.4068 175.443 58.4701 175.284 58.4701C175.212 58.4701 174.612 58.5031 173.784 58.4701H173.7C173.001 58.4701 170.373 58.7521 169.71 59.7751C169.676 59.8291 169.646 59.8852 169.62 59.9431C169.523 60.1388 169.505 60.3643 169.569 60.5731C169.744 60.826 170.002 61.0097 170.298 61.0921C170.911 61.3104 171.551 61.4476 172.2 61.5001C173.212 61.598 174.229 61.6241 175.245 61.5781H175.302C175.461 61.5781 175.614 61.6413 175.726 61.7538C175.839 61.8663 175.902 62.0189 175.902 62.1781C175.902 62.3372 175.839 62.4898 175.726 62.6023C175.614 62.7148 175.461 62.7781 175.302 62.7781C174.226 62.8274 173.149 62.8003 172.077 62.6971C171.32 62.63 170.575 62.4667 169.86 62.2111C169.564 62.124 169.288 61.9779 169.05 61.7814C168.812 61.585 168.616 61.3423 168.474 61.0681C168.373 60.8186 168.323 60.5512 168.328 60.282C168.334 60.0128 168.393 59.7475 168.504 59.5021C168.558 59.363 168.628 59.231 168.714 59.1091C169.122 58.5522 169.69 58.1334 170.343 57.9091C169.608 57.6391 168.993 57.2491 168.675 56.6881C168.428 56.2617 168.348 55.7588 168.452 55.277C168.555 54.7952 168.833 54.369 169.233 54.0811C171.717 52.0801 179.556 52.2811 183.378 53.9041C190.989 57.1231 204.876 87.8041 205.62 106.947C205.938 115.131 203.937 120.402 199.674 122.613C197.869 123.569 195.858 124.071 193.815 124.077Z" fill="#000091"/>
<path d="M174.9 67.5241C174.42 67.5241 173.88 67.5241 173.451 67.4761C170.481 67.2871 168.981 66.5761 168.873 65.3011C168.657 62.6341 172.812 61.8151 175.311 61.5661C175.47 61.5506 175.629 61.5989 175.752 61.7005C175.876 61.802 175.954 61.9484 175.97 62.1076C175.985 62.2667 175.937 62.4255 175.835 62.549C175.734 62.6725 175.587 62.7506 175.428 62.7661C172.887 63.0211 169.956 63.8131 170.07 65.2081C170.097 65.5261 170.859 66.1081 173.538 66.2851C174.231 66.3451 175.257 66.3301 175.668 66.3211H175.713C175.872 66.3211 176.025 66.3843 176.137 66.4968C176.25 66.6093 176.313 66.762 176.313 66.9211C176.313 67.0802 176.25 67.2328 176.137 67.3453C176.025 67.4579 175.872 67.5211 175.713 67.5211C175.5 67.5211 175.2 67.5241 174.9 67.5241Z" fill="#000091"/>
<path d="M186.615 110.787C186.489 110.787 186.367 110.748 186.264 110.675C186.162 110.602 186.085 110.498 186.045 110.379C183.945 104.103 183.15 96.8581 182.235 88.4791C181.74 83.9371 181.227 79.2451 180.456 74.1661C178.956 74.1091 177.531 73.3861 176.349 72.7921C175.542 72.3871 174.777 72.0031 174.321 72.0031C173.121 72.0031 169.914 72.0031 169.914 69.4981C169.914 68.5621 170.487 67.7371 171.489 67.2361C172.569 66.6361 174.489 66.3361 175.767 66.3361C175.926 66.3361 176.079 66.3993 176.191 66.5118C176.304 66.6243 176.367 66.7769 176.367 66.9361C176.367 67.0952 176.304 67.2478 176.191 67.3603C176.079 67.4728 175.926 67.5361 175.767 67.5361C174.66 67.5361 172.923 67.8361 172.044 68.3131C171.684 68.4931 171.114 68.8741 171.114 69.5131C171.114 70.4401 172.041 70.8181 174.321 70.8181C175.062 70.8181 175.908 71.2441 176.889 71.7361C178.146 72.3661 179.568 73.0831 180.924 72.9751C181.074 72.9634 181.224 73.0088 181.342 73.1022C181.46 73.1956 181.539 73.3301 181.563 73.4791C182.382 78.7861 182.913 83.6551 183.429 88.3621C184.329 96.6841 185.121 103.872 187.182 110.022C187.207 110.097 187.218 110.176 187.213 110.255C187.207 110.334 187.187 110.411 187.151 110.482C187.116 110.552 187.068 110.616 187.008 110.667C186.948 110.719 186.879 110.759 186.804 110.784C186.742 110.795 186.678 110.796 186.615 110.787Z" fill="#000091"/>
<path d="M173.013 37.5001C172.932 37.4998 172.852 37.4832 172.778 37.4512C172.704 37.4192 172.637 37.3726 172.581 37.3141L167.67 32.1721C167.602 32.101 167.553 32.0144 167.526 31.9197C167.5 31.8251 167.497 31.7254 167.518 31.6295C167.539 31.5335 167.583 31.4441 167.647 31.3693C167.711 31.2944 167.792 31.2363 167.883 31.2001L172.17 29.4901L168.948 24.5641C168.861 24.4308 168.83 24.2684 168.863 24.1126C168.896 23.9567 168.989 23.8202 169.122 23.7331C169.255 23.646 169.418 23.6154 169.574 23.648C169.729 23.6806 169.866 23.7738 169.953 23.9071L173.577 29.4481C173.626 29.5227 173.657 29.6071 173.669 29.6953C173.681 29.7835 173.673 29.8733 173.646 29.9581C173.619 30.0427 173.573 30.1202 173.513 30.1851C173.452 30.2499 173.378 30.3005 173.295 30.3331L169.152 31.9861L173.448 36.4861C173.502 36.5432 173.545 36.6105 173.574 36.684C173.602 36.7576 173.616 36.8361 173.614 36.915C173.612 36.9938 173.594 37.0715 173.562 37.1436C173.53 37.2157 173.484 37.2808 173.427 37.3351C173.315 37.4412 173.167 37.5003 173.013 37.5001ZM178.902 37.4701H178.884C178.805 37.4678 178.728 37.4499 178.656 37.4176C178.584 37.3853 178.519 37.3391 178.465 37.2817C178.411 37.2243 178.369 37.1568 178.341 37.0831C178.313 37.0094 178.3 36.9309 178.302 36.8521L178.503 29.7421C178.506 29.644 178.533 29.5481 178.582 29.4629C178.63 29.3776 178.699 29.3056 178.782 29.2531C178.865 29.2003 178.959 29.1686 179.057 29.1607C179.155 29.1529 179.253 29.1692 179.343 29.2081L183.573 31.0531L184.8 25.2961C184.814 25.2166 184.843 25.1406 184.887 25.0728C184.931 25.005 184.988 24.9468 185.055 24.9015C185.122 24.8563 185.197 24.825 185.276 24.8095C185.355 24.794 185.437 24.7947 185.516 24.8114C185.595 24.8282 185.67 24.8607 185.736 24.907C185.802 24.9534 185.858 25.0125 185.901 25.081C185.943 25.1495 185.972 25.2259 185.984 25.3057C185.997 25.3854 185.993 25.4668 185.973 25.5451L184.587 32.0221C184.568 32.1091 184.53 32.1909 184.476 32.2614C184.422 32.332 184.353 32.3896 184.273 32.4301C184.194 32.4706 184.107 32.493 184.018 32.4956C183.929 32.4982 183.841 32.4809 183.759 32.4451L179.67 30.6631L179.502 36.9001C179.494 37.054 179.428 37.199 179.316 37.3051C179.204 37.4112 179.056 37.4703 178.902 37.4701Z" fill="#CE0500"/>
<path d="M174.21 298.23C171.645 298.199 169.096 297.805 166.641 297.06C166.556 297.035 166.477 296.992 166.411 296.934C166.345 296.875 166.292 296.802 166.257 296.721C164.301 292.155 158.85 254.235 155.775 229.977C147.951 214.32 143.229 202.377 143.175 202.266C143.146 202.193 143.132 202.114 143.133 202.035C143.135 201.956 143.152 201.878 143.183 201.806C143.214 201.733 143.26 201.668 143.317 201.613C143.374 201.558 143.441 201.515 143.514 201.486C143.588 201.457 143.666 201.443 143.745 201.444C143.824 201.446 143.902 201.463 143.974 201.494C144.047 201.525 144.112 201.571 144.167 201.628C144.222 201.685 144.265 201.752 144.294 201.825C144.339 201.945 149.061 213.879 156.894 229.533C156.923 229.594 156.943 229.658 156.951 229.725C160.083 254.421 165.351 290.661 167.259 295.989C174.681 298.089 180.849 296.994 183.861 293.058C182.661 271.695 181.998 257.937 181.527 247.881C180.765 231.681 180.537 226.77 179.196 218.724C176.496 202.524 168.825 168.624 168.747 168.294C168.717 168.141 168.749 167.982 168.834 167.852C168.919 167.722 169.052 167.629 169.204 167.595C169.356 167.561 169.516 167.587 169.649 167.668C169.782 167.749 169.878 167.879 169.917 168.03C169.995 168.369 177.669 202.281 180.378 218.526C181.731 226.644 181.962 231.555 182.724 247.824C183.198 257.91 183.849 271.728 185.07 293.208C185.079 293.346 185.04 293.483 184.959 293.595C182.739 296.643 178.935 298.23 174.21 298.23ZM121.725 318H120.663C112.704 317.88 108.363 316.419 107.424 313.533C106.056 309.366 112.809 304.167 113.097 303.948C113.16 303.9 113.231 303.865 113.307 303.845C113.384 303.825 113.463 303.82 113.541 303.83C113.619 303.84 113.695 303.866 113.763 303.906C113.831 303.945 113.891 303.998 113.939 304.061C113.986 304.123 114.021 304.195 114.042 304.271C114.062 304.347 114.067 304.426 114.057 304.505C114.046 304.583 114.02 304.658 113.981 304.726C113.941 304.794 113.889 304.854 113.826 304.902C112.05 306.252 107.649 310.371 108.567 313.158C109.089 314.745 111.612 316.665 120.681 316.8C130.074 316.944 132.681 315.171 133.203 313.656C134.052 311.214 130.167 307.548 128.595 306.342C128.533 306.294 128.48 306.234 128.441 306.166C128.402 306.098 128.376 306.022 128.366 305.944C128.356 305.866 128.361 305.786 128.382 305.71C128.402 305.634 128.437 305.563 128.486 305.501C128.534 305.438 128.594 305.386 128.662 305.346C128.73 305.307 128.805 305.282 128.884 305.272C128.962 305.261 129.041 305.267 129.117 305.287C129.193 305.308 129.265 305.343 129.327 305.391C129.585 305.589 135.645 310.293 134.337 314.049C133.41 316.701 129.282 318 121.725 318Z" fill="#000091"/>
<path d="M185.373 312.9C180.573 312.9 176.037 312.708 173.628 312.6C169.542 312.39 166.983 311.295 166.017 309.345C164.517 306.345 167.274 302.325 168.594 300.399C168.804 300.099 169.041 299.748 169.107 299.619C169.124 299.46 169.203 299.314 169.327 299.213C169.452 299.113 169.611 299.065 169.77 299.082C169.929 299.099 170.075 299.178 170.176 299.302C170.277 299.427 170.324 299.586 170.307 299.745C170.307 300.045 170.127 300.303 169.596 301.077C168.396 302.814 165.927 306.432 167.106 308.811C167.862 310.344 170.082 311.211 173.706 311.4C189.108 312.192 200.844 311.454 202.248 309.6C202.283 309.56 202.308 309.511 202.318 309.458C202.328 309.405 202.323 309.351 202.305 309.3C201.576 307.116 190.395 301.284 183.519 298.122C183.374 298.056 183.262 297.934 183.206 297.785C183.151 297.636 183.157 297.47 183.224 297.326C183.29 297.181 183.411 297.068 183.561 297.013C183.71 296.957 183.875 296.964 184.02 297.03C185.889 297.891 202.32 305.529 203.442 308.922C203.526 309.158 203.548 309.411 203.506 309.657C203.464 309.903 203.359 310.135 203.202 310.329C201.6 312.402 193.116 312.9 185.373 312.9Z" fill="#000091"/>
<path d="M143.76 204H143.673C143.516 203.977 143.375 203.893 143.28 203.766C143.185 203.639 143.144 203.479 143.166 203.322C144.219 195.942 144.582 194.322 145.464 190.404C145.59 189.849 145.725 189.246 145.872 188.577C145.906 188.421 146.001 188.286 146.135 188.2C146.269 188.114 146.432 188.085 146.587 188.119C146.743 188.154 146.879 188.248 146.964 188.382C147.05 188.517 147.079 188.679 147.045 188.835C146.895 189.507 146.76 190.11 146.634 190.665C145.761 194.565 145.401 196.158 144.354 203.49C144.332 203.632 144.261 203.762 144.152 203.855C144.043 203.949 143.904 204 143.76 204Z" fill="white"/>
<path d="M183.567 111.126C183.453 111.126 183.342 111.094 183.246 111.033C183.179 110.991 183.122 110.935 183.076 110.871C183.031 110.806 182.999 110.733 182.982 110.656C182.965 110.578 182.963 110.499 182.977 110.421C182.991 110.343 183.02 110.269 183.063 110.202L185.217 106.848C185.307 106.723 185.441 106.638 185.592 106.609C185.743 106.581 185.899 106.611 186.028 106.694C186.158 106.777 186.25 106.907 186.287 107.056C186.323 107.205 186.301 107.363 186.225 107.496L184.074 110.85C184.02 110.935 183.945 111.005 183.856 111.053C183.767 111.101 183.668 111.126 183.567 111.126Z" fill="#000091"/>
</svg>
