<svg width="282" height="168" viewBox="0 0 282 168" fill="none" xmlns="http://www.w3.org/2000/svg">
<g clip-path="url(#clip0_505_8388)">
<path d="M153.65 144.979H119.106V141.81H153.65V144.979Z" fill="#CE0500"/>
<path d="M73.1396 144.989H122.949L106.836 111.818C106.666 111.47 106.401 111.177 106.072 110.972C105.743 110.766 105.362 110.657 104.974 110.657H56.4619L73.1396 144.989Z" fill="#CE0500"/>
<path d="M70.5554 144.99H115.771C116.121 144.99 116.465 144.901 116.772 144.732C117.078 144.563 117.336 144.32 117.522 144.024C117.708 143.728 117.816 143.391 117.835 143.042C117.854 142.694 117.784 142.347 117.631 142.033L102.957 111.832C102.787 111.484 102.523 111.19 102.194 110.985C101.864 110.78 101.484 110.671 101.095 110.671H55.8782C55.528 110.671 55.1836 110.759 54.8772 110.928C54.5707 111.097 54.3124 111.34 54.1263 111.635C53.9402 111.931 53.8324 112.268 53.8132 112.617C53.7939 112.965 53.8638 113.312 54.0162 113.626L68.6902 143.827C68.8593 144.176 69.1242 144.471 69.4542 144.677C69.7843 144.882 70.166 144.991 70.5554 144.99Z" fill="#18753C"/>
<path d="M84.3098 131.198C83.5005 131.198 82.7094 130.959 82.0365 130.511C81.3637 130.063 80.8394 129.426 80.5299 128.682C80.2204 127.937 80.1397 127.118 80.298 126.327C80.4562 125.537 80.8463 124.811 81.4189 124.241C81.9915 123.672 82.7208 123.284 83.5147 123.127C84.3085 122.971 85.1312 123.052 85.8786 123.361C86.626 123.67 87.2646 124.193 87.7135 124.864C88.1624 125.534 88.4015 126.323 88.4005 127.129C88.3979 128.208 87.966 129.242 87.1992 130.005C86.4325 130.767 85.3934 131.196 84.3098 131.198ZM84.3098 123.699C83.6299 123.699 82.9653 123.9 82.3999 124.276C81.8345 124.652 81.3938 125.187 81.1334 125.812C80.873 126.438 80.8046 127.126 80.9369 127.79C81.0692 128.454 81.3962 129.064 81.8766 129.543C82.357 130.022 82.9692 130.349 83.6359 130.482C84.3026 130.614 84.9939 130.547 85.6223 130.289C86.2507 130.03 86.788 129.592 87.1665 129.03C87.5449 128.467 87.7474 127.806 87.7483 127.129C87.7488 126.22 87.3868 125.348 86.742 124.705C86.0972 124.062 85.2223 123.7 84.3098 123.699Z" fill="white"/>
<path d="M106.071 73.5835C108.608 73.5169 109.65 74.4327 109.568 75.1601C109.383 76.8326 106.104 77.5129 106.104 77.5129C106.104 77.5129 109.151 77.6444 109.058 79.2227C108.97 80.71 105.828 81.0623 105.828 81.0623C105.828 81.0623 108.139 81.819 107.659 82.8939C106.974 84.4299 104.702 84.3991 104.702 84.3991C106.725 85.2109 106.89 87.6903 103.674 87.2487C101.86 86.9986 101.555 84.2919 102.463 83.6635C101.834 82.8598 101.119 81.025 102.752 80.1953C101.971 79.0782 102.054 77.3213 103.43 76.9722C102.756 75.9655 103.894 74.4311 104.651 73.9943L106.071 73.5835Z" fill="white"/>
<path d="M129.504 112.5C125.372 101.253 118.234 81.5212 117.844 80.2239C117.122 77.8241 116.896 76.4894 116.899 75.0605C116.899 71.7368 118.725 69.928 117.248 69.1323C115.681 68.288 114.114 70.0302 113.463 72.1849C113.1 73.3897 111.722 75.0345 111.722 75.0345C109.003 75.1969 110.328 75.0978 105.743 75.4745L103.674 87.2481C106.029 88.2223 109.275 88.3603 109.275 88.3603C109.275 88.3603 114.818 112.716 115.916 117.163C117.261 122.617 120.223 127.586 125.91 127.165C126.875 127.094 129.347 126.579 131.925 125.779L136.49 124.155L130.989 112.049L129.504 112.5ZM179.181 132.743C168.163 133.021 153.432 133.123 144.983 135.817C141.976 136.729 139.849 138.564 138.174 140.874C136.133 144.666 134.643 149.1 136.475 149.751C137.796 150.219 138.748 148.063 139.211 146.684C139.418 146.065 139.554 145.517 139.524 145.619C139.498 145.692 139.353 146.106 139.211 146.684C138.862 148.095 138.53 150.443 140.041 150.854C141.553 151.265 142.599 147.035 142.728 146.515C142.729 146.507 142.729 146.499 142.728 146.491C142.728 146.457 142.74 146.442 142.728 146.515C142.627 147.022 141.864 151.102 143.749 151.49C145.04 151.755 146.064 148.264 146.299 147.394C146.299 147.376 146.364 147.139 146.346 147.212C145.93 148.873 145.65 151.472 147.359 151.685C148.5 151.826 149.069 149.771 149.829 147.626C150.204 146.57 150.949 145.981 152.4 144.784C164.643 145.877 168.412 147.577 177.74 148.074C186.45 148.537 190.974 146.125 193.042 141.826C195.153 137.442 195.976 130.427 195.976 130.427L196.14 128.701L179.835 128.198L179.181 132.743Z" fill="white"/>
<path d="M197.772 127.746L197.752 127.895C193.971 130.309 183.893 130.598 179.817 128.202L179.199 132.748C167.375 133.027 154.04 133.13 144.98 135.814C145.795 128.203 144.373 125.474 144.623 121.067C144.623 121.158 144.611 121.241 144.601 121.472L137.625 125.487L137.449 125.313C135.329 123.236 130.06 111.732 130.684 110.041C138.062 103.854 147.062 96.0767 152.216 94.8508C154.559 94.2906 161.419 94.0389 163.819 93.948C163.74 94.5463 163.694 95.1485 163.681 95.7519C163.617 97.7264 163.95 98.5301 164.576 99.4718C164.852 99.7898 165.227 100.007 165.641 100.09C169.477 100.902 174.073 96.6157 176.517 93.5664C179.45 93.7072 182.355 94.1978 185.17 95.0277C192.644 97.3009 195.336 101.245 196.277 104.163C199.381 113.761 197.944 126.341 197.772 127.746Z" fill="#FCC63A"/>
<path d="M195.184 63.8038C193.58 63.8014 192.015 63.3114 190.699 62.3993C188.292 60.7382 188.276 58.9391 188.447 56.1399C188.63 53.1652 191.056 49.3089 194.255 48.5279C195.939 48.1171 198.421 48.411 200.682 52.1504C204.584 58.5965 200.371 63.8038 195.184 63.8038ZM189.098 56.1723C188.935 58.8986 188.943 60.394 191.071 61.8553C196.702 65.7522 204.897 60.3713 200.123 52.4768C198.492 49.7847 196.519 48.6334 194.416 49.1482C192.072 49.7213 189.313 52.7463 189.103 56.1691L189.098 56.1723Z" fill="#000091"/>
<path d="M188.773 56.1528C189.078 51.1534 195.655 44.4621 200.403 52.3127C205.36 60.5108 196.816 66.2198 190.885 62.1264C188.589 60.5417 188.609 58.8335 188.773 56.1528Z" fill="#000091"/>
<path d="M183.489 60.9168C181.695 55.5229 189.522 53.5224 191.866 59.1307C194.023 64.2909 185.974 68.3502 183.489 60.9168Z" fill="#18753C"/>
<path d="M187.294 65.2454C186.222 65.0538 184.259 64.2485 183.179 61.0238C181.244 55.2336 189.659 53.0221 192.166 59.0136C193.671 62.602 190.518 65.8235 187.294 65.2454ZM185.706 56.3621C184.312 56.8817 182.977 58.3576 183.799 60.8143C183.848 60.8143 184.645 64.1104 187.41 64.6057C190.128 65.0928 192.869 62.3747 191.565 59.2572C190.616 56.9921 188.208 55.4301 185.706 56.3621Z" fill="#000091"/>
<path d="M164.576 99.4634C164.853 99.7845 165.229 100.004 165.646 100.089C170.641 101.131 176.519 93.5644 176.519 93.5644C176.444 79.7385 176.431 78.4266 176.418 75.7783L164.711 85.2364C163.806 94.4916 163.935 93.2722 163.872 93.6716C163.763 94.3622 163.701 95.0593 163.686 95.7581L164.576 99.4634Z" fill="white"/>
<path d="M166.627 100.513C166.275 100.513 165.925 100.478 165.58 100.406C165.095 100.308 164.656 100.052 164.333 99.6782L164.31 99.649C163.453 98.4182 163.312 97.2848 163.36 95.7423C163.378 94.997 163.447 94.2538 163.567 93.5178C163.596 93.3668 163.593 93.3132 164.382 85.1979C164.386 85.1553 164.399 85.1139 164.419 85.0761C164.439 85.0383 164.467 85.0048 164.5 84.9776C164.533 84.9504 164.571 84.9299 164.613 84.9175C164.654 84.905 164.697 84.9007 164.74 84.9049C164.783 84.909 164.824 84.9215 164.862 84.9417C164.9 84.9619 164.934 84.9893 164.961 85.0224C164.988 85.0555 165.009 85.0936 165.021 85.1346C165.034 85.1756 165.038 85.2186 165.034 85.2613C164.219 93.5601 164.242 93.448 164.206 93.638C164.091 94.3362 164.026 95.0415 164.01 95.7488C163.966 97.1858 164.084 98.1698 164.834 99.2528C165.062 99.514 165.371 99.6926 165.712 99.761C170.173 100.691 175.526 94.268 176.193 93.4415L176.168 89.0575C176.168 88.9714 176.203 88.8888 176.264 88.8279C176.325 88.767 176.408 88.7328 176.494 88.7328C176.581 88.7328 176.664 88.767 176.725 88.8279C176.786 88.8888 176.821 88.9714 176.821 89.0575L176.845 93.5519C176.847 93.625 176.822 93.6962 176.777 93.7533C176.55 94.0569 171.476 100.511 166.627 100.513Z" fill="#000091"/>
<path d="M158.331 87.4177C161.309 88.275 165.888 88.0818 170.41 86.083C176.693 81.8809 176.152 82.2917 176.641 81.7672C178.795 79.4843 179.765 77.1932 180.202 74.5855C181.451 67.0044 177.158 59.6782 170.041 57.7493C162.541 55.7147 154.735 57.962 153.553 68.279C153.53 68.4641 153.51 68.6525 153.494 68.8424C152.957 74.9184 151.369 84.2369 157.239 87.0037L158.331 87.4177Z" fill="white"/>
<path d="M162.051 88.2262C160.666 88.2262 159.134 88.0639 157.834 87.5767C157.236 87.3751 156.666 87.0973 156.139 86.7503C151.686 83.7026 152.413 76.4592 152.998 70.6382C153.201 68.6183 153.178 68.7043 153.235 68.2383C153.74 63.8251 155.447 60.6069 158.31 58.6731C161.34 56.6288 165.538 56.1888 170.133 57.4358C178.022 59.5742 182.413 68.0971 180.156 76.3342C179.607 78.3654 178.363 80.5656 176.468 82.415C176.438 82.4471 176.402 82.4729 176.362 82.4906C176.321 82.5084 176.278 82.5178 176.234 82.5183C176.189 82.5188 176.146 82.5104 176.105 82.4935C176.064 82.4767 176.027 82.4518 175.996 82.4203C175.966 82.3889 175.942 82.3515 175.926 82.3105C175.91 82.2695 175.902 82.2257 175.904 82.1818C175.906 82.1379 175.916 82.0948 175.935 82.055C175.954 82.0153 175.981 81.9797 176.014 81.9506C177.616 80.3918 178.939 78.3411 179.527 76.1637C181.686 68.2854 177.514 60.1084 169.961 58.0609C165.559 56.8659 161.545 57.275 158.677 59.2105C155.979 61.0323 154.366 64.0946 153.882 68.3147C153.818 68.8277 153.882 68.4316 153.647 70.7031C153.078 76.3537 152.372 83.3843 156.509 86.2145C157.008 86.5411 157.548 86.8009 158.115 86.9873C160.57 87.9129 165.424 87.9323 170.278 85.7858C170.317 85.7656 170.36 85.7536 170.405 85.7505C170.449 85.7475 170.493 85.7536 170.535 85.7683C170.577 85.783 170.616 85.806 170.648 85.836C170.681 85.866 170.707 85.9024 170.725 85.9428C170.743 85.9832 170.753 86.0269 170.753 86.0711C170.753 86.1153 170.745 86.1592 170.728 86.1999C170.711 86.2407 170.685 86.2776 170.653 86.3083C170.621 86.339 170.583 86.3629 170.542 86.3785C167.869 87.5702 164.979 88.1993 162.051 88.2262Z" fill="#000091"/>
<path d="M159.033 78.8604C158.641 78.8604 157.761 78.7808 157.451 78.1037C157.355 77.8959 157.177 77.1019 158.933 75.6568C158.966 75.6283 159.004 75.6066 159.046 75.593C159.087 75.5794 159.131 75.5742 159.174 75.5777C159.217 75.5812 159.26 75.5933 159.298 75.6133C159.337 75.6334 159.371 75.6609 159.399 75.6943C159.427 75.7277 159.447 75.7663 159.46 75.8078C159.473 75.8493 159.477 75.893 159.472 75.9361C159.467 75.9792 159.454 76.0209 159.433 76.0589C159.412 76.0968 159.383 76.1301 159.349 76.1569C158.575 76.795 157.94 77.6101 158.045 77.8342C158.208 78.2028 158.93 78.2271 159.168 78.206C159.254 78.1983 159.341 78.225 159.407 78.2805C159.474 78.3359 159.516 78.4154 159.523 78.5015C159.531 78.5877 159.504 78.6733 159.449 78.7397C159.393 78.8061 159.313 78.8477 159.227 78.8555C159.162 78.8605 159.097 78.8621 159.033 78.8604ZM164.576 75.8825C164.528 75.8832 164.481 75.8734 164.437 75.8537C164.393 75.834 164.355 75.805 164.324 75.7688C164.292 75.7325 164.27 75.6898 164.257 75.6438C164.244 75.5978 164.242 75.5496 164.25 75.5025L164.442 74.4146C164.45 74.3726 164.466 74.3325 164.489 74.2966C164.512 74.2606 164.542 74.2295 164.577 74.2051C164.612 74.1807 164.652 74.1634 164.693 74.1542C164.735 74.145 164.779 74.1441 164.821 74.1516C164.863 74.1591 164.903 74.1747 164.939 74.1977C164.975 74.2207 165.007 74.2505 165.031 74.2855C165.056 74.3205 165.073 74.3599 165.082 74.4016C165.091 74.4432 165.092 74.4863 165.085 74.5283L164.902 75.6146C164.889 75.6905 164.848 75.7592 164.789 75.8083C164.729 75.8574 164.654 75.8837 164.576 75.8825ZM156.481 74.754C156.433 74.7547 156.385 74.7449 156.342 74.7251C156.298 74.7054 156.259 74.6762 156.228 74.6398C156.197 74.6033 156.174 74.5604 156.161 74.5142C156.149 74.468 156.147 74.4196 156.155 74.3724L156.347 73.2862C156.355 73.244 156.37 73.2037 156.393 73.1675C156.416 73.1314 156.446 73.1001 156.481 73.0754C156.516 73.0508 156.556 73.0333 156.597 73.0239C156.639 73.0146 156.683 73.0136 156.725 73.0209C156.767 73.0283 156.808 73.0439 156.844 73.0669C156.88 73.0899 156.911 73.1197 156.936 73.1548C156.961 73.1899 156.978 73.2294 156.987 73.2712C156.996 73.3129 156.997 73.3561 156.99 73.3982L156.797 74.4845C156.784 74.5591 156.746 74.6268 156.688 74.676C156.63 74.7253 156.557 74.7528 156.481 74.754ZM166.259 71.3556C166.195 71.3558 166.133 71.3375 166.079 71.3028C166.026 71.2682 165.984 71.2188 165.959 71.1607C165.698 70.5632 165.07 70.6736 164.998 70.6866C164.915 70.7028 164.828 70.6856 164.757 70.6388C164.685 70.5919 164.635 70.5191 164.617 70.436C164.6 70.3529 164.615 70.2661 164.661 70.1943C164.706 70.1224 164.778 70.0712 164.861 70.0517C165.199 69.9756 165.553 70.0187 165.862 70.1736C166.171 70.3285 166.417 70.5856 166.557 70.9009C166.579 70.9503 166.588 71.0043 166.583 71.058C166.579 71.1117 166.561 71.1634 166.531 71.2085C166.502 71.2536 166.461 71.2907 166.414 71.3163C166.366 71.342 166.313 71.3555 166.259 71.3556ZM158.054 70.154C157.97 70.1537 157.89 70.1211 157.829 70.0631C157.687 69.9298 157.503 69.8497 157.308 69.8364C157.113 69.823 156.919 69.8773 156.76 69.99C156.724 70.014 156.685 70.0309 156.643 70.0395C156.601 70.0482 156.557 70.0486 156.515 70.0406C156.473 70.0326 156.433 70.0164 156.397 69.993C156.361 69.9695 156.331 69.9393 156.307 69.904C156.258 69.8336 156.24 69.7471 156.255 69.6633C156.27 69.5795 156.318 69.505 156.388 69.4558C156.671 69.257 157.014 69.1622 157.36 69.1877C157.705 69.2131 158.031 69.3573 158.281 69.5955C158.328 69.6404 158.36 69.6983 158.374 69.7616C158.387 69.825 158.381 69.8909 158.357 69.9509C158.333 70.011 158.291 70.0624 158.237 70.0986C158.183 70.1348 158.119 70.1541 158.054 70.154ZM158.015 83.699C157.164 83.3191 157.066 82.439 157.132 82.0282C157.145 81.9448 157.19 81.8699 157.258 81.8192C157.326 81.7686 157.411 81.7463 157.495 81.7571L161.607 82.2718C161.661 82.2783 161.712 82.2981 161.756 82.3293C161.8 82.3605 161.836 82.4021 161.86 82.4504C161.884 82.4988 161.895 82.5523 161.893 82.6061C161.891 82.66 161.876 82.7125 161.848 82.7589C160.989 84.2332 159.595 84.407 158.015 83.699ZM157.782 82.4472C157.801 82.5908 157.857 82.7271 157.945 82.8427C158.033 82.9582 158.149 83.0491 158.283 83.1064C159.489 83.6471 160.361 83.5675 160.988 82.8482L157.782 82.4472Z" fill="#000091"/>
<path d="M161.566 82.5931C160.578 84.2883 158.995 83.7817 158.142 83.405C157.29 83.0283 157.448 82.08 157.448 82.08L161.566 82.5931ZM176.493 86.1101C176.408 86.1101 176.327 86.0775 176.266 86.019C176.205 85.9606 176.17 85.8809 176.167 85.7967C176.118 84.4718 176.146 84.462 176.08 83.0559C176.078 83.0332 176.078 83.0104 176.08 82.9877C176.661 79.4821 177.911 76.4555 177.21 75.9392C176.806 76.3418 176.162 77.4736 175.761 78.1783C175.171 79.2142 175.079 79.3749 174.783 79.2856C174.704 79.2612 174.637 79.2101 174.592 79.1413C174.547 79.0725 174.528 78.9903 174.538 78.9089C175.047 70.0597 172.87 72.9012 172.78 68.5935C172.759 67.5462 172.275 66.6532 171.344 65.942C167.874 63.2904 159.279 63.8084 157.148 64.3312C154.326 65.0213 154.738 66.4421 153.753 68.6357C153.727 68.6919 153.685 68.7396 153.633 68.7729C153.581 68.8063 153.52 68.824 153.457 68.824C153.395 68.824 153.334 68.8063 153.282 68.7729C153.229 68.7396 153.188 68.6919 153.161 68.6357C151.73 65.6351 152.041 62.2269 154.039 59.0396C157.089 54.1766 163.407 50.9876 170.134 50.921C179.102 50.822 184.937 54.274 188.433 62.3633C189.613 65.0928 190.269 74.7035 186.181 80.9142C183.889 84.3971 180.554 86.1101 176.493 86.1101ZM176.733 83.0608C176.791 84.3175 176.775 84.4377 176.808 85.4541C180.597 85.3502 183.564 83.7037 185.632 80.5586C187.304 78.0159 188.366 74.421 188.623 70.4396C188.855 66.8399 188.392 63.9188 187.831 62.6199C184.485 54.8812 179.027 51.4698 170.139 51.5786C158.744 51.702 150.794 60.4879 153.444 67.6534C154.06 65.9111 154.149 64.4059 156.99 63.7077C159.272 63.1492 168.039 62.6085 171.739 65.4354C172.834 66.2716 173.403 67.3335 173.429 68.5886C173.508 72.3232 175.498 70.2562 175.239 77.7902C175.917 76.6033 176.516 75.603 176.98 75.2994C177.018 75.2744 177.061 75.2575 177.106 75.25C177.151 75.2424 177.197 75.2443 177.241 75.2556C179.046 75.7102 177.444 78.7953 176.733 83.0608Z" fill="#000091"/>
<path d="M174.861 78.9273C174.833 79.4144 176.392 76.0647 177.16 75.5629C178.573 75.925 177.088 78.9126 176.406 83.0417C176.47 84.4138 176.447 84.5274 176.493 85.7842C190.058 85.716 189.981 66.777 188.129 62.4921C184.511 54.1186 178.49 51.1537 170.134 51.2462C158.191 51.3761 149.843 60.9382 153.453 68.503C154.417 66.3549 154.05 64.7555 157.066 64.0167C160.082 63.2779 172.981 62.7356 173.103 68.5875C173.188 72.6646 175.368 70.0813 174.861 78.9273Z" fill="#000091"/>
<path d="M175.841 82.2537C176.4 82.9584 177.122 83.5689 178.06 83.8222C180.385 84.4538 182.98 82.507 183.804 79.4918C184.438 77.1764 182.754 74.5216 180.331 74.58C179.209 74.6368 178.119 74.9717 177.16 75.5543L175.841 82.2537Z" fill="white"/>
<path d="M175.585 82.4541C175.536 82.3862 175.516 82.3022 175.528 82.2198C175.54 82.1373 175.583 82.0626 175.649 82.011C175.715 81.9595 175.798 81.9352 175.881 81.943C175.965 81.9508 176.042 81.9902 176.097 82.0531C178.645 85.268 182.485 83.0858 183.489 79.4064C184.061 77.3151 182.553 74.8503 180.339 74.9055C179.273 74.9638 178.238 75.2858 177.328 75.8424C177.253 75.8865 177.164 75.8994 177.08 75.8783C176.997 75.8571 176.924 75.8036 176.88 75.7295C176.836 75.6555 176.823 75.5669 176.844 75.4833C176.865 75.3997 176.919 75.328 176.993 75.2838C178 74.6706 179.144 74.3173 180.323 74.256C182.982 74.1894 184.803 77.0748 184.118 79.5785C182.959 83.8181 178.461 86.0831 175.585 82.4541Z" fill="#000091"/>
<path d="M178.169 81.5282C178.095 81.5282 178.024 81.5034 177.967 81.4579C177.909 81.4125 177.869 81.349 177.852 81.2778C177.835 81.2065 177.843 81.1317 177.874 81.0655C177.905 80.9993 177.958 80.9455 178.024 80.9129C178.66 80.5979 178.987 80.1643 178.859 79.8104C178.749 79.5067 178.285 79.2632 177.639 79.4126C177.587 79.4247 177.533 79.4238 177.481 79.4102C177.429 79.3965 177.382 79.3704 177.343 79.3341C177.304 79.2979 177.274 79.2526 177.257 79.2023C177.239 79.152 177.234 79.0982 177.243 79.0456C177.536 77.2417 178.695 76.8585 179.362 76.7903C180.579 76.6669 181.942 77.3878 182.203 78.0649C182.233 78.1454 182.231 78.2349 182.196 78.3136C182.16 78.3923 182.095 78.4538 182.014 78.4846C181.933 78.5154 181.844 78.5129 181.764 78.4778C181.685 78.4426 181.624 78.3776 181.593 78.2971C181.459 77.9496 180.43 77.3358 179.428 77.4365C178.7 77.5112 178.216 77.9415 177.985 78.7176C179.602 78.69 180.329 80.4956 178.311 81.4942C178.267 81.5167 178.218 81.5284 178.169 81.5282Z" fill="#000091"/>
<path d="M147.476 152.017C147.213 152.016 146.955 151.951 146.723 151.827C146.491 151.704 146.293 151.526 146.146 151.309C145.898 150.913 145.752 150.461 145.723 149.995C145.2 151.103 144.515 151.98 143.68 151.807C143.04 151.676 142.267 151.117 142.172 149.221C141.734 150.195 140.992 151.449 139.956 151.169C139.073 150.931 138.611 150.129 138.592 148.854C138.062 149.702 137.312 150.395 136.366 150.06C133.806 149.151 136.608 143.103 137.887 140.726C137.894 140.713 137.902 140.701 137.91 140.69C139.821 138.048 142.104 136.355 144.889 135.509C153.579 132.739 169.294 132.672 179.173 132.424C179.26 132.421 179.344 132.454 179.406 132.513C179.469 132.572 179.505 132.654 179.508 132.74C179.51 132.826 179.477 132.91 179.418 132.972C179.358 133.035 179.276 133.071 179.19 133.073C169.244 133.323 153.636 133.398 145.083 136.131C142.441 136.933 140.274 138.542 138.452 141.054C136.541 144.606 135.616 147.703 136.097 148.943C136.129 149.051 136.185 149.15 136.259 149.234C136.334 149.318 136.426 149.385 136.529 149.43C136.633 149.475 136.744 149.497 136.857 149.494C136.97 149.491 137.08 149.464 137.181 149.414C137.773 149.125 138.383 148.127 138.898 146.599C139.047 145.999 139.197 145.572 139.224 145.517C139.241 145.462 139.272 145.413 139.314 145.374C139.356 145.335 139.408 145.307 139.464 145.295C139.52 145.282 139.579 145.284 139.634 145.301C139.689 145.319 139.738 145.35 139.777 145.392C139.837 145.459 139.88 145.504 139.846 145.717C139.768 146.08 139.663 146.437 139.533 146.785C139.28 147.812 138.843 150.195 140.134 150.552C140.201 150.569 140.27 150.571 140.337 150.559C140.405 150.547 140.469 150.521 140.525 150.483C141.367 149.995 142.109 147.722 142.415 146.451C142.419 146.404 142.432 146.358 142.455 146.317C142.478 146.276 142.51 146.24 142.548 146.212C142.586 146.185 142.63 146.165 142.676 146.156C142.722 146.147 142.77 146.148 142.816 146.159C142.9 146.178 142.973 146.23 143.019 146.302C143.065 146.375 143.08 146.463 143.061 146.547C142.769 147.868 142.48 150.908 143.819 151.184C144.447 151.312 145.34 149.723 145.987 147.321C145.987 147.287 146.028 147.167 146.033 147.144C146.092 146.982 146.196 146.834 146.428 146.893C146.512 146.917 146.583 146.973 146.627 147.049C146.67 147.125 146.683 147.215 146.661 147.3C146.312 148.692 145.968 151.197 147.398 151.372C148.156 151.47 148.702 149.883 149.283 148.209C149.361 147.985 149.446 147.758 149.521 147.531C149.914 146.423 150.673 145.798 152.054 144.66C152.203 144.536 152.273 144.46 152.428 144.473C164.656 145.566 168.468 147.268 177.756 147.763C185.679 148.183 190.581 146.199 192.747 141.698C194.811 137.408 195.647 130.472 195.655 130.402C195.666 130.316 195.71 130.237 195.778 130.184C195.846 130.13 195.933 130.105 196.02 130.116C196.106 130.126 196.185 130.17 196.239 130.238C196.293 130.306 196.318 130.392 196.308 130.478C196.273 130.766 195.45 137.592 193.34 141.979C191.041 146.733 185.935 148.838 177.721 148.399C168.427 147.912 164.596 146.211 152.501 145.121C151.265 146.139 150.484 146.745 150.134 147.735C149.384 149.861 148.795 152.017 147.476 152.017Z" fill="#000091"/>
<path d="M179.069 128.088C179.025 128.055 178.991 128.012 178.969 127.962C178.946 127.912 178.937 127.857 178.942 127.803C179.268 124.172 179.799 114.215 179.86 108.427C179.86 108.341 179.894 108.258 179.955 108.197C180.016 108.136 180.099 108.102 180.186 108.102C180.272 108.102 180.355 108.136 180.416 108.197C180.478 108.258 180.512 108.341 180.512 108.427C180.453 114.136 179.93 123.889 179.607 127.671C183.417 130.357 194.058 129.905 197.447 127.699C197.628 126.226 199.037 113.748 195.98 104.255C193.697 97.1777 184.925 94.9175 179.902 94.2015C179.859 94.1955 179.818 94.1812 179.781 94.1594C179.744 94.1375 179.711 94.1086 179.685 94.0742C179.659 94.0398 179.64 94.0007 179.629 93.959C179.618 93.9173 179.616 93.8739 179.622 93.8313C179.628 93.7886 179.642 93.7476 179.664 93.7105C179.686 93.6733 179.715 93.6409 179.749 93.615C179.784 93.589 179.823 93.5701 179.865 93.5593C179.907 93.5485 179.951 93.546 179.993 93.552C185.168 94.2892 194.208 96.637 196.599 104.051C199.89 114.243 198.101 127.786 198.081 127.919C198.075 127.964 198.06 128.006 198.037 128.044C198.014 128.082 197.983 128.115 197.946 128.14C194.48 130.582 183.077 131.144 179.069 128.088ZM130.712 110.344C130.645 110.345 130.579 110.325 130.524 110.286C130.468 110.248 130.426 110.194 130.403 110.131C130.38 110.068 130.377 109.999 130.395 109.935C130.413 109.87 130.45 109.812 130.502 109.77C137.839 103.622 146.91 95.7797 152.146 94.5327C153.311 94.2534 155.698 94.0164 159.243 93.8232C159.329 93.8184 159.414 93.8481 159.479 93.9056C159.543 93.9632 159.582 94.0439 159.587 94.13C159.592 94.2162 159.562 94.3006 159.504 94.3649C159.446 94.4291 159.365 94.4679 159.279 94.4726C155.773 94.6626 153.425 94.8948 152.297 95.1643C147.603 96.2831 139.784 102.84 132.22 109.179L130.916 110.268C130.858 110.315 130.786 110.342 130.712 110.344Z" fill="#000091"/>
<path d="M137.641 125.803C137.567 125.803 137.495 125.778 137.437 125.732C135.662 124.309 132.068 116.639 130.819 112.762C130.136 110.651 130.25 110.087 130.451 109.823C130.503 109.753 130.58 109.708 130.665 109.695C130.751 109.683 130.838 109.705 130.907 109.756C130.977 109.807 131.023 109.884 131.035 109.97C131.048 110.055 131.026 110.142 130.974 110.211C130.785 110.581 131.408 113.08 133.391 117.495C135.039 121.166 136.726 124.139 137.682 125.079L141.849 122.681C141.924 122.642 142.011 122.633 142.091 122.657C142.172 122.68 142.241 122.733 142.283 122.806C142.325 122.879 142.337 122.964 142.317 123.046C142.297 123.127 142.246 123.198 142.175 123.243C137.403 125.992 137.767 125.803 137.641 125.803ZM115.599 117.24C114.522 112.839 109.012 88.677 108.957 88.4334C108.938 88.3495 108.953 88.2613 108.999 88.1884C109.045 88.1155 109.118 88.0637 109.202 88.0446C109.287 88.0254 109.375 88.0404 109.448 88.0862C109.522 88.132 109.574 88.205 109.593 88.2889C109.648 88.5325 115.149 112.69 116.234 117.085C117.538 122.395 120.393 127.25 125.886 126.841C126.864 126.769 129.36 126.235 131.827 125.469C131.868 125.456 131.911 125.451 131.954 125.455C131.996 125.459 132.038 125.471 132.076 125.491C132.114 125.511 132.147 125.538 132.175 125.571C132.202 125.604 132.223 125.641 132.235 125.682C132.248 125.723 132.253 125.766 132.249 125.808C132.245 125.851 132.233 125.892 132.213 125.93C132.193 125.968 132.166 126.001 132.133 126.028C132.1 126.056 132.062 126.076 132.021 126.089C129.412 126.901 126.939 127.414 125.935 127.489C120.137 127.917 116.997 122.906 115.599 117.24ZM104.392 87.6248C104.136 87.624 103.881 87.6055 103.629 87.5696C101.693 87.3033 101.183 84.6681 102.034 83.6224C101.255 82.4322 101.1 80.9189 102.301 80.0843C101.675 78.9315 101.799 77.3597 102.981 76.7898C102.881 76.469 102.872 76.1266 102.955 75.801C103.194 74.9414 103.738 74.1974 104.486 73.708C104.964 73.4233 105.507 73.2667 106.063 73.2534C108.251 73.1982 109.175 73.8347 109.532 74.2276C109.66 74.3543 109.758 74.507 109.82 74.6752C109.882 74.8435 109.907 75.0231 109.893 75.2018C109.769 76.3157 108.543 77.022 107.53 77.4214C108.52 77.6893 109.443 78.2333 109.382 79.2481C109.317 80.3555 107.988 80.9205 106.909 81.1966C107.661 81.6203 108.303 82.2585 107.957 83.0362C107.503 84.0527 106.472 84.4618 105.69 84.6242C107.084 85.7933 106.674 87.6248 104.392 87.6248ZM106.312 73.9045C105.788 73.8761 105.266 74.0044 104.816 74.2731C104.113 74.6806 103.185 76.0283 103.7 76.7914C103.728 76.8344 103.744 76.8832 103.749 76.9339C103.754 76.9845 103.747 77.0356 103.729 77.083C103.71 77.1304 103.681 77.1728 103.643 77.2067C103.604 77.2407 103.559 77.2653 103.51 77.2785C102.385 77.5627 102.357 79.0549 103.021 80.0015C103.047 80.0395 103.065 80.0827 103.073 80.1283C103.082 80.1738 103.08 80.2206 103.069 80.2655C103.058 80.3103 103.037 80.3523 103.008 80.3886C102.979 80.4248 102.943 80.4545 102.901 80.4756C102.706 80.5599 102.533 80.6886 102.397 80.8513C102.261 81.0139 102.164 81.2061 102.116 81.4125C101.964 82.0896 102.324 82.9469 102.722 83.4551C102.75 83.49 102.77 83.5301 102.781 83.573C102.792 83.6159 102.794 83.6606 102.788 83.7044C102.781 83.7482 102.765 83.7902 102.742 83.8277C102.718 83.8653 102.687 83.8976 102.65 83.9228C102.324 84.1436 102.204 84.8385 102.362 85.5075C102.434 85.8047 102.74 86.7837 103.72 86.9185C104.869 87.0809 105.676 86.8406 105.818 86.3015C105.95 85.8144 105.523 85.0707 104.581 84.6908C104.51 84.6624 104.452 84.6103 104.416 84.5436C104.38 84.4769 104.368 84.3997 104.384 84.3255C104.4 84.2517 104.442 84.1858 104.501 84.1386C104.56 84.0914 104.634 84.0657 104.71 84.0657C104.729 84.0657 106.775 84.0657 107.364 82.7537C107.389 82.7031 107.401 82.6476 107.401 82.5913C107.401 82.5351 107.389 82.4796 107.364 82.429C107.139 81.9224 106.082 81.4791 105.734 81.3638C105.663 81.3408 105.602 81.2944 105.561 81.2321C105.52 81.1699 105.502 81.0956 105.51 81.0218C105.518 80.9479 105.55 80.8788 105.603 80.8261C105.656 80.7735 105.725 80.7403 105.799 80.7322C106.542 80.6494 108.68 80.185 108.734 79.1961C108.741 79.0927 108.726 78.9889 108.691 78.8913C108.655 78.7938 108.6 78.7046 108.528 78.6295C107.99 78.0368 106.588 77.8517 106.092 77.8306C106.006 77.8377 105.92 77.8103 105.854 77.7544C105.788 77.6986 105.746 77.6188 105.739 77.5327C105.732 77.4465 105.76 77.3611 105.816 77.2952C105.872 77.2293 105.952 77.1882 106.038 77.1811C106.886 77.0041 109.115 76.2881 109.246 75.1109C109.248 75.0251 109.232 74.9397 109.199 74.8604C109.166 74.7812 109.116 74.7099 109.053 74.6514C108.608 74.1838 107.594 73.9045 106.312 73.9045ZM112.474 83.3236C112.392 83.3234 112.314 83.2927 112.254 83.2376C111.176 82.2552 110.609 80.7679 110.613 78.938C110.614 78.1058 110.724 77.2772 110.94 76.4732C110.95 76.4306 110.969 76.3907 110.996 76.3557C111.023 76.3208 111.056 76.2916 111.094 76.2698C111.133 76.2481 111.175 76.2343 111.219 76.2293C111.262 76.2243 111.307 76.2282 111.349 76.2407C111.391 76.2532 111.43 76.2741 111.464 76.3021C111.498 76.3301 111.526 76.3647 111.546 76.4037C111.566 76.4428 111.578 76.4854 111.581 76.5292C111.584 76.5729 111.578 76.6168 111.564 76.6583C111.553 76.6973 110.406 80.6753 112.691 82.7586C112.739 82.8025 112.773 82.86 112.788 82.9236C112.804 82.9871 112.799 83.0538 112.776 83.1148C112.752 83.1759 112.711 83.2284 112.657 83.2657C112.603 83.3029 112.539 83.3231 112.474 83.3236Z" fill="#000091"/>
<path d="M109.275 88.6856C108.348 88.6322 107.425 88.5237 106.511 88.3609C106.426 88.3458 106.35 88.2977 106.301 88.227C106.251 88.1564 106.232 88.069 106.247 87.9842C106.262 87.8993 106.311 87.824 106.382 87.7746C106.453 87.7253 106.54 87.7061 106.625 87.7211C107.507 87.8801 108.396 87.9886 109.29 88.0459C109.376 88.0478 109.458 88.0839 109.518 88.1462C109.578 88.2084 109.61 88.2918 109.608 88.3779C109.606 88.4641 109.57 88.5459 109.508 88.6054C109.445 88.665 109.361 88.6973 109.275 88.6954V88.6856ZM129.505 112.825C129.438 112.825 129.373 112.805 129.318 112.766C129.263 112.728 129.222 112.674 129.199 112.611C125.103 101.474 117.924 81.6241 117.531 80.317C116.821 77.9529 116.569 76.5825 116.573 75.0611C116.573 73.5867 116.918 72.4209 117.192 71.4889C117.579 70.1753 117.655 69.7256 117.093 69.4219C115.625 68.6279 114.267 70.6527 113.777 72.2813C113.398 73.5364 112.03 75.178 111.972 75.2462C111.945 75.2807 111.911 75.3095 111.873 75.3308C111.835 75.3521 111.793 75.3656 111.749 75.3703C111.706 75.375 111.661 75.371 111.62 75.3584C111.578 75.3457 111.539 75.3248 111.505 75.2969C111.471 75.2689 111.444 75.2345 111.424 75.1957C111.404 75.1568 111.392 75.1144 111.389 75.0708C111.385 75.0273 111.391 74.9836 111.405 74.9423C111.419 74.901 111.442 74.863 111.471 74.8305C111.484 74.8143 112.811 73.2214 113.152 72.0945C113.641 70.4708 114.593 69.1832 115.63 68.7562C115.914 68.6355 116.221 68.5812 116.528 68.5976C116.836 68.6139 117.136 68.7004 117.404 68.8504C118.477 69.43 118.172 70.4741 117.818 71.6708C117.057 74.2687 116.878 75.8794 118.156 80.1335C118.547 81.4325 125.72 101.253 129.81 112.392C129.828 112.441 129.833 112.493 129.826 112.544C129.819 112.596 129.8 112.644 129.77 112.687C129.74 112.729 129.701 112.764 129.655 112.788C129.609 112.812 129.557 112.825 129.505 112.825ZM145.233 132.849C145.189 132.849 145.146 132.84 145.105 132.823C145.065 132.806 145.029 132.782 144.998 132.75C144.968 132.719 144.944 132.682 144.928 132.642C144.913 132.601 144.905 132.558 144.906 132.514C145.205 122.883 141.305 120.889 149.84 107.118C149.886 107.045 149.958 106.992 150.043 106.972C150.127 106.952 150.216 106.966 150.289 107.012C150.363 107.057 150.416 107.129 150.436 107.213C150.456 107.297 150.442 107.386 150.396 107.459C141.998 121.006 145.859 122.845 145.559 132.534C145.556 132.618 145.521 132.699 145.46 132.757C145.399 132.816 145.317 132.849 145.233 132.849Z" fill="#000091"/>
<path d="M104.442 66.2998C104.363 66.2997 104.286 66.2709 104.227 66.2187L98.496 61.177C98.4312 61.12 98.3917 61.0396 98.3864 60.9536C98.381 60.8675 98.4102 60.7829 98.4675 60.7183C98.5248 60.6537 98.6055 60.6145 98.6919 60.6091C98.7783 60.6038 98.8632 60.6329 98.9281 60.6899L104.659 65.7315C104.709 65.7752 104.744 65.833 104.76 65.8971C104.776 65.9613 104.772 66.0287 104.748 66.0905C104.725 66.1522 104.683 66.2053 104.628 66.2428C104.573 66.2802 104.509 66.3001 104.442 66.2998ZM108.978 63.3057C108.91 63.3054 108.843 63.2838 108.788 63.2439C108.733 63.204 108.691 63.1478 108.67 63.0833L106.237 55.8642C106.21 55.7824 106.216 55.6931 106.255 55.6159C106.294 55.5387 106.361 55.48 106.444 55.4526C106.526 55.4253 106.615 55.4316 106.693 55.4701C106.77 55.5086 106.829 55.5762 106.857 55.658L109.288 62.8771C109.304 62.926 109.309 62.9781 109.301 63.0292C109.294 63.0803 109.274 63.1288 109.244 63.1707C109.213 63.2126 109.173 63.2467 109.127 63.2702C109.081 63.2937 109.03 63.3058 108.978 63.3057ZM114.241 63.8042C114.192 63.8051 114.144 63.7952 114.1 63.7751C114.055 63.7549 114.016 63.7252 113.985 63.6879C113.954 63.6507 113.931 63.6069 113.919 63.5599C113.907 63.5129 113.906 63.4637 113.915 63.4161L115.603 55.1238C115.61 55.0812 115.626 55.0405 115.65 55.0041C115.673 54.9677 115.704 54.9364 115.74 54.912C115.776 54.8876 115.816 54.8705 115.859 54.8619C115.902 54.8533 115.945 54.8533 115.988 54.8619C116.031 54.8704 116.071 54.8874 116.107 54.9118C116.143 54.9361 116.174 54.9674 116.197 55.0038C116.221 55.0402 116.237 55.0809 116.245 55.1235C116.252 55.1661 116.251 55.2099 116.242 55.2521L114.554 63.5444C114.539 63.6167 114.5 63.6818 114.443 63.729C114.387 63.7762 114.315 63.8027 114.241 63.8042Z" fill="#CE0500"/>
</g>
<defs>
<clipPath id="clip0_505_8388">
<rect width="150" height="105" fill="white" transform="translate(53 48)"/>
</clipPath>
</defs>
</svg>
