<svg width="164" height="33" viewBox="0 0 164 33" fill="none" xmlns="http://www.w3.org/2000/svg">
<rect y="0.75" width="32" height="32" rx="4" fill="#000091"/>
<path d="M19.5281 12.7499L12.6687 8.81065L5.80924 12.7881C5.76689 12.812 5.73166 12.8466 5.70708 12.8884C5.6825 12.9301 5.66946 12.9776 5.66925 13.026V20.7202C5.67193 20.768 5.68602 20.8146 5.71036 20.8559C5.7347 20.8973 5.76859 20.9323 5.80924 20.9581L12.6677 24.8625L19.5272 20.91C19.5679 20.8842 19.6018 20.8492 19.6261 20.8078C19.6504 20.7665 19.6645 20.7199 19.6672 20.6721V12.9896C19.6674 12.9411 19.6547 12.8933 19.6303 12.8512C19.6058 12.809 19.5706 12.7741 19.5281 12.7499Z" fill="#000091"/>
<path d="M10.218 12.9769L7.9173 16.894L5.83257 12.7286L8.29838 11.3153L10.352 12.7499L10.218 12.9769ZM19.6676 20.6857V12.9869C19.6676 12.9386 19.6546 12.8911 19.63 12.8494C19.6054 12.8077 19.5701 12.7732 19.5276 12.7495L12.6687 8.81065" fill="#FCC63A"/>
<path d="M5.67017 20.6857L12.6696 8.81065V24.8647L5.80924 20.9581C5.76859 20.9323 5.7347 20.8973 5.71036 20.8559C5.68602 20.8146 5.67193 20.768 5.66925 20.7202V13.026L5.67017 20.6857ZM16.9557 11.2722L19.4526 12.7045L17.399 16.8586L14.9346 12.6655L16.9557 11.2722Z" fill="#0063CB"/>
<path d="M21.6389 11.481L12.8599 6.47803C12.8008 6.44881 12.7356 6.4336 12.6696 6.4336C12.6035 6.4336 12.5384 6.44881 12.4793 6.47803L3.70027 11.481C3.64742 11.5159 3.60358 11.5627 3.57227 11.6175C3.54096 11.6723 3.52307 11.7336 3.52002 11.7966V21.7844C3.52271 21.8477 3.54044 21.9095 3.57177 21.9647C3.60309 22.0199 3.64712 22.067 3.70027 22.1022L12.4788 27.1052C12.5379 27.1344 12.6031 27.1496 12.6691 27.1496C12.7352 27.1496 12.8003 27.1344 12.8594 27.1052L21.6389 22.1022C21.692 22.067 21.7361 22.0199 21.7674 21.9647C21.7987 21.9095 21.8164 21.8477 21.8191 21.7844V11.7966C21.8161 11.7336 21.7982 11.6723 21.7669 11.6175C21.7356 11.5627 21.6917 11.5159 21.6389 11.481ZM8.45575 19.5421H8.49189C8.47268 19.5421 8.45575 19.5453 8.45575 19.5648C8.45575 19.6102 8.52483 19.5648 8.54725 19.6102C8.43854 19.6132 8.33529 19.6581 8.25949 19.7355C8.25949 19.7587 8.30524 19.7587 8.32857 19.7587C8.29426 19.8041 8.22518 19.7814 8.20185 19.8272C8.21423 19.8395 8.23028 19.8475 8.2476 19.8499C8.22472 19.8499 8.20185 19.8499 8.20185 19.8731V19.9416C8.14421 19.9416 8.12133 19.987 8.07513 20.0102C8.16662 20.0787 8.22472 20.0102 8.31668 20.0102C8.07513 20.101 7.87933 20.2272 7.63778 20.2957C7.59203 20.2957 7.63778 20.3643 7.59203 20.3643C7.66111 20.4097 7.69588 20.3416 7.7645 20.3416C7.46531 20.5128 7.15468 20.6594 6.83262 20.8555C6.8078 20.88 6.79174 20.9119 6.78687 20.9463H6.69537C6.64963 20.969 6.6725 21.0262 6.6263 21.0721C6.72969 21.1406 6.85503 20.9813 6.92549 21.0721C6.94836 21.0721 6.87974 21.0948 6.83399 21.0948C6.81112 21.0948 6.81112 21.1402 6.78824 21.1402H6.71779C6.67204 21.1742 6.6263 21.1974 6.6263 21.2655C6.60646 21.2618 6.58598 21.2642 6.56753 21.2723C6.54908 21.2804 6.53353 21.2939 6.52291 21.3109C7.01425 21.3089 7.50131 21.2201 7.96122 21.0485C8.3179 20.8682 8.64095 20.6289 8.91643 20.3407C8.92882 20.353 8.93685 20.3689 8.9393 20.3861C8.872 20.5842 8.74285 20.756 8.57058 20.8764C8.44385 20.945 8.3519 21.0476 8.25034 21.0934C8.18249 21.1311 8.11709 21.1729 8.05454 21.2187C7.76529 21.308 7.46834 21.3706 7.16749 21.4058L7.02796 21.4257C6.92503 21.4407 6.82255 21.4571 6.72099 21.4748L5.80924 20.9581C5.77588 20.9373 5.74704 20.91 5.72442 20.878C5.7018 20.846 5.68584 20.8098 5.67749 20.7715C5.69273 20.7634 5.70714 20.7538 5.72049 20.7429C5.70631 20.728 5.68851 20.7169 5.66879 20.7107V20.4156C6.1482 20.331 6.61508 20.1873 7.05861 19.9879C6.63898 19.6985 6.16736 19.4915 5.66925 19.3782V18.6904C5.92318 18.7317 6.17377 18.7912 6.41906 18.8684C6.60789 18.9372 6.78909 19.0252 6.9598 19.1308C7.02688 19.1948 7.10012 19.2521 7.17847 19.302C7.23368 19.3332 7.29537 19.3515 7.35881 19.3554C7.42225 19.3594 7.48575 19.3488 7.54445 19.3247H7.69542C8.02316 19.2709 8.32971 19.1288 8.58156 18.9138C8.58156 18.9365 8.60443 18.9365 8.6273 18.9365C8.59147 19.1175 8.52529 19.2912 8.4315 19.4504C8.43288 19.4736 8.40954 19.5194 8.45575 19.5421ZM9.74446 21.1633C9.85929 21.1179 9.92746 21.0376 10.0322 20.9922C10.0093 21.0149 10.0093 21.0607 9.98647 21.083C9.90063 21.1362 9.81979 21.197 9.74492 21.2646C9.48613 21.4909 9.24382 21.7352 9.01982 21.9955C8.90454 22.1317 8.77827 22.2579 8.65384 22.3837C8.60975 22.4246 8.56231 22.4618 8.51202 22.4949L7.35597 21.8366C7.5204 21.8504 7.68595 21.8423 7.84822 21.8125C7.98291 21.7751 8.11385 21.7254 8.23936 21.6641V21.7095C8.5596 21.5837 8.80298 21.2982 9.1255 21.1956C9.13693 21.1956 9.18314 21.241 9.22889 21.2183C9.31175 21.1164 9.41708 21.0347 9.53678 20.9796C9.65647 20.9245 9.78731 20.8974 9.91922 20.9005C9.91922 20.9232 9.91922 20.9459 9.9421 20.9459H9.95353C9.88445 21.0031 9.80394 21.0598 9.72479 21.117C9.69872 21.1406 9.72159 21.1633 9.74446 21.1633ZM5.66925 18.3649V18.2805C5.90629 18.219 6.15076 18.1902 6.39573 18.1951C6.46816 18.1837 6.54197 18.1837 6.6144 18.1951C6.29162 18.1948 5.97143 18.2523 5.66925 18.3649ZM19.6681 20.6748C19.6654 20.7227 19.6514 20.7692 19.627 20.8105C19.6027 20.8519 19.5688 20.8869 19.5281 20.9127L14.9172 23.569C14.3878 23.4187 13.8673 23.2391 13.3581 23.031C13.2843 22.8717 13.2442 22.6991 13.2403 22.5238C13.2363 22.3485 13.2686 22.1743 13.3352 22.0118C13.3717 21.872 13.4258 21.7374 13.4962 21.611C13.5077 21.5996 13.5191 21.5883 13.5191 21.5765C13.5221 21.5765 13.5251 21.5753 13.5272 21.5731C13.5293 21.571 13.5306 21.5681 13.5306 21.5651C13.5814 21.4768 13.639 21.3926 13.703 21.3131L13.7099 21.3063L13.719 21.2968L13.7259 21.29C13.7259 21.2786 13.7373 21.2673 13.7488 21.2555C13.7602 21.2323 13.7831 21.221 13.7945 21.1983C13.8748 21.1139 13.9636 21.0378 14.0594 20.9713C14.1567 20.9363 14.2568 20.9094 14.3586 20.8909C14.7296 20.918 15.0986 20.9678 15.4634 21.0398C15.5082 21.0465 15.5513 21.062 15.5901 21.0852C15.7279 21.1119 15.8702 21.1041 16.0041 21.0625C16.0915 21.0467 16.1733 21.0089 16.2417 20.9528C16.3102 20.8967 16.3631 20.8241 16.3953 20.742C16.4356 20.6688 16.4585 20.5875 16.4625 20.5042C16.4665 20.421 16.4513 20.3379 16.4182 20.2612C16.3367 20.1359 16.4122 20.0628 16.501 19.9934L16.5321 19.9684C16.5716 19.9406 16.6072 19.9076 16.6377 19.8704C16.6954 19.7559 16.592 19.6888 16.5687 19.5843C16.5458 19.5389 16.4653 19.5616 16.4191 19.4935C16.5801 19.425 16.8102 19.2988 16.7068 19.1045C16.6377 19.0014 16.5344 18.8185 16.6611 18.7154C16.8221 18.6246 17.0522 18.6468 17.1213 18.4979C17.1439 18.4114 17.1435 18.3205 17.12 18.2341C17.0966 18.1478 17.051 18.069 16.9877 18.0054L16.9534 17.9563C16.9191 17.9077 16.8852 17.8592 16.8569 17.811C16.7842 17.6913 16.7035 17.5765 16.6153 17.4674C16.5147 17.326 16.4335 17.1719 16.3738 17.0093C16.3047 16.8377 16.3967 16.6888 16.3967 16.5172C16.4034 16.1866 16.3528 15.8573 16.2471 15.5438C16.1894 15.3835 16.1665 15.2119 16.0975 15.063C16.0888 14.9673 16.0529 14.876 15.9941 14.7997C15.9827 14.7765 15.9768 14.7511 15.9768 14.7253C15.9768 14.6995 15.9827 14.674 15.9941 14.6508C16.0879 14.5852 16.1764 14.5125 16.259 14.4333C16.2845 14.3778 16.2893 14.3151 16.2725 14.2564C16.2557 14.1977 16.2185 14.1468 16.1675 14.1128C16.0179 14.0443 16.0302 14.2617 15.9259 14.3076H15.8568C15.834 14.2504 15.8797 14.2272 15.9259 14.1818C15.9259 14.1591 15.9259 14.1133 15.903 14.1133C15.8115 14.1133 15.7306 14.0901 15.7072 14.0447C15.4867 13.772 15.1909 13.5691 14.8559 13.4609C14.9419 13.4871 15.0309 13.5024 15.1207 13.5063C15.2752 13.5387 15.436 13.5228 15.581 13.4609C15.6848 13.4264 15.7077 13.2434 15.7534 13.1404C15.7627 13.0905 15.7614 13.0392 15.7495 12.9899C15.7376 12.9405 15.7154 12.8942 15.6844 12.8539C15.5805 12.704 15.4371 12.5853 15.2699 12.5107C15.1894 12.4762 15.0626 12.4076 14.9593 12.3504C14.924 12.3258 14.8853 12.3066 14.8444 12.2932C13.488 11.619 10.6956 12.2024 10.4828 12.2932H10.4787C10.2827 12.3496 10.0916 12.4218 9.90733 12.5089C9.65361 12.6023 9.4245 12.7516 9.23713 12.9454C9.04977 13.1392 8.90901 13.3725 8.82539 13.628C8.56417 13.7982 8.35362 14.0348 8.21557 14.313C8.01977 14.6762 7.73248 14.9981 7.77822 15.409C7.82397 15.7631 7.90495 16.0827 7.97402 16.4482C7.99367 16.5717 8.02429 16.6932 8.06552 16.8114C8.11127 16.9367 8.06552 17.0969 8.1346 17.1995C8.16891 17.2681 8.14604 17.348 8.23845 17.3938V17.4846C8.26132 17.5073 8.26132 17.53 8.30753 17.53V17.6208C8.50638 17.8131 8.67687 18.0323 8.81395 18.2718C8.8597 18.3971 8.59528 18.3404 8.49372 18.2945C8.30363 18.1717 8.12968 18.026 7.97586 17.8605C7.96327 17.8727 7.95507 17.8887 7.95252 17.9059C8.04402 18.0657 8.367 18.26 8.19407 18.3626C8.10258 18.408 7.99827 18.2941 7.90632 18.3858C7.88344 18.4198 7.90632 18.4657 7.90632 18.5111C7.7796 18.4203 7.6419 18.4657 7.51517 18.4203C7.42368 18.3976 7.39989 18.2264 7.2965 18.2264C7.02362 18.1604 6.74695 18.1108 6.46801 18.078C6.20444 18.0388 5.93882 18.0147 5.67245 18.0058V13.026C5.67266 12.9776 5.68571 12.9301 5.71028 12.8884C5.73486 12.8466 5.7701 12.812 5.81244 12.7881L12.6687 8.81065L19.5281 12.7499C19.5705 12.7738 19.6057 12.8084 19.6303 12.8502C19.6549 12.892 19.6679 12.9395 19.6681 12.9878V20.6748ZM16.0293 16.9244C16.0155 16.9457 15.9963 16.9632 15.9737 16.975C15.9511 16.9869 15.9258 16.9927 15.9003 16.992C15.8545 17.0304 15.8114 17.0718 15.7713 17.116C15.817 17.116 15.7713 17.1836 15.817 17.1836C15.7232 17.2849 15.8523 17.4987 15.7232 17.5436C15.5544 17.5886 15.3765 17.5886 15.2077 17.5436C15.2328 17.5383 15.2584 17.5358 15.2841 17.5364H15.323C15.3516 17.5398 15.3807 17.5361 15.4076 17.5257C15.4345 17.5152 15.4584 17.4983 15.4771 17.4765V17.3857C15.4771 17.363 15.4538 17.363 15.4314 17.363C15.4193 17.3757 15.4031 17.3838 15.3856 17.3857C15.3845 17.3652 15.3772 17.3456 15.3646 17.3294C15.352 17.3132 15.3348 17.3012 15.3152 17.2949C15.2544 17.3029 15.1925 17.2958 15.1351 17.2742C15.0778 17.2525 15.0268 17.217 14.9867 17.1709C15.0487 17.1413 15.119 17.1333 15.1862 17.1482C15.2447 17.1482 15.2214 17.047 15.2918 17.002H15.3623C15.5027 16.8331 15.7608 16.7882 15.8079 16.6193C15.8079 16.5739 15.6789 16.5739 15.5851 16.5517C15.4597 16.5364 15.3325 16.5441 15.21 16.5744C15.0454 16.5969 14.884 16.6385 14.7291 16.6983C14.8574 16.6049 15 16.5327 15.1514 16.4845C15.2577 16.4438 15.3677 16.4134 15.4799 16.3937L15.5403 16.3819L15.6011 16.3696C15.6841 16.345 15.7725 16.345 15.8555 16.3696C15.9611 16.415 16.1368 16.415 16.1601 16.4822C16.2059 16.6061 16.0897 16.7296 15.9611 16.82C15.9351 16.8568 16.0293 16.8813 16.0293 16.9244Z" fill="white"/>
<path d="M14.957 7.25759C14.957 6.75613 15.3666 6.34961 15.8719 6.34961H27.5651C28.0704 6.34961 28.48 6.75613 28.48 7.25759V11.4806C28.48 11.9821 28.0704 12.3886 27.5651 12.3886H15.8719C15.3666 12.3886 14.957 11.9821 14.957 11.4806V7.25759Z" fill="#FCC63A"/>
<path d="M16.129 11.4196V7.40101H17.4653C17.9088 7.40101 18.2579 7.50817 18.5124 7.72249C18.7708 7.93682 18.9 8.22961 18.9 8.60085C18.9 8.96827 18.7708 9.25914 18.5124 9.47346C18.2579 9.68779 17.9088 9.79495 17.4653 9.79495H16.9505V11.4196H16.129ZM17.5 8.09565H16.9505V9.10031H17.5C17.6736 9.10031 17.8086 9.05629 17.905 8.96827C18.0053 8.88024 18.0554 8.75394 18.0554 8.58937C18.0554 8.43628 18.0053 8.31572 17.905 8.22769C17.8086 8.13967 17.6736 8.09565 17.5 8.09565Z" fill="#161616"/>
<path d="M19.6373 11.4196V7.40101H20.8752C21.3188 7.40101 21.6697 7.50817 21.9281 7.72249C22.1865 7.93682 22.3157 8.22961 22.3157 8.60085C22.3157 8.84197 22.2579 9.05247 22.1422 9.23235C22.0303 9.4084 21.8722 9.54427 21.6678 9.63995L22.9405 11.4196H21.957L20.881 9.79495H20.4587V11.4196H19.6373ZM20.9215 8.09565H20.4587V9.10031H20.9215C21.0951 9.10031 21.2301 9.05629 21.3265 8.96827C21.4229 8.88024 21.4711 8.75394 21.4711 8.58937C21.4711 8.43628 21.4229 8.31572 21.3265 8.22769C21.2301 8.13967 21.0951 8.09565 20.9215 8.09565Z" fill="#161616"/>
<path d="M25.2724 7.28619C25.5887 7.28619 25.8779 7.3436 26.1402 7.45841C26.4063 7.57323 26.6338 7.72632 26.8228 7.91769C27.0118 8.10905 27.1583 8.33486 27.2625 8.59511C27.3666 8.85153 27.4187 9.12327 27.4187 9.41031C27.4187 9.69736 27.3666 9.97101 27.2625 10.2313C27.1583 10.4877 27.0118 10.7116 26.8228 10.9029C26.6338 11.0943 26.4063 11.2474 26.1402 11.3622C25.8779 11.477 25.5887 11.5344 25.2724 11.5344C24.9562 11.5344 24.665 11.477 24.3989 11.3622C24.1328 11.2474 23.9053 11.0943 23.7163 10.9029C23.5273 10.7116 23.3808 10.4877 23.2766 10.2313C23.1725 9.97101 23.1204 9.69736 23.1204 9.41031C23.1204 9.12327 23.1725 8.85153 23.2766 8.59511C23.3808 8.33486 23.5273 8.10905 23.7163 7.91769C23.9053 7.72632 24.1328 7.57323 24.3989 7.45841C24.665 7.3436 24.9562 7.28619 25.2724 7.28619ZM25.2724 10.7709C25.4614 10.7709 25.635 10.7365 25.7931 10.6676C25.9551 10.5948 26.092 10.4992 26.2038 10.3805C26.3195 10.258 26.4102 10.1145 26.4757 9.94996C26.5413 9.78156 26.5741 9.60168 26.5741 9.41031C26.5741 9.21895 26.5413 9.04098 26.4757 8.87641C26.4102 8.70801 26.3195 8.56449 26.2038 8.44585C26.092 8.32337 25.9551 8.22769 25.7931 8.1588C25.635 8.08608 25.4614 8.04973 25.2724 8.04973C25.0835 8.04973 24.908 8.08608 24.746 8.1588C24.584 8.22769 24.4452 8.32337 24.3295 8.44585C24.2177 8.56449 24.129 8.70801 24.0634 8.87641C23.9978 9.04098 23.965 9.21895 23.965 9.41031C23.965 9.60168 23.9978 9.78156 24.0634 9.94996C24.129 10.1145 24.2177 10.258 24.3295 10.3805C24.4452 10.4992 24.584 10.5948 24.746 10.6676C24.908 10.7365 25.0835 10.7709 25.2724 10.7709Z" fill="#161616"/>
<path d="M38.266 26.75V11.35H43.348C46.736 11.35 48.804 13.088 48.804 15.948C48.804 18.786 46.736 20.524 43.348 20.524H41.39V26.75H38.266ZM43.48 13.946H41.39V17.928H43.48C44.8 17.928 45.592 17.158 45.592 15.904C45.592 14.738 44.8 13.946 43.48 13.946ZM50.9708 26.75V15.662H53.7648V16.762C54.4908 16.014 55.4368 15.442 56.6908 15.442C57.0648 15.442 57.3948 15.508 57.6588 15.596V18.346C57.3068 18.258 56.9328 18.192 56.4268 18.192C55.0628 18.192 54.1828 18.94 53.7648 19.644V26.75H50.9708ZM64.7157 15.222C68.3237 15.222 70.7877 17.884 70.7877 21.206C70.7877 24.528 68.3237 27.19 64.7157 27.19C61.1077 27.19 58.6437 24.528 58.6437 21.206C58.6437 17.884 61.1077 15.222 64.7157 15.222ZM64.7597 24.55C66.5417 24.55 67.8837 23.12 67.8837 21.206C67.8837 19.27 66.5417 17.862 64.7597 17.862C62.9117 17.862 61.5477 19.27 61.5477 21.206C61.5477 23.142 62.9117 24.55 64.7597 24.55ZM80.8585 24.264C82.6185 24.264 84.0045 23.406 84.8845 22.152L87.3485 24.044C85.9405 25.958 83.6525 27.19 80.8585 27.19C75.9965 27.19 72.6745 23.45 72.6745 19.05C72.6745 14.65 75.9965 10.91 80.8585 10.91C83.6525 10.91 85.9405 12.164 87.3485 14.034L84.8845 15.948C84.0045 14.694 82.6185 13.836 80.8585 13.836C77.9545 13.836 75.8865 16.102 75.8865 19.05C75.8865 21.998 77.9545 24.264 80.8585 24.264ZM94.7508 15.222C98.3588 15.222 100.823 17.884 100.823 21.206C100.823 24.528 98.3588 27.19 94.7508 27.19C91.1428 27.19 88.6788 24.528 88.6788 21.206C88.6788 17.884 91.1428 15.222 94.7508 15.222ZM94.7948 24.55C96.5768 24.55 97.9188 23.12 97.9188 21.206C97.9188 19.27 96.5768 17.862 94.7948 17.862C92.9468 17.862 91.5828 19.27 91.5828 21.206C91.5828 23.142 92.9468 24.55 94.7948 24.55ZM103.371 26.75V15.662H106.165V16.542C106.935 15.794 107.969 15.222 109.443 15.222C111.841 15.222 113.755 16.872 113.755 20.15V26.75H110.939V20.26C110.939 18.786 110.103 17.862 108.739 17.862C107.331 17.862 106.583 18.808 106.165 19.512V26.75H103.371ZM116.928 26.75V15.662H119.722V16.542C120.492 15.794 121.526 15.222 123 15.222C125.398 15.222 127.312 16.872 127.312 20.15V26.75H124.496V20.26C124.496 18.786 123.66 17.862 122.296 17.862C120.888 17.862 120.14 18.808 119.722 19.512V26.75H116.928ZM140.693 24.946C139.659 26.332 137.943 27.19 135.853 27.19C131.915 27.19 129.693 24.44 129.693 21.206C129.693 17.928 131.761 15.222 135.391 15.222C138.471 15.222 140.495 17.312 140.495 20.216C140.495 20.832 140.407 21.404 140.319 21.778H132.553C132.817 23.846 134.093 24.682 135.831 24.682C137.041 24.682 138.097 24.154 138.691 23.362L140.693 24.946ZM135.325 17.51C133.895 17.51 132.949 18.302 132.641 19.754H137.745C137.701 18.632 136.887 17.51 135.325 17.51ZM148.463 24.55C149.563 24.55 150.443 24.044 150.971 23.274L153.149 24.946C152.115 26.31 150.487 27.19 148.463 27.19C144.635 27.19 142.347 24.44 142.347 21.206C142.347 17.972 144.635 15.222 148.463 15.222C150.487 15.222 152.115 16.102 153.149 17.466L150.971 19.138C150.443 18.368 149.563 17.862 148.419 17.862C146.593 17.862 145.251 19.27 145.251 21.206C145.251 23.164 146.593 24.55 148.463 24.55ZM156.046 22.702V18.17H153.978V15.662H156.046V12.89H158.862V15.662H162.25V18.17H158.862V22.702C158.862 23.934 159.522 24.418 160.622 24.418C161.392 24.418 161.898 24.33 162.272 24.176V26.618C161.722 26.86 161.062 26.97 160.138 26.97C157.366 26.97 156.046 25.408 156.046 22.702Z" fill="#000091"/>
</svg>
