<svg width="377" height="325" viewBox="0 0 377 325" fill="none" xmlns="http://www.w3.org/2000/svg">
<g clip-path="url(#clip0_505_8427)">
<path d="M369.957 237.724C357.935 238.685 347.706 238.311 339.615 237.29V275.241C339.05 297.518 340.084 321.386 341.543 323.611L206.337 318.491C206.711 315.513 207.149 301.265 209.034 280.327C210.22 267.143 212.183 250.717 214.633 230.739C195.692 228.788 186.962 219.386 186.962 219.386C186.962 219.386 207.028 152.42 219.363 143.601C236.206 131.556 259.13 129.691 259.13 129.691L304.664 130.074C304.664 130.074 351.081 130.222 364.119 148.956C376.624 166.951 378.852 197.161 369.957 237.724Z" fill="#CE0500"/>
<path d="M206.337 319.36C206.213 319.361 206.09 319.335 205.977 319.285C205.864 319.235 205.763 319.161 205.681 319.068C205.599 318.976 205.537 318.866 205.5 318.748C205.464 318.63 205.453 318.505 205.468 318.382C205.846 315.4 206.267 301.299 208.165 280.248C210.337 255.959 215.171 220.633 220.822 172.45C220.848 172.219 220.965 172.009 221.147 171.864C221.328 171.72 221.56 171.654 221.79 171.681C222.021 171.707 222.231 171.824 222.375 172.006C222.519 172.188 222.586 172.419 222.559 172.65C216.887 220.998 212.092 256.107 209.903 280.413C208.018 301.36 207.583 315.578 207.201 318.608C207.173 318.817 207.069 319.008 206.91 319.147C206.751 319.285 206.548 319.361 206.337 319.36Z" fill="#000091"/>
<path d="M320.799 240.498C298.788 242.293 278.73 241.967 257.644 239.193C257.644 239.193 238.751 222.676 236.323 225.214C233.895 227.753 241.252 238.42 241.252 238.42C241.252 238.42 215.731 229.518 214.398 233.069C213.065 236.62 228.223 243.727 228.223 243.727C228.223 243.727 212.361 238.511 210.815 242.653C209.269 246.796 225.339 252.216 225.339 252.216C225.339 252.216 212.448 249.3 211.188 252.651C209.929 256.002 226.75 259.853 226.75 259.853C226.75 259.853 217.629 259.297 216.761 261.931C215.892 264.565 246.265 269.807 246.265 269.807C246.265 269.807 315.609 280.635 342.568 274.706C357.404 271.446 361.887 258.063 367.268 238.072C349.46 239.215 334.124 237.79 321.859 233.217L320.799 240.498Z" fill="white"/>
<path d="M214.49 231.034L201.729 228.144C197.577 212.017 188.1 175.001 182.362 160.635C175.279 142.852 169.22 139.84 162.64 137.736C156.06 135.633 148.337 136.711 147.417 139.692C146.496 142.674 157.81 147.038 157.81 147.038L149.28 151.576C149.28 151.576 151.525 165.521 160.498 168.724C160.498 168.724 164.273 241.884 179.175 257.01C183.296 261.183 193.477 267.22 211.315 257.553L214.49 231.034Z" fill="white"/>
<path d="M341.543 324.48C341.399 324.48 341.256 324.445 341.129 324.377C341.001 324.308 340.893 324.209 340.813 324.088C339.02 321.35 338.207 295.57 338.746 275.218C338.746 274.988 338.838 274.767 339 274.604C339.163 274.441 339.384 274.349 339.615 274.349C339.845 274.349 340.066 274.441 340.229 274.604C340.392 274.767 340.483 274.988 340.483 275.218C339.875 299.212 341.126 321.35 342.268 323.089C342.367 323.22 342.426 323.376 342.44 323.54C342.453 323.703 342.42 323.868 342.344 324.013C342.268 324.159 342.153 324.28 342.011 324.362C341.869 324.445 341.707 324.485 341.543 324.48ZM317.694 230.304C317.694 229.291 319.822 219.437 322.641 192.922C322.924 190.266 323.215 187.524 323.54 184.663C323.566 184.433 323.683 184.222 323.864 184.077C324.045 183.933 324.276 183.866 324.507 183.892C324.737 183.918 324.948 184.034 325.092 184.216C325.237 184.397 325.303 184.628 325.278 184.859C323.775 197.712 323.11 207.345 319.432 230.326C319.653 231.021 323.128 233.433 332.848 235.35C340.105 236.78 352.28 238.202 369.257 236.906C377.805 197.486 375.772 167.255 363.403 149.459C356.84 140.027 341.252 135.493 329.369 133.351C321.205 131.915 312.943 131.111 304.656 130.947C304.425 130.947 304.204 130.855 304.042 130.692C303.879 130.529 303.787 130.308 303.787 130.077C303.787 129.847 303.879 129.626 304.042 129.463C304.204 129.3 304.425 129.208 304.656 129.208C310.185 129.208 320.678 130.025 329.647 131.638C347.454 134.837 359.281 140.497 364.827 148.464C381.08 171.819 376.919 210.07 370.817 237.911C370.777 238.093 370.68 238.258 370.539 238.381C370.398 238.504 370.221 238.579 370.035 238.593C340.405 240.953 317.694 235.068 317.694 230.304ZM214.563 231.612C210.083 231.171 205.668 230.213 201.408 228.756C201.296 228.722 201.192 228.666 201.103 228.591C201.013 228.516 200.939 228.424 200.886 228.32C200.833 228.216 200.802 228.102 200.793 227.986C200.785 227.869 200.8 227.752 200.838 227.642C200.876 227.531 200.936 227.43 201.014 227.343C201.092 227.256 201.187 227.186 201.293 227.136C201.399 227.087 201.514 227.06 201.63 227.056C201.747 227.052 201.863 227.071 201.972 227.113C206.108 228.524 210.393 229.453 214.741 229.882C214.972 229.906 215.183 230.02 215.33 230.2C215.476 230.38 215.545 230.61 215.521 230.841C215.497 231.071 215.383 231.283 215.204 231.429C215.024 231.576 214.794 231.645 214.563 231.621V231.612ZM193.842 198.925C193.704 198.925 193.568 198.891 193.446 198.828C193.323 198.765 193.218 198.674 193.137 198.562C193.057 198.45 193.005 198.32 192.985 198.184C192.964 198.047 192.977 197.908 193.021 197.777C200.504 175.818 211.058 148.473 218.846 142.9C235.689 130.855 258.804 128.847 259.047 128.83C259.277 128.811 259.506 128.885 259.682 129.035C259.858 129.185 259.967 129.399 259.985 129.63C260.004 129.86 259.93 130.089 259.78 130.265C259.63 130.441 259.416 130.55 259.186 130.569C258.96 130.59 236.301 132.564 219.853 144.326C214.073 148.46 205.125 167.646 194.663 198.347C194.602 198.516 194.491 198.663 194.344 198.767C194.197 198.87 194.021 198.925 193.842 198.925ZM193.681 263.613C185.711 263.613 180.821 259.892 178.575 257.619C164.121 242.966 160.068 176.678 159.665 169.333C156.003 167.816 152.919 164.356 150.73 159.296C149.678 156.864 148.904 154.321 148.424 151.715C148.387 151.485 148.443 151.249 148.58 151.06C148.717 150.871 148.923 150.744 149.154 150.707C149.384 150.67 149.62 150.726 149.809 150.863C149.998 151 150.125 151.207 150.161 151.437C150.161 151.572 152.433 164.912 160.815 167.907C160.977 167.965 161.117 168.069 161.219 168.207C161.321 168.345 161.38 168.509 161.389 168.681C161.428 169.411 165.298 241.679 179.835 256.397C189.824 266.542 204.934 260.048 210.958 256.788C211.059 256.725 211.172 256.683 211.289 256.665C211.407 256.646 211.527 256.653 211.642 256.683C211.757 256.713 211.864 256.766 211.958 256.84C212.051 256.913 212.129 257.005 212.185 257.11C212.242 257.215 212.277 257.33 212.287 257.448C212.297 257.567 212.283 257.686 212.245 257.799C212.208 257.912 212.147 258.016 212.068 258.105C211.989 258.193 211.892 258.264 211.784 258.314C204.53 262.235 198.537 263.613 193.681 263.613Z" fill="#000091"/>
<path d="M203.679 236.39C203.492 236.389 203.311 236.328 203.161 236.216C203.012 236.105 202.902 235.947 202.849 235.768C201.433 230.987 188.699 178.796 181.567 160.957C174.666 143.675 168.781 140.593 162.353 138.567C155.925 136.542 148.888 137.698 148.22 139.949C147.863 141.106 152.563 144.096 158.096 146.226C158.307 146.308 158.478 146.469 158.573 146.676C158.667 146.882 158.677 147.117 158.6 147.33C158.5 147.613 156.229 154.437 162.557 161.783C162.684 161.959 162.74 162.175 162.716 162.391C162.691 162.606 162.587 162.804 162.424 162.947C162.261 163.089 162.051 163.166 161.834 163.161C161.618 163.157 161.411 163.071 161.254 162.922C155.464 156.197 156.242 149.777 156.754 147.556C155.725 147.122 153.766 146.287 151.842 145.248C147.707 143.023 146.035 141.175 146.574 139.437C146.86 138.502 147.599 137.698 148.767 137.107C151.972 135.425 157.888 135.338 162.887 136.907C169.745 139.08 176.008 142.323 183.196 160.314C190.384 178.305 203.084 230.413 204.521 235.273C204.56 235.403 204.568 235.541 204.544 235.675C204.519 235.809 204.464 235.936 204.382 236.044C204.3 236.153 204.194 236.241 204.072 236.301C203.949 236.361 203.815 236.391 203.679 236.39Z" fill="#000091"/>
<path d="M300.538 82.5898L300.807 130.204C300.807 130.204 285.172 150.459 271.842 147.664C264.146 146.052 267.208 129.921 267.208 129.921L269.349 107.892L300.538 82.5898Z" fill="white"/>
<path d="M274.453 148.799C273.513 148.808 272.576 148.719 271.655 148.534C263.347 146.795 266.135 130.938 266.339 129.817L268.481 107.827C268.492 107.713 268.525 107.602 268.579 107.501C268.633 107.399 268.706 107.31 268.795 107.237C268.883 107.164 268.985 107.109 269.095 107.076C269.205 107.043 269.32 107.031 269.434 107.042C269.548 107.053 269.659 107.087 269.76 107.141C269.861 107.195 269.951 107.268 270.023 107.357C270.096 107.445 270.151 107.547 270.184 107.657C270.218 107.767 270.229 107.882 270.218 107.996L268.077 130.025C267.607 132.721 267.418 135.458 267.512 138.193C267.755 143.348 269.249 146.256 272.025 146.834C283.895 149.316 298.162 132.129 299.939 129.917L299.865 116.342C299.865 116.111 299.956 115.89 300.119 115.727C300.282 115.564 300.503 115.473 300.734 115.473C300.964 115.473 301.185 115.564 301.348 115.727C301.511 115.89 301.602 116.111 301.602 116.342L301.68 130.251C301.681 130.445 301.617 130.633 301.498 130.786C300.886 131.521 287.369 148.799 274.453 148.799Z" fill="#000091"/>
<path d="M284.529 110.175C274.539 114.608 263.308 116.208 253.883 114.134C233.066 109.562 237.917 81.6733 239.481 64.0169C242.039 35.107 263.212 28.7782 283.56 34.3202C303.909 39.8623 315.588 62.0392 309.655 83.8727C308.013 89.9016 304.59 95.2611 300.06 99.7599" fill="white"/>
<path d="M253.696 114.986C233.969 110.639 236.38 86.4843 238.143 68.8367C238.312 67.1415 238.477 65.5028 238.616 63.9423C239.715 51.4847 244.223 42.4174 252.011 36.9927C260.107 31.342 271.391 30.1032 283.786 33.4806C304.252 39.0574 316.652 61.4386 310.493 84.0763C308.877 90.0095 305.576 95.482 300.673 100.355C300.592 100.435 300.496 100.499 300.39 100.542C300.285 100.586 300.172 100.608 300.057 100.607C299.943 100.607 299.83 100.584 299.725 100.54C299.62 100.496 299.524 100.431 299.444 100.35C299.363 100.269 299.3 100.173 299.256 100.067C299.213 99.9618 299.191 99.8486 299.191 99.7344C299.192 99.6201 299.215 99.5071 299.259 99.4017C299.303 99.2964 299.367 99.2007 299.448 99.1202C304.13 94.4692 307.266 89.2532 308.816 83.6199C314.484 62.7861 303.683 40.7048 283.33 35.1584C271.438 31.9201 260.667 33.0763 253.006 38.4184C245.657 43.5389 241.4 52.1758 240.345 64.0944C238.69 82.7853 234.325 108.948 254.07 113.286C263.13 115.277 274.101 113.851 284.177 109.374C284.282 109.32 284.397 109.288 284.515 109.28C284.633 109.272 284.752 109.288 284.863 109.327C284.975 109.367 285.077 109.428 285.164 109.509C285.251 109.589 285.321 109.686 285.369 109.794C285.417 109.903 285.442 110.019 285.443 110.138C285.445 110.256 285.422 110.374 285.376 110.483C285.33 110.592 285.263 110.691 285.178 110.773C285.092 110.855 284.991 110.919 284.881 110.961C275.326 115.207 263.838 117.211 253.696 114.986Z" fill="#000091"/>
<path d="M251.207 87.1845C250.951 86.6238 250.482 84.4982 255.16 80.6297C255.338 80.4898 255.564 80.4251 255.789 80.4493C256.014 80.4735 256.221 80.5847 256.365 80.7593C256.509 80.9338 256.58 81.1579 256.562 81.3837C256.544 81.6096 256.438 81.8194 256.267 81.9685C254.204 83.6767 252.515 85.8588 252.793 86.4586C253.227 87.4453 255.151 87.5105 255.781 87.454C256.011 87.4333 256.24 87.5049 256.418 87.6533C256.596 87.8017 256.707 88.0145 256.728 88.2451C256.748 88.4757 256.677 88.705 256.529 88.8827C256.38 89.0605 256.168 89.1719 255.937 89.1927C254.174 89.3274 251.967 88.845 251.207 87.1845ZM268.146 81.2382C268.018 81.2402 267.891 81.2138 267.774 81.1609C267.658 81.1081 267.554 81.03 267.471 80.9324C267.388 80.8348 267.328 80.72 267.294 80.5963C267.261 80.4726 267.255 80.3429 267.277 80.2167L267.786 77.3088C267.805 77.196 267.846 77.088 267.907 76.9912C267.968 76.8944 268.048 76.8106 268.141 76.7446C268.235 76.6786 268.34 76.6318 268.452 76.6067C268.564 76.5817 268.679 76.579 268.792 76.5987C268.904 76.6185 269.012 76.6603 269.109 76.7218C269.205 76.7833 269.288 76.8633 269.354 76.9571C269.419 77.051 269.466 77.1568 269.49 77.2687C269.515 77.3805 269.517 77.496 269.497 77.6087L268.989 80.5167C268.954 80.7164 268.851 80.8978 268.697 81.0295C268.544 81.1613 268.349 81.2351 268.146 81.2382ZM246.564 78.2129C246.436 78.2149 246.309 78.1885 246.193 78.1356C246.076 78.0828 245.973 78.0047 245.89 77.9071C245.807 77.8095 245.746 77.6947 245.713 77.571C245.679 77.4472 245.673 77.3176 245.696 77.1914L246.204 74.2835C246.245 74.0572 246.373 73.8562 246.561 73.7245C246.75 73.5928 246.982 73.5412 247.209 73.5808C247.435 73.6205 247.636 73.7483 247.769 73.9361C247.901 74.124 247.954 74.3568 247.915 74.5834L247.407 77.4914C247.373 77.6911 247.27 77.8725 247.116 78.0042C246.962 78.136 246.767 78.2098 246.564 78.2129ZM272.446 69.7107C272.277 69.7101 272.111 69.66 271.97 69.5666C271.829 69.4731 271.718 69.3404 271.651 69.1848C270.93 67.5331 269.171 67.8808 269.097 67.9156C268.872 67.9646 268.637 67.922 268.443 67.7973C268.249 67.6726 268.113 67.4759 268.064 67.2505C268.015 67.0251 268.057 66.7895 268.182 66.5955C268.306 66.4015 268.503 66.265 268.728 66.216C269.628 66.0131 270.57 66.1288 271.393 66.5433C272.217 66.9579 272.872 67.6457 273.245 68.4893C273.304 68.6221 273.328 68.7674 273.317 68.9121C273.305 69.0568 273.257 69.1962 273.178 69.3177C273.098 69.4391 272.99 69.5387 272.862 69.6074C272.734 69.676 272.591 69.7116 272.446 69.7107ZM246.96 66.216C246.798 66.2158 246.64 66.1704 246.502 66.085C246.365 65.9996 246.254 65.8775 246.182 65.7325C246.111 65.5875 246.081 65.4253 246.096 65.2642C246.111 65.1032 246.171 64.9495 246.269 64.8207C246.824 64.084 247.617 63.5626 248.512 63.3455C249.408 63.1283 250.351 63.2287 251.181 63.6297C251.29 63.6755 251.389 63.7431 251.471 63.8283C251.553 63.9135 251.616 64.0145 251.658 64.1252C251.699 64.2358 251.718 64.3538 251.712 64.4719C251.707 64.59 251.677 64.7057 251.626 64.812C251.574 64.9183 251.501 65.0129 251.411 65.09C251.322 65.1671 251.217 65.2252 251.105 65.2606C250.992 65.296 250.873 65.308 250.756 65.2959C250.638 65.2838 250.524 65.2478 250.421 65.1902C248.853 64.4252 247.768 65.7292 247.646 65.8813C247.565 65.9857 247.46 66.0701 247.342 66.1281C247.223 66.1861 247.092 66.2162 246.96 66.216ZM253.974 100.929C252.901 99.7074 252.324 98.0556 252.541 96.8125C252.578 96.5942 252.697 96.3984 252.874 96.2651C253.051 96.1318 253.272 96.071 253.492 96.0953C257.305 96.5082 261.953 95.9388 265.058 94.6869C265.202 94.6298 265.358 94.612 265.51 94.6353C265.663 94.6587 265.807 94.7223 265.927 94.8197C266.047 94.9172 266.138 95.0448 266.193 95.1896C266.247 95.3343 266.262 95.4909 266.235 95.6432C265.927 97.408 263.794 102.507 258.23 102.78C257.427 102.818 256.625 102.671 255.887 102.35C255.149 102.029 254.495 101.543 253.974 100.929ZM254.3 97.9122C254.669 99.5466 256.185 101.146 258.144 101.042C261.392 100.885 263.169 98.5903 263.985 96.8907C260.829 97.7625 257.551 98.1076 254.282 97.9122H254.3Z" fill="#000091"/>
<path d="M298.219 111.835C297.09 110.483 298.132 106.945 300.226 100.286C301.294 96.8994 305.511 84.5678 302.636 82.9856C301.945 83.5203 301.007 84.4157 300.095 85.2894C297.489 87.7714 296.412 88.6972 295.461 88.4973C295.279 88.4605 295.11 88.3794 294.967 88.2611C294.825 88.1427 294.714 87.9909 294.644 87.8192C293.428 84.959 297.133 73.6924 291.226 70.9148C284.073 67.5548 287.852 59.0961 285.393 57.3879C283.604 56.5403 260.745 55.9665 243.12 50.1984C235.363 47.6643 229.951 42.9351 227.485 36.528C224.731 29.4212 225.691 20.5669 230.056 12.8428C230.133 12.7064 230.246 12.5936 230.383 12.5162C230.519 12.4389 230.674 12.3999 230.831 12.4035C230.987 12.4071 231.14 12.453 231.273 12.5365C231.406 12.62 231.513 12.7378 231.585 12.8776C233.986 17.6198 241.24 20.0236 244.21 20.832C242.947 12.9602 245.079 4.93614 252.028 0.693757C252.151 0.620801 252.29 0.579358 252.433 0.573098C252.576 0.566838 252.718 0.595958 252.847 0.657875C252.976 0.719793 253.088 0.812584 253.172 0.928032C253.257 1.04348 253.311 1.17801 253.331 1.31968C254.317 8.47002 261.736 20.5712 283.3 20.5712C301.945 20.5712 321.151 24.0964 321.664 42.7395C348.062 59.7655 317.672 110.113 299.665 112.378C299.398 112.422 299.123 112.395 298.87 112.299C298.616 112.204 298.392 112.044 298.219 111.835ZM302.723 81.16C303.146 81.2642 303.542 81.4567 303.886 81.7249C304.229 81.993 304.512 82.3308 304.716 82.7161C306.541 86.0066 304.174 93.5264 301.885 100.798C300.725 104.484 299.148 109.492 299.513 110.618C316.091 108.362 345.869 59.7134 320.361 43.9435C320.232 43.8692 320.125 43.763 320.049 43.6351C319.972 43.5073 319.93 43.362 319.927 43.2133C319.788 28.9474 308.143 22.3012 283.291 22.3012C273.897 22.3012 265.892 19.9366 260.142 15.4639C255.842 12.1212 252.875 7.59633 251.85 2.8845C248.306 5.44906 246.247 9.24808 245.722 14.1859C245.465 16.7199 245.612 19.2786 246.156 21.7666C246.193 21.9095 246.193 22.0596 246.156 22.2025C246.119 22.3455 246.046 22.4766 245.945 22.5836C245.843 22.6906 245.716 22.7699 245.575 22.814C245.434 22.8582 245.284 22.8657 245.14 22.8359C244.706 22.7446 234.959 20.706 230.855 15.0118C227.35 21.9665 226.681 29.6646 229.118 35.8977C231.406 41.8006 236.445 46.1734 243.689 48.5423C261.931 54.5103 284.49 54.6277 286.414 55.9578C290.18 58.5658 285.671 66.3899 291.995 69.337C298.549 72.4188 295.874 82.877 296.152 86.5065C297.706 85.3763 300.495 82.3075 302.063 81.2904C302.159 81.2258 302.266 81.181 302.38 81.1586C302.493 81.1362 302.61 81.1367 302.723 81.16Z" fill="#000091"/>
<path d="M291.595 70.1276C298.136 73.2051 294.362 84.9412 295.443 87.4797C295.952 88.6707 300.46 83.3547 302.51 82.0116C309.655 83.8502 294.874 112.091 299.552 111.504C316.764 109.331 347.211 59.5304 320.799 43.2128C320.634 26.5693 305.337 21.4402 283.295 21.4402C262.847 21.4402 253.709 10.3604 252.48 1.44531C241.717 7.96537 245.305 22.0096 245.305 22.0096C245.305 22.0096 234.056 19.7232 230.794 13.2771C224.11 25.1088 224.279 43.1259 243.389 49.3808C261.314 55.2445 284.368 55.6314 285.888 56.6833C289.028 58.8523 284.815 66.9415 291.595 70.1276Z" fill="#000091"/>
<path d="M299.018 99.9206C300.503 101.807 302.432 103.446 304.925 104.124C311.123 105.81 318.033 100.603 320.231 92.5312C321.916 86.3328 317.434 79.2259 310.975 79.3824C307.971 79.5397 305.054 80.4499 302.493 82.0296" fill="white"/>
<path d="M298.314 100.459C298.172 100.278 298.106 100.048 298.133 99.8189C298.16 99.5898 298.277 99.3808 298.458 99.2379C298.639 99.0949 298.869 99.0297 299.098 99.0566C299.327 99.0835 299.535 99.2003 299.678 99.3813C306.454 107.979 316.669 102.224 319.371 92.3005C320.886 86.7237 316.912 80.1298 310.975 80.2515C308.135 80.4065 305.378 81.267 302.953 82.7552C302.855 82.8296 302.743 82.8823 302.623 82.91C302.503 82.9376 302.379 82.9394 302.258 82.9154C302.137 82.8913 302.023 82.8419 301.923 82.7704C301.823 82.6989 301.739 82.607 301.677 82.5007C301.615 82.3944 301.577 82.2761 301.564 82.1537C301.551 82.0314 301.564 81.9076 301.603 81.7908C301.641 81.6739 301.704 81.5665 301.787 81.4757C301.87 81.385 301.971 81.3129 302.084 81.2642C304.766 79.6232 307.814 78.6775 310.953 78.5128C317.946 78.3085 322.91 85.9804 321.069 92.7569C317.955 104.124 305.967 110.166 298.314 100.459Z" fill="#000091"/>
<path d="M305.198 97.9816C305.002 97.9824 304.812 97.9168 304.658 97.7954C304.504 97.674 304.395 97.5041 304.35 97.3132C304.305 97.1222 304.325 96.9216 304.408 96.7439C304.491 96.5661 304.632 96.4218 304.808 96.3342C306.501 95.491 307.374 94.3304 307.036 93.3828C306.74 92.5656 305.502 91.918 303.783 92.3179C303.644 92.3494 303.5 92.3466 303.363 92.3096C303.226 92.2725 303.1 92.2025 302.997 92.1056C302.893 92.0087 302.815 91.8878 302.768 91.7536C302.722 91.6193 302.709 91.4758 302.731 91.3355C303.513 86.5063 306.601 85.4805 308.378 85.2979C311.622 84.9676 315.253 86.8975 315.944 88.7101C315.991 88.8179 316.017 88.9343 316.018 89.0522C316.02 89.1701 315.997 89.2871 315.952 89.396C315.907 89.5049 315.84 89.6035 315.755 89.6857C315.671 89.7679 315.571 89.8321 315.461 89.8743C315.351 89.9165 315.233 89.9359 315.115 89.9313C314.998 89.9266 314.882 89.898 314.776 89.8473C314.669 89.7965 314.574 89.7246 314.497 89.636C314.419 89.5473 314.36 89.4438 314.324 89.3317C313.685 87.6625 306.475 84.5242 304.708 90.4575C308.968 90.3445 310.988 95.1997 305.576 97.8904C305.459 97.949 305.33 97.9802 305.198 97.9816ZM124.688 165.742L147.968 169.272L173.159 114.573L149.883 111.043L124.688 165.742Z" fill="#000091"/>
<path d="M181.139 78.4795L187.052 79.3756C187.664 79.4683 188.251 79.6807 188.781 80.0007C189.311 80.3207 189.773 80.742 190.14 81.2406C190.507 81.7391 190.773 82.3052 190.921 82.9064C191.07 83.5076 191.098 84.1323 191.006 84.7446L186.638 113.612C186.451 114.849 185.781 115.961 184.775 116.703C183.769 117.445 182.509 117.757 181.273 117.569L175.36 116.673L181.139 78.4795Z" fill="#CE0500"/>
<path d="M172.693 121.21L136.814 115.773L144.046 67.9692L179.925 73.4061C181.194 73.5983 182.334 74.2871 183.096 75.3209C183.857 76.3548 184.177 77.6489 183.985 78.9187L178.201 117.147C178.009 118.417 177.321 119.558 176.288 120.32C175.255 121.082 173.961 121.402 172.693 121.21Z" fill="#FCC63A"/>
<path d="M144.063 67.9547C144.102 67.9547 144.237 66.7941 136.827 115.768C117.226 112.8 98.1724 118.85 82.1631 130.113L74.4712 135.533L90.3545 30.5947L96.1006 38.0406C108.965 54.732 125.722 65.1728 144.063 67.9547Z" fill="#FCC63A"/>
<path d="M97.9877 85.4084C102.372 56.4296 98.9548 31.8811 90.355 30.578C81.7553 29.2748 71.2296 51.7104 66.8453 80.6893C62.4609 109.668 65.8782 134.217 74.4779 135.52C83.0777 136.823 93.6033 114.387 97.9877 85.4084Z" fill="#FCC63A"/>
<path d="M75.227 139.067C48.1033 139.067 65.2071 23.2703 90.8628 27.1562C115.65 30.9118 99.8967 139.067 75.227 139.067ZM89.6032 34.0153C85.3294 34.0153 74.9968 50.0981 70.2844 81.2249C70.2366 81.2249 66.9401 101.507 69.2376 118.015C70.723 128.687 73.6547 131.89 75.0012 132.094C75.0792 132.101 75.1577 132.101 75.2357 132.094C79.5138 132.094 89.8421 116.012 94.5545 84.8848C99.3582 53.1539 93.9595 34.6369 89.8421 34.0284C89.763 34.0174 89.6831 34.013 89.6032 34.0153Z" fill="#000091"/>
<path d="M172.693 121.21L136.814 115.773L144.046 67.9692L179.925 73.4061C181.194 73.5983 182.334 74.2871 183.096 75.3209C183.857 76.3548 184.177 77.6489 183.985 78.9187L178.201 117.147C178.009 118.417 177.321 119.558 176.288 120.32C175.255 121.082 173.961 121.402 172.693 121.21Z" fill="#18753C"/>
<path d="M177.511 81.2902C177.406 81.2902 179.161 81.5466 148.958 76.9695C148.739 76.9254 148.546 76.7987 148.418 76.6157C148.29 76.4328 148.238 76.2076 148.271 75.9868C148.305 75.7661 148.422 75.5667 148.598 75.43C148.775 75.2933 148.997 75.2298 149.219 75.2526L177.641 79.5602C177.871 79.5775 178.085 79.6856 178.236 79.8609C178.387 80.0362 178.462 80.2642 178.444 80.4947C178.427 80.7253 178.319 80.9395 178.144 81.0903C177.969 81.2411 177.741 81.3162 177.511 81.2989V81.2902ZM172.464 114.629C172.36 114.629 174.114 114.886 143.911 110.309C143.797 110.292 143.688 110.252 143.589 110.193C143.49 110.133 143.404 110.055 143.335 109.962C143.267 109.869 143.217 109.764 143.189 109.652C143.161 109.54 143.156 109.423 143.173 109.309C143.19 109.195 143.229 109.085 143.289 108.986C143.348 108.887 143.427 108.801 143.519 108.733C143.612 108.664 143.717 108.614 143.829 108.586C143.941 108.559 144.058 108.553 144.172 108.57L172.594 112.878C172.824 112.895 173.039 113.003 173.189 113.178C173.34 113.354 173.415 113.582 173.398 113.812C173.38 114.043 173.272 114.257 173.097 114.408C172.922 114.559 172.694 114.634 172.464 114.616V114.629ZM175.799 92.6133C175.695 92.6133 177.45 92.8741 147.247 88.2927C147.133 88.2756 147.023 88.2361 146.924 88.1766C146.825 88.1171 146.739 88.0387 146.671 87.9459C146.602 87.8531 146.553 87.7476 146.525 87.6356C146.497 87.5236 146.491 87.4071 146.508 87.293C146.526 87.1788 146.565 87.0691 146.624 86.9702C146.684 86.8713 146.762 86.7851 146.855 86.7165C146.948 86.6478 147.053 86.5982 147.165 86.5703C147.277 86.5424 147.393 86.5369 147.507 86.554L175.93 90.8616C176.16 90.8789 176.374 90.9871 176.525 91.1623C176.676 91.3376 176.75 91.5656 176.733 91.7962C176.716 92.0267 176.608 92.241 176.433 92.3918C176.258 92.5426 176.03 92.6176 175.799 92.6003V92.6133ZM174.179 103.328C174.075 103.328 175.83 103.589 145.627 99.0117C145.396 98.9771 145.189 98.8524 145.051 98.6649C144.912 98.4774 144.854 98.2425 144.888 98.012C144.923 97.7814 145.048 97.574 145.235 97.4354C145.422 97.2969 145.657 97.2384 145.887 97.273L174.31 101.589C174.54 101.607 174.754 101.715 174.905 101.89C175.055 102.065 175.13 102.293 175.113 102.524C175.096 102.754 174.988 102.969 174.813 103.119C174.638 103.27 174.41 103.345 174.179 103.328ZM162.639 137.737C156.038 135.654 148.337 136.711 147.416 139.693C146.495 142.674 157.81 147.038 157.81 147.038C157.81 147.038 155.16 154.497 161.923 162.352" fill="white"/>
<path d="M161.901 163.222C161.777 163.222 161.654 163.195 161.541 163.143C161.427 163.091 161.327 163.016 161.245 162.922C155.46 156.206 156.229 149.786 156.741 147.561C153.332 146.187 145.566 142.666 146.565 139.437C146.852 138.502 147.59 137.698 148.758 137.107C151.964 135.425 157.879 135.338 162.878 136.907C163.098 136.976 163.282 137.13 163.389 137.334C163.495 137.539 163.516 137.778 163.447 137.998C163.378 138.218 163.225 138.402 163.02 138.508C162.816 138.615 162.577 138.636 162.357 138.567C155.986 136.559 148.893 137.698 148.224 139.949C147.868 141.106 152.567 144.096 158.101 146.226C158.312 146.308 158.483 146.469 158.577 146.676C158.671 146.882 158.681 147.117 158.605 147.33C158.189 148.775 158.042 150.283 158.17 151.781C158.422 155.332 159.908 158.701 162.553 161.779C162.663 161.904 162.735 162.059 162.759 162.224C162.784 162.389 162.76 162.558 162.692 162.71C162.623 162.863 162.512 162.992 162.372 163.083C162.231 163.173 162.068 163.222 161.901 163.222Z" fill="#000091"/>
<path d="M44.9891 54.4019C44.7765 54.4027 44.571 54.3254 44.4115 54.1846L19.1771 31.6904C19.0916 31.6145 19.0218 31.5224 18.9718 31.4195C18.9217 31.3166 18.8925 31.2049 18.8856 31.0906C18.8788 30.9764 18.8945 30.862 18.9318 30.7538C18.9691 30.6456 19.0274 30.5459 19.1033 30.4603C19.1791 30.3747 19.2711 30.3048 19.3739 30.2548C19.4767 30.2047 19.5884 30.1754 19.7026 30.1686C19.8167 30.1617 19.9311 30.1774 20.0391 30.2148C20.1472 30.2521 20.2469 30.3105 20.3324 30.3864L45.5668 52.9067C45.69 53.0254 45.7755 53.178 45.8125 53.3452C45.8494 53.5124 45.8362 53.6867 45.7745 53.8465C45.7128 54.0062 45.6054 54.1441 45.4657 54.2429C45.3259 54.3417 45.1602 54.3971 44.9891 54.4019ZM34.1874 75.9095C34.0441 75.9095 36.459 76.3963 0.922365 69.0373C0.810574 69.0142 0.704427 68.9693 0.609984 68.9051C0.515542 68.8409 0.434653 68.7588 0.371939 68.6633C0.309224 68.5678 0.265912 68.4609 0.244472 68.3487C0.223033 68.2365 0.223888 68.1212 0.246988 68.0093C0.270087 67.8974 0.314977 67.7912 0.379099 67.6967C0.443222 67.6022 0.525318 67.5212 0.620701 67.4585C0.716084 67.3957 0.822885 67.3523 0.935007 67.3309C1.04713 67.3094 1.16238 67.3103 1.27417 67.3334L34.3612 74.2055C34.4752 74.217 34.5859 74.2508 34.687 74.305C34.788 74.3592 34.8774 74.4328 34.9499 74.5216C35.0225 74.6104 35.077 74.7127 35.1101 74.8225C35.1432 74.9324 35.1544 75.0477 35.1429 75.1618C35.1315 75.276 35.0978 75.3868 35.0436 75.4879C34.9894 75.589 34.9158 75.6784 34.8271 75.7511C34.7384 75.8237 34.6362 75.8782 34.5265 75.9113C34.4167 75.9445 34.3015 75.9556 34.1874 75.9442V75.9095ZM3.49358 110.561C3.28717 110.561 3.08767 110.487 2.93083 110.353C2.77399 110.218 2.67005 110.033 2.63765 109.829C2.60524 109.625 2.64648 109.416 2.75398 109.239C2.86148 109.063 3.02821 108.931 3.22429 108.866L38.8564 97.0605C39.0753 96.9879 39.314 97.0053 39.5201 97.1088C39.7262 97.2123 39.8827 97.3935 39.9553 97.6126C40.0279 97.8316 40.0105 98.0705 39.9071 98.2767C39.8036 98.483 39.6226 98.6396 39.4037 98.7123C1.30022 111.331 3.71074 110.561 3.49358 110.561Z" fill="#CE0500"/>
<path d="M246.135 270.646C246.048 270.646 239.077 269.425 231.989 267.899C217.326 264.748 216.466 263.331 216.097 262.727C215.998 262.569 215.934 262.392 215.909 262.208C215.885 262.023 215.9 261.836 215.953 261.657C216.427 260.171 218.481 259.484 220.731 259.145C216.548 257.889 211.61 256.028 210.533 254.012C210.388 253.76 210.3 253.48 210.275 253.191C210.251 252.902 210.29 252.611 210.39 252.338C211.15 250.304 214.563 249.965 218.047 250.2C214.867 248.709 208.783 245.605 210.012 242.328C211.05 239.559 216.362 239.941 221.1 240.902C218.286 239.237 212.496 235.686 213.591 232.765C214.142 231.3 216.349 230.252 228.557 233.573C232.631 234.682 236.675 235.973 239.142 236.79C236.827 233.104 233.496 226.923 235.698 224.619C237.5 222.724 242.882 226.358 248.424 230.557C252.836 233.908 257.067 237.542 258.022 238.381C278.548 241.054 298.484 241.45 320.73 239.637C320.961 239.618 321.189 239.691 321.365 239.841C321.542 239.991 321.652 240.204 321.671 240.435C321.69 240.665 321.616 240.894 321.467 241.07C321.317 241.247 321.104 241.357 320.874 241.376C298.406 243.206 278.279 242.793 257.536 240.072C257.366 240.049 257.208 239.976 257.08 239.863C257.032 239.824 252.571 235.929 247.781 232.265C238.569 225.223 236.992 225.823 236.923 225.854C236.015 226.814 237.67 231.717 241.961 237.929C242.06 238.08 242.11 238.258 242.104 238.438C242.098 238.619 242.035 238.793 241.925 238.937C241.815 239.08 241.664 239.186 241.491 239.239C241.318 239.292 241.133 239.29 240.962 239.233C240.901 239.233 234.816 237.094 228.527 235.36C216.448 232.035 215.245 233.326 215.202 233.382C214.702 234.717 219.979 238.876 228.597 242.91C228.795 243.005 228.95 243.172 229.031 243.377C229.111 243.582 229.111 243.81 229.03 244.015C228.948 244.219 228.793 244.386 228.594 244.48C228.395 244.574 228.168 244.59 227.958 244.523C220.709 242.145 212.405 240.858 211.632 242.927C211.586 243.059 211.57 243.199 211.585 243.337C211.6 243.475 211.646 243.609 211.719 243.727C213.087 246.605 222.221 250.247 225.617 251.377C225.823 251.452 225.993 251.602 226.093 251.798C226.193 251.993 226.216 252.219 226.157 252.43C226.097 252.641 225.96 252.822 225.773 252.936C225.586 253.051 225.363 253.09 225.148 253.047C219.28 251.721 212.596 251.364 212.005 252.947C212.005 252.981 211.971 253.038 212.049 253.19C213.126 255.185 221.756 257.811 226.946 258.993C227.159 259.042 227.345 259.169 227.468 259.35C227.592 259.53 227.642 259.75 227.611 259.967C227.579 260.182 227.468 260.379 227.299 260.516C227.13 260.654 226.916 260.723 226.699 260.71C222.863 260.479 218.551 260.936 217.721 261.97C219.602 263.557 233.526 266.708 246.387 268.925C247.068 269.034 315.879 279.657 342.373 273.833C354.026 271.268 359.042 262.244 363.359 248.513C363.394 248.404 363.449 248.303 363.522 248.215C363.596 248.128 363.685 248.055 363.787 248.002C363.888 247.949 363.998 247.917 364.112 247.907C364.226 247.897 364.341 247.909 364.449 247.944C364.558 247.978 364.66 248.033 364.747 248.107C364.835 248.18 364.907 248.27 364.96 248.371C365.013 248.472 365.045 248.583 365.055 248.697C365.065 248.811 365.053 248.926 365.018 249.035C360.514 263.357 355.216 272.789 342.742 275.55C320.452 280.44 268.059 274.024 246.135 270.646Z" fill="#000091"/>
</g>
<defs>
<clipPath id="clip0_505_8427">
<rect width="377" height="325" fill="white"/>
</clipPath>
</defs>
</svg>
