<svg width="54" height="54" viewBox="0 0 54 54" fill="none" xmlns="http://www.w3.org/2000/svg">
<path fill-rule="evenodd" clip-rule="evenodd" d="M10.125 9.44961C9.75276 9.44961 9.44995 9.1468 9.44995 8.77461C9.44995 8.40238 9.75276 8.09961 10.125 8.09961C10.4971 8.09961 10.8 8.40238 10.8 8.77461C10.8 9.1468 10.4971 9.44961 10.125 9.44961Z" fill="#CACAFB"/>
<path fill-rule="evenodd" clip-rule="evenodd" d="M3.37495 47.2504C3.00276 47.2504 2.69995 46.9476 2.69995 46.5754C2.69995 46.2032 3.00276 45.9004 3.37495 45.9004C3.74715 45.9004 4.04995 46.2032 4.04995 46.5754C4.04995 46.9476 3.74715 47.2504 3.37495 47.2504Z" fill="#CACAFB"/>
<path fill-rule="evenodd" clip-rule="evenodd" d="M50.625 43.1996C50.2528 43.1996 49.95 42.8968 49.95 42.5246C49.95 42.1524 50.2528 41.8496 50.625 41.8496C50.9971 41.8496 51.2999 42.1524 51.2999 42.5246C51.2999 42.8968 50.9971 43.1996 50.625 43.1996Z" fill="#CACAFB"/>
<path fill-rule="evenodd" clip-rule="evenodd" d="M39.8249 8.1C39.4527 8.1 39.1499 7.7972 39.1499 7.425C39.1499 7.05277 39.4527 6.75 39.8249 6.75C40.1971 6.75 40.4999 7.05277 40.4999 7.425C40.4999 7.7972 40.1971 8.1 39.8249 8.1Z" fill="#CACAFB"/>
<path d="M28.45 6.75C39.6338 6.75 48.7001 15.8162 48.7001 27C48.7001 27.3728 48.3978 27.675 48.025 27.675C47.6523 27.675 47.35 27.3728 47.35 27C47.35 16.5618 38.8882 8.1 28.45 8.1C18.0119 8.1 9.55005 16.5618 9.55005 27C9.55005 37.4382 18.0119 45.9 28.45 45.9C35.9795 45.9 42.6974 41.4568 45.7155 34.7006C45.8675 34.3602 46.2667 34.2076 46.6071 34.3596C46.9475 34.5117 47.1001 34.9109 46.9481 35.2512C43.7147 42.4894 36.5169 47.25 28.45 47.25C17.2663 47.25 8.20005 38.1838 8.20005 27C8.20005 15.8162 17.2663 6.75 28.45 6.75Z" fill="#E1000F"/>
<path d="M48.025 32.8C48.025 33.2004 47.7005 33.525 47.3 33.525C46.8996 33.525 46.5751 33.2004 46.5751 32.8C46.5751 32.3996 46.8996 32.075 47.3 32.075C47.7005 32.075 48.025 32.3996 48.025 32.8Z" fill="#E1000F"/>
<path d="M9.78294 14.1967C9.48632 13.9708 9.0628 14.0282 8.83699 14.3249C6.55574 17.3214 5.30005 20.9788 5.30005 24.825C5.30005 25.1978 5.60226 25.5 5.97505 25.5C6.34784 25.5 6.65005 25.1978 6.65005 24.825C6.65005 21.2768 7.80731 17.9061 9.91114 15.1426C10.137 14.846 10.0796 14.4225 9.78294 14.1967Z" fill="#E1000F"/>
<path fill-rule="evenodd" clip-rule="evenodd" d="M37.7977 23.5686C37.3186 17.8192 34.1015 14.8496 28.35 14.8496C22.5985 14.8496 19.3814 17.8192 18.9023 23.5686C18.8661 24.0036 19.2461 24.3581 19.6776 24.2918L20.925 24.0999V24.3948C20.4418 24.4879 20.0857 24.6168 19.836 24.8029C19.203 25.2749 18.8999 26.0298 18.8999 26.9996C18.8999 28.7224 19.8771 29.6996 21.5999 29.6996C21.6734 29.6996 21.7442 29.6879 21.8104 29.6661C22.5285 31.0586 23.6416 32.1963 24.9942 32.9139C24.9817 32.9654 24.975 33.0192 24.975 33.0746C24.975 33.9512 24.5572 34.7302 23.91 35.2235C23.8995 35.2309 23.8893 35.2385 23.8794 35.2465C23.4308 35.5784 22.8758 35.7746 22.275 35.7746H20.925L20.7732 35.7774C18.6068 35.8572 16.875 37.6387 16.875 39.8246C16.875 40.1974 17.1772 40.4996 17.55 40.4996C17.9228 40.4996 18.225 40.1974 18.225 39.8246C18.225 38.3334 19.4338 37.1246 20.925 37.1246H22.275L22.4268 37.1218C22.9914 37.101 23.5265 36.9646 24.009 36.7357C24.7327 37.8746 26.0674 38.2223 27.8387 37.7795C28.2004 37.689 28.4203 37.3226 28.3298 36.9609C28.2394 36.5992 27.873 36.3793 27.5113 36.4698C26.2492 36.7853 25.5121 36.6145 25.1188 35.9582C25.7794 35.3067 26.2172 34.43 26.3076 33.4525C26.9562 33.646 27.6413 33.7496 28.35 33.7496C29.0587 33.7496 29.7438 33.646 30.3924 33.4525C30.5784 35.4624 32.2331 37.0466 34.2732 37.1218L34.425 37.1246H35.775C37.2662 37.1246 38.475 38.3334 38.475 39.8246C38.475 40.1974 38.7772 40.4996 39.15 40.4996C39.5228 40.4996 39.825 40.1974 39.825 39.8246C39.825 37.6387 38.0932 35.8572 35.9268 35.7774L35.775 35.7746H34.425C32.9338 35.7746 31.725 34.5658 31.725 33.0746C31.725 33.0192 31.7183 32.9654 31.7058 32.9139C33.0583 32.1963 34.1715 31.0586 34.8896 29.6662C34.9558 29.6879 35.0265 29.6996 35.1 29.6996C36.8228 29.6996 37.8 28.7224 37.8 26.9996C37.8 26.0298 37.497 25.2749 36.8639 24.8029C36.5226 24.5485 35.9824 24.401 35.1907 24.3057C35.1619 24.3018 35.1324 24.2997 35.1025 24.2996L35.1014 24.2995C35.0363 24.2993 34.9728 24.3085 34.9125 24.326C34.8153 24.3541 34.727 24.4034 34.6532 24.4686C34.5226 24.584 34.437 24.7492 34.4262 24.9345C34.4251 24.9514 34.4248 24.9683 34.425 24.985V25.9871L34.4225 26.1732C34.3291 29.6354 31.6388 32.3996 28.35 32.3996C25.0024 32.3996 22.275 29.5358 22.275 25.9871V23.8922L28.4526 22.9418L28.5323 22.9245C28.7143 22.8735 28.8681 22.7478 28.9537 22.5765L29.6287 21.2265L29.6599 21.154C29.7751 20.8363 29.6365 20.4757 29.3269 20.3209L29.2544 20.2897C28.9367 20.1745 28.5761 20.3131 28.4213 20.6227L27.9018 21.6604L20.3445 22.8227L20.3568 22.7358C21.0183 18.3266 23.6272 16.1996 28.35 16.1996L28.5924 16.2015C33.082 16.2724 35.6036 18.3285 36.3072 22.5098L36.342 22.7329L31.8887 21.6198L31.8112 21.6051C31.4761 21.5615 31.1541 21.7751 31.0702 22.1109C30.9797 22.4726 31.1996 22.839 31.5613 22.9295L36.9613 24.2795L37.0402 24.2944C37.4585 24.3487 37.8338 24.0024 37.7977 23.5686ZM20.925 25.7779C20.7818 25.8155 20.6863 25.8529 20.643 25.8852C20.39 26.0738 20.2499 26.4227 20.2499 26.9996C20.2499 27.8581 20.5377 28.2501 21.2701 28.3327C21.0643 27.6529 20.9455 26.9329 20.9274 26.1871L20.925 25.9871V25.7779ZM36.45 26.9996C36.45 27.8581 36.1623 28.2501 35.4299 28.3327C35.6541 27.5924 35.775 26.8043 35.775 25.9871V25.7779C35.9181 25.8155 36.0137 25.8529 36.057 25.8852C36.31 26.0738 36.45 26.4227 36.45 26.9996Z" fill="#000091"/>
</svg>
