<svg width="59" height="58" viewBox="0 0 59 58" fill="none" xmlns="http://www.w3.org/2000/svg">
<path fill-rule="evenodd" clip-rule="evenodd" d="M43.5129 55.1C43.1062 55.1 42.7754 54.7748 42.7754 54.375C42.7754 53.9752 43.1062 53.65 43.5129 53.65C43.9195 53.65 44.2504 53.9752 44.2504 54.375C44.2504 54.7748 43.9195 55.1 43.5129 55.1Z" fill="#CACAFB"/>
<path fill-rule="evenodd" clip-rule="evenodd" d="M49.4133 8.7C49.0066 8.7 48.6758 8.37476 48.6758 7.975C48.6758 7.5752 49.0066 7.25 49.4133 7.25C49.8199 7.25 50.1508 7.5752 50.1508 7.975C50.1508 8.37476 49.8199 8.7 49.4133 8.7Z" fill="#CACAFB"/>
<path fill-rule="evenodd" clip-rule="evenodd" d="M6.63789 11.6C6.23123 11.6 5.90039 11.2748 5.90039 10.875C5.90039 10.4752 6.23123 10.15 6.63789 10.15C7.04455 10.15 7.37539 10.4752 7.37539 10.875C7.37539 11.2748 7.04455 11.6 6.63789 11.6Z" fill="#CACAFB"/>
<path fill-rule="evenodd" clip-rule="evenodd" d="M40.5627 21.75H33.1877C32.7804 21.75 32.4502 22.0746 32.4502 22.475V28.275C32.4502 28.6754 32.7804 29 33.1877 29H40.5627C40.97 29 41.3002 28.6754 41.3002 28.275V22.475C41.3002 22.0746 40.97 21.75 40.5627 21.75ZM39.8252 23.2V27.55H33.9252V23.2H39.8252Z" fill="#E1000F"/>
<path fill-rule="evenodd" clip-rule="evenodd" d="M45.7252 32.625C45.7252 32.2246 45.395 31.9 44.9877 31.9H37.6127C37.2054 31.9 36.8752 32.2246 36.8752 32.625V38.425C36.8752 38.8254 37.2054 39.15 37.6127 39.15H44.9877C45.395 39.15 45.7252 38.8254 45.7252 38.425V32.625ZM44.2502 33.35V37.7H38.3502V33.35H44.2502Z" fill="#E1000F"/>
<path d="M44.9877 21.75C45.395 21.75 45.7252 22.0746 45.7252 22.475C45.7252 22.8468 45.4405 23.1532 45.0737 23.1951L44.9877 23.2H43.5127C43.1054 23.2 42.7752 22.8754 42.7752 22.475C42.7752 22.1032 43.0599 21.7968 43.4267 21.7549L43.5127 21.75H44.9877Z" fill="#E1000F"/>
<path d="M45.7252 25.375C45.7252 24.9746 45.395 24.65 44.9877 24.65H43.5127L43.4267 24.6549C43.0599 24.6968 42.7752 25.0032 42.7752 25.375C42.7752 25.7754 43.1054 26.1 43.5127 26.1H44.9877L45.0737 26.0951C45.4405 26.0532 45.7252 25.7468 45.7252 25.375Z" fill="#E1000F"/>
<path d="M44.9877 27.55C45.395 27.55 45.7252 27.8746 45.7252 28.275C45.7252 28.6468 45.4405 28.9532 45.0737 28.9951L44.9877 29H43.5127C43.1054 29 42.7752 28.6754 42.7752 28.275C42.7752 27.9032 43.0599 27.5968 43.4267 27.5549L43.5127 27.55H44.9877Z" fill="#E1000F"/>
<path d="M35.4002 32.625C35.4002 32.2246 35.07 31.9 34.6627 31.9H33.1877L33.1017 31.9049C32.7349 31.9468 32.4502 32.2532 32.4502 32.625C32.4502 33.0254 32.7804 33.35 33.1877 33.35H34.6627L34.7487 33.3451C35.1155 33.3032 35.4002 32.9968 35.4002 32.625Z" fill="#E1000F"/>
<path d="M34.6627 34.8C35.07 34.8 35.4002 35.1246 35.4002 35.525C35.4002 35.8968 35.1155 36.2032 34.7487 36.2451L34.6627 36.25H33.1877C32.7804 36.25 32.4502 35.9254 32.4502 35.525C32.4502 35.1532 32.7349 34.8468 33.1017 34.8049L33.1877 34.8H34.6627Z" fill="#E1000F"/>
<path d="M35.4002 38.425C35.4002 38.0246 35.07 37.7 34.6627 37.7H33.1877L33.1017 37.7049C32.7349 37.7468 32.4502 38.0532 32.4502 38.425C32.4502 38.8254 32.7804 39.15 33.1877 39.15H34.6627L34.7487 39.1451C35.1155 39.1032 35.4002 38.7968 35.4002 38.425Z" fill="#E1000F"/>
<path d="M11.7996 15.225C11.7996 15.6247 12.1305 15.95 12.5371 15.95C12.9438 15.95 13.2746 15.6247 13.2746 15.225C13.2746 14.8252 12.9438 14.5 12.5371 14.5C12.1305 14.5 11.7996 14.8252 11.7996 15.225Z" fill="#000091"/>
<path d="M15.4871 15.95C15.0805 15.95 14.7496 15.6247 14.7496 15.225C14.7496 14.8252 15.0805 14.5 15.4871 14.5C15.8938 14.5 16.2246 14.8252 16.2246 15.225C16.2246 15.6247 15.8938 15.95 15.4871 15.95Z" fill="#000091"/>
<path d="M17.6996 15.225C17.6996 15.6247 18.0305 15.95 18.4371 15.95C18.8438 15.95 19.1746 15.6247 19.1746 15.225C19.1746 14.8252 18.8438 14.5 18.4371 14.5C18.0305 14.5 17.6996 14.8252 17.6996 15.225Z" fill="#000091"/>
<path d="M23.5996 20.4697C23.5993 20.3784 23.5205 20.3 23.4182 20.3H22.403L22.3541 20.3063C22.2917 20.3227 22.2418 20.37 22.2265 20.4317L21.2259 24.4528L21.2264 24.2583L21.2207 24.2158L21.2044 24.1769C21.1832 24.1402 21.1479 24.1112 21.1039 24.097L19.5335 23.5896L21.1039 23.0828L21.1448 23.0639C21.1949 23.0329 21.2264 22.9798 21.2264 22.9215V22.0302L21.2208 21.9877C21.1952 21.8932 21.0866 21.8345 20.9831 21.8699L17.8189 22.953L17.779 22.9722C17.7301 23.0035 17.6996 23.0559 17.6996 23.1133V24.0665L17.7051 24.1083C17.7196 24.1622 17.7616 24.2072 17.8189 24.2268L20.9831 25.3099L21.0113 25.316L20.8686 25.8905L20.8637 25.9302C20.864 26.0215 20.9429 26.1 21.0451 26.1H22.0603L22.1092 26.0937C22.1716 26.0773 22.2215 26.03 22.2369 25.9683L22.9694 23.0233C22.9761 23.0264 22.983 23.029 22.9901 23.0313L24.6314 23.5622L22.9901 24.0936L22.9474 24.1134C22.895 24.1459 22.8621 24.2016 22.8621 24.2626V25.1961L22.868 25.2407C22.8947 25.3397 23.0083 25.4011 23.1164 25.3641L26.4249 24.2296L26.4666 24.2095C26.5177 24.1767 26.5496 24.1218 26.5496 24.0617V23.0633L26.5438 23.0195C26.5287 22.963 26.4848 22.9159 26.4249 22.8954L23.2703 21.8137L23.5948 20.5094L23.5996 20.4697Z" fill="#000091"/>
<path d="M11.7996 23.2V20.3H13.2746V23.2H11.7996Z" fill="#000091"/>
<path d="M11.7996 26.1V24.65H13.2746V26.1H11.7996Z" fill="#000091"/>
<path d="M13.2746 30.45V27.55H11.7996V30.45H13.2746Z" fill="#000091"/>
<path d="M11.7996 34.8V31.9H13.2746V34.8H11.7996Z" fill="#000091"/>
<path d="M13.2746 37.7V36.25H11.7996V37.7H13.2746Z" fill="#000091"/>
<path fill-rule="evenodd" clip-rule="evenodd" d="M49.4121 11.6H9.58711C9.1798 11.6 8.84961 11.9246 8.84961 12.325V45.675C8.84961 46.0754 9.1798 46.4 9.58711 46.4H49.4121C49.8194 46.4 50.1496 46.0754 50.1496 45.675V12.325C50.1496 11.9246 49.8194 11.6 49.4121 11.6ZM44.9871 42.05H48.6746V18.85H42.0371C41.6298 18.85 41.2996 18.5254 41.2996 18.125C41.2996 17.7532 41.5843 17.4467 41.9511 17.4049L42.0371 17.4H48.6746V13.05H10.3246V17.4H37.6121C38.0194 17.4 38.3496 17.7246 38.3496 18.125C38.3496 18.4968 38.0649 18.8032 37.6981 18.8451L37.6121 18.85H29.4996V42.05H40.5621C40.9694 42.05 41.2996 42.3746 41.2996 42.775C41.2996 43.1468 41.0149 43.4532 40.6481 43.4951L40.5621 43.5H10.3246V44.95H48.6746V43.5H44.9871C44.5798 43.5 44.2496 43.1754 44.2496 42.775C44.2496 42.4032 44.5343 42.0967 44.9011 42.0549L44.9871 42.05ZM16.2246 42.05H28.0246V18.85H16.2246V42.05ZM10.3246 18.85H14.7496V42.05H10.3246V18.85Z" fill="#000091"/>
</svg>
