<svg width="143" height="101" viewBox="0 0 143 101" fill="none" xmlns="http://www.w3.org/2000/svg">
<g clip-path="url(#clip0_2314_6085)">
<path d="M96.0449 92.5153H63.2384V89.5052H96.0449V92.5153Z" fill="#0063CB"/>
<path d="M19.584 92.5246H66.8885L51.5854 61.0222C51.4242 60.6917 51.1728 60.4131 50.8602 60.2181C50.5475 60.0231 50.186 59.9197 49.8171 59.9196H3.74512L19.584 92.5246Z" fill="#0063CB"/>
<path d="M17.1296 92.5246H60.0707C60.4033 92.5246 60.7304 92.4404 61.0214 92.28C61.3124 92.1196 61.5578 91.8882 61.7344 91.6075C61.911 91.3268 62.0131 91.006 62.0311 90.6753C62.0491 90.3445 61.9825 90.0146 61.8374 89.7165L47.9016 61.0345C47.7405 60.7039 47.4892 60.4252 47.1765 60.2302C46.8638 60.0352 46.5022 59.9319 46.1333 59.9319H3.19068C2.85814 59.9318 2.53103 60.0158 2.24001 60.176C1.94899 60.3363 1.7036 60.5675 1.52685 60.848C1.35011 61.1285 1.24781 61.4491 1.22953 61.7798C1.21126 62.1105 1.27761 62.4403 1.42237 62.7385L15.3582 91.4205C15.5189 91.7522 15.7704 92.0318 16.0839 92.2272C16.3973 92.4226 16.7599 92.5257 17.1296 92.5246Z" fill="#B34000"/>
<path d="M30.1926 79.4264C29.424 79.4264 28.6727 79.1994 28.0337 78.7741C27.3948 78.3487 26.8968 77.7442 26.6029 77.037C26.309 76.3298 26.2323 75.5516 26.3826 74.801C26.5329 74.0503 26.9034 73.3609 27.4472 72.82C27.9909 72.2791 28.6836 71.911 29.4375 71.7623C30.1915 71.6135 30.9728 71.6908 31.6826 71.9843C32.3924 72.2779 32.9988 72.7745 33.4251 73.4113C33.8515 74.0482 34.0786 74.7967 34.0776 75.5621C34.0752 76.587 33.6649 77.5692 32.9367 78.2935C32.2086 79.0178 31.2218 79.4252 30.1926 79.4264ZM30.1926 72.3053C29.5469 72.3053 28.9157 72.4959 28.3788 72.8531C27.8419 73.2102 27.4233 73.7179 27.176 74.3118C26.9287 74.9058 26.8638 75.5595 26.9894 76.1902C27.115 76.821 27.4256 77.4004 27.8818 77.8555C28.3381 78.3105 28.9195 78.6206 29.5527 78.7466C30.1859 78.8726 30.8423 78.8088 31.4391 78.5634C32.0359 78.318 32.5463 77.9018 32.9056 77.3676C33.265 76.8334 33.4573 76.2051 33.4583 75.5621C33.4587 74.699 33.1149 73.8711 32.5025 73.2604C31.8901 72.6497 31.0593 72.3061 30.1926 72.3053Z" fill="white"/>
<path d="M50.8588 24.7101C53.2681 24.6469 54.2576 25.5166 54.1801 26.2074C54.0036 27.7957 50.8897 28.4419 50.8897 28.4419C50.8897 28.4419 53.7837 28.5668 53.6955 30.0656C53.6119 31.4781 50.628 31.8128 50.628 31.8128C50.628 31.8128 52.8222 32.5314 52.3669 33.5522C51.7166 35.011 49.5581 34.9817 49.5581 34.9817C51.4797 35.7527 51.6361 38.1074 48.5826 37.6879C46.8592 37.4505 46.5696 34.8799 47.4321 34.2831C46.8344 33.5198 46.1562 31.7773 47.7062 30.9893C46.9645 29.9284 47.0434 28.2599 48.3503 27.9284C47.7108 26.9723 48.7916 25.5151 49.5101 25.1002L50.8588 24.7101Z" fill="white"/>
<path d="M73.1132 61.6698C69.1895 50.9881 62.4105 32.2492 62.0404 31.0171C61.3544 28.7379 61.1392 27.4704 61.1423 26.1134C61.1423 22.9568 62.8766 21.239 61.4737 20.4834C59.9856 19.6815 58.4976 21.3361 57.8798 23.3824C57.5345 24.5266 56.2261 26.0887 56.2261 26.0887C53.6433 26.2429 54.9021 26.1488 50.548 26.5066L48.583 37.688C50.8189 38.6132 53.9019 38.7442 53.9019 38.7442C53.9019 38.7442 59.1665 61.8749 60.2086 66.0986C61.4861 71.2783 64.2996 75.9969 69.7005 75.5975C70.6171 75.5297 72.9646 75.0409 75.4126 74.2806L79.7482 72.7386L74.5238 61.2411L73.1132 61.6698ZM120.292 80.8945C109.828 81.1582 95.838 81.2553 87.814 83.8136C84.9587 84.6802 82.938 86.4227 81.3478 88.617C79.4091 92.2177 77.9939 96.429 79.7343 97.0474C80.9885 97.4915 81.8928 95.4436 82.3326 94.1344C82.5292 93.5469 82.6577 93.0257 82.6299 93.1229C82.6051 93.1923 82.4673 93.5855 82.3326 94.1344C82.0012 95.4745 81.6853 97.7043 83.1207 98.0944C84.5561 98.4846 85.5502 94.4675 85.6725 93.9741C85.673 93.9664 85.673 93.9586 85.6725 93.9509C85.6725 93.9186 85.6834 93.9047 85.6725 93.9741C85.5765 94.4552 84.8519 98.3303 86.6418 98.6989C87.8682 98.9502 88.8406 95.6349 89.0636 94.8083C89.0636 94.7914 89.1255 94.5662 89.1085 94.6356C88.7136 96.2131 88.4473 98.6819 90.0701 98.8839C91.154 99.0181 91.6944 97.0659 92.4159 95.0288C92.7721 94.0265 93.4797 93.4667 94.8578 92.3303C106.485 93.368 110.065 94.9826 118.923 95.4544C127.195 95.8939 131.492 93.604 133.455 89.5207C135.461 85.3571 136.243 78.6955 136.243 78.6955L136.398 77.0563L120.913 76.5783L120.292 80.8945Z" fill="white"/>
<path d="M137.947 76.1481L137.929 76.2899C134.338 78.583 124.767 78.8574 120.896 76.5814L120.309 80.8991C109.08 81.1643 96.4153 81.2615 87.8107 83.8105C88.5849 76.5829 87.2346 73.9907 87.4715 69.8056C87.4715 69.892 87.4607 69.9706 87.4514 70.1896L80.8257 74.0031L80.6585 73.8381C78.6455 71.8658 73.641 60.9404 74.234 59.3336C81.2407 53.4584 89.788 46.0721 94.6826 44.9078C96.9077 44.3758 103.423 44.1368 105.703 44.0504C105.627 44.6187 105.583 45.1906 105.571 45.7636C105.511 47.6388 105.827 48.4021 106.421 49.2965C106.684 49.5984 107.039 49.8051 107.432 49.884C111.076 50.655 115.441 46.584 117.762 43.688C120.547 43.8217 123.306 44.2877 125.979 45.0759C133.077 47.2347 135.634 50.9804 136.527 53.7514C139.476 62.8664 138.111 74.8142 137.947 76.1481Z" fill="#FCC63A"/>
<path d="M135.49 15.4224C133.967 15.4201 132.481 14.9547 131.23 14.0885C128.945 12.511 128.929 10.8024 129.092 8.14393C129.265 5.31891 131.569 1.65656 134.607 0.914836C136.207 0.524699 138.563 0.803809 140.711 4.35514C144.417 10.477 140.415 15.4224 135.49 15.4224ZM129.71 8.17478C129.555 10.7639 129.562 12.1841 131.583 13.5719C136.931 17.2728 144.714 12.1625 140.18 4.66508C138.632 2.10837 136.758 1.01507 134.761 1.50389C132.534 2.04823 129.914 4.92107 129.714 8.17169L129.71 8.17478Z" fill="#000091"/>
<path d="M129.401 8.15628C129.691 3.40832 135.937 -2.94644 140.446 4.50934C145.153 12.2951 137.04 17.7169 131.406 13.8295C129.226 12.3244 129.245 10.7022 129.401 8.15628Z" fill="#000091"/>
<path d="M124.383 12.6806C122.68 7.55795 130.112 5.65815 132.339 10.9844C134.388 15.885 126.743 19.7401 124.383 12.6806Z" fill="#B34000"/>
<path d="M127.998 16.7917C126.979 16.6098 125.114 15.8449 124.089 12.7824C122.251 7.28349 130.243 5.18322 132.624 10.8734C134.054 14.2813 131.059 17.3407 127.998 16.7917ZM126.489 8.35521C125.166 8.84866 123.897 10.2504 124.678 12.5835C124.724 12.5835 125.481 15.7138 128.108 16.1842C130.689 16.6468 133.292 14.0654 132.053 11.1047C131.152 8.95352 128.865 7.47008 126.489 8.35521Z" fill="#000091"/>
<path d="M106.422 49.2887C106.684 49.5937 107.042 49.8026 107.437 49.8824C112.182 50.8724 117.764 43.6865 117.764 43.6865C117.693 30.556 117.68 29.31 117.668 26.795L106.55 35.7774C105.691 44.567 105.813 43.4089 105.753 43.7883C105.65 44.4442 105.591 45.1061 105.576 45.7698L106.422 49.2887Z" fill="white"/>
<path d="M108.37 50.2849C108.036 50.2855 107.702 50.2514 107.375 50.1832C106.915 50.0902 106.498 49.8472 106.191 49.4923L106.169 49.4646C105.355 48.2957 105.222 47.2193 105.266 45.7544C105.284 45.0466 105.35 44.3408 105.463 43.6418C105.491 43.4984 105.488 43.4475 106.237 35.7404C106.241 35.6999 106.253 35.6605 106.272 35.6246C106.292 35.5887 106.318 35.5569 106.349 35.5311C106.381 35.5053 106.417 35.4858 106.456 35.474C106.496 35.4621 106.537 35.4581 106.577 35.462C106.618 35.466 106.657 35.4779 106.693 35.497C106.729 35.5162 106.761 35.5422 106.787 35.5736C106.813 35.6051 106.833 35.6413 106.845 35.6802C106.857 35.7191 106.861 35.76 106.857 35.8005C106.082 43.6819 106.104 43.5755 106.07 43.7559C105.961 44.419 105.899 45.0889 105.884 45.7606C105.842 47.1253 105.954 48.0598 106.666 49.0883C106.883 49.3363 107.177 49.506 107.501 49.571C111.737 50.4546 116.821 44.3542 117.454 43.5693L117.431 39.4058C117.431 39.324 117.464 39.2456 117.522 39.1877C117.58 39.1299 117.658 39.0974 117.741 39.0974C117.823 39.0974 117.902 39.1299 117.96 39.1877C118.018 39.2456 118.05 39.324 118.05 39.4058L118.074 43.6742C118.075 43.7435 118.052 43.8112 118.009 43.8654C117.793 44.1538 112.975 50.2834 108.37 50.2849Z" fill="#000091"/>
<path d="M100.491 37.8483C103.318 38.6625 107.668 38.479 111.962 36.5808C117.929 32.59 117.415 32.9801 117.88 32.482C119.925 30.3139 120.847 28.1381 121.262 25.6616C122.448 18.4618 118.371 11.504 111.612 9.6721C104.489 7.73992 97.0752 9.87411 95.9526 19.6723C95.9309 19.848 95.9123 20.0269 95.8968 20.2073C95.3874 25.9777 93.8792 34.8275 99.4536 37.4551L100.491 37.8483Z" fill="white"/>
<path d="M104.023 38.6163C102.708 38.6163 101.252 38.4621 100.018 37.9994C99.4499 37.808 98.9086 37.5442 98.408 37.2146C94.1792 34.3201 94.8698 27.4411 95.4257 21.9129C95.6177 19.9946 95.5961 20.0763 95.6502 19.6337C96.1303 15.4424 97.7515 12.3861 100.471 10.5495C103.347 8.6081 107.335 8.19021 111.698 9.3745C119.191 11.4054 123.361 19.4996 121.218 27.3223C120.696 29.2514 119.515 31.3409 117.715 33.0973C117.687 33.1278 117.652 33.1523 117.614 33.1691C117.576 33.186 117.534 33.195 117.492 33.1954C117.45 33.1959 117.409 33.1879 117.37 33.1719C117.331 33.1559 117.296 33.1323 117.267 33.1024C117.238 33.0725 117.215 33.037 117.2 32.9981C117.185 32.9592 117.178 32.9176 117.179 32.8759C117.181 32.8342 117.191 32.7932 117.209 32.7554C117.227 32.7177 117.252 32.684 117.283 32.6563C118.805 31.1759 120.061 29.2283 120.62 27.1604C122.67 19.6784 118.708 11.9127 111.536 9.96819C107.355 8.83324 103.543 9.22184 100.819 11.06C98.2563 12.7901 96.7249 15.6984 96.265 19.7062C96.2046 20.1935 96.265 19.8172 96.042 21.9745C95.5016 27.3408 94.8311 34.0179 98.7595 36.7057C99.2334 37.0159 99.7462 37.2626 100.285 37.4397C102.617 38.3187 107.226 38.3372 111.836 36.2986C111.873 36.2794 111.915 36.268 111.957 36.2651C111.999 36.2622 112.041 36.268 112.081 36.2819C112.12 36.2959 112.157 36.3178 112.188 36.3463C112.219 36.3748 112.244 36.4093 112.261 36.4477C112.278 36.4861 112.287 36.5275 112.287 36.5695C112.288 36.6115 112.28 36.6532 112.263 36.6919C112.247 36.7306 112.223 36.7657 112.193 36.7948C112.162 36.824 112.126 36.8466 112.087 36.8614C109.549 37.9932 106.803 38.5907 104.023 38.6163Z" fill="#000091"/>
<path d="M101.157 29.7217C100.785 29.7217 99.9489 29.6462 99.6547 29.0032C99.5634 28.8058 99.3946 28.0517 101.062 26.6793C101.093 26.6522 101.13 26.6316 101.169 26.6187C101.208 26.6058 101.25 26.6009 101.291 26.6042C101.332 26.6075 101.372 26.619 101.409 26.638C101.446 26.657 101.478 26.6832 101.505 26.7149C101.531 26.7466 101.551 26.7833 101.563 26.8227C101.574 26.8622 101.578 26.9036 101.574 26.9445C101.569 26.9855 101.557 27.0251 101.537 27.0611C101.517 27.0972 101.49 27.1288 101.457 27.1542C100.722 27.7603 100.119 28.5344 100.218 28.7472C100.373 29.0972 101.059 29.1203 101.285 29.1003C101.367 29.0929 101.449 29.1184 101.512 29.171C101.576 29.2236 101.615 29.2992 101.623 29.381C101.63 29.4627 101.605 29.5441 101.552 29.6072C101.499 29.6702 101.423 29.7098 101.341 29.7171C101.28 29.7218 101.218 29.7234 101.157 29.7217ZM106.421 26.8936C106.376 26.8943 106.331 26.885 106.289 26.8663C106.248 26.8476 106.211 26.8201 106.181 26.7856C106.152 26.7512 106.13 26.7107 106.118 26.667C106.106 26.6233 106.104 26.5775 106.112 26.5328L106.294 25.4996C106.302 25.4597 106.316 25.4216 106.338 25.3875C106.36 25.3533 106.389 25.3238 106.422 25.3006C106.455 25.2774 106.493 25.261 106.533 25.2523C106.573 25.2436 106.614 25.2427 106.654 25.2498C106.694 25.2569 106.732 25.2718 106.766 25.2936C106.801 25.3154 106.83 25.3437 106.853 25.377C106.877 25.4102 106.893 25.4476 106.902 25.4872C106.911 25.5268 106.912 25.5677 106.904 25.6076L106.731 26.6392C106.718 26.7113 106.68 26.7765 106.623 26.8232C106.566 26.8698 106.495 26.8948 106.421 26.8936ZM98.7334 25.8219C98.6878 25.8226 98.6425 25.8133 98.6009 25.7945C98.5593 25.7757 98.5224 25.7481 98.4928 25.7134C98.4632 25.6788 98.4417 25.6381 98.4297 25.5942C98.4178 25.5503 98.4157 25.5043 98.4237 25.4595L98.6065 24.4279C98.6133 24.3879 98.628 24.3496 98.6498 24.3152C98.6716 24.2809 98.6999 24.2512 98.7332 24.2277C98.7666 24.2043 98.8042 24.1877 98.844 24.1788C98.8838 24.17 98.925 24.169 98.9651 24.176C99.0053 24.183 99.0437 24.1979 99.0781 24.2197C99.1125 24.2415 99.1422 24.2699 99.1656 24.3031C99.1889 24.3364 99.2055 24.374 99.2142 24.4137C99.2229 24.4533 99.2237 24.4943 99.2165 24.5343L99.0338 25.5659C99.0215 25.6368 98.9848 25.7011 98.93 25.7479C98.8751 25.7946 98.8056 25.8208 98.7334 25.8219ZM108.019 22.5944C107.959 22.5946 107.9 22.5772 107.849 22.5443C107.798 22.5115 107.759 22.4645 107.734 22.4094C107.487 21.8419 106.891 21.9468 106.822 21.9591C106.743 21.9745 106.66 21.9582 106.593 21.9137C106.525 21.8692 106.478 21.8001 106.461 21.7211C106.444 21.6422 106.458 21.5597 106.502 21.4915C106.545 21.4233 106.613 21.3747 106.692 21.3562C107.013 21.2839 107.349 21.3248 107.643 21.4719C107.936 21.619 108.17 21.8632 108.303 22.1626C108.323 22.2095 108.332 22.2608 108.327 22.3118C108.323 22.3628 108.306 22.4119 108.278 22.4547C108.25 22.4976 108.212 22.5328 108.166 22.5571C108.121 22.5815 108.071 22.5943 108.019 22.5944ZM100.228 21.4533C100.148 21.453 100.071 21.4221 100.014 21.3669C99.8787 21.2403 99.7037 21.1643 99.5185 21.1516C99.3334 21.139 99.1495 21.1905 98.9982 21.2976C98.9646 21.3204 98.9267 21.3363 98.8869 21.3446C98.847 21.3528 98.8059 21.3531 98.766 21.3455C98.726 21.338 98.6879 21.3226 98.6539 21.3003C98.6199 21.2781 98.5906 21.2494 98.5677 21.2158C98.522 21.149 98.5045 21.0669 98.519 20.9872C98.5335 20.9076 98.5788 20.8369 98.6452 20.7902C98.9138 20.6014 99.24 20.5113 99.5679 20.5355C99.8958 20.5597 100.205 20.6966 100.443 20.9228C100.487 20.9655 100.518 21.0205 100.531 21.0806C100.544 21.1408 100.538 21.2034 100.515 21.2604C100.492 21.3175 100.452 21.3663 100.401 21.4007C100.35 21.435 100.289 21.4534 100.228 21.4533ZM100.19 34.317C99.3822 33.9562 99.2893 33.1204 99.3512 32.7303C99.3639 32.6511 99.407 32.5799 99.4715 32.5318C99.5359 32.4837 99.6167 32.4625 99.6965 32.4727L103.602 32.9616C103.653 32.9678 103.701 32.9866 103.743 33.0162C103.785 33.0458 103.819 33.0853 103.842 33.1312C103.864 33.1771 103.875 33.2279 103.873 33.2791C103.872 33.3302 103.857 33.3801 103.831 33.4242C103.015 34.8244 101.691 34.9894 100.19 34.317ZM99.9691 33.1281C99.9871 33.2645 100.04 33.394 100.124 33.5037C100.207 33.6135 100.318 33.6998 100.444 33.7542C101.59 34.2677 102.419 34.1921 103.013 33.509L99.9691 33.1281Z" fill="#000091"/>
<path d="M103.563 33.2669C102.624 34.8768 101.121 34.3957 100.311 34.0379C99.5011 33.6802 99.6513 32.7796 99.6513 32.7796L103.563 33.2669ZM117.739 36.607C117.658 36.607 117.581 36.576 117.523 36.5205C117.466 36.465 117.432 36.3893 117.429 36.3094C117.382 35.0511 117.409 35.0418 117.347 33.7064C117.344 33.6849 117.344 33.6632 117.347 33.6416C117.898 30.3124 119.086 27.438 118.42 26.9476C118.036 27.3301 117.424 28.4049 117.043 29.0741C116.483 30.0579 116.396 30.2106 116.114 30.1258C116.04 30.1026 115.976 30.0541 115.933 29.9887C115.891 29.9234 115.873 29.8453 115.882 29.768C116.365 21.3639 114.298 24.0625 114.213 19.9714C114.193 18.9768 113.733 18.1287 112.849 17.4533C109.554 14.9351 101.39 15.427 99.3664 15.9236C96.6861 16.5789 97.0778 17.9282 96.1426 20.0115C96.1178 20.0649 96.0781 20.1101 96.0283 20.1418C95.9785 20.1735 95.9206 20.1904 95.8615 20.1904C95.8024 20.1904 95.7446 20.1735 95.6948 20.1418C95.645 20.1101 95.6053 20.0649 95.5805 20.0115C94.221 17.1618 94.5167 13.9251 96.4136 10.898C99.3107 6.27961 105.311 3.25104 111.7 3.18782C120.216 3.09375 125.758 6.37214 129.078 14.0546C130.199 16.6468 130.821 25.7741 126.939 31.6724C124.762 34.9801 121.596 36.607 117.739 36.607ZM117.966 33.711C118.022 34.9046 118.006 35.0187 118.037 35.984C121.636 35.8853 124.454 34.3217 126.417 31.3347C128.006 28.9199 129.014 25.5058 129.259 21.7247C129.479 18.306 129.039 15.5319 128.506 14.2982C125.329 6.94886 120.145 3.70903 111.704 3.81234C100.882 3.92954 93.3322 12.2735 95.8484 19.0786C96.4337 17.424 96.5189 15.9945 99.2162 15.3314C101.384 14.8009 109.71 14.2874 113.223 16.9721C114.264 17.7663 114.804 18.7748 114.829 19.9668C114.903 23.5135 116.794 21.5505 116.548 28.7056C117.192 27.5783 117.76 26.6284 118.202 26.3401C118.238 26.3163 118.278 26.3003 118.321 26.2931C118.364 26.2859 118.407 26.2877 118.449 26.2984C120.163 26.7302 118.641 29.6601 117.966 33.711Z" fill="#000091"/>
<path d="M116.189 29.785C116.162 30.2476 117.643 27.0664 118.372 26.5899C119.714 26.9337 118.304 29.7711 117.656 33.6925C117.717 34.9955 117.695 35.1035 117.739 36.297C130.621 36.2323 130.549 18.2459 128.79 14.1764C125.354 6.2241 119.635 3.40832 111.7 3.49622C100.357 3.61958 92.4295 12.7007 95.8577 19.8851C96.7728 17.8449 96.4244 16.326 99.289 15.6244C102.154 14.9228 114.403 14.4077 114.519 19.9652C114.6 23.8373 116.67 21.3839 116.189 29.785Z" fill="#000091"/>
<path d="M117.119 32.9446C117.65 33.6139 118.336 34.1937 119.227 34.4342C121.435 35.0341 123.9 33.1852 124.682 30.3216C125.284 28.1226 123.684 25.6014 121.384 25.6569C120.318 25.7108 119.283 26.0288 118.372 26.5821L117.119 32.9446Z" fill="white"/>
<path d="M116.876 33.1343C116.83 33.0697 116.811 32.99 116.823 32.9117C116.834 32.8334 116.875 32.7624 116.938 32.7135C117 32.6646 117.079 32.6414 117.158 32.6488C117.237 32.6563 117.31 32.6937 117.363 32.7534C119.783 35.8067 123.429 33.7342 124.383 30.2399C124.927 28.2537 123.494 25.9129 121.392 25.9653C120.379 26.0207 119.396 26.3265 118.532 26.8551C118.461 26.897 118.377 26.9093 118.297 26.8892C118.217 26.8691 118.149 26.8183 118.107 26.7479C118.065 26.6776 118.052 26.5935 118.072 26.5141C118.093 26.4347 118.144 26.3666 118.214 26.3246C119.17 25.7423 120.257 25.4068 121.376 25.3485C123.902 25.2853 125.631 28.0255 124.981 30.4033C123.88 34.4296 119.608 36.5808 116.876 33.1343Z" fill="#000091"/>
<path d="M119.331 32.2553C119.261 32.2552 119.193 32.2317 119.138 32.1885C119.084 32.1453 119.045 32.0851 119.029 32.0174C119.013 31.9498 119.021 31.8787 119.051 31.8158C119.08 31.753 119.13 31.7019 119.193 31.6709C119.797 31.3717 120.108 30.96 119.986 30.6238C119.882 30.3355 119.441 30.1042 118.827 30.246C118.778 30.2575 118.726 30.2567 118.677 30.2437C118.628 30.2308 118.583 30.2059 118.546 30.1715C118.509 30.1371 118.481 30.0941 118.464 30.0463C118.448 29.9986 118.443 29.9475 118.451 29.8975C118.73 28.1843 119.831 27.8204 120.464 27.7556C121.619 27.6384 122.914 28.3231 123.161 28.9661C123.191 29.0426 123.188 29.1276 123.155 29.2023C123.121 29.2771 123.059 29.3355 122.983 29.3647C122.906 29.394 122.82 29.3917 122.745 29.3583C122.67 29.3249 122.612 29.2631 122.582 29.1866C122.455 28.8567 121.478 28.2738 120.526 28.3694C119.835 28.4403 119.375 28.8489 119.156 29.586C120.692 29.5598 121.382 31.2746 119.465 32.2229C119.424 32.2444 119.377 32.2555 119.331 32.2553Z" fill="#000091"/>
<path d="M90.1817 99.1985C89.932 99.1974 89.6864 99.1356 89.4662 99.0184C89.246 98.9012 89.0579 98.7322 88.9182 98.5262C88.6826 98.1499 88.5448 97.7212 88.5171 97.2787C88.0201 98.3304 87.3697 99.163 86.577 98.9996C85.9684 98.8747 85.2345 98.3442 85.1447 96.5431C84.7281 97.4683 84.0236 98.6588 83.0403 98.3936C82.2011 98.1669 81.7629 97.4051 81.7443 96.1946C81.2411 96.9996 80.5288 97.658 79.6307 97.3404C77.1997 96.4768 79.8599 90.7327 81.0754 88.4751C81.0817 88.4633 81.0889 88.4519 81.0971 88.4412C82.9118 85.9323 85.0796 84.324 87.7243 83.5206C95.9775 80.8898 110.903 80.8266 120.285 80.5907C120.367 80.5886 120.446 80.6192 120.506 80.6756C120.565 80.732 120.6 80.8096 120.602 80.8914C120.604 80.9732 120.574 81.0524 120.517 81.1117C120.46 81.171 120.382 81.2055 120.3 81.2075C110.855 81.445 96.0317 81.5159 87.9086 84.1112C85.4001 84.8729 83.3423 86.4011 81.6111 88.7866C79.7964 92.1606 78.9184 95.1013 79.3752 96.2794C79.4056 96.3816 79.4581 96.476 79.529 96.5558C79.5999 96.6357 79.6874 96.6991 79.7855 96.7417C79.8836 96.7844 79.9899 96.8051 80.0969 96.8025C80.2039 96.7999 80.309 96.774 80.4049 96.7266C80.967 96.4521 81.5461 95.5038 82.0354 94.0527C82.1763 93.4837 82.3188 93.0781 82.3451 93.0257C82.3609 92.9736 82.3904 92.9266 82.4304 92.8895C82.4704 92.8523 82.5196 92.8264 82.5729 92.8144C82.6262 92.8023 82.6818 92.8045 82.734 92.8208C82.7862 92.8371 82.8331 92.8668 82.87 92.907C82.9273 92.9702 82.9676 93.0134 82.935 93.2154C82.8615 93.5605 82.7621 93.8997 82.6377 94.2301C82.3977 95.2046 81.9828 97.4683 83.2091 97.8076C83.2723 97.8231 83.338 97.8252 83.402 97.8137C83.466 97.8023 83.5269 97.7776 83.5807 97.7413C84.3797 97.2787 85.0843 95.1198 85.3754 93.9124C85.3786 93.8678 85.3916 93.8244 85.4133 93.7853C85.4351 93.7462 85.4651 93.7123 85.5014 93.6859C85.5376 93.6595 85.5792 93.6412 85.6232 93.6324C85.6672 93.6236 85.7126 93.6244 85.7563 93.6348C85.8361 93.6532 85.9053 93.7023 85.9488 93.7714C85.9923 93.8404 86.0066 93.9238 85.9885 94.0034C85.7114 95.2586 85.4373 98.1453 86.7086 98.4075C87.3047 98.5293 88.1532 97.0196 88.768 94.7389C88.768 94.7065 88.8067 94.5924 88.8113 94.5708C88.8671 94.4166 88.9662 94.2763 89.1861 94.3318C89.2661 94.3552 89.3339 94.4086 89.3752 94.4808C89.4165 94.553 89.4281 94.6384 89.4075 94.7189C89.0761 96.0404 88.7494 98.4198 90.1074 98.5863C90.8274 98.6789 91.3461 97.1723 91.8974 95.5824C91.9717 95.3696 92.0522 95.1537 92.1234 94.9379C92.4966 93.8862 93.2182 93.2925 94.5297 92.2115C94.6706 92.0943 94.7372 92.0218 94.8843 92.0342C106.497 93.072 110.118 94.688 118.939 95.1584C126.463 95.5578 131.119 93.6734 133.175 89.3988C135.136 85.3248 135.93 78.7371 135.938 78.6708C135.947 78.589 135.989 78.5144 136.054 78.4634C136.119 78.4123 136.202 78.3891 136.284 78.3987C136.366 78.4083 136.441 78.45 136.492 78.5146C136.543 78.5793 136.567 78.6615 136.557 78.7433C136.525 79.0163 135.743 85.499 133.739 89.6656C131.556 94.1807 126.706 96.1792 118.905 95.7628C110.079 95.3002 106.44 93.6842 94.9539 92.6495C93.7802 93.6163 93.0385 94.1915 92.7056 95.1321C91.9934 97.1507 91.4344 99.1985 90.1817 99.1985Z" fill="#000091"/>
<path d="M120.185 76.4734C120.144 76.4419 120.111 76.4006 120.09 76.3531C120.068 76.3057 120.06 76.2537 120.064 76.202C120.374 72.754 120.879 63.2982 120.936 57.8008C120.936 57.719 120.969 57.6406 121.027 57.5827C121.085 57.5249 121.163 57.4924 121.246 57.4924C121.328 57.4924 121.407 57.5249 121.465 57.5827C121.523 57.6406 121.555 57.719 121.555 57.8008C121.5 63.2226 121.003 72.4857 120.696 76.0771C124.315 78.6277 134.42 78.199 137.639 76.1033C137.811 74.7047 139.149 62.8541 136.245 53.8393C134.077 47.1175 125.747 44.971 120.976 44.291C120.936 44.2853 120.896 44.2717 120.861 44.251C120.826 44.2302 120.795 44.2028 120.77 44.1701C120.745 44.1375 120.727 44.1003 120.717 44.0607C120.707 44.0211 120.704 43.9799 120.71 43.9394C120.716 43.8989 120.729 43.8599 120.75 43.8246C120.771 43.7894 120.798 43.7586 120.831 43.7339C120.864 43.7093 120.901 43.6914 120.941 43.6811C120.981 43.6708 121.022 43.6685 121.063 43.6742C125.978 44.3742 134.562 46.604 136.834 53.645C139.958 63.3244 138.26 76.1866 138.241 76.313C138.235 76.3549 138.221 76.3951 138.199 76.4312C138.177 76.4673 138.147 76.4984 138.113 76.5228C134.821 78.842 123.991 79.3755 120.185 76.4734ZM74.2601 59.622C74.1962 59.6224 74.1337 59.6032 74.0812 59.5668C74.0287 59.5305 73.9888 59.4789 73.967 59.4192C73.9451 59.3594 73.9423 59.2943 73.959 59.2329C73.9757 59.1715 74.0111 59.1167 74.0603 59.0761C81.0283 53.2379 89.6437 45.7898 94.6157 44.6055C95.7229 44.3403 97.9898 44.1152 101.356 43.9317C101.438 43.9272 101.519 43.9553 101.58 44.01C101.641 44.0647 101.678 44.1413 101.683 44.2231C101.687 44.3049 101.659 44.3851 101.604 44.4462C101.549 44.5072 101.472 44.544 101.39 44.5485C98.061 44.7289 95.8313 44.9494 94.7597 45.2054C90.3018 46.2679 82.8755 52.4946 75.6924 58.5148L74.4536 59.5495C74.3991 59.5945 74.3309 59.62 74.2601 59.622Z" fill="#000091"/>
<path d="M80.8415 74.3038C80.7711 74.3037 80.7029 74.2798 80.648 74.2359C78.9617 72.8851 75.549 65.6005 74.3629 61.9181C73.7141 59.9134 73.8225 59.3783 74.013 59.127C74.062 59.0613 74.1353 59.0178 74.2166 59.006C74.2979 58.9941 74.3806 59.0149 74.4465 59.0638C74.5124 59.1126 74.5562 59.1856 74.5681 59.2666C74.58 59.3475 74.5591 59.4299 74.51 59.4955C74.3304 59.8471 74.9219 62.2203 76.8048 66.4131C78.3702 69.8997 79.9729 72.7232 80.8802 73.616L84.838 71.3384C84.9088 71.3016 84.9911 71.2933 85.0679 71.3155C85.1446 71.3377 85.2097 71.3885 85.2497 71.4574C85.2897 71.5262 85.3014 71.6078 85.2824 71.6851C85.2634 71.7623 85.2151 71.8293 85.1477 71.872C80.6155 74.4827 80.9608 74.3038 80.8415 74.3038ZM59.9083 66.171C58.8848 61.9921 53.6527 39.045 53.6 38.8137C53.5817 38.7339 53.596 38.6502 53.6397 38.5809C53.6834 38.5117 53.753 38.4625 53.8331 38.4443C53.9131 38.4261 53.9972 38.4404 54.0667 38.4839C54.1363 38.5274 54.1856 38.5967 54.2039 38.6764C54.2566 38.9077 59.481 61.8502 60.5107 66.0246C61.7494 71.067 64.4607 75.6777 69.6774 75.2891C70.6064 75.2213 72.9771 74.714 75.3198 73.9861C75.3587 73.9741 75.3995 73.9698 75.44 73.9734C75.4805 73.9771 75.5199 73.9887 75.5559 74.0075C75.592 74.0263 75.6239 74.052 75.6499 74.0832C75.676 74.1143 75.6956 74.1502 75.7077 74.1889C75.7198 74.2276 75.7241 74.2682 75.7205 74.3086C75.7168 74.3489 75.7051 74.3882 75.6862 74.424C75.6673 74.4599 75.6415 74.4917 75.6103 74.5177C75.579 74.5436 75.5429 74.5631 75.5041 74.5752C73.0266 75.3462 70.6776 75.8335 69.7238 75.9044C64.2176 76.3115 61.2353 71.5528 59.9083 66.171ZM49.2644 38.0457C49.0219 38.0449 48.7798 38.0274 48.5398 37.9933C46.7018 37.7404 46.2171 35.2377 47.0254 34.2446C46.2852 33.1143 46.1381 31.6771 47.2793 30.8845C46.6847 29.7896 46.8024 28.2969 47.925 27.7557C47.8294 27.451 47.8208 27.1258 47.9003 26.8166C48.1265 26.0002 48.6433 25.2937 49.3542 24.8289C49.8075 24.5585 50.3234 24.4097 50.8516 24.3971C52.9296 24.3447 53.8075 24.9491 54.1466 25.3223C54.2676 25.4426 54.3608 25.5877 54.4199 25.7474C54.479 25.9072 54.5025 26.0778 54.4888 26.2475C54.3711 27.3054 53.2067 27.9762 52.2451 28.3555C53.185 28.6099 54.0615 29.1265 54.0042 30.0903C53.9422 31.142 52.6803 31.6786 51.6552 31.9408C52.369 32.3432 52.9791 32.9493 52.6508 33.6879C52.2188 34.6532 51.2402 35.0418 50.497 35.196C51.8209 36.3063 51.4322 38.0457 49.2644 38.0457ZM51.0885 25.0154C50.5902 24.9885 50.0952 25.1104 49.667 25.3655C48.9996 25.7525 48.1186 27.0324 48.6079 27.7572C48.6338 27.798 48.6497 27.8444 48.6544 27.8925C48.6591 27.9406 48.6523 27.9891 48.6347 28.0341C48.617 28.0791 48.589 28.1194 48.5529 28.1516C48.5168 28.1839 48.4736 28.2072 48.4267 28.2198C47.3583 28.4897 47.332 29.9068 47.9622 30.8058C47.9874 30.8419 48.0045 30.883 48.0124 30.9262C48.0204 30.9694 48.0189 31.0138 48.0082 31.0565C47.9975 31.0991 47.9778 31.139 47.9504 31.1734C47.9229 31.2078 47.8884 31.236 47.8492 31.2561C47.6637 31.3362 47.4996 31.4583 47.37 31.6128C47.2404 31.7673 47.1489 31.9499 47.1028 32.1459C46.9588 32.7889 47.301 33.6031 47.6788 34.0857C47.7049 34.1189 47.7239 34.157 47.7346 34.1977C47.7453 34.2384 47.7475 34.2809 47.7411 34.3225C47.7348 34.3641 47.7199 34.4039 47.6975 34.4396C47.675 34.4753 47.6455 34.506 47.6107 34.5299C47.301 34.7396 47.1864 35.3996 47.3366 36.0349C47.4048 36.3171 47.6959 37.2469 48.6265 37.3749C49.7181 37.5291 50.4846 37.3009 50.6193 36.7889C50.7447 36.3263 50.339 35.6201 49.444 35.2592C49.3771 35.2323 49.3217 35.1828 49.2875 35.1194C49.2533 35.0561 49.2424 34.9828 49.2567 34.9123C49.2725 34.8423 49.3118 34.7797 49.3681 34.7348C49.4244 34.69 49.4943 34.6656 49.5664 34.6656C49.5849 34.6656 51.5282 34.6656 52.0872 33.4196C52.1106 33.3715 52.1228 33.3188 52.1228 33.2654C52.1228 33.212 52.1106 33.1592 52.0872 33.1112C51.8735 32.6301 50.8701 32.2091 50.5388 32.0996C50.4714 32.0778 50.4136 32.0336 50.375 31.9745C50.3364 31.9154 50.3192 31.8449 50.3265 31.7748C50.3337 31.7046 50.3649 31.639 50.4148 31.589C50.4647 31.5389 50.5303 31.5074 50.6007 31.4997C51.3068 31.4211 53.3368 30.9801 53.3879 30.041C53.3946 29.9427 53.3807 29.8441 53.3471 29.7515C53.3135 29.6588 53.261 29.5741 53.1928 29.5028C52.6818 28.9399 51.3502 28.7642 50.8794 28.7441C50.7973 28.7509 50.7158 28.7248 50.653 28.6718C50.5901 28.6187 50.551 28.5429 50.5442 28.4611C50.5374 28.3793 50.5636 28.2982 50.6168 28.2356C50.6701 28.173 50.7462 28.134 50.8283 28.1273C51.6335 27.9592 53.7502 27.2792 53.8741 26.1612C53.8766 26.0797 53.8616 25.9986 53.8301 25.9233C53.7986 25.848 53.7513 25.7804 53.6914 25.7248C53.2687 25.2807 52.3055 25.0154 51.0885 25.0154ZM56.94 33.9608C56.8625 33.9606 56.7879 33.9314 56.7309 33.8791C55.7074 32.9462 55.1686 31.5337 55.1732 29.7958C55.1737 29.0054 55.2779 28.2185 55.4829 27.455C55.4931 27.4146 55.5113 27.3766 55.5366 27.3434C55.5618 27.3102 55.5936 27.2825 55.6299 27.2618C55.6663 27.2412 55.7064 27.2281 55.748 27.2233C55.7895 27.2186 55.8316 27.2223 55.8717 27.2342C55.9118 27.246 55.949 27.2659 55.9812 27.2925C56.0134 27.3191 56.0398 27.3519 56.0589 27.389C56.078 27.4261 56.0893 27.4666 56.0923 27.5081C56.0952 27.5497 56.0897 27.5914 56.076 27.6307C56.0651 27.6678 54.9766 31.4458 57.1459 33.4242C57.192 33.4659 57.2244 33.5206 57.2389 33.5809C57.2533 33.6413 57.2492 33.7046 57.2269 33.7625C57.2047 33.8205 57.1654 33.8704 57.1142 33.9058C57.063 33.9412 57.0023 33.9604 56.94 33.9608Z" fill="#000091"/>
<path d="M53.9017 39.0526C53.0215 39.0019 52.145 38.8989 51.2771 38.7442C51.1962 38.7299 51.1243 38.6842 51.0773 38.6171C51.0302 38.55 51.0119 38.4671 51.0263 38.3865C51.0406 38.3059 51.0866 38.2343 51.1539 38.1875C51.2213 38.1406 51.3046 38.1224 51.3855 38.1367C52.2222 38.2877 53.067 38.3906 53.9156 38.4451C53.9978 38.4469 54.0758 38.4812 54.1326 38.5403C54.1893 38.5995 54.2202 38.6786 54.2183 38.7604C54.2165 38.8422 54.1821 38.9199 54.1227 38.9765C54.0633 39.033 53.9838 39.0637 53.9017 39.0619V39.0526ZM73.1146 61.9782C73.051 61.9782 72.9889 61.9586 72.9368 61.9222C72.8847 61.8858 72.8451 61.8343 72.8235 61.7747C68.9338 51.1978 62.1161 32.3463 61.7429 31.105C61.0678 28.8597 60.8294 27.5583 60.8325 26.1134C60.8325 24.7132 61.1607 23.606 61.4209 22.7209C61.7878 21.4734 61.8606 21.0462 61.3264 20.7578C59.9328 20.0038 58.643 21.9267 58.1769 23.4734C57.8177 24.6654 56.5185 26.2244 56.4628 26.2892C56.4373 26.3219 56.4055 26.3493 56.3692 26.3695C56.3329 26.3898 56.2928 26.4025 56.2514 26.407C56.2101 26.4115 56.1682 26.4077 56.1283 26.3957C56.0885 26.3837 56.0515 26.3639 56.0195 26.3373C55.9875 26.3108 55.9613 26.2781 55.9423 26.2412C55.9233 26.2043 55.912 26.164 55.909 26.1226C55.906 26.0813 55.9114 26.0398 55.9249 26.0006C55.9383 25.9613 55.9596 25.9252 55.9874 25.8944C55.9998 25.879 57.2602 24.3662 57.5839 23.296C58.0484 21.754 58.9527 20.5312 59.9375 20.1256C60.2064 20.011 60.4982 19.9594 60.7903 19.975C61.0824 19.9905 61.367 20.0726 61.6222 20.215C62.641 20.7656 62.3515 21.7571 62.0155 22.8936C61.2923 25.3608 61.122 26.8906 62.336 30.9307C62.7076 32.1643 69.5192 50.9881 73.4042 61.5665C73.4207 61.6128 73.4259 61.6625 73.4193 61.7112C73.4126 61.76 73.3944 61.8064 73.366 61.8467C73.3377 61.887 73.3001 61.92 73.2563 61.9429C73.2126 61.9657 73.164 61.9779 73.1146 61.9782ZM88.0507 80.9947C88.0093 80.9947 87.9682 80.9864 87.93 80.9704C87.8919 80.9543 87.8573 80.9307 87.8284 80.9011C87.7995 80.8715 87.7769 80.8364 87.7619 80.7979C87.7469 80.7594 87.7398 80.7183 87.7411 80.677C88.0244 71.5296 84.3206 69.636 92.4266 56.5579C92.4697 56.4882 92.5389 56.4384 92.6189 56.4194C92.6989 56.4005 92.7832 56.414 92.8532 56.4569C92.9232 56.4999 92.9732 56.5688 92.9923 56.6484C93.0113 56.7281 92.9977 56.812 92.9546 56.8818C84.9787 69.747 88.6453 71.4942 88.3604 80.6955C88.358 80.7757 88.3243 80.8518 88.2665 80.9077C88.2087 80.9635 88.1313 80.9947 88.0507 80.9947Z" fill="#000091"/>
<path d="M49.3124 17.7925C49.2371 17.7924 49.1645 17.765 49.108 17.7154L43.6653 12.9273C43.6037 12.8732 43.5662 12.7968 43.5611 12.7151C43.5561 12.6334 43.5838 12.5531 43.6382 12.4917C43.6926 12.4304 43.7693 12.3931 43.8513 12.388C43.9333 12.3829 44.014 12.4105 44.0756 12.4647L49.5183 17.2528C49.5656 17.2943 49.599 17.3491 49.6141 17.41C49.6293 17.4709 49.6254 17.535 49.603 17.5936C49.5806 17.6523 49.5408 17.7027 49.4889 17.7383C49.437 17.7738 49.3754 17.7927 49.3124 17.7925ZM53.6201 14.949C53.5553 14.9487 53.4922 14.9282 53.4396 14.8903C53.3871 14.8524 53.3479 14.799 53.3275 14.7377L51.0172 7.88178C50.9911 7.80407 50.9971 7.71923 51.0339 7.64592C51.0706 7.57261 51.1351 7.51684 51.2131 7.49087C51.2911 7.4649 51.3763 7.47086 51.4499 7.50744C51.5235 7.54403 51.5796 7.60823 51.6056 7.68594L53.9143 14.5419C53.9301 14.5883 53.9345 14.6379 53.9272 14.6864C53.9199 14.7348 53.9011 14.7809 53.8723 14.8207C53.8435 14.8605 53.8056 14.8929 53.7618 14.9152C53.7179 14.9375 53.6694 14.9491 53.6201 14.949ZM58.6185 15.4224C58.5722 15.4233 58.5263 15.4138 58.4841 15.3947C58.442 15.3756 58.4047 15.3473 58.375 15.3119C58.3453 15.2766 58.3239 15.235 58.3125 15.1904C58.301 15.1457 58.2997 15.099 58.3088 15.0538L59.9114 7.17861C59.9186 7.1381 59.9338 7.09943 59.9562 7.06487C59.9786 7.03032 60.0077 7.00057 60.0419 6.97739C60.076 6.95421 60.1144 6.93805 60.1549 6.92988C60.1954 6.92171 60.2371 6.92169 60.2776 6.92981C60.3181 6.93794 60.3565 6.95405 60.3906 6.9772C60.4248 7.00035 60.4539 7.03006 60.4764 7.0646C60.4988 7.09913 60.5141 7.13778 60.5213 7.17829C60.5285 7.21879 60.5275 7.26031 60.5184 7.30042L58.9158 15.1756C58.9017 15.2443 58.8646 15.3061 58.8106 15.3509C58.7565 15.3958 58.6888 15.421 58.6185 15.4224Z" fill="#0063CB"/>
</g>
<defs>
<clipPath id="clip0_2314_6085">
<rect width="142.455" height="99.7188" fill="white" transform="translate(0.457031 0.413147)"/>
</clipPath>
</defs>
</svg>
