<svg width="282" height="168" viewBox="0 0 282 168" fill="none" xmlns="http://www.w3.org/2000/svg">
<g clip-path="url(#clip0_505_8391)">
<path d="M88.3357 29.2578H195.348C196.536 29.2578 197.674 29.7294 198.514 30.5689C199.353 31.4084 199.825 32.547 199.825 33.7342V132.437C199.825 133.506 199.4 134.531 198.644 135.286C197.889 136.042 196.864 136.467 195.795 136.467H88.3357C87.1485 136.467 86.01 135.995 85.1705 135.155C84.331 134.316 83.8594 133.177 83.8594 131.99V33.7358C83.8594 32.5486 84.331 31.41 85.1705 30.5706C86.01 29.7311 87.1485 29.2595 88.3357 29.2595V29.2578Z" fill="#CE0500"/>
<path d="M83.8574 42.7529H199.824V131.989C199.824 133.176 199.353 134.314 198.513 135.154C197.674 135.993 196.535 136.465 195.348 136.465H88.3354C87.1482 136.465 86.0097 135.993 85.1702 135.154C84.3307 134.314 83.8591 133.176 83.8591 131.989V42.7529H83.8574Z" fill="#FCC63A"/>
<path d="M94.045 38.5108C95.1 38.5108 95.9552 37.6556 95.9552 36.6006C95.9552 35.5457 95.1 34.6904 94.045 34.6904C92.99 34.6904 92.1348 35.5457 92.1348 36.6006C92.1348 37.6556 92.99 38.5108 94.045 38.5108Z" fill="white"/>
<path d="M101.19 38.5108C102.244 38.5108 103.1 37.6556 103.1 36.6006C103.1 35.5457 102.244 34.6904 101.19 34.6904C100.135 34.6904 99.2793 35.5457 99.2793 36.6006C99.2793 37.6556 100.135 38.5108 101.19 38.5108Z" fill="white"/>
<path d="M108.332 38.5108C109.387 38.5108 110.242 37.6556 110.242 36.6006C110.242 35.5457 109.387 34.6904 108.332 34.6904C107.277 34.6904 106.422 35.5457 106.422 36.6006C106.422 37.6556 107.277 38.5108 108.332 38.5108Z" fill="white"/>
<path d="M190.105 37.5748H137.434C137.24 37.5814 137.048 37.5489 136.867 37.4795C136.687 37.41 136.522 37.3049 136.383 37.1704C136.244 37.0359 136.133 36.8748 136.057 36.6967C135.982 36.5185 135.943 36.327 135.943 36.1335C135.943 35.94 135.982 35.7485 136.057 35.5704C136.133 35.3923 136.244 35.2312 136.383 35.0967C136.522 34.9622 136.687 34.8571 136.867 34.7876C137.048 34.7181 137.24 34.6857 137.434 34.6922H190.105C190.299 34.6857 190.491 34.7181 190.672 34.7876C190.853 34.8571 191.017 34.9622 191.156 35.0967C191.296 35.2312 191.406 35.3923 191.482 35.5704C191.557 35.7485 191.596 35.94 191.596 36.1335C191.596 36.327 191.557 36.5185 191.482 36.6967C191.406 36.8748 191.296 37.0359 191.156 37.1704C191.017 37.3049 190.853 37.41 190.672 37.4795C190.491 37.5489 190.299 37.5814 190.105 37.5748ZM141.841 89.7816C138.366 89.7822 134.951 88.8731 131.936 87.1445C131.86 87.1008 131.804 87.0288 131.782 86.9442C131.759 86.8597 131.771 86.7696 131.815 86.6938C131.858 86.6179 131.93 86.5626 132.015 86.5398C132.099 86.5171 132.189 86.5289 132.265 86.5726C136.521 89.0197 141.549 89.7529 146.326 88.6228C151.103 87.4927 155.269 84.5844 157.977 80.4901C160.685 76.3957 161.731 71.4232 160.901 66.585C160.071 61.7467 157.429 57.4067 153.512 54.4485C149.594 51.4903 144.697 50.1364 139.816 50.6624C134.935 51.1885 130.439 53.555 127.242 57.2801C124.045 61.0052 122.388 65.8087 122.608 70.7126C122.829 75.6165 124.91 80.252 128.428 83.6752C128.491 83.7362 128.527 83.8196 128.528 83.907C128.53 83.9945 128.496 84.0789 128.435 84.1416C128.374 84.2043 128.291 84.2403 128.203 84.2415C128.116 84.2428 128.031 84.2092 127.969 84.1482C124.656 80.9292 122.566 76.6588 122.055 72.0681C121.545 67.4775 122.647 62.8523 125.172 58.9845C127.697 55.1168 131.488 52.2471 135.895 50.867C140.303 49.4869 145.054 49.6821 149.334 51.4194C153.614 53.1566 157.156 56.3277 159.355 60.3896C161.554 64.4515 162.272 69.1516 161.387 73.6849C160.502 78.2182 158.068 82.3027 154.502 85.2389C150.937 88.1751 146.462 89.7804 141.843 89.7799L141.841 89.7816Z" fill="white"/>
<path d="M156.071 78.0546C154.631 80.5558 152.558 82.6333 150.059 84.0779C147.561 85.5225 144.726 86.2831 141.84 86.2831C138.955 86.2831 136.12 85.5225 133.622 84.0779C131.123 82.6333 129.05 80.5558 127.61 78.0546C129.05 75.5535 131.123 73.476 133.622 72.0314C136.12 70.5868 138.955 69.8262 141.84 69.8262C144.726 69.8262 147.561 70.5868 150.059 72.0314C152.558 73.476 154.631 75.5535 156.071 78.0546Z" fill="white"/>
<path d="M141.841 70.5407C145.807 70.5407 149.022 67.3256 149.022 63.3597C149.022 59.3937 145.807 56.1787 141.841 56.1787C137.875 56.1787 134.66 59.3937 134.66 63.3597C134.66 67.3256 137.875 70.5407 141.841 70.5407Z" fill="white"/>
<path d="M171.355 108.715H153.609C153.521 108.715 153.438 108.68 153.376 108.618C153.314 108.557 153.279 108.473 153.279 108.385C153.279 108.298 153.314 108.214 153.376 108.152C153.438 108.09 153.521 108.056 153.609 108.056H171.025V98.1339H112.652V108.056H149.803C149.891 108.056 149.975 108.09 150.036 108.152C150.098 108.214 150.133 108.298 150.133 108.385C150.133 108.473 150.098 108.557 150.036 108.618C149.975 108.68 149.891 108.715 149.803 108.715H112.323C112.235 108.715 112.152 108.68 112.09 108.618C112.028 108.557 111.993 108.473 111.993 108.385V97.8042C111.993 97.7168 112.028 97.633 112.09 97.5712C112.152 97.5093 112.235 97.4746 112.323 97.4746H171.355C171.442 97.4746 171.526 97.5093 171.588 97.5712C171.649 97.633 171.684 97.7168 171.684 97.8042V108.385C171.684 108.473 171.649 108.557 171.588 108.618C171.526 108.68 171.442 108.715 171.355 108.715ZM171.355 127.084H112.323C112.235 127.084 112.152 127.049 112.09 126.987C112.028 126.925 111.993 126.841 111.993 126.754V116.181C111.993 116.094 112.028 116.01 112.09 115.948C112.152 115.886 112.235 115.851 112.323 115.851H171.355C171.442 115.851 171.526 115.886 171.588 115.948C171.649 116.01 171.684 116.094 171.684 116.181V126.754C171.684 126.841 171.649 126.925 171.588 126.987C171.526 127.049 171.442 127.084 171.355 127.084ZM112.652 126.424H171.025V116.511H112.652V126.424Z" fill="white"/>
<path d="M165.887 104.999H118.549C118.316 105.006 118.084 104.966 117.867 104.882C117.649 104.798 117.451 104.671 117.284 104.508C117.116 104.346 116.983 104.152 116.893 103.937C116.802 103.723 116.755 103.492 116.755 103.259C116.755 103.026 116.802 102.795 116.893 102.581C116.983 102.366 117.116 102.172 117.284 102.01C117.451 101.847 117.649 101.72 117.867 101.636C118.084 101.552 118.316 101.512 118.549 101.519H165.887C166.12 101.512 166.352 101.552 166.569 101.636C166.787 101.72 166.985 101.847 167.152 102.01C167.319 102.172 167.452 102.366 167.543 102.581C167.634 102.795 167.681 103.026 167.681 103.259C167.681 103.492 167.634 103.723 167.543 103.937C167.452 104.152 167.319 104.346 167.152 104.508C166.985 104.671 166.787 104.798 166.569 104.882C166.352 104.966 166.12 105.006 165.887 104.999ZM119.942 124.626C119.854 124.626 119.77 124.592 119.708 124.53C119.647 124.468 119.612 124.384 119.612 124.297V118.502C119.612 118.414 119.647 118.331 119.708 118.269C119.77 118.207 119.854 118.172 119.942 118.172C120.029 118.172 120.113 118.207 120.175 118.269C120.236 118.331 120.271 118.414 120.271 118.502V124.297C120.271 124.384 120.236 124.468 120.175 124.53C120.113 124.592 120.029 124.626 119.942 124.626Z" fill="#CE0500"/>
<path d="M117.432 123.178C117.359 123.178 117.287 123.154 117.229 123.11C117.171 123.066 117.13 123.004 117.111 122.933C117.092 122.863 117.097 122.788 117.125 122.721C117.153 122.653 117.203 122.597 117.267 122.561L122.285 119.667C122.361 119.623 122.451 119.612 122.536 119.634C122.62 119.657 122.692 119.712 122.736 119.788C122.78 119.864 122.792 119.954 122.769 120.039C122.746 120.123 122.691 120.195 122.615 120.239C117.165 123.382 117.56 123.178 117.432 123.178Z" fill="#CE0500"/>
<path d="M122.45 123.177C122.325 123.177 122.77 123.413 117.267 120.235C117.191 120.192 117.136 120.12 117.113 120.035C117.09 119.951 117.102 119.86 117.146 119.785C117.189 119.709 117.261 119.653 117.346 119.631C117.43 119.608 117.521 119.62 117.596 119.664L122.615 122.561C122.679 122.597 122.728 122.653 122.757 122.72C122.785 122.788 122.79 122.862 122.771 122.933C122.752 123.003 122.71 123.066 122.652 123.11C122.594 123.154 122.523 123.178 122.45 123.177ZM128.776 124.674C128.688 124.674 128.605 124.639 128.543 124.577C128.481 124.516 128.446 124.432 128.446 124.344V118.549C128.446 118.462 128.481 118.378 128.543 118.316C128.605 118.254 128.688 118.22 128.776 118.22C128.863 118.22 128.947 118.254 129.009 118.316C129.071 118.378 129.105 118.462 129.105 118.549V124.344C129.105 124.432 129.071 124.516 129.009 124.577C128.947 124.639 128.863 124.674 128.776 124.674Z" fill="#CE0500"/>
<path d="M126.268 123.226C126.195 123.225 126.125 123.201 126.067 123.157C126.01 123.113 125.968 123.051 125.95 122.981C125.931 122.911 125.936 122.837 125.963 122.77C125.991 122.703 126.04 122.647 126.103 122.611L131.121 119.713C131.197 119.674 131.284 119.665 131.366 119.689C131.448 119.713 131.517 119.767 131.559 119.84C131.602 119.914 131.615 120.001 131.594 120.084C131.574 120.166 131.523 120.238 131.451 120.284C126.002 123.432 126.396 123.226 126.268 123.226Z" fill="#CE0500"/>
<path d="M131.284 123.225C131.159 123.225 131.606 123.461 126.103 120.283C126.063 120.263 126.028 120.234 126 120.2C125.972 120.165 125.951 120.126 125.939 120.083C125.926 120.04 125.923 119.996 125.928 119.951C125.934 119.907 125.948 119.865 125.97 119.826C125.992 119.788 126.022 119.754 126.058 119.727C126.093 119.701 126.134 119.682 126.177 119.671C126.22 119.66 126.265 119.659 126.309 119.666C126.353 119.673 126.395 119.689 126.432 119.713L131.451 122.61C131.514 122.647 131.563 122.703 131.59 122.77C131.618 122.837 131.623 122.912 131.604 122.982C131.585 123.052 131.543 123.114 131.485 123.158C131.428 123.202 131.357 123.225 131.284 123.225ZM137.61 124.722C137.523 124.722 137.439 124.687 137.377 124.625C137.315 124.563 137.28 124.48 137.28 124.392V118.597C137.28 118.51 137.315 118.426 137.377 118.364C137.439 118.302 137.523 118.268 137.61 118.268C137.697 118.268 137.781 118.302 137.843 118.364C137.905 118.426 137.94 118.51 137.94 118.597V124.392C137.94 124.48 137.905 124.563 137.843 124.625C137.781 124.687 137.697 124.722 137.61 124.722Z" fill="#CE0500"/>
<path d="M135.102 123.273C135.029 123.273 134.959 123.249 134.901 123.204C134.844 123.16 134.802 123.098 134.784 123.028C134.765 122.958 134.77 122.884 134.797 122.817C134.825 122.75 134.874 122.694 134.937 122.658L139.955 119.76C139.993 119.737 140.035 119.721 140.079 119.713C140.123 119.706 140.167 119.708 140.211 119.718C140.254 119.729 140.294 119.748 140.33 119.775C140.365 119.802 140.395 119.835 140.418 119.874C140.44 119.912 140.454 119.955 140.459 119.999C140.465 120.043 140.461 120.088 140.449 120.13C140.436 120.173 140.415 120.213 140.387 120.247C140.359 120.282 140.324 120.31 140.285 120.331C134.835 123.479 135.232 123.273 135.102 123.273Z" fill="#CE0500"/>
<path d="M140.12 123.273C139.993 123.273 140.44 123.509 134.937 120.331C134.865 120.286 134.814 120.214 134.794 120.131C134.773 120.049 134.786 119.962 134.828 119.888C134.871 119.814 134.94 119.76 135.022 119.736C135.104 119.713 135.191 119.721 135.267 119.761L140.285 122.658C140.348 122.695 140.397 122.751 140.424 122.818C140.452 122.885 140.457 122.959 140.438 123.029C140.419 123.099 140.378 123.161 140.321 123.205C140.263 123.249 140.193 123.273 140.12 123.273ZM146.439 124.776C146.352 124.776 146.268 124.741 146.206 124.68C146.145 124.618 146.11 124.534 146.11 124.447V118.645C146.11 118.558 146.145 118.474 146.206 118.412C146.268 118.35 146.352 118.315 146.439 118.315C146.527 118.315 146.611 118.35 146.672 118.412C146.734 118.474 146.769 118.558 146.769 118.645V124.447C146.769 124.534 146.734 124.618 146.672 124.68C146.611 124.741 146.527 124.776 146.439 124.776Z" fill="#CE0500"/>
<path d="M143.937 123.323C143.864 123.323 143.793 123.299 143.735 123.255C143.677 123.211 143.636 123.149 143.617 123.078C143.598 123.008 143.603 122.933 143.631 122.866C143.659 122.798 143.709 122.742 143.773 122.706L148.791 119.809C148.829 119.787 148.87 119.773 148.913 119.767C148.956 119.762 149 119.765 149.042 119.776C149.084 119.787 149.123 119.807 149.157 119.833C149.191 119.859 149.22 119.892 149.242 119.93C149.264 119.967 149.278 120.009 149.283 120.052C149.289 120.095 149.286 120.139 149.275 120.18C149.264 120.222 149.244 120.261 149.218 120.296C149.191 120.33 149.158 120.359 149.121 120.381C143.669 123.527 144.066 123.323 143.937 123.323Z" fill="#CE0500"/>
<path d="M148.954 123.323C148.829 123.323 149.284 123.558 143.771 120.381C143.695 120.337 143.639 120.265 143.617 120.18C143.594 120.096 143.606 120.006 143.65 119.93C143.693 119.854 143.765 119.799 143.85 119.776C143.934 119.753 144.024 119.765 144.1 119.809L149.119 122.706C149.182 122.742 149.232 122.798 149.26 122.866C149.289 122.933 149.294 123.008 149.275 123.078C149.256 123.149 149.214 123.211 149.156 123.255C149.098 123.299 149.027 123.323 148.954 123.323ZM157.267 124.282H151.763C151.675 124.282 151.591 124.247 151.529 124.185C151.468 124.123 151.433 124.04 151.433 123.952C151.433 123.865 151.468 123.781 151.529 123.719C151.591 123.657 151.675 123.623 151.763 123.623H157.267C157.355 123.623 157.439 123.657 157.5 123.719C157.562 123.781 157.597 123.865 157.597 123.952C157.597 124.04 157.562 124.123 157.5 124.185C157.439 124.247 157.355 124.282 157.267 124.282ZM166.25 124.282H160.745C160.658 124.282 160.574 124.247 160.512 124.185C160.45 124.123 160.415 124.04 160.415 123.952C160.415 123.865 160.45 123.781 160.512 123.719C160.574 123.657 160.658 123.623 160.745 123.623H166.25C166.337 123.623 166.421 123.657 166.483 123.719C166.545 123.781 166.579 123.865 166.579 123.952C166.579 124.04 166.545 124.123 166.483 124.185C166.421 124.247 166.337 124.282 166.25 124.282Z" fill="#CE0500"/>
<path d="M219.008 68.9043H215.546V60.4608C215.519 58.6963 214.798 57.0133 213.541 55.7753C212.283 54.5372 210.589 53.8433 208.825 53.8433C207.06 53.8433 205.366 54.5372 204.108 55.7753C202.851 57.0133 202.13 58.6963 202.103 60.4608V68.9043H198.656V60.4608C198.656 57.7621 199.728 55.1738 201.637 53.2655C203.545 51.3572 206.133 50.2852 208.832 50.2852C211.531 50.2852 214.119 51.3572 216.027 53.2655C217.936 55.1738 219.008 57.7621 219.008 60.4608V68.9043Z" fill="#0063CB"/>
<path d="M220.791 62.8799H196.87C195.772 62.8799 194.882 63.7698 194.882 64.8675V82.2951C194.882 83.3928 195.772 84.2827 196.87 84.2827H220.791C221.888 84.2827 222.778 83.3928 222.778 82.2951V64.8675C222.778 63.7698 221.888 62.8799 220.791 62.8799Z" fill="#000091"/>
<path d="M208.831 74.3757C210.13 74.3757 211.183 73.3227 211.183 72.0238C211.183 70.7249 210.13 69.6719 208.831 69.6719C207.532 69.6719 206.479 70.7249 206.479 72.0238C206.479 73.3227 207.532 74.3757 208.831 74.3757Z" fill="white"/>
<path d="M207.737 72.9189H209.924V77.4909H207.737V72.9189Z" fill="white"/>
<path d="M176.083 122.304H175.094C175.006 122.304 174.923 122.27 174.861 122.208C174.799 122.146 174.764 122.062 174.764 121.975C174.764 121.887 174.799 121.804 174.861 121.742C174.923 121.68 175.006 121.645 175.094 121.645H176.083C176.17 121.645 176.254 121.68 176.316 121.742C176.378 121.804 176.412 121.887 176.412 121.975C176.412 122.062 176.378 122.146 176.316 122.208C176.254 122.27 176.17 122.304 176.083 122.304ZM205.075 122.304H203.004C202.916 122.304 202.832 122.27 202.77 122.208C202.709 122.146 202.674 122.062 202.674 121.975C202.674 121.887 202.709 121.804 202.77 121.742C202.832 121.68 202.916 121.645 203.004 121.645H205.075C205.163 121.645 205.247 121.68 205.308 121.742C205.37 121.804 205.405 121.887 205.405 121.975C205.405 122.062 205.37 122.146 205.308 122.208C205.247 122.27 205.163 122.304 205.075 122.304ZM200.934 122.304H198.862C198.774 122.304 198.691 122.27 198.629 122.208C198.567 122.146 198.532 122.062 198.532 121.975C198.532 121.887 198.567 121.804 198.629 121.742C198.691 121.68 198.774 121.645 198.862 121.645H200.934C201.021 121.645 201.105 121.68 201.167 121.742C201.228 121.804 201.263 121.887 201.263 121.975C201.263 122.062 201.228 122.146 201.167 122.208C201.105 122.27 201.021 122.304 200.934 122.304ZM196.792 122.304H194.72C194.633 122.304 194.549 122.27 194.487 122.208C194.425 122.146 194.39 122.062 194.39 121.975C194.39 121.887 194.425 121.804 194.487 121.742C194.549 121.68 194.633 121.645 194.72 121.645H196.792C196.879 121.645 196.963 121.68 197.025 121.742C197.087 121.804 197.121 121.887 197.121 121.975C197.121 122.062 197.087 122.146 197.025 122.208C196.963 122.27 196.879 122.304 196.792 122.304ZM192.65 122.304H190.58C190.492 122.304 190.409 122.27 190.347 122.208C190.285 122.146 190.25 122.062 190.25 121.975C190.25 121.887 190.285 121.804 190.347 121.742C190.409 121.68 190.492 121.645 190.58 121.645H192.65C192.737 121.645 192.821 121.68 192.883 121.742C192.945 121.804 192.98 121.887 192.98 121.975C192.98 122.062 192.945 122.146 192.883 122.208C192.821 122.27 192.737 122.304 192.65 122.304ZM188.508 122.304H186.438C186.351 122.304 186.267 122.27 186.205 122.208C186.143 122.146 186.108 122.062 186.108 121.975C186.108 121.887 186.143 121.804 186.205 121.742C186.267 121.68 186.351 121.645 186.438 121.645H188.508C188.596 121.645 188.679 121.68 188.741 121.742C188.803 121.804 188.838 121.887 188.838 121.975C188.838 122.062 188.803 122.146 188.741 122.208C188.679 122.27 188.596 122.304 188.508 122.304ZM184.366 122.304H182.296C182.209 122.304 182.125 122.27 182.063 122.208C182.001 122.146 181.967 122.062 181.967 121.975C181.967 121.887 182.001 121.804 182.063 121.742C182.125 121.68 182.209 121.645 182.296 121.645H184.366C184.454 121.645 184.538 121.68 184.599 121.742C184.661 121.804 184.696 121.887 184.696 121.975C184.696 122.062 184.661 122.146 184.599 122.208C184.538 122.27 184.454 122.304 184.366 122.304ZM180.226 122.304H178.154C178.067 122.304 177.983 122.27 177.921 122.208C177.86 122.146 177.825 122.062 177.825 121.975C177.825 121.887 177.86 121.804 177.921 121.742C177.983 121.68 178.067 121.645 178.154 121.645H180.226C180.314 121.645 180.397 121.68 180.459 121.742C180.521 121.804 180.556 121.887 180.556 121.975C180.556 122.062 180.521 122.146 180.459 122.208C180.397 122.27 180.314 122.304 180.226 122.304ZM208.134 122.304H207.145C207.058 122.304 206.974 122.27 206.912 122.208C206.85 122.146 206.816 122.062 206.816 121.975C206.816 121.887 206.85 121.804 206.912 121.742C206.974 121.68 207.058 121.645 207.145 121.645H207.805V120.986C207.805 120.899 207.839 120.815 207.901 120.753C207.963 120.691 208.047 120.656 208.134 120.656C208.222 120.656 208.306 120.691 208.367 120.753C208.429 120.815 208.464 120.899 208.464 120.986V121.975C208.464 122.062 208.429 122.146 208.367 122.208C208.306 122.27 208.222 122.304 208.134 122.304ZM208.134 119.351C208.047 119.351 207.963 119.316 207.901 119.254C207.839 119.193 207.805 119.109 207.805 119.021V117.044C207.805 116.956 207.839 116.872 207.901 116.81C207.963 116.749 208.047 116.714 208.134 116.714C208.222 116.714 208.306 116.749 208.367 116.81C208.429 116.872 208.464 116.956 208.464 117.044V119.021C208.464 119.109 208.429 119.193 208.367 119.254C208.306 119.316 208.222 119.351 208.134 119.351ZM208.134 115.407C208.047 115.407 207.963 115.372 207.901 115.31C207.839 115.249 207.805 115.165 207.805 115.077V113.1C207.805 113.012 207.839 112.928 207.901 112.866C207.963 112.805 208.047 112.77 208.134 112.77C208.222 112.77 208.306 112.805 208.367 112.866C208.429 112.928 208.464 113.012 208.464 113.1V115.077C208.464 115.165 208.429 115.249 208.367 115.31C208.306 115.372 208.222 115.407 208.134 115.407ZM208.134 111.463C208.047 111.463 207.963 111.428 207.901 111.366C207.839 111.305 207.805 111.221 207.805 111.133V109.156C207.805 109.068 207.839 108.984 207.901 108.922C207.963 108.861 208.047 108.826 208.134 108.826C208.222 108.826 208.306 108.861 208.367 108.922C208.429 108.984 208.464 109.068 208.464 109.156V111.133C208.464 111.221 208.429 111.305 208.367 111.366C208.306 111.428 208.222 111.463 208.134 111.463ZM208.134 107.519C208.047 107.519 207.963 107.484 207.901 107.422C207.839 107.361 207.805 107.277 207.805 107.189V105.212C207.805 105.124 207.839 105.04 207.901 104.978C207.963 104.917 208.047 104.882 208.134 104.882C208.222 104.882 208.306 104.917 208.367 104.978C208.429 105.04 208.464 105.124 208.464 105.212V107.189C208.464 107.277 208.429 107.361 208.367 107.422C208.306 107.484 208.222 107.519 208.134 107.519ZM208.134 103.575C208.047 103.575 207.963 103.54 207.901 103.478C207.839 103.417 207.805 103.333 207.805 103.245V101.268C207.805 101.18 207.839 101.096 207.901 101.034C207.963 100.973 208.047 100.938 208.134 100.938C208.222 100.938 208.306 100.973 208.367 101.034C208.429 101.096 208.464 101.18 208.464 101.268V103.245C208.464 103.333 208.429 103.417 208.367 103.478C208.306 103.54 208.222 103.575 208.134 103.575ZM208.134 99.6325C208.047 99.6325 207.963 99.5978 207.901 99.536C207.839 99.4742 207.805 99.3903 207.805 99.3029V97.3251C207.805 97.2377 207.839 97.1539 207.901 97.092C207.963 97.0302 208.047 96.9955 208.134 96.9955C208.222 96.9955 208.306 97.0302 208.367 97.092C208.429 97.1539 208.464 97.2377 208.464 97.3251V99.3029C208.464 99.3903 208.429 99.4742 208.367 99.536C208.306 99.5978 208.222 99.6325 208.134 99.6325ZM208.134 95.6885C208.047 95.6885 207.963 95.6538 207.901 95.592C207.839 95.5302 207.805 95.4463 207.805 95.3589V93.3811C207.805 93.2937 207.839 93.2098 207.901 93.148C207.963 93.0862 208.047 93.0515 208.134 93.0515C208.222 93.0515 208.306 93.0862 208.367 93.148C208.429 93.2098 208.464 93.2937 208.464 93.3811V95.3589C208.464 95.4463 208.429 95.5302 208.367 95.592C208.306 95.6538 208.222 95.6885 208.134 95.6885ZM208.134 91.7445C208.047 91.7445 207.963 91.7098 207.901 91.648C207.839 91.5861 207.805 91.5023 207.805 91.4149V89.4371C207.805 89.3497 207.839 89.2658 207.901 89.204C207.963 89.1422 208.047 89.1075 208.134 89.1075C208.222 89.1075 208.306 89.1422 208.367 89.204C208.429 89.2658 208.464 89.3497 208.464 89.4371V91.4149C208.464 91.5023 208.429 91.5861 208.367 91.648C208.306 91.7098 208.222 91.7445 208.134 91.7445ZM208.134 87.8005C208.047 87.8005 207.963 87.7658 207.901 87.7039C207.839 87.6421 207.805 87.5583 207.805 87.4709V86.482C207.805 86.3946 207.839 86.3107 207.901 86.2489C207.963 86.1871 208.047 86.1523 208.134 86.1523C208.222 86.1523 208.306 86.1871 208.367 86.2489C208.429 86.3107 208.464 86.3946 208.464 86.482V87.4709C208.464 87.5583 208.429 87.6421 208.367 87.7039C208.306 87.7658 208.222 87.8005 208.134 87.8005ZM78.8024 148.675C75.3463 148.674 71.9499 147.774 68.9471 146.062C65.9443 144.351 63.4384 141.888 61.6759 138.915C59.9134 135.942 58.9549 132.562 58.8946 129.106C58.8343 125.65 59.6743 122.239 61.3321 119.206C61.374 119.129 61.4447 119.072 61.5287 119.048C61.5702 119.036 61.6137 119.032 61.6568 119.036C61.6998 119.041 61.7415 119.054 61.7795 119.075C61.8175 119.096 61.851 119.124 61.8782 119.157C61.9053 119.191 61.9256 119.23 61.9377 119.272C61.9499 119.313 61.9537 119.357 61.9491 119.4C61.9444 119.443 61.9313 119.484 61.9106 119.522C59.6434 123.667 58.9793 128.501 60.0447 133.104C61.11 137.706 63.8304 141.757 67.6882 144.484C71.5459 147.211 76.2717 148.425 80.9661 147.894C85.6605 147.363 89.9959 145.124 93.1472 141.604C96.2984 138.085 98.0455 133.529 98.056 128.805C98.0665 124.08 96.3397 119.517 93.2041 115.983C90.0686 112.449 85.7432 110.192 81.0512 109.64C76.3591 109.088 71.628 110.281 67.7582 112.991C67.7227 113.016 67.6826 113.033 67.6403 113.043C67.598 113.052 67.5542 113.053 67.5115 113.046C67.4688 113.038 67.428 113.022 67.3915 112.999C67.3549 112.976 67.3232 112.946 67.2984 112.91C67.2735 112.875 67.2558 112.834 67.2464 112.792C67.237 112.75 67.236 112.706 67.2435 112.663C67.251 112.621 67.2668 112.58 67.2901 112.543C67.3134 112.507 67.3436 112.475 67.3791 112.45C69.9412 110.656 72.8898 109.491 75.9861 109.049C79.0824 108.607 82.2393 108.9 85.2011 109.906C88.1628 110.911 90.8461 112.6 93.0336 114.835C95.221 117.071 96.8511 119.79 97.7917 122.773C98.7324 125.756 98.9571 128.919 98.4478 132.005C97.9385 135.091 96.7094 138.013 94.8601 140.536C93.0108 143.058 90.5934 145.109 87.8036 146.523C85.0138 147.938 81.9301 148.675 78.8024 148.675Z" fill="#18753C"/>
<path d="M65.4512 128.105L69.0523 124.504L79.5888 135.041L75.9877 138.642L65.4512 128.105Z" fill="#18753C"/>
<path d="M88.5547 118.872L92.1558 122.473L75.988 138.641L72.3869 135.04L88.5547 118.872Z" fill="#18753C"/>
</g>
<defs>
<clipPath id="clip0_505_8391">
<rect width="165" height="120" fill="white" transform="translate(58 29)"/>
</clipPath>
</defs>
</svg>
