<svg width="163" height="120" viewBox="0 0 163 120" fill="none" xmlns="http://www.w3.org/2000/svg">
<path d="M29.4172 0.9534H135.318C136.492 0.9534 137.619 1.42012 138.45 2.25087C139.281 3.08163 139.747 4.20838 139.747 5.38325V103.06C139.747 104.118 139.327 105.132 138.579 105.88C137.831 106.628 136.817 107.048 135.76 107.048H29.4172C28.2423 107.048 27.1155 106.581 26.2848 105.75C25.454 104.92 24.9873 103.793 24.9873 102.618V5.38488C24.9873 4.21001 25.454 3.08326 26.2848 2.2525C27.1155 1.42175 28.2423 0.955032 29.4172 0.955032V0.9534Z" fill="#000091"/>
<path d="M24.9854 14.3082H139.747V102.616C139.747 103.791 139.28 104.918 138.45 105.749C137.619 106.58 136.492 107.046 135.317 107.046H29.4168C28.242 107.046 27.1152 106.58 26.2845 105.749C25.4537 104.918 24.987 103.791 24.987 102.616V14.3082H24.9854Z" fill="#FCC63A"/>
<path d="M35.0671 10.1099C36.1111 10.1099 36.9575 9.26359 36.9575 8.21957C36.9575 7.17556 36.1111 6.32922 35.0671 6.32922C34.0231 6.32922 33.1768 7.17556 33.1768 8.21957C33.1768 9.26359 34.0231 10.1099 35.0671 10.1099Z" fill="white"/>
<path d="M42.1374 10.1099C43.1814 10.1099 44.0278 9.26359 44.0278 8.21957C44.0278 7.17556 43.1814 6.32922 42.1374 6.32922C41.0934 6.32922 40.2471 7.17556 40.2471 8.21957C40.2471 9.26359 41.0934 10.1099 42.1374 10.1099Z" fill="white"/>
<path d="M49.2058 10.1099C50.2498 10.1099 51.0961 9.26359 51.0961 8.21957C51.0961 7.17556 50.2498 6.32922 49.2058 6.32922C48.1618 6.32922 47.3154 7.17556 47.3154 8.21957C47.3154 9.26359 48.1618 10.1099 49.2058 10.1099Z" fill="white"/>
<path d="M130.129 9.18352H78.0052C77.8138 9.18999 77.6231 9.15788 77.4444 9.08912C77.2657 9.02035 77.1027 8.91633 76.965 8.78324C76.8273 8.65016 76.7179 8.49073 76.6431 8.31446C76.5683 8.13818 76.5298 7.94866 76.5298 7.75719C76.5298 7.56571 76.5683 7.3762 76.6431 7.19992C76.7179 7.02365 76.8273 6.86422 76.965 6.73113C77.1027 6.59805 77.2657 6.49403 77.4444 6.42526C77.6231 6.35649 77.8138 6.32439 78.0052 6.33086H130.129C130.321 6.32439 130.511 6.35649 130.69 6.42526C130.869 6.49403 131.032 6.59805 131.169 6.73113C131.307 6.86422 131.417 7.02365 131.491 7.19992C131.566 7.3762 131.605 7.56571 131.605 7.75719C131.605 7.94866 131.566 8.13818 131.491 8.31446C131.417 8.49073 131.307 8.65016 131.169 8.78324C131.032 8.91633 130.869 9.02035 130.69 9.08912C130.511 9.15788 130.321 9.18999 130.129 9.18352ZM82.3665 60.8476C78.9273 60.8483 75.5478 59.9486 72.5641 58.238C72.4891 58.1948 72.4343 58.1235 72.4118 58.0398C72.3893 57.9561 72.401 57.867 72.4442 57.7919C72.4875 57.7169 72.5588 57.6621 72.6424 57.6396C72.7261 57.6171 72.8153 57.6288 72.8903 57.6721C77.1015 60.0937 82.0773 60.8192 86.8047 59.7009C91.532 58.5826 95.6554 55.7045 98.3352 51.6527C101.015 47.6009 102.05 42.68 101.229 37.8921C100.407 33.1042 97.7924 28.8092 93.9158 25.8818C90.0391 22.9543 85.1924 21.6145 80.3626 22.1351C75.5328 22.6557 71.0829 24.9976 67.9192 28.684C64.7555 32.3703 63.1157 37.1239 63.3339 41.9768C63.552 46.8298 65.6116 51.4171 69.0933 54.8047C69.1554 54.8651 69.1909 54.9476 69.1922 55.0342C69.1934 55.1207 69.1602 55.2042 69.0998 55.2663C69.0395 55.3284 68.9569 55.3639 68.8704 55.3652C68.7838 55.3664 68.7003 55.3332 68.6382 55.2728C65.3602 52.0873 63.2916 47.8612 62.7866 43.3183C62.2817 38.7754 63.3719 34.1982 65.8705 30.3707C68.3691 26.5431 72.1207 23.7033 76.4828 22.3375C80.8449 20.9717 85.5461 21.165 89.7814 22.8842C94.0167 24.6033 97.5225 27.7415 99.6986 31.7612C101.875 35.7809 102.585 40.4321 101.709 44.9182C100.833 49.4044 98.4249 53.4464 94.8964 56.3522C91.368 59.2579 86.9391 60.8465 82.3682 60.846L82.3665 60.8476Z" fill="white"/>
<path d="M96.4486 49.243C95.024 51.7181 92.9722 53.774 90.4999 55.2036C88.0276 56.6332 85.2222 57.3859 82.3664 57.3859C79.5105 57.3859 76.7052 56.6332 74.2329 55.2036C71.7606 53.774 69.7088 51.7181 68.2842 49.243C69.7088 46.7678 71.7606 44.7119 74.2329 43.2823C76.7052 41.8527 79.5105 41.1 82.3664 41.1C85.2222 41.1 88.0276 41.8527 90.4999 43.2823C92.9722 44.7119 95.024 46.7678 96.4486 49.243Z" fill="white"/>
<path d="M82.3661 41.8071C86.2908 41.8071 89.4725 38.6255 89.4725 34.7008C89.4725 30.7761 86.2908 27.5945 82.3661 27.5945C78.4414 27.5945 75.2598 30.7761 75.2598 34.7008C75.2598 38.6255 78.4414 41.8071 82.3661 41.8071Z" fill="white"/>
<path d="M111.573 79.5848H94.0123C93.9258 79.5848 93.8428 79.5504 93.7817 79.4893C93.7205 79.4281 93.6861 79.3451 93.6861 79.2586C93.6861 79.1721 93.7205 79.0891 93.7817 79.0279C93.8428 78.9668 93.9258 78.9324 94.0123 78.9324H111.247V69.1136H53.4815V78.9324H90.2463C90.3328 78.9324 90.4158 78.9668 90.477 79.0279C90.5381 79.0891 90.5725 79.1721 90.5725 79.2586C90.5725 79.3451 90.5381 79.4281 90.477 79.4893C90.4158 79.5504 90.3328 79.5848 90.2463 79.5848H53.1553C53.0688 79.5848 52.9858 79.5504 52.9246 79.4893C52.8635 79.4281 52.8291 79.3451 52.8291 79.2586V68.7874C52.8291 68.7009 52.8635 68.618 52.9246 68.5568C52.9858 68.4956 53.0688 68.4612 53.1553 68.4612H111.573C111.66 68.4612 111.743 68.4956 111.804 68.5568C111.865 68.618 111.9 68.7009 111.9 68.7874V79.2586C111.9 79.3451 111.865 79.4281 111.804 79.4893C111.743 79.5504 111.66 79.5848 111.573 79.5848ZM111.573 97.7625H53.1553C53.0688 97.7625 52.9858 97.7281 52.9246 97.6669C52.8635 97.6058 52.8291 97.5228 52.8291 97.4363V86.9733C52.8291 86.8868 52.8635 86.8038 52.9246 86.7426C52.9858 86.6815 53.0688 86.6471 53.1553 86.6471H111.573C111.66 86.6471 111.743 86.6815 111.804 86.7426C111.865 86.8038 111.9 86.8868 111.9 86.9733V97.4363C111.9 97.5228 111.865 97.6058 111.804 97.6669C111.743 97.7281 111.66 97.7625 111.573 97.7625ZM53.4815 97.1101H111.247V87.2995H53.4815V97.1101Z" fill="white"/>
<path d="M106.162 75.9068H59.3164C59.0858 75.9139 58.8562 75.8747 58.6412 75.7913C58.4261 75.708 58.2299 75.5824 58.0644 75.4218C57.8988 75.2612 57.7671 75.069 57.6772 74.8566C57.5873 74.6442 57.541 74.4159 57.541 74.1853C57.541 73.9547 57.5873 73.7264 57.6772 73.514C57.7671 73.3016 57.8988 73.1094 58.0644 72.9488C58.2299 72.7883 58.4261 72.6626 58.6412 72.5793C58.8562 72.4959 59.0858 72.4567 59.3164 72.4638H106.162C106.393 72.4567 106.623 72.4959 106.838 72.5793C107.053 72.6626 107.249 72.7883 107.414 72.9488C107.58 73.1094 107.712 73.3016 107.802 73.514C107.891 73.7264 107.938 73.9547 107.938 74.1853C107.938 74.4159 107.891 74.6442 107.802 74.8566C107.712 75.069 107.58 75.2612 107.414 75.4218C107.249 75.5824 107.053 75.708 106.838 75.7913C106.623 75.8747 106.393 75.9139 106.162 75.9068ZM60.6946 95.3306C60.6081 95.3306 60.5251 95.2963 60.4639 95.2351C60.4027 95.1739 60.3684 95.091 60.3684 95.0044V89.2698C60.3684 89.1833 60.4027 89.1003 60.4639 89.0391C60.5251 88.9779 60.6081 88.9436 60.6946 88.9436C60.7811 88.9436 60.8641 88.9779 60.9252 89.0391C60.9864 89.1003 61.0208 89.1833 61.0208 89.2698V95.0044C61.0208 95.091 60.9864 95.1739 60.9252 95.2351C60.8641 95.2963 60.7811 95.3306 60.6946 95.3306Z" fill="#000091"/>
<path d="M58.2113 93.897C58.1391 93.8975 58.0687 93.874 58.0113 93.8302C57.9538 93.7864 57.9125 93.7248 57.8939 93.655C57.8752 93.5853 57.8803 93.5113 57.9082 93.4447C57.9361 93.378 57.9854 93.3226 58.0482 93.287L63.0146 90.4229C63.0897 90.3797 63.1789 90.368 63.2625 90.3905C63.3462 90.4129 63.4175 90.4677 63.4607 90.5428C63.504 90.6178 63.5157 90.707 63.4932 90.7907C63.4707 90.8743 63.4159 90.9456 63.3408 90.9889C57.9471 94.0992 58.3385 93.897 58.2113 93.897Z" fill="#000091"/>
<path d="M63.1778 93.897C63.0539 93.897 63.4943 94.1302 58.0483 90.9856C57.9732 90.9424 57.9184 90.8711 57.896 90.7874C57.8735 90.7037 57.8851 90.6146 57.9284 90.5395C57.9717 90.4645 58.043 90.4097 58.1266 90.3872C58.2103 90.3647 58.2994 90.3764 58.3745 90.4196L63.3409 93.287C63.4038 93.3226 63.453 93.378 63.4809 93.4447C63.5089 93.5113 63.5139 93.5853 63.4952 93.655C63.4766 93.7248 63.4353 93.7864 63.3779 93.8302C63.3204 93.874 63.2501 93.8975 63.1778 93.897ZM69.4377 95.3779C69.3512 95.3779 69.2682 95.3436 69.207 95.2824C69.1458 95.2212 69.1115 95.1383 69.1115 95.0517V89.3171C69.1115 89.2306 69.1458 89.1476 69.207 89.0864C69.2682 89.0252 69.3512 88.9909 69.4377 88.9909C69.5242 88.9909 69.6072 89.0252 69.6683 89.0864C69.7295 89.1476 69.7639 89.2306 69.7639 89.3171V95.0517C69.7639 95.1383 69.7295 95.2212 69.6683 95.2824C69.6072 95.3436 69.5242 95.3779 69.4377 95.3779Z" fill="#000091"/>
<path d="M66.9545 93.9443C66.8828 93.9441 66.8132 93.9204 66.7563 93.8767C66.6995 93.833 66.6586 93.7718 66.64 93.7025C66.6215 93.6333 66.6262 93.5598 66.6536 93.4936C66.681 93.4273 66.7294 93.3719 66.7914 93.3359L71.7579 90.4686C71.8324 90.4296 71.9192 90.4209 72 90.4443C72.0808 90.4678 72.1494 90.5215 72.1915 90.5944C72.2336 90.6672 72.2459 90.7535 72.2259 90.8352C72.2059 90.9169 72.1551 90.9878 72.0841 91.0329C66.6919 94.1481 67.0817 93.9443 66.9545 93.9443Z" fill="#000091"/>
<path d="M71.9201 93.9443C71.7961 93.9443 72.2382 94.1775 66.7922 91.0329C66.7532 91.0125 66.7187 90.9844 66.6909 90.9504C66.663 90.9163 66.6424 90.877 66.6301 90.8347C66.6178 90.7925 66.6143 90.7482 66.6196 90.7045C66.6249 90.6608 66.639 90.6187 66.661 90.5806C66.683 90.5425 66.7125 90.5093 66.7477 90.4829C66.7829 90.4565 66.8231 90.4375 66.8658 90.427C66.9085 90.4165 66.9529 90.4148 66.9963 90.422C67.0397 90.4291 67.0813 90.445 67.1184 90.4686L72.0848 93.3359C72.147 93.3719 72.1955 93.4275 72.2228 93.4939C72.2502 93.5604 72.2548 93.634 72.236 93.7033C72.2173 93.7727 72.1761 93.8339 72.119 93.8774C72.0619 93.921 71.9919 93.9445 71.9201 93.9443ZM78.18 95.4252C78.0934 95.4252 78.0105 95.3909 77.9493 95.3297C77.8881 95.2685 77.8537 95.1855 77.8537 95.099V89.3644C77.8537 89.2778 77.8881 89.1949 77.9493 89.1337C78.0105 89.0725 78.0934 89.0381 78.18 89.0381C78.2665 89.0381 78.3494 89.0725 78.4106 89.1337C78.4718 89.1949 78.5062 89.2778 78.5062 89.3644V95.099C78.5062 95.1855 78.4718 95.2685 78.4106 95.3297C78.3494 95.3909 78.2665 95.4252 78.18 95.4252Z" fill="#000091"/>
<path d="M75.6967 93.9916C75.625 93.9915 75.5554 93.9677 75.4985 93.924C75.4417 93.8803 75.4008 93.8191 75.3822 93.7498C75.3637 93.6806 75.3684 93.6071 75.3958 93.5409C75.4232 93.4746 75.4716 93.4192 75.5336 93.3832L80.5001 90.5159C80.5372 90.4923 80.5787 90.4764 80.6221 90.4693C80.6655 90.4622 80.71 90.4639 80.7527 90.4743C80.7954 90.4848 80.8356 90.5038 80.8708 90.5302C80.906 90.5566 80.9355 90.5898 80.9575 90.6279C80.9795 90.666 80.9936 90.7082 80.9989 90.7518C81.0042 90.7955 81.0006 90.8398 80.9884 90.8821C80.9761 90.9243 80.9554 90.9636 80.9276 90.9977C80.8997 91.0318 80.8653 91.0598 80.8263 91.0802C75.4325 94.1955 75.8256 93.9916 75.6967 93.9916Z" fill="#000091"/>
<path d="M80.6636 93.9916C80.538 93.9916 80.98 94.2248 75.534 91.0802C75.463 91.0351 75.4122 90.9643 75.3922 90.8825C75.3722 90.8008 75.3845 90.7145 75.4266 90.6417C75.4687 90.5688 75.5373 90.5151 75.6181 90.4916C75.6989 90.4682 75.7857 90.4769 75.8602 90.5159L80.8267 93.3832C80.8887 93.4192 80.9371 93.4746 80.9645 93.5409C80.9919 93.6071 80.9966 93.6806 80.9781 93.7498C80.9595 93.8191 80.9186 93.8803 80.8618 93.924C80.8049 93.9677 80.7353 93.9915 80.6636 93.9916ZM86.9169 95.4791C86.8304 95.4791 86.7474 95.4447 86.6862 95.3835C86.6251 95.3223 86.5907 95.2394 86.5907 95.1529V89.4117C86.5907 89.3252 86.6251 89.2422 86.6862 89.181C86.7474 89.1199 86.8304 89.0855 86.9169 89.0855C87.0034 89.0855 87.0864 89.1199 87.1476 89.181C87.2087 89.2422 87.2431 89.3252 87.2431 89.4117V95.1529C87.2431 95.2394 87.2087 95.3223 87.1476 95.3835C87.0864 95.4447 87.0034 95.4791 86.9169 95.4791Z" fill="#000091"/>
<path d="M84.4418 94.0405C84.3695 94.041 84.2992 94.0175 84.2417 93.9737C84.1843 93.93 84.143 93.8683 84.1244 93.7986C84.1057 93.7288 84.1107 93.6548 84.1386 93.5882C84.1666 93.5216 84.2158 93.4661 84.2787 93.4305L89.2451 90.5632C89.2823 90.5417 89.3233 90.5279 89.3658 90.5223C89.4084 90.5167 89.4516 90.5196 89.493 90.5307C89.5344 90.5419 89.5732 90.561 89.6072 90.5872C89.6412 90.6133 89.6698 90.6459 89.6912 90.683C89.7126 90.7202 89.7265 90.7612 89.7321 90.8038C89.7376 90.8463 89.7348 90.8895 89.7236 90.9309C89.7125 90.9723 89.6933 91.0112 89.6672 91.0452C89.6411 91.0792 89.6085 91.1077 89.5713 91.1291C84.1759 94.2427 84.569 94.0405 84.4418 94.0405Z" fill="#000091"/>
<path d="M89.4054 94.0405C89.2814 94.0405 89.7316 94.2737 84.2758 91.1291C84.2008 91.0859 84.146 91.0146 84.1235 90.9309C84.101 90.8473 84.1127 90.7581 84.1559 90.683C84.1992 90.608 84.2705 90.5532 84.3542 90.5307C84.4378 90.5082 84.527 90.5199 84.602 90.5632L89.5685 93.4305C89.6313 93.4661 89.6806 93.5216 89.7085 93.5882C89.7364 93.6548 89.7415 93.7288 89.7228 93.7986C89.7041 93.8683 89.6629 93.93 89.6054 93.9737C89.548 94.0175 89.4776 94.041 89.4054 94.0405ZM97.6322 94.9898H92.1846C92.0981 94.9898 92.0152 94.9554 91.954 94.8942C91.8928 94.833 91.8584 94.7501 91.8584 94.6636C91.8584 94.577 91.8928 94.4941 91.954 94.4329C92.0152 94.3717 92.0981 94.3373 92.1846 94.3373H97.6322C97.7188 94.3373 97.8017 94.3717 97.8629 94.4329C97.9241 94.4941 97.9584 94.577 97.9584 94.6636C97.9584 94.7501 97.9241 94.833 97.8629 94.8942C97.8017 94.9554 97.7188 94.9898 97.6322 94.9898ZM106.521 94.9898H101.074C100.987 94.9898 100.904 94.9554 100.843 94.8942C100.782 94.833 100.747 94.7501 100.747 94.6636C100.747 94.577 100.782 94.4941 100.843 94.4329C100.904 94.3717 100.987 94.3373 101.074 94.3373H106.521C106.608 94.3373 106.691 94.3717 106.752 94.4329C106.813 94.4941 106.847 94.577 106.847 94.6636C106.847 94.7501 106.813 94.833 106.752 94.8942C106.691 94.9554 106.608 94.9898 106.521 94.9898Z" fill="#000091"/>
<path d="M158.731 40.1875H155.305V31.8318C155.278 30.0856 154.565 28.4202 153.321 27.195C152.076 25.9698 150.4 25.2831 148.653 25.2831C146.907 25.2831 145.231 25.9698 143.986 27.195C142.741 28.4202 142.029 30.0856 142.001 31.8318V40.1875H138.591V31.8318C138.591 29.1611 139.652 26.5998 141.54 24.7113C143.429 22.8229 145.99 21.7619 148.661 21.7619C151.331 21.7619 153.893 22.8229 155.781 24.7113C157.67 26.5998 158.731 29.1611 158.731 31.8318V40.1875Z" fill="#B34000"/>
<path d="M160.495 34.2262H136.822C135.736 34.2262 134.855 35.1068 134.855 36.1932V53.4396C134.855 54.5259 135.736 55.4066 136.822 55.4066H160.495C161.581 55.4066 162.462 54.5259 162.462 53.4396V36.1932C162.462 35.1068 161.581 34.2262 160.495 34.2262Z" fill="#CE0500"/>
<path d="M148.66 45.6025C149.946 45.6025 150.988 44.5605 150.988 43.2751C150.988 41.9896 149.946 40.9476 148.66 40.9476C147.375 40.9476 146.333 41.9896 146.333 43.2751C146.333 44.5605 147.375 45.6025 148.66 45.6025Z" fill="white"/>
<path d="M147.578 44.1607H149.742V48.6851H147.578V44.1607Z" fill="white"/>
<path d="M116.252 93.0325H115.274C115.187 93.0325 115.104 92.9982 115.043 92.937C114.982 92.8758 114.948 92.7929 114.948 92.7063C114.948 92.6198 114.982 92.5369 115.043 92.4757C115.104 92.4145 115.187 92.3801 115.274 92.3801H116.252C116.339 92.3801 116.422 92.4145 116.483 92.4757C116.544 92.5369 116.579 92.6198 116.579 92.7063C116.579 92.7929 116.544 92.8758 116.483 92.937C116.422 92.9982 116.339 93.0325 116.252 93.0325ZM144.944 93.0325H142.893C142.807 93.0325 142.724 92.9982 142.663 92.937C142.602 92.8758 142.567 92.7929 142.567 92.7063C142.567 92.6198 142.602 92.5369 142.663 92.4757C142.724 92.4145 142.807 92.3801 142.893 92.3801H144.944C145.03 92.3801 145.113 92.4145 145.174 92.4757C145.235 92.5369 145.27 92.6198 145.27 92.7063C145.27 92.7929 145.235 92.8758 145.174 92.937C145.113 92.9982 145.03 93.0325 144.944 93.0325ZM140.845 93.0325H138.795C138.708 93.0325 138.625 92.9982 138.564 92.937C138.503 92.8758 138.469 92.7929 138.469 92.7063C138.469 92.6198 138.503 92.5369 138.564 92.4757C138.625 92.4145 138.708 92.3801 138.795 92.3801H140.845C140.931 92.3801 141.014 92.4145 141.076 92.4757C141.137 92.5369 141.171 92.6198 141.171 92.7063C141.171 92.7929 141.137 92.8758 141.076 92.937C141.014 92.9982 140.931 93.0325 140.845 93.0325ZM136.746 93.0325H134.696C134.609 93.0325 134.526 92.9982 134.465 92.937C134.404 92.8758 134.37 92.7929 134.37 92.7063C134.37 92.6198 134.404 92.5369 134.465 92.4757C134.526 92.4145 134.609 92.3801 134.696 92.3801H136.746C136.833 92.3801 136.916 92.4145 136.977 92.4757C137.038 92.5369 137.072 92.6198 137.072 92.7063C137.072 92.7929 137.038 92.8758 136.977 92.937C136.916 92.9982 136.833 93.0325 136.746 93.0325ZM132.647 93.0325H130.599C130.512 93.0325 130.429 92.9982 130.368 92.937C130.307 92.8758 130.273 92.7929 130.273 92.7063C130.273 92.6198 130.307 92.5369 130.368 92.4757C130.429 92.4145 130.512 92.3801 130.599 92.3801H132.647C132.734 92.3801 132.817 92.4145 132.878 92.4757C132.939 92.5369 132.974 92.6198 132.974 92.7063C132.974 92.7929 132.939 92.8758 132.878 92.937C132.817 92.9982 132.734 93.0325 132.647 93.0325ZM128.549 93.0325H126.5C126.414 93.0325 126.331 92.9982 126.269 92.937C126.208 92.8758 126.174 92.7929 126.174 92.7063C126.174 92.6198 126.208 92.5369 126.269 92.4757C126.331 92.4145 126.414 92.3801 126.5 92.3801H128.549C128.635 92.3801 128.718 92.4145 128.779 92.4757C128.84 92.5369 128.875 92.6198 128.875 92.7063C128.875 92.7929 128.84 92.8758 128.779 92.937C128.718 92.9982 128.635 93.0325 128.549 93.0325ZM124.45 93.0325H122.401C122.315 93.0325 122.232 92.9982 122.171 92.937C122.11 92.8758 122.075 92.7929 122.075 92.7063C122.075 92.6198 122.11 92.5369 122.171 92.4757C122.232 92.4145 122.315 92.3801 122.401 92.3801H124.45C124.536 92.3801 124.619 92.4145 124.681 92.4757C124.742 92.5369 124.776 92.6198 124.776 92.7063C124.776 92.7929 124.742 92.8758 124.681 92.937C124.619 92.9982 124.536 93.0325 124.45 93.0325ZM120.353 93.0325H118.303C118.216 93.0325 118.133 92.9982 118.072 92.937C118.011 92.8758 117.976 92.7929 117.976 92.7063C117.976 92.6198 118.011 92.5369 118.072 92.4757C118.133 92.4145 118.216 92.3801 118.303 92.3801H120.353C120.439 92.3801 120.522 92.4145 120.583 92.4757C120.645 92.5369 120.679 92.6198 120.679 92.7063C120.679 92.7929 120.645 92.8758 120.583 92.937C120.522 92.9982 120.439 93.0325 120.353 93.0325ZM147.971 93.0325H146.992C146.906 93.0325 146.823 92.9982 146.762 92.937C146.7 92.8758 146.666 92.7929 146.666 92.7063C146.666 92.6198 146.7 92.5369 146.762 92.4757C146.823 92.4145 146.906 92.3801 146.992 92.3801H147.645V91.7277C147.645 91.6412 147.679 91.5582 147.74 91.4971C147.801 91.4359 147.884 91.4015 147.971 91.4015C148.057 91.4015 148.14 91.4359 148.201 91.4971C148.263 91.5582 148.297 91.6412 148.297 91.7277V92.7063C148.297 92.7929 148.263 92.8758 148.201 92.937C148.14 92.9982 148.057 93.0325 147.971 93.0325ZM147.971 90.1098C147.884 90.1098 147.801 90.0754 147.74 90.0142C147.679 89.953 147.645 89.8701 147.645 89.7836V87.8263C147.645 87.7398 147.679 87.6568 147.74 87.5957C147.801 87.5345 147.884 87.5001 147.971 87.5001C148.057 87.5001 148.14 87.5345 148.201 87.5957C148.263 87.6568 148.297 87.7398 148.297 87.8263V89.7836C148.297 89.8701 148.263 89.953 148.201 90.0142C148.14 90.0754 148.057 90.1098 147.971 90.1098ZM147.971 86.2067C147.884 86.2067 147.801 86.1724 147.74 86.1112C147.679 86.05 147.645 85.967 147.645 85.8805V83.9233C147.645 83.8368 147.679 83.7538 147.74 83.6926C147.801 83.6315 147.884 83.5971 147.971 83.5971C148.057 83.5971 148.14 83.6315 148.201 83.6926C148.263 83.7538 148.297 83.8368 148.297 83.9233V85.8805C148.297 85.967 148.263 86.05 148.201 86.1112C148.14 86.1724 148.057 86.2067 147.971 86.2067ZM147.971 82.3037C147.884 82.3037 147.801 82.2693 147.74 82.2082C147.679 82.147 147.645 82.064 147.645 81.9775V80.0203C147.645 79.9338 147.679 79.8508 147.74 79.7896C147.801 79.7284 147.884 79.6941 147.971 79.6941C148.057 79.6941 148.14 79.7284 148.201 79.7896C148.263 79.8508 148.297 79.9338 148.297 80.0203V81.9775C148.297 82.064 148.263 82.147 148.201 82.2082C148.14 82.2693 148.057 82.3037 147.971 82.3037ZM147.971 78.4007C147.884 78.4007 147.801 78.3663 147.74 78.3051C147.679 78.244 147.645 78.161 147.645 78.0745V76.1173C147.645 76.0307 147.679 75.9478 147.74 75.8866C147.801 75.8254 147.884 75.791 147.971 75.791C148.057 75.791 148.14 75.8254 148.201 75.8866C148.263 75.9478 148.297 76.0307 148.297 76.1173V78.0745C148.297 78.161 148.263 78.244 148.201 78.3051C148.14 78.3663 148.057 78.4007 147.971 78.4007ZM147.971 74.4977C147.884 74.4977 147.801 74.4633 147.74 74.4021C147.679 74.3409 147.645 74.258 147.645 74.1714V72.2142C147.645 72.1277 147.679 72.0447 147.74 71.9836C147.801 71.9224 147.884 71.888 147.971 71.888C148.057 71.888 148.14 71.9224 148.201 71.9836C148.263 72.0447 148.297 72.1277 148.297 72.2142V74.1714C148.297 74.258 148.263 74.3409 148.201 74.4021C148.14 74.4633 148.057 74.4977 147.971 74.4977ZM147.971 70.5963C147.884 70.5963 147.801 70.5619 147.74 70.5007C147.679 70.4395 147.645 70.3566 147.645 70.2701V68.3128C147.645 68.2263 147.679 68.1433 147.74 68.0822C147.801 68.021 147.884 67.9866 147.971 67.9866C148.057 67.9866 148.14 68.021 148.201 68.0822C148.263 68.1433 148.297 68.2263 148.297 68.3128V70.2701C148.297 70.3566 148.263 70.4395 148.201 70.5007C148.14 70.5619 148.057 70.5963 147.971 70.5963ZM147.971 66.6932C147.884 66.6932 147.801 66.6589 147.74 66.5977C147.679 66.5365 147.645 66.4535 147.645 66.367V64.4098C147.645 64.3233 147.679 64.2403 147.74 64.1791C147.801 64.118 147.884 64.0836 147.971 64.0836C148.057 64.0836 148.14 64.118 148.201 64.1791C148.263 64.2403 148.297 64.3233 148.297 64.4098V66.367C148.297 66.4535 148.263 66.5365 148.201 66.5977C148.14 66.6589 148.057 66.6932 147.971 66.6932ZM147.971 62.7902C147.884 62.7902 147.801 62.7558 147.74 62.6947C147.679 62.6335 147.645 62.5505 147.645 62.464V60.5068C147.645 60.4203 147.679 60.3373 147.74 60.2761C147.801 60.2149 147.884 60.1806 147.971 60.1806C148.057 60.1806 148.14 60.2149 148.201 60.2761C148.263 60.3373 148.297 60.4203 148.297 60.5068V62.464C148.297 62.5505 148.263 62.6335 148.201 62.6947C148.14 62.7558 148.057 62.7902 147.971 62.7902ZM147.971 58.8872C147.884 58.8872 147.801 58.8528 147.74 58.7916C147.679 58.7305 147.645 58.6475 147.645 58.561V57.5824C147.645 57.4959 147.679 57.4129 147.74 57.3517C147.801 57.2905 147.884 57.2562 147.971 57.2562C148.057 57.2562 148.14 57.2905 148.201 57.3517C148.263 57.4129 148.297 57.4959 148.297 57.5824V58.561C148.297 58.6475 148.263 58.7305 148.201 58.7916C148.14 58.8528 148.057 58.8872 147.971 58.8872ZM19.9832 119.129C16.563 119.128 13.2018 118.237 10.2302 116.544C7.25865 114.85 4.77887 112.413 3.03469 109.471C1.29051 106.528 0.341963 103.183 0.282297 99.7634C0.222631 96.3437 1.0539 92.9674 2.69439 89.9662C2.73591 89.8903 2.8059 89.834 2.88894 89.8097C2.93006 89.7976 2.97315 89.7938 3.01575 89.7984C3.05835 89.803 3.09962 89.816 3.13721 89.8366C3.1748 89.8571 3.20797 89.8849 3.23483 89.9183C3.26169 89.9516 3.28171 89.99 3.29375 90.0311C3.30579 90.0722 3.30962 90.1153 3.30501 90.1579C3.30039 90.2005 3.28744 90.2418 3.26688 90.2794C1.02329 94.3811 0.366103 99.1646 1.42037 103.719C2.47464 108.274 5.16677 112.283 8.98442 114.981C12.8021 117.68 17.4787 118.881 22.1244 118.356C26.77 117.83 31.0603 115.615 34.1788 112.132C37.2973 108.649 39.0263 104.14 39.0367 99.4652C39.0471 94.79 37.3382 90.2741 34.2352 86.777C31.1322 83.2799 26.8518 81.0458 22.2086 80.4997C17.5653 79.9537 12.8833 81.1339 9.05373 83.8157C9.0186 83.8403 8.97897 83.8578 8.93709 83.8671C8.89521 83.8764 8.8519 83.8774 8.80965 83.8699C8.76739 83.8625 8.72701 83.8468 8.69081 83.8238C8.65462 83.8008 8.62331 83.7709 8.59867 83.7357C8.57404 83.7006 8.55657 83.661 8.54726 83.6191C8.53794 83.5772 8.53697 83.5339 8.54439 83.4917C8.55181 83.4494 8.56748 83.409 8.59051 83.3728C8.61353 83.3366 8.64347 83.3053 8.67859 83.2807C11.214 81.5054 14.132 80.3522 17.1961 79.9147C20.2603 79.4773 23.3844 79.7677 26.3153 80.7626C29.2463 81.7574 31.9017 83.4287 34.0664 85.641C36.2311 87.8533 37.8442 90.5445 38.7751 93.4964C39.706 96.4483 39.9284 99.5779 39.4244 102.632C38.9204 105.686 37.704 108.578 35.874 111.074C34.0439 113.57 31.6516 115.6 28.8908 117C26.13 118.399 23.0784 119.129 19.9832 119.129Z" fill="#18753C"/>
<path d="M6.77051 98.7737L10.3342 95.21L20.7612 105.637L17.1975 109.201L6.77051 98.7737Z" fill="#18753C"/>
<path d="M29.6338 89.6365L33.1975 93.2002L17.1977 109.2L13.634 105.636L29.6338 89.6365Z" fill="#18753C"/>
</svg>
