<svg width="262" height="247" viewBox="0 0 262 247" fill="none" xmlns="http://www.w3.org/2000/svg">
<path d="M137.811 37.1071V48.4769H0.636719V37.1071C0.636719 35.6092 1.19472 34.1725 2.18797 33.1133C3.18122 32.0541 4.52835 31.459 5.93302 31.459H132.514C133.919 31.459 135.266 32.0541 136.26 33.1133C137.253 34.1725 137.811 35.6092 137.811 37.1071Z" fill="#E1000F"/>
<path d="M137.811 146.238V146.803C137.811 148.151 137.309 149.444 136.415 150.397C135.521 151.35 134.308 151.886 133.044 151.886H132.515C133.919 151.886 135.266 151.291 136.26 150.232C137.253 149.172 137.811 147.736 137.811 146.238Z" fill="#7BBF95"/>
<path d="M137.811 48.4768V146.238C137.811 147.736 137.253 149.172 136.26 150.232C135.266 151.291 133.919 151.886 132.514 151.886H5.93302C4.52835 151.886 3.18122 151.291 2.18797 150.232C1.19472 149.172 0.636719 147.736 0.636719 146.238V48.4768H137.811Z" fill="#FFB904"/>
<path d="M42.7341 122.623L29.1279 112.431L32.176 107.802L42.7341 115.709L54.815 106.658L66.8958 115.709L78.9793 106.658L91.0628 115.709L101.621 107.799L104.669 112.431L91.0628 122.623L78.9793 113.572L66.8958 122.623L54.815 113.572L42.7341 122.623Z" fill="white"/>
<path d="M27.9678 82.5835L43.403 66.1229L47.1536 70.1227L31.7184 86.5833L27.9678 82.5835Z" fill="white"/>
<path d="M27.9648 70.1284L31.7155 66.1286L47.1507 82.5892L43.4001 86.589L27.9648 70.1284Z" fill="white"/>
<path d="M86.6445 82.5813L102.08 66.1207L105.83 70.1205L90.3952 86.5811L86.6445 82.5813Z" fill="white"/>
<path d="M86.6445 70.1292L90.3952 66.1293L105.83 82.5899L102.08 86.5898L86.6445 70.1292Z" fill="white"/>
<path d="M12.6778 43.1309C13.9254 43.1309 14.9367 42.0523 14.9367 40.7219C14.9367 39.3915 13.9254 38.313 12.6778 38.313C11.4303 38.313 10.4189 39.3915 10.4189 40.7219C10.4189 42.0523 11.4303 43.1309 12.6778 43.1309Z" fill="white"/>
<path d="M21.128 43.1309C22.3756 43.1309 23.3869 42.0523 23.3869 40.7219C23.3869 39.3915 22.3756 38.313 21.128 38.313C19.8805 38.313 18.8691 39.3915 18.8691 40.7219C18.8691 42.0523 19.8805 43.1309 21.128 43.1309Z" fill="white"/>
<path d="M29.5782 43.1309C30.8257 43.1309 31.8371 42.0523 31.8371 40.7219C31.8371 39.3915 30.8257 38.313 29.5782 38.313C28.3307 38.313 27.3193 39.3915 27.3193 40.7219C27.3193 42.0523 28.3307 43.1309 29.5782 43.1309Z" fill="white"/>
<path d="M126.313 41.9503H64.0017C63.549 41.9503 63.1149 41.7585 62.7948 41.4172C62.4747 41.0758 62.2949 40.6129 62.2949 40.1302C62.2949 39.6475 62.4747 39.1845 62.7948 38.8432C63.1149 38.5018 63.549 38.3101 64.0017 38.3101H126.313C126.765 38.3101 127.199 38.5017 127.518 38.8427C127.838 39.1838 128.018 39.6464 128.018 40.1288C128.018 40.6111 127.838 41.0737 127.518 41.4148C127.199 41.7559 126.765 41.9475 126.313 41.9475V41.9503ZM154.568 207.068C151.457 208.263 147.81 208.811 144.659 207.012C133.243 200.488 117.878 155.806 117.878 155.806C112.076 155.537 108.26 147.319 108.26 147.319C108.26 147.319 105.932 147.924 105.082 147.054C103.041 144.964 105.829 143.792 105.829 143.792C105.829 143.792 102.365 144.046 102.228 141.908C102.138 140.496 103.854 138.946 106.086 138.539C104.63 138.158 102.254 137.195 102.643 135.93C102.951 134.916 105.435 132.484 109.717 135.102C107.106 132.612 104.121 129.172 106.274 128.113C109.778 126.404 121.835 136.91 129.173 146.582C133.579 152.391 141.447 165.577 147.379 175.746C151.293 177.859 157.108 179.502 164.327 178.946L162.015 202.951L154.568 207.068ZM254.385 194.343C239.622 194.289 232.612 193.6 226.256 189.57C217.541 179.203 209.242 170.739 203.006 158.969C203.006 158.969 203.006 142.651 200.866 142.555C198.726 142.459 196.79 150.607 196.79 150.607C196.79 150.607 190.639 134.306 188.465 135.176C186.29 136.046 189.135 146.495 189.135 146.495C189.135 146.495 185.162 136.503 182.644 137.511C180.126 138.519 184.079 148.714 184.079 148.714C184.079 148.714 180.247 141.154 178.2 141.973C176.153 142.792 181.14 152.671 181.14 152.671C181.14 152.671 177.726 147.958 176.183 148.675C174.639 149.392 184.392 166.467 184.392 166.467C184.392 166.467 212.319 222.55 229.145 223.202C240.654 223.648 248.45 209.853 252.227 201.095L254.385 194.343Z" fill="white"/>
<path d="M257.759 193.482L257.676 193.894C250.201 194.501 242.264 194.459 234.939 192.906C229.463 191.753 226.653 190.211 226.359 189.268L226.317 189.133L226.251 189.559C217.112 178.76 209.173 170.561 203.005 158.971C203.005 156.856 202.87 142.648 200.866 142.555C198.89 142.586 197.307 148.644 196.774 150.539C195.914 148.364 190.498 134.368 188.472 135.17C187.106 135.715 187.821 140.203 188.096 141.739L187.114 142.123C186.37 140.739 184.54 137.429 183.028 137.429C180.991 137.429 182.024 142.041 182.583 144.12L181.653 144.617C180.944 143.623 179.299 141.533 178.211 141.968C176.783 142.533 178.905 147.706 179.535 149.18L178.709 149.844C178.108 149.279 176.924 148.333 176.196 148.669C174.721 149.355 183.573 164.99 184.405 166.461C184.46 166.563 191.502 180.666 200.482 194.608C212.536 213.324 222.197 222.948 229.159 223.219C236.952 223.459 243.098 217.249 247.431 210.372L248.442 208.763C248.035 227.201 247.515 238.229 247.508 243.112C245.037 247.707 166.429 248.461 158.956 239.788C159.7 227.701 159.806 223.287 160.895 212.513C162.174 199.861 163.71 188.09 164.663 178.907C164.663 178.997 164.644 179.09 164.634 179.189C163.868 179.273 163.099 179.316 162.33 179.316C157.59 179.316 151.208 178.469 147.135 175.416C149.314 166.848 160.129 131.284 166.882 126.139C174.352 120.454 186.876 117.768 196.104 116.819C195.789 119.115 195.575 121.386 195.892 123.707C196.266 126.472 197.299 128.062 198.962 128.432C205.127 129.813 212.52 122.575 216.466 117.384V117C227.588 117.319 248.773 119.909 255.129 129.638C262.372 140.697 263.407 165.763 257.759 193.482Z" fill="#18753C"/>
<path d="M247.497 243.66C247.357 243.66 247.222 243.6 247.123 243.495C247.023 243.389 246.968 243.245 246.968 243.095C246.968 240.836 247.105 236.563 247.277 231.155C247.397 227.501 247.529 223.358 247.656 218.774C247.66 218.624 247.72 218.483 247.823 218.38C247.925 218.277 248.061 218.222 248.202 218.226C248.342 218.231 248.475 218.295 248.572 218.404C248.668 218.513 248.72 218.658 248.715 218.808C248.588 223.394 248.451 227.537 248.337 231.195C248.165 236.591 248.027 240.853 248.027 243.095C248.027 243.245 247.971 243.389 247.872 243.495C247.772 243.6 247.638 243.66 247.497 243.66ZM158.946 240.339H158.88C158.81 240.33 158.743 240.306 158.683 240.269C158.622 240.233 158.569 240.184 158.526 240.125C158.483 240.066 158.452 239.999 158.433 239.927C158.415 239.855 158.41 239.78 158.419 239.706C158.498 239.045 158.583 237.47 158.71 235.086C158.938 230.85 159.319 223.739 160.063 214.934C160.903 205.01 162.359 192.38 164.208 176.391C165.283 167.071 166.501 156.529 167.78 144.888C167.797 144.738 167.868 144.602 167.979 144.508C168.09 144.415 168.231 144.372 168.372 144.39C168.512 144.407 168.641 144.484 168.728 144.602C168.816 144.72 168.856 144.871 168.839 145.021C167.558 156.664 166.339 167.218 165.264 176.529C163.411 192.508 161.959 205.128 161.123 215.035C160.381 223.824 160 230.915 159.775 235.151C159.645 237.557 159.56 239.147 159.475 239.85C159.458 239.987 159.395 240.111 159.297 240.201C159.2 240.291 159.075 240.34 158.946 240.339ZM249.33 194.82C236.923 194.82 228.523 192.316 226.362 190.192C226.199 190.056 226.065 189.886 225.968 189.691C225.87 189.496 225.813 189.282 225.798 189.062C225.796 189.032 225.796 189.002 225.798 188.972C227.999 174.388 229.408 161.991 230.39 152.824C230.398 152.749 230.42 152.678 230.453 152.612C230.487 152.547 230.533 152.489 230.587 152.443C230.642 152.396 230.705 152.362 230.772 152.341C230.839 152.32 230.91 152.314 230.979 152.322C231.049 152.331 231.116 152.354 231.178 152.39C231.239 152.426 231.293 152.474 231.337 152.533C231.38 152.591 231.413 152.658 231.432 152.73C231.451 152.801 231.457 152.877 231.45 152.951C230.47 162.121 229.066 174.507 226.863 189.085C226.998 189.534 229.119 191.104 235.046 192.349C239.468 193.279 246.893 194.202 257.242 193.36C262.859 165.775 261.871 140.912 254.708 129.943C247.007 118.152 219.17 117.918 218.889 117.915C218.749 117.915 218.614 117.856 218.515 117.75C218.416 117.644 218.36 117.5 218.36 117.35C218.36 117.201 218.416 117.057 218.515 116.951C218.614 116.845 218.749 116.786 218.889 116.786C223.998 116.895 229.091 117.423 234.124 118.364C244.982 120.443 252.192 124.123 255.574 129.299C262.933 140.567 263.961 165.97 258.19 194.013C258.166 194.131 258.107 194.237 258.021 194.316C257.936 194.395 257.829 194.444 257.716 194.453C254.756 194.71 251.951 194.82 249.33 194.82Z" fill="#000091"/>
<path d="M229.693 223.781H229.132C221.982 223.499 212.184 213.795 200.037 194.925C191.171 181.149 184.227 167.283 183.963 166.749C183.812 166.486 181.64 162.668 179.561 158.672C175.126 150.141 175.43 149.116 175.56 148.678C175.592 148.562 175.648 148.455 175.722 148.364C175.797 148.273 175.889 148.2 175.992 148.15C176.863 147.746 178.012 148.449 179.061 149.412C177.959 146.828 176.836 143.617 177.326 142.228C177.383 142.049 177.476 141.885 177.598 141.749C177.721 141.613 177.871 141.507 178.036 141.44C179.275 140.943 180.798 142.468 182.088 144.264C181.457 141.925 180.994 139.319 181.558 137.952C181.641 137.728 181.767 137.525 181.926 137.355C182.086 137.185 182.277 137.052 182.488 136.964C183.828 136.43 185.401 137.853 187.318 141.321C187.413 141.493 187.506 141.663 187.583 141.832C187.548 141.637 187.514 141.437 187.482 141.239C186.833 137.212 187.093 135.111 188.295 134.631C189.187 134.275 190.554 134.913 193.928 142.304C195.053 144.775 196.083 147.305 196.698 148.861C197.46 146.153 198.967 141.889 200.897 141.979C202.486 142.053 202.982 146.238 203.281 150.734C203.516 154.36 203.546 158.02 203.546 158.794C208.495 168.096 214.813 175.405 221.5 183.14C225.623 187.91 229.889 192.844 234.164 198.591C234.251 198.708 234.291 198.858 234.275 199.007C234.259 199.156 234.188 199.292 234.077 199.386C233.967 199.479 233.827 199.521 233.687 199.504C233.547 199.487 233.419 199.411 233.332 199.294C229.095 193.578 224.831 188.661 220.722 183.905C213.961 176.085 207.576 168.701 202.555 159.223C202.509 159.137 202.486 159.039 202.486 158.941C202.486 158.904 202.486 155.052 202.243 151.14C201.779 143.62 200.871 143.106 200.831 143.086C200.018 143.049 198.448 145.958 197.315 150.711C197.287 150.827 197.226 150.931 197.14 151.008C197.054 151.084 196.947 151.13 196.836 151.138C196.724 151.146 196.612 151.115 196.518 151.051C196.423 150.987 196.349 150.893 196.308 150.782C196.295 150.742 194.825 146.859 193.096 143.041C189.778 135.698 188.7 135.662 188.66 135.667C187.847 135.995 188.049 140.347 189.661 146.3C189.696 146.437 189.681 146.584 189.619 146.71C189.557 146.836 189.452 146.932 189.327 146.98C189.201 147.027 189.063 147.022 188.94 146.966C188.818 146.909 188.72 146.806 188.666 146.676C186.849 142.112 184.108 137.497 182.84 138C182.763 138.034 182.693 138.085 182.637 138.151C182.58 138.216 182.537 138.294 182.511 138.378C181.738 140.276 183.743 146.286 184.58 148.458C184.636 148.592 184.641 148.745 184.593 148.883C184.545 149.022 184.449 149.135 184.324 149.198C184.199 149.261 184.056 149.27 183.925 149.223C183.794 149.175 183.686 149.075 183.624 148.943C181.878 145.501 179.363 142.075 178.399 142.448C178.378 142.448 178.343 142.471 178.306 142.575C177.822 143.956 180.08 149.302 181.616 152.349C181.68 152.474 181.697 152.62 181.664 152.758C181.631 152.895 181.551 153.015 181.439 153.092C181.327 153.169 181.193 153.198 181.062 153.174C180.931 153.15 180.813 153.074 180.732 152.962C179.299 150.985 177.355 149.082 176.55 149.104C176.577 150.706 180.716 158.87 184.863 166.128L184.879 166.156C185.144 166.721 212.851 221.96 229.172 222.592C240.456 223.033 248.164 209.136 251.755 200.816C251.818 200.687 251.925 200.589 252.053 200.541C252.182 200.494 252.323 200.502 252.447 200.562C252.571 200.623 252.668 200.732 252.718 200.867C252.768 201.002 252.768 201.153 252.716 201.288C249.073 209.777 241.282 223.781 229.693 223.781Z" fill="#000091"/>
<path d="M160.572 179.836H160.545C153.077 179.438 147.122 176.029 146.87 175.882C146.761 175.822 146.676 175.724 146.627 175.604C146.579 175.484 146.571 175.35 146.605 175.224C147.108 173.439 158.98 131.465 166.562 125.69C176.831 117.864 190.925 116.56 191.073 116.548C191.142 116.542 191.212 116.551 191.279 116.573C191.345 116.596 191.407 116.633 191.46 116.681C191.513 116.729 191.557 116.788 191.589 116.854C191.621 116.92 191.641 116.992 191.646 117.067C191.652 117.141 191.644 117.215 191.623 117.286C191.601 117.357 191.567 117.423 191.522 117.48C191.477 117.536 191.422 117.583 191.36 117.617C191.298 117.651 191.23 117.672 191.16 117.678C191.02 117.678 177.205 118.971 167.179 126.61C160.293 131.858 149.076 170.468 147.749 175.1C149.177 175.848 154.417 178.381 160.587 178.712C160.728 178.716 160.861 178.779 160.958 178.887C161.055 178.996 161.107 179.141 161.104 179.291C161.1 179.441 161.041 179.583 160.939 179.686C160.838 179.789 160.701 179.845 160.561 179.841L160.572 179.836ZM149.222 208.74C147.547 208.763 145.893 208.34 144.41 207.509C133.354 201.191 119.062 160.824 117.494 156.356C115.087 156.116 112.672 154.563 110.484 151.838C109.526 150.641 108.683 149.344 107.969 147.966C107.174 148.116 105.522 148.305 104.706 147.469C103.986 146.732 103.692 145.978 103.83 145.232C103.9 144.878 104.055 144.55 104.28 144.278C104.174 144.258 104.068 144.238 103.959 144.213C102.085 143.781 101.735 142.612 101.693 141.954C101.608 140.635 102.696 139.293 104.309 138.528C103.48 138.167 102.609 137.641 102.246 136.947C102.149 136.77 102.088 136.573 102.067 136.369C102.046 136.165 102.065 135.959 102.124 135.763C102.318 135.122 103.064 134.21 104.243 133.721C105.421 133.233 107.333 133.01 109.96 134.617C110.082 134.692 110.171 134.815 110.207 134.96C110.244 135.105 110.225 135.259 110.155 135.389C110.085 135.519 109.969 135.614 109.833 135.653C109.697 135.692 109.552 135.672 109.431 135.597C107.166 134.213 105.564 134.385 104.621 134.775C103.679 135.165 103.207 135.842 103.128 136.108C103.114 136.155 103.11 136.205 103.116 136.254C103.123 136.302 103.139 136.349 103.165 136.39C103.454 136.938 104.701 137.596 106.197 137.991C106.315 138.023 106.419 138.096 106.492 138.2C106.565 138.303 106.602 138.43 106.598 138.56C106.593 138.689 106.548 138.813 106.468 138.91C106.388 139.008 106.28 139.073 106.16 139.096C104.065 139.477 102.68 140.864 102.744 141.869C102.842 143.394 105.752 143.23 105.781 143.23C105.906 143.223 106.03 143.263 106.13 143.344C106.23 143.425 106.299 143.541 106.327 143.671C106.354 143.801 106.337 143.938 106.279 144.056C106.221 144.175 106.125 144.267 106.009 144.317C105.744 144.43 104.966 144.882 104.862 145.447C104.799 145.792 104.992 146.195 105.434 146.647C105.877 147.099 107.27 146.992 108.122 146.772C108.239 146.742 108.362 146.755 108.471 146.809C108.579 146.864 108.668 146.956 108.721 147.071C108.758 147.15 112.471 154.998 117.891 155.247C117.996 155.251 118.096 155.289 118.181 155.355C118.265 155.421 118.329 155.512 118.365 155.617C118.516 156.06 133.791 200.172 144.897 206.518C147.442 207.972 150.63 207.981 154.378 206.543C154.443 206.515 154.514 206.502 154.585 206.504C154.655 206.506 154.725 206.523 154.79 206.554C154.854 206.585 154.912 206.629 154.96 206.685C155.008 206.74 155.046 206.805 155.07 206.876C155.094 206.947 155.104 207.023 155.101 207.098C155.097 207.174 155.079 207.248 155.048 207.316C155.017 207.383 154.974 207.444 154.92 207.494C154.867 207.543 154.805 207.581 154.738 207.605C152.974 208.318 151.108 208.702 149.222 208.74Z" fill="#000091"/>
<path d="M155.055 189.533C154.968 189.533 154.883 189.51 154.806 189.466C154.729 189.423 154.664 189.359 154.616 189.282C154.266 188.717 153.276 187.009 151.777 184.413C146.179 174.713 134.53 154.543 128.757 146.935C121.059 136.785 109.407 127.203 106.491 128.624C106.141 128.793 106.081 128.997 106.065 129.152C105.969 130.078 107.807 133.131 113.127 137.378C113.213 137.447 113.277 137.541 113.311 137.648C113.345 137.756 113.348 137.872 113.32 137.982C113.291 138.091 113.232 138.189 113.151 138.262C113.069 138.336 112.969 138.381 112.862 138.392C110.702 138.596 107.707 139.398 107.707 140.383C107.707 141.053 109.176 142.504 112.444 143.634C112.553 143.671 112.648 143.745 112.714 143.844C112.78 143.943 112.815 144.063 112.812 144.185C112.866 144.948 113.074 145.69 113.421 146.359C113.988 147.556 115.217 149.35 117.836 151.101C117.897 151.139 117.95 151.19 117.993 151.25C118.035 151.311 118.065 151.38 118.082 151.453C118.099 151.527 118.102 151.603 118.091 151.677C118.08 151.752 118.055 151.823 118.017 151.888C117.98 151.952 117.93 152.007 117.872 152.05C117.814 152.094 117.749 152.124 117.679 152.14C117.61 152.156 117.539 152.157 117.469 152.143C117.399 152.129 117.333 152.1 117.274 152.058C112.709 149.008 111.914 145.741 111.779 144.588C110.402 144.077 106.647 142.49 106.647 140.383C106.647 139.234 107.707 138.39 109.865 137.799C110.439 137.641 111.011 137.517 111.493 137.443C110.762 136.819 109.73 135.902 108.715 134.902C106.091 132.29 104.881 130.383 105.008 129.042C105.041 128.723 105.156 128.421 105.339 128.167C105.523 127.914 105.768 127.719 106.049 127.604C110.172 125.594 122.941 137.489 129.578 146.243C135.404 153.911 147.055 174.125 152.677 183.84C154.115 186.334 155.156 188.133 155.495 188.675C155.573 188.8 155.6 188.952 155.573 189.099C155.545 189.245 155.464 189.374 155.347 189.457C155.259 189.512 155.157 189.539 155.055 189.533Z" fill="#000091"/>
<path d="M149.222 208.74C147.547 208.763 145.893 208.34 144.41 207.509C133.354 201.192 119.062 160.824 117.494 156.357C115.087 156.116 112.672 154.563 110.484 151.838C109.526 150.641 108.683 149.344 107.969 147.966C107.174 148.116 105.522 148.305 104.706 147.469C103.986 146.732 103.692 145.978 103.83 145.233C103.9 144.878 104.055 144.55 104.28 144.278C104.174 144.258 104.068 144.238 103.959 144.213C102.085 143.781 101.735 142.612 101.693 141.954C101.608 140.635 102.696 139.293 104.309 138.528C103.48 138.167 102.609 137.641 102.246 136.947C102.149 136.77 102.088 136.573 102.067 136.369C102.046 136.165 102.065 135.959 102.124 135.763C102.318 135.122 103.064 134.21 104.243 133.722C105.421 133.233 107.333 133.01 109.96 134.617C110.082 134.692 110.171 134.815 110.207 134.96C110.244 135.105 110.225 135.259 110.155 135.389C110.085 135.519 109.969 135.614 109.833 135.653C109.697 135.692 109.552 135.672 109.431 135.597C107.166 134.213 105.564 134.385 104.621 134.775C103.679 135.165 103.207 135.842 103.128 136.108C103.114 136.155 103.11 136.205 103.116 136.254C103.123 136.302 103.139 136.349 103.165 136.39C103.454 136.938 104.701 137.596 106.197 137.992C106.315 138.023 106.419 138.097 106.492 138.2C106.565 138.303 106.602 138.43 106.598 138.56C106.593 138.689 106.548 138.813 106.468 138.91C106.388 139.008 106.28 139.073 106.16 139.096C104.065 139.477 102.68 140.864 102.744 141.869C102.842 143.394 105.752 143.23 105.781 143.23C105.906 143.223 106.03 143.263 106.13 143.344C106.23 143.425 106.299 143.541 106.327 143.671C106.354 143.802 106.337 143.938 106.279 144.056C106.221 144.175 106.125 144.267 106.009 144.318C105.744 144.43 104.966 144.882 104.862 145.447C104.799 145.792 104.992 146.196 105.434 146.647C105.877 147.099 107.27 146.992 108.122 146.772C108.239 146.742 108.362 146.755 108.471 146.81C108.579 146.864 108.668 146.956 108.721 147.071C108.758 147.15 112.471 154.998 117.891 155.247C117.996 155.252 118.096 155.289 118.181 155.355C118.265 155.421 118.329 155.512 118.365 155.617C118.516 156.06 133.791 200.172 144.897 206.518C147.442 207.972 150.63 207.981 154.378 206.543C154.443 206.515 154.514 206.502 154.585 206.504C154.655 206.506 154.725 206.523 154.79 206.554C154.854 206.585 154.912 206.63 154.96 206.685C155.008 206.74 155.046 206.806 155.07 206.877C155.094 206.948 155.104 207.023 155.101 207.098C155.097 207.174 155.079 207.248 155.048 207.316C155.017 207.383 154.974 207.444 154.92 207.494C154.867 207.544 154.805 207.581 154.738 207.605C152.974 208.318 151.108 208.702 149.222 208.74Z" fill="#000091"/>
<path d="M155.055 189.533C154.968 189.533 154.883 189.51 154.806 189.466C154.729 189.423 154.664 189.359 154.616 189.282C154.266 188.717 153.276 187.009 151.777 184.413C146.179 174.713 134.53 154.543 128.757 146.935C121.059 136.785 109.407 127.203 106.491 128.624C106.141 128.793 106.081 128.997 106.065 129.152C105.969 130.078 107.807 133.131 113.127 137.378C113.213 137.447 113.277 137.541 113.311 137.648C113.345 137.756 113.348 137.872 113.32 137.982C113.291 138.091 113.232 138.189 113.151 138.262C113.069 138.336 112.969 138.381 112.862 138.392C110.702 138.596 107.707 139.398 107.707 140.383C107.707 141.053 109.176 142.504 112.444 143.634C112.553 143.671 112.648 143.745 112.714 143.844C112.78 143.943 112.815 144.063 112.812 144.185C112.866 144.948 113.074 145.69 113.421 146.359C113.988 147.556 115.217 149.35 117.836 151.101C117.897 151.139 117.95 151.19 117.993 151.25C118.035 151.311 118.065 151.38 118.082 151.453C118.099 151.527 118.102 151.603 118.091 151.677C118.08 151.752 118.055 151.823 118.017 151.888C117.98 151.952 117.93 152.007 117.872 152.05C117.814 152.094 117.749 152.124 117.679 152.14C117.61 152.156 117.539 152.157 117.469 152.143C117.399 152.129 117.333 152.1 117.274 152.058C112.709 149.008 111.914 145.741 111.779 144.588C110.402 144.077 106.647 142.49 106.647 140.383C106.647 139.234 107.707 138.39 109.865 137.799C110.439 137.641 111.011 137.517 111.493 137.443C110.762 136.819 109.73 135.902 108.715 134.902C106.091 132.29 104.881 130.383 105.008 129.042C105.041 128.723 105.156 128.421 105.339 128.167C105.523 127.914 105.768 127.719 106.049 127.604C110.172 125.594 122.941 137.489 129.578 146.243C135.404 153.911 147.055 174.125 152.677 183.84C154.115 186.334 155.156 188.133 155.495 188.675C155.573 188.8 155.6 188.952 155.573 189.099C155.545 189.245 155.464 189.374 155.347 189.457C155.259 189.512 155.157 189.539 155.055 189.533Z" fill="#000091"/>
<path d="M216.381 86.5002L216.535 117.435C216.535 117.435 207.001 130.595 198.874 128.782C194.182 127.732 196.049 117.254 196.049 117.254L197.354 102.942L216.381 86.5002Z" fill="white"/>
<path d="M200.476 129.528C199.905 129.529 199.336 129.467 198.776 129.344C193.708 128.215 195.408 117.912 195.535 117.184L196.838 102.897C196.851 102.747 196.92 102.609 197.029 102.513C197.137 102.417 197.277 102.371 197.418 102.386C197.558 102.4 197.688 102.473 197.778 102.589C197.867 102.705 197.91 102.854 197.897 103.004L196.592 117.316V117.367C196.312 119.102 196.2 120.863 196.255 122.623C196.404 125.975 197.33 127.862 199.007 128.237C206.244 129.855 214.943 118.686 216.026 117.249L215.981 108.426C215.981 108.277 216.037 108.133 216.136 108.027C216.236 107.921 216.37 107.861 216.511 107.861C216.651 107.861 216.786 107.921 216.885 108.027C216.985 108.133 217.041 108.277 217.041 108.426L217.088 117.446C217.088 117.573 217.049 117.696 216.977 117.797C216.593 118.294 208.352 129.528 200.476 129.528Z" fill="#000091"/>
<path d="M206.62 104.422C200.53 107.302 193.682 108.342 187.935 106.997C175.242 104.026 178.2 85.9071 179.154 74.4357C180.714 55.6528 193.623 51.5409 206.03 55.1416C218.436 58.7423 225.557 73.1508 221.94 87.3191C220.939 91.2389 218.852 94.7182 216.09 97.6411" fill="white"/>
<path d="M193.21 108.147C191.399 108.155 189.592 107.954 187.821 107.548C175.793 104.724 177.263 89.0333 178.338 77.5676C178.441 76.4662 178.542 75.3987 178.627 74.3848C179.297 66.2938 182.045 60.4028 186.794 56.8756C191.73 53.2043 198.61 52.4022 206.167 54.5965C212.311 56.3785 217.388 60.7869 220.467 67.0027C223.547 73.2185 224.241 80.4764 222.456 87.4688C221.471 91.3208 219.458 94.8791 216.469 98.0421C216.42 98.0987 216.362 98.1443 216.297 98.176C216.231 98.2077 216.161 98.225 216.089 98.2268C216.017 98.2285 215.946 98.2147 215.879 98.1862C215.813 98.1576 215.752 98.115 215.702 98.0608C215.651 98.0066 215.611 97.942 215.585 97.8709C215.558 97.7998 215.546 97.7237 215.547 97.6472C215.549 97.5707 215.566 97.4954 215.596 97.4259C215.626 97.3564 215.669 97.2942 215.722 97.2429C218.574 94.2268 220.507 90.8379 221.429 87.1666C223.142 80.4509 222.467 73.4755 219.525 67.5251C216.583 61.5748 211.747 57.3811 205.889 55.681C198.639 53.5742 192.071 54.3282 187.4 57.7962C182.922 61.123 180.324 66.7372 179.681 74.4808C179.596 75.4975 179.495 76.5678 179.392 77.6749C178.862 83.4275 178.243 89.9483 179.183 95.4524C180.242 101.699 183.155 105.294 188.049 106.441C193.573 107.734 200.262 106.808 206.406 103.899C206.469 103.869 206.538 103.853 206.608 103.851C206.677 103.849 206.746 103.862 206.811 103.889C206.876 103.916 206.935 103.956 206.986 104.007C207.036 104.058 207.077 104.119 207.105 104.187C207.133 104.255 207.148 104.328 207.15 104.402C207.152 104.477 207.14 104.55 207.115 104.62C207.089 104.689 207.052 104.752 207.004 104.806C206.956 104.86 206.898 104.903 206.835 104.933C202.55 106.995 197.911 108.089 193.21 108.147Z" fill="#000091"/>
<path d="M186.688 91.8602C186.049 91.8602 184.622 91.7246 184.116 90.547C183.963 90.1827 183.674 88.8017 186.526 86.2883C186.635 86.1974 186.772 86.1554 186.909 86.1711C187.047 86.1868 187.173 86.2591 187.261 86.3725C187.349 86.4859 187.392 86.6315 187.381 86.7782C187.37 86.9249 187.305 87.0613 187.201 87.1581C185.943 88.268 184.913 89.6856 185.083 90.0782C185.348 90.7164 186.521 90.7588 186.907 90.7221C187.048 90.7086 187.188 90.7552 187.296 90.8516C187.404 90.9479 187.472 91.0863 187.485 91.2361C187.497 91.3859 187.454 91.5349 187.363 91.6503C187.273 91.7658 187.143 91.8382 187.003 91.8517C186.979 91.8517 186.876 91.8602 186.688 91.8602ZM193.054 86.6837C193.023 86.6864 192.992 86.6864 192.961 86.6837C192.892 86.671 192.827 86.644 192.768 86.6042C192.709 86.5644 192.658 86.5126 192.618 86.4517C192.577 86.3908 192.549 86.3221 192.534 86.2495C192.519 86.1768 192.517 86.1017 192.529 86.0285L192.842 84.1392C192.867 83.9921 192.945 83.8616 193.06 83.776C193.175 83.6904 193.317 83.6569 193.455 83.6826C193.592 83.7084 193.715 83.7914 193.796 83.9135C193.877 84.0356 193.909 84.1868 193.885 84.334L193.573 86.2233C193.55 86.3525 193.486 86.4691 193.391 86.5531C193.296 86.6371 193.177 86.6833 193.054 86.6837ZM182.543 84.7181C182.512 84.7209 182.481 84.7209 182.451 84.7181C182.382 84.7055 182.316 84.6785 182.257 84.6387C182.198 84.5989 182.147 84.547 182.107 84.4862C182.067 84.4253 182.038 84.3566 182.023 84.2839C182.008 84.2113 182.007 84.1362 182.019 84.0629L182.331 82.1736C182.356 82.0266 182.434 81.896 182.549 81.8105C182.664 81.7249 182.806 81.6913 182.944 81.7171C183.082 81.7429 183.205 81.8259 183.285 81.9479C183.366 82.07 183.398 82.2212 183.375 82.3685L183.062 84.2606C183.039 84.3892 182.974 84.5052 182.88 84.5886C182.785 84.6721 182.666 84.7179 182.543 84.7181ZM195.675 79.1942C195.572 79.1938 195.471 79.1612 195.385 79.1005C195.299 79.0398 195.232 78.9536 195.191 78.8525C194.751 77.7793 193.679 78.0053 193.634 78.0279C193.566 78.0436 193.495 78.045 193.427 78.0318C193.358 78.0186 193.293 77.9911 193.235 77.951C193.176 77.9109 193.126 77.8589 193.086 77.7979C193.046 77.737 193.018 77.6683 193.003 77.5958C192.989 77.5233 192.987 77.4484 193 77.3754C193.012 77.3023 193.038 77.2326 193.075 77.1702C193.113 77.1078 193.162 77.0539 193.219 77.0116C193.276 76.9693 193.341 76.9394 193.409 76.9237C193.958 76.7922 194.533 76.8689 195.035 77.1405C195.537 77.4121 195.935 77.8616 196.16 78.4119C196.216 78.548 196.22 78.7023 196.171 78.8414C196.121 78.9804 196.022 79.093 195.895 79.1547C195.825 79.1839 195.75 79.1974 195.675 79.1942ZM182.784 76.9237C182.686 76.9235 182.589 76.894 182.505 76.8386C182.422 76.7831 182.354 76.7037 182.31 76.6095C182.266 76.5153 182.248 76.41 182.258 76.3053C182.267 76.2006 182.303 76.1008 182.363 76.0171C182.701 75.5385 183.185 75.1998 183.731 75.0586C184.277 74.9175 184.852 74.9828 185.358 75.2433C185.423 75.2746 185.481 75.3193 185.529 75.3749C185.577 75.4305 185.614 75.4958 185.638 75.5669C185.662 75.6381 185.672 75.7136 185.668 75.7891C185.664 75.8646 185.646 75.9384 185.615 76.0063C185.584 76.0742 185.54 76.1347 185.487 76.1842C185.433 76.2338 185.371 76.2714 185.303 76.2948C185.236 76.3182 185.165 76.3269 185.094 76.3204C185.023 76.314 184.955 76.2925 184.892 76.2572C183.907 75.7432 183.234 76.6638 183.205 76.7034C183.156 76.7721 183.092 76.8277 183.019 76.8659C182.946 76.9041 182.866 76.9239 182.784 76.9237ZM188.512 100.694C188.435 100.694 188.358 100.686 188.282 100.671C188.015 100.609 187.768 100.476 187.563 100.283C187.358 100.091 187.203 99.8467 187.111 99.5727C186.91 98.9877 186.856 98.3561 186.957 97.7421C187.058 97.1282 187.31 96.5535 187.686 96.0765C187.86 95.8519 188.084 95.678 188.337 95.5708C188.591 95.4636 188.866 95.4268 189.137 95.4637C190.12 95.6473 190.702 96.935 190.461 98.3951C190.371 99.0132 190.117 99.5911 189.73 100.061C189.58 100.251 189.394 100.406 189.184 100.515C188.974 100.624 188.745 100.685 188.512 100.694ZM188.907 96.5736C188.821 96.5842 188.737 96.6132 188.662 96.6588C188.586 96.7044 188.52 96.7657 188.467 96.839C188.228 97.1566 188.067 97.5337 188.001 97.9351C187.935 98.3365 187.965 98.7493 188.088 99.135C188.184 99.3779 188.321 99.5332 188.464 99.5586C188.56 99.5604 188.654 99.5373 188.739 99.4916C188.823 99.4458 188.897 99.3787 188.952 99.296C189.199 98.9836 189.36 98.6043 189.418 98.2002C189.555 97.353 189.283 96.6385 188.954 96.5764L188.907 96.5736Z" fill="#000091"/>
<path d="M189.93 98.2906C190.116 97.1599 189.715 96.1402 189.035 96.0131C188.355 95.8861 187.654 96.6997 187.468 97.8304C187.282 98.9611 187.683 99.9807 188.363 100.108C189.042 100.235 189.744 99.4213 189.93 98.2906Z" fill="#000091"/>
<path d="M210.929 78.4121C214.919 80.4115 212.618 88.0365 213.275 89.6858C213.585 90.4567 216.333 87.0057 217.583 86.1303C221.94 87.3248 212.912 105.066 215.78 105.292C220.017 105.628 242.261 68.4628 225.409 63.6619C230.159 50.2673 207.592 37.1495 192.64 35.9069C180.364 34.8874 185.337 45.9126 185.337 45.9126C185.337 45.9126 174.448 44.7237 167.491 54.1787C154.708 71.5467 205.534 68.2454 207.449 69.6574C209.364 71.0695 206.795 76.3364 210.929 78.4121Z" fill="#000091"/>
<path d="M215.823 105.854H215.741C215.582 105.842 215.427 105.791 215.289 105.706C215.151 105.62 215.034 105.501 214.946 105.359C214.284 104.312 214.981 101.826 216.27 97.5197C217.433 93.631 218.881 88.7905 218.029 87.1441C217.95 86.9829 217.828 86.8502 217.679 86.7628C217.255 87.1102 216.683 87.692 216.127 88.2568C214.538 89.8721 213.884 90.4709 213.302 90.3438C213.191 90.3194 213.088 90.2666 213.001 90.1897C212.914 90.1129 212.847 90.0145 212.804 89.9032C212.555 89.2791 212.626 88.254 212.722 86.8334C212.912 84.0094 213.175 80.1517 210.72 78.926C207.963 77.5451 207.868 74.8198 207.807 72.826C207.764 71.6032 207.727 70.5498 207.171 70.1375C206.74 69.9229 203.705 69.8269 200.49 69.7252C188.557 69.3468 168.588 68.7142 165.368 61.3801C164.42 59.2196 165.002 56.6808 167.1 53.8313C173.01 45.7968 181.794 45.2631 184.556 45.3111C184.026 43.755 183.161 40.3915 184.731 37.9487C186.055 35.8928 188.732 35.0173 192.707 35.3478C203.565 36.2486 218.905 43.5037 224.485 52.857C226.588 56.3928 227.133 59.8946 226.119 63.2778C231.031 64.9582 233.004 69.6433 231.871 76.8758C229.924 88.9797 219.292 105.851 215.823 105.854ZM217.594 85.5598C217.638 85.5608 217.682 85.5675 217.724 85.5796C217.985 85.6464 218.229 85.7717 218.44 85.947C218.651 86.1223 218.825 86.3436 218.95 86.5962C220.01 88.6663 218.627 93.3401 217.274 97.8586C216.519 100.386 215.375 104.207 215.825 104.73C217.867 104.879 228.733 89.7818 230.809 76.6894C231.894 69.7619 230.041 65.5597 225.274 64.2013C225.203 64.1818 225.136 64.1466 225.078 64.098C225.02 64.0493 224.972 63.9883 224.938 63.9189C224.904 63.8487 224.884 63.7717 224.88 63.6929C224.876 63.6141 224.888 63.5352 224.914 63.4614C226.053 60.2504 225.6 56.8898 223.563 53.4727C219.199 46.1301 205.717 37.5618 192.601 36.4717C189.034 36.1752 186.672 36.884 185.581 38.5813C183.865 41.2529 185.795 45.6217 185.817 45.6669C185.858 45.7573 185.875 45.8577 185.868 45.9578C185.86 46.0579 185.828 46.154 185.774 46.2363C185.72 46.3186 185.646 46.384 185.561 46.4259C185.475 46.4678 185.381 46.4846 185.287 46.4746C185.181 46.4605 174.599 45.4382 167.91 54.526C166.083 57.014 165.542 59.1575 166.305 60.8972C169.25 67.6015 190.356 68.2708 200.498 68.5928C205.487 68.7509 207.237 68.8243 207.754 69.2056C208.744 69.9398 208.792 71.3208 208.845 72.7809C208.914 74.7577 208.985 76.8136 211.157 77.9009C214.271 79.4598 213.966 83.9501 213.765 86.9182C213.698 87.6274 213.674 88.3406 213.694 89.0532C214.282 88.5485 214.845 88.0112 215.381 87.4434C215.976 86.7982 216.616 86.2016 217.295 85.6586C217.384 85.595 217.488 85.5607 217.594 85.5598Z" fill="#000091"/>
<path d="M215.441 97.7624C216.347 98.9881 217.523 100.05 219.043 100.493C222.822 101.589 227.035 98.2058 228.375 92.9587C229.402 88.9316 226.67 84.317 222.732 84.4159C220.913 84.5234 219.148 85.1104 217.594 86.1244" fill="white"/>
<path d="M220.507 101.267C219.965 101.267 219.425 101.19 218.902 101.039C217.451 100.618 216.148 99.6265 215.023 98.1128C214.936 97.9952 214.896 97.8456 214.912 97.6968C214.929 97.5479 215 97.4122 215.11 97.3193C215.22 97.2264 215.361 97.184 215.5 97.2015C215.64 97.219 215.767 97.2949 215.854 97.4125C216.834 98.7398 217.954 99.5927 219.18 99.9541C220.846 100.437 222.665 99.9767 224.302 98.6607C226.059 97.1821 227.311 95.1278 227.864 92.8149C228.097 91.8348 228.116 90.8109 227.921 89.8215C227.725 88.8321 227.32 87.9037 226.735 87.1074C226.277 86.4406 225.675 85.9 224.981 85.5307C224.287 85.1613 223.52 84.9738 222.745 84.9837C221.016 85.0831 219.337 85.6391 217.859 86.6019C217.739 86.6708 217.598 86.6876 217.467 86.649C217.336 86.6103 217.223 86.5191 217.153 86.3943C217.083 86.2695 217.061 86.1207 217.092 85.979C217.122 85.8372 217.202 85.7134 217.316 85.6333C218.952 84.5675 220.812 83.9522 222.726 83.8428C223.666 83.8336 224.594 84.0602 225.436 84.5041C226.279 84.9481 227.011 85.597 227.575 86.3986C228.261 87.3338 228.736 88.4239 228.966 89.5856C229.195 90.7472 229.173 91.9494 228.899 93.1001C228.284 95.6526 226.898 97.9183 224.956 99.5475C223.69 100.626 222.127 101.231 220.507 101.267Z" fill="#000091"/>
<path d="M219.223 96.503C219.103 96.5035 218.987 96.4608 218.893 96.382C218.799 96.3031 218.733 96.1927 218.706 96.0686C218.678 95.9446 218.691 95.8143 218.741 95.6988C218.792 95.5833 218.878 95.4895 218.985 95.4326C220.017 94.8819 220.55 94.1307 220.343 93.5123C220.163 92.9842 219.408 92.5634 218.362 92.8232C218.278 92.8444 218.189 92.8429 218.105 92.819C218.021 92.7951 217.944 92.7494 217.88 92.686C217.816 92.6226 217.768 92.5435 217.74 92.4556C217.712 92.3677 217.705 92.2738 217.719 92.1821C218.196 89.0474 220.078 88.3809 221.161 88.2623C223.142 88.0449 225.353 89.2988 225.775 90.4792C225.805 90.5495 225.821 90.6257 225.823 90.703C225.824 90.7803 225.811 90.8571 225.783 90.9287C225.756 91.0003 225.715 91.0651 225.663 91.1191C225.611 91.1731 225.549 91.2152 225.482 91.2427C225.414 91.2702 225.341 91.2826 225.269 91.279C225.197 91.2755 225.126 91.2562 225.06 91.2222C224.995 91.1882 224.937 91.1403 224.89 91.0815C224.843 91.0227 224.808 90.9542 224.787 90.8802C224.57 90.2787 222.896 89.2084 221.27 89.3863C220.089 89.5134 219.302 90.2618 218.924 91.6145C220.171 91.5891 221.058 92.2894 221.342 93.131C221.662 94.0799 221.342 95.4468 219.461 96.4437C219.387 96.483 219.306 96.5033 219.223 96.503Z" fill="#000091"/>
<path d="M216.321 34.1475C214.366 34.1475 212.333 33.3737 211.053 32.6507C210.929 32.5807 210.836 32.4608 210.795 32.3176C210.753 32.1743 210.767 32.0194 210.832 31.8868C210.898 31.7542 211.01 31.6549 211.145 31.6107C211.279 31.5665 211.424 31.581 211.549 31.651C211.61 31.6877 217.729 35.0794 219.901 31.0579C220.183 30.5373 220.334 29.9478 220.341 29.3465C220.015 29.3465 219.681 29.3324 219.334 29.3014C215.097 28.9258 210.23 26.1186 209.102 23.416C208.707 22.4614 208.779 21.5606 209.314 20.8122C210.598 19.0189 213.389 19.2505 216.424 21.4052C218.113 22.5804 219.521 24.1595 220.537 26.017C220.888 26.6818 221.146 27.3983 221.302 28.1435C222.605 27.9769 223.918 27.4375 224.744 26.1186C225.324 25.1867 225.38 23.9921 225.046 22.6902C219.3 22.244 212.735 17.926 211.276 14.5823C210.685 13.2239 211.011 12.3004 211.411 11.7582C212.735 9.94515 215.714 10.4761 219.22 13.1476C221.869 15.1612 224.734 18.4315 225.841 21.5916C227.782 21.6114 230.181 21.0861 231.495 18.6941C232.045 17.7074 232.341 16.5831 232.353 15.4352C231.894 15.5118 231.431 15.5496 230.968 15.5481C225.163 15.5481 217.491 10.1005 215.169 5.87001C213.914 3.58816 214.591 2.32862 215.108 1.78358C217.616 -0.876699 223.079 1.16228 227.178 4.54835C230.027 6.90362 232.739 10.3772 233.303 14.009C235.864 12.9923 237.106 10.1259 236.992 5.47747C236.99 5.4033 237.002 5.32948 237.027 5.26025C237.052 5.19101 237.09 5.12771 237.138 5.07395C237.186 5.02019 237.243 4.97703 237.307 4.94693C237.37 4.91683 237.439 4.90039 237.508 4.89853C237.578 4.89668 237.647 4.90945 237.712 4.93612C237.777 4.96279 237.836 5.00284 237.887 5.05398C237.937 5.10511 237.978 5.16634 238.006 5.23415C238.034 5.30197 238.05 5.37505 238.051 5.44923C238.21 12.0378 235.668 14.3789 233.412 15.164C233.458 16.608 233.115 18.0358 232.424 19.2787C231.206 21.5013 229.056 22.6846 226.18 22.7354C226.487 24.1757 226.368 25.5595 225.629 26.7512C224.736 28.1887 223.301 29.0444 221.421 29.2788C221.422 30.1017 221.219 30.9103 220.833 31.6227C219.8 33.5092 218.092 34.1475 216.321 34.1475ZM211.819 20.7359C211.505 20.7134 211.19 20.7708 210.901 20.9034C210.612 21.036 210.356 21.2399 210.156 21.4984C209.862 21.9108 209.835 22.388 210.071 22.9557C210.948 25.0624 215.224 27.8018 219.422 28.1745C219.686 28.1971 219.951 28.2141 220.216 28.2141C219.742 26.0734 217.928 23.8339 215.831 22.3457C214.523 21.4137 213.013 20.7359 211.819 20.7359ZM213.673 11.8373C213.042 11.8373 212.55 12.0406 212.245 12.4614C212.131 12.6195 211.787 13.094 212.245 14.1191C213.508 17.0364 219.44 20.9223 224.654 21.5267C223.595 18.9398 221.273 16.1101 218.611 14.0824C216.681 12.6111 214.912 11.8373 213.675 11.8373H213.673ZM218.278 1.70168C217.253 1.70168 216.408 1.98409 215.852 2.57149C215.19 3.27186 215.611 4.43539 216.08 5.28826C218.463 9.62039 226.937 15.2996 232.27 14.2942C231.796 10.9392 229.222 7.65765 226.527 5.43228C223.64 3.04312 220.526 1.70168 218.28 1.70168H218.278Z" fill="#E1000F"/>
</svg>
