<svg width="282" height="120" viewBox="0 0 282 120" fill="none" xmlns="http://www.w3.org/2000/svg">
<rect width="282" height="120" fill="#000091"/>
<path d="M155.361 47.1068L129.497 32.1028L103.632 47.252C103.472 47.3432 103.339 47.475 103.247 47.634C103.154 47.7931 103.105 47.9739 103.104 48.1581V77.464C103.114 77.6461 103.167 77.8233 103.259 77.9808C103.351 78.1383 103.479 78.2718 103.632 78.3701L129.493 93.2409L155.358 78.1868C155.511 78.0886 155.639 77.9552 155.731 77.7976C155.823 77.6401 155.876 77.4629 155.886 77.2807V48.0198C155.887 47.8347 155.839 47.6526 155.746 47.4923C155.654 47.3319 155.521 47.1988 155.361 47.1068Z" fill="#000091"/>
<path d="M120.256 47.9713L111.581 62.8906L103.72 47.0255L113.018 41.6426L120.761 47.1068L120.256 47.9713ZM155.887 77.3326V48.0094C155.887 47.8252 155.838 47.6444 155.746 47.4855C155.653 47.3266 155.52 47.1952 155.359 47.105L129.497 32.1028" fill="#FCC63A"/>
<path d="M103.108 77.3326L129.5 32.1028V93.2496L103.632 78.3701C103.479 78.2718 103.351 78.1383 103.259 77.9808C103.167 77.8233 103.114 77.6461 103.104 77.464V48.1581L103.108 77.3326ZM145.662 41.4783L155.077 46.9338L147.333 62.7557L138.04 46.7851L145.662 41.4783Z" fill="#0063CB"/>
<path d="M163.32 42.2737L130.218 23.2183C129.995 23.107 129.749 23.0491 129.5 23.0491C129.251 23.0491 129.005 23.107 128.782 23.2183L95.6797 42.2737C95.4804 42.4067 95.3151 42.5847 95.197 42.7935C95.079 43.0022 95.0115 43.2358 95 43.4755V81.5172C95.0102 81.7583 95.077 81.9937 95.1951 82.204C95.3132 82.4144 95.4793 82.5938 95.6797 82.7276L128.781 101.783C129.004 101.894 129.249 101.952 129.498 101.952C129.747 101.952 129.993 101.894 130.216 101.783L163.32 82.7276C163.521 82.5938 163.687 82.4144 163.805 82.204C163.923 81.9937 163.99 81.7583 164 81.5172V43.4755C163.989 43.2358 163.921 43.0022 163.803 42.7935C163.685 42.5847 163.52 42.4067 163.32 42.2737ZM113.611 72.9768H113.747C113.675 72.9768 113.611 72.9889 113.611 73.0633C113.611 73.2362 113.872 73.0633 113.956 73.2362C113.546 73.2474 113.157 73.4187 112.871 73.7134C112.871 73.8016 113.044 73.8016 113.131 73.8016C113.002 73.9745 112.742 73.8881 112.654 74.0627C112.7 74.1095 112.761 74.1398 112.826 74.1492C112.74 74.1492 112.654 74.1492 112.654 74.2374V74.4985C112.436 74.4985 112.35 74.6714 112.176 74.7596C112.521 75.0207 112.74 74.7596 113.087 74.7596C112.176 75.1054 111.438 75.5861 110.527 75.8472C110.354 75.8472 110.527 76.1083 110.354 76.1083C110.615 76.2812 110.746 76.0219 111.005 76.0219C109.876 76.6738 108.705 77.2323 107.491 77.9793C107.397 78.0726 107.337 78.1941 107.318 78.3251H106.973C106.801 78.4116 106.887 78.6295 106.713 78.8041C107.103 79.0652 107.575 78.4583 107.841 78.8041C107.927 78.8041 107.668 78.8906 107.496 78.8906C107.41 78.8906 107.41 79.0635 107.323 79.0635H107.058C106.885 79.1932 106.713 79.2814 106.713 79.5407C106.638 79.5269 106.561 79.5359 106.491 79.5668C106.422 79.5976 106.363 79.6488 106.323 79.7136C108.176 79.7063 110.012 79.3679 111.746 78.7142C113.091 78.0277 114.309 77.116 115.348 76.0184C115.395 76.0651 115.425 76.1258 115.434 76.1913C115.181 76.9461 114.694 77.6002 114.044 78.0588C113.566 78.3199 113.219 78.7107 112.837 78.8854C112.581 79.0288 112.334 79.1882 112.098 79.3626C111.008 79.7028 109.888 79.9412 108.753 80.075L108.227 80.1511C107.839 80.2082 107.453 80.2704 107.07 80.3379L103.632 78.3701C103.506 78.2907 103.397 78.1869 103.312 78.0649C103.227 77.9429 103.167 77.805 103.135 77.6594C103.193 77.6285 103.247 77.592 103.297 77.5505C103.244 77.4935 103.177 77.4513 103.102 77.4277V76.3037C104.91 75.9815 106.67 75.4343 108.343 74.6749C106.761 73.5725 104.982 72.7842 103.104 72.3526V69.7329C104.062 69.8902 105.006 70.1167 105.931 70.4107C106.643 70.673 107.327 71.0079 107.97 71.4102C108.223 71.654 108.499 71.8723 108.795 72.0621C109.003 72.1811 109.236 72.2508 109.475 72.2658C109.714 72.2808 109.953 72.2407 110.175 72.1485H110.744C111.98 71.9438 113.136 71.4024 114.085 70.5836C114.085 70.6701 114.172 70.6701 114.258 70.6701C114.123 71.3594 113.873 72.0211 113.52 72.6275C113.525 72.7157 113.437 72.8904 113.611 72.9768ZM118.47 79.1517C118.903 78.9788 119.16 78.6727 119.555 78.4998C119.469 78.5862 119.469 78.7609 119.383 78.8456C119.059 79.0483 118.754 79.2798 118.472 79.5373C117.496 80.3993 116.583 81.3297 115.738 82.3212C115.303 82.84 114.827 83.3207 114.358 83.7997C114.192 83.9555 114.013 84.0972 113.823 84.2233L109.464 81.716C110.084 81.7685 110.708 81.7377 111.32 81.6244C111.828 81.4816 112.322 81.2924 112.795 81.0589V81.2319C114.003 80.7529 114.92 79.6652 116.136 79.2744C116.18 79.2744 116.354 79.4474 116.526 79.3609C116.839 78.9728 117.236 78.6618 117.687 78.4519C118.139 78.2421 118.632 78.1389 119.129 78.1505C119.129 78.2369 119.129 78.3234 119.216 78.3234H119.259C118.998 78.5413 118.695 78.7574 118.396 78.9753C118.298 79.0652 118.384 79.1517 118.47 79.1517ZM103.104 68.4931V68.1715C103.998 67.9371 104.92 67.8277 105.843 67.8464C106.116 67.8028 106.395 67.8028 106.668 67.8464C105.451 67.8452 104.243 68.0642 103.104 68.4931ZM155.889 77.2911C155.879 77.4733 155.826 77.6504 155.734 77.808C155.642 77.9656 155.515 78.0989 155.361 78.1972L137.975 88.3145C135.979 87.7418 134.016 87.0577 132.096 86.2655C131.818 85.6586 131.667 85.0011 131.652 84.3334C131.637 83.6658 131.759 83.0021 132.01 82.3835C132.148 81.851 132.352 81.338 132.617 80.8566C132.66 80.8134 132.703 80.7702 132.703 80.7252C132.715 80.7252 132.726 80.7207 132.734 80.7126C132.742 80.7044 132.746 80.6934 132.746 80.682C132.938 80.3456 133.155 80.0248 133.397 79.7223L133.423 79.6964L133.457 79.66L133.483 79.6341C133.483 79.5909 133.526 79.5476 133.569 79.5027C133.612 79.4145 133.699 79.3713 133.742 79.2848C134.045 78.9634 134.379 78.6737 134.741 78.4202C135.107 78.287 135.485 78.1846 135.869 78.1142C137.268 78.2174 138.659 78.4068 140.035 78.6813C140.204 78.7068 140.366 78.7656 140.512 78.8542C141.032 78.9557 141.568 78.926 142.074 78.7678C142.403 78.7074 142.711 78.5635 142.969 78.3498C143.228 78.1361 143.427 77.8598 143.548 77.547C143.7 77.2683 143.787 76.9586 143.802 76.6414C143.817 76.3241 143.76 76.0076 143.635 75.7158C143.328 75.2386 143.612 74.9602 143.947 74.6956L144.064 74.6005C144.213 74.4947 144.347 74.369 144.463 74.227C144.68 73.7913 144.29 73.5353 144.202 73.1376C144.116 72.9647 143.812 73.0512 143.638 72.7918C144.245 72.5307 145.113 72.05 144.723 71.3099C144.463 70.9174 144.073 70.2205 144.551 69.828C145.158 69.4822 146.026 69.5669 146.286 68.9997C146.371 68.6701 146.37 68.3239 146.281 67.995C146.193 67.6661 146.021 67.3659 145.782 67.1236L145.653 66.9368C145.524 66.7518 145.396 66.5668 145.289 66.3835C145.015 65.9273 144.71 65.49 144.378 65.0745C143.999 64.536 143.692 63.9493 143.467 63.3298C143.207 62.6762 143.554 62.109 143.554 61.4554C143.579 60.1963 143.388 58.9422 142.99 57.748C142.772 57.1376 142.686 56.484 142.425 55.9169C142.393 55.5523 142.257 55.2046 142.036 54.9139C141.993 54.8256 141.97 54.7286 141.97 54.6304C141.97 54.5321 141.993 54.4351 142.036 54.3468C142.389 54.0969 142.723 53.8199 143.034 53.5185C143.131 53.307 143.149 53.0682 143.085 52.8446C143.022 52.621 142.882 52.4272 142.689 52.2977C142.125 52.0366 142.172 52.8649 141.779 53.0395H141.518C141.432 52.8216 141.604 52.7335 141.779 52.5605C141.779 52.4741 141.779 52.2994 141.692 52.2994C141.347 52.2994 141.042 52.2113 140.954 52.0383C140.123 50.9998 139.007 50.2269 137.744 49.8146C138.068 49.9145 138.404 49.9726 138.743 49.9875C139.325 50.111 139.931 50.0506 140.478 49.8146C140.869 49.6832 140.956 48.9864 141.128 48.5938C141.163 48.4038 141.158 48.2086 141.113 48.0206C141.068 47.8327 140.985 47.6563 140.868 47.5027C140.476 46.9318 139.935 46.4796 139.305 46.1955C139.001 46.0641 138.523 45.803 138.134 45.5851C138.001 45.4914 137.855 45.418 137.701 45.3672C132.586 42.7994 122.057 45.0214 121.255 45.3672H121.239C120.5 45.5821 119.779 45.8568 119.084 46.1886C118.128 46.5446 117.264 47.113 116.557 47.8511C115.851 48.5893 115.32 49.4781 115.005 50.451C114.02 51.0995 113.226 52.0005 112.705 53.0603C111.967 54.4436 110.884 55.6696 111.056 57.2345C111.229 58.5832 111.534 59.8006 111.795 61.1925C111.869 61.663 111.984 62.1259 112.14 62.5759C112.312 63.0531 112.14 63.6635 112.4 64.0543C112.529 64.3154 112.443 64.6198 112.792 64.7944V65.1402C112.878 65.2267 112.878 65.3131 113.052 65.3131V65.659C113.802 66.3913 114.445 67.2261 114.962 68.1386C115.134 68.6159 114.137 68.3997 113.754 68.2251C113.037 67.7573 112.382 67.202 111.802 66.572C111.754 66.6184 111.723 66.6791 111.714 66.7449C112.059 67.3536 113.276 68.0936 112.624 68.4844C112.279 68.6574 111.886 68.2233 111.539 68.5726C111.453 68.7023 111.539 68.877 111.539 69.0499C111.061 68.704 110.542 68.877 110.064 68.704C109.719 68.6176 109.63 67.9657 109.24 67.9657C108.211 67.714 107.168 67.5252 106.116 67.4003C105.122 67.2508 104.12 67.159 103.116 67.1253V48.1581C103.117 47.9739 103.166 47.7931 103.259 47.634C103.351 47.475 103.484 47.3432 103.644 47.252L129.497 32.1028L155.361 47.1068C155.521 47.1978 155.654 47.3296 155.747 47.4887C155.839 47.6478 155.888 47.8286 155.889 48.0128V77.2911ZM142.168 63.0064C142.116 63.0877 142.044 63.1541 141.959 63.1992C141.874 63.2443 141.778 63.2667 141.682 63.2641C141.509 63.41 141.347 63.5677 141.196 63.7361C141.368 63.7361 141.196 63.9938 141.368 63.9938C141.014 64.3794 141.501 65.1938 141.014 65.365C140.378 65.5362 139.707 65.5362 139.07 65.365C139.165 65.3446 139.262 65.3353 139.358 65.3374H139.505C139.613 65.3505 139.723 65.3365 139.824 65.2966C139.926 65.2568 140.016 65.1924 140.086 65.1091V64.7633C140.086 64.6768 139.998 64.6768 139.914 64.6768C139.868 64.7254 139.807 64.756 139.741 64.7633C139.737 64.6855 139.709 64.6108 139.662 64.5491C139.615 64.4873 139.55 64.4414 139.476 64.4174C139.246 64.4481 139.013 64.421 138.797 64.3386C138.581 64.2562 138.388 64.121 138.237 63.9454C138.471 63.8327 138.736 63.8023 138.989 63.8589C139.21 63.8589 139.122 63.4733 139.388 63.3021H139.653C140.183 62.6589 141.156 62.4877 141.333 61.8444C141.333 61.6715 140.847 61.6715 140.493 61.5868C140.021 61.5287 139.541 61.558 139.079 61.6733C138.458 61.7591 137.85 61.9175 137.266 62.1453C137.749 61.7896 138.287 61.5146 138.858 61.3309C139.259 61.1761 139.674 61.0603 140.097 60.985L140.324 60.9401L140.554 60.8934C140.867 60.7997 141.2 60.7997 141.513 60.8934C141.911 61.0663 142.574 61.0663 142.662 61.3222C142.834 61.7943 142.396 62.2646 141.911 62.6087C141.813 62.7488 142.168 62.8422 142.168 63.0064Z" fill="white"/>
<rect x="137.647" y="22.8592" width="50.8529" height="22.8838" rx="2" fill="#FCC63A"/>
<path d="M142.054 42.0712V26.8433H147.079C148.747 26.8433 150.059 27.2494 151.016 28.0615C151.988 28.8737 152.474 29.9831 152.474 31.3899C152.474 32.7822 151.988 33.8844 151.016 34.6965C150.059 35.5087 148.747 35.9147 147.079 35.9147H145.143V42.0712H142.054ZM147.209 29.4755H145.143V33.2825H147.209C147.862 33.2825 148.37 33.1157 148.732 32.7822C149.109 32.4486 149.298 31.97 149.298 31.3464C149.298 30.7663 149.109 30.3094 148.732 29.9759C148.37 29.6423 147.862 29.4755 147.209 29.4755Z" fill="#161616"/>
<path d="M155.246 42.0712V26.8433H159.902C161.57 26.8433 162.889 27.2494 163.861 28.0615C164.833 28.8737 165.319 29.9831 165.319 31.3899C165.319 32.3036 165.101 33.1012 164.666 33.7828C164.245 34.45 163.651 34.9648 162.882 35.3274L167.668 42.0712H163.97L159.924 35.9147H158.335V42.0712H155.246ZM160.076 29.4755H158.335V33.2825H160.076C160.728 33.2825 161.236 33.1157 161.599 32.7822C161.961 32.4486 162.142 31.97 162.142 31.3464C162.142 30.7663 161.961 30.3094 161.599 29.9759C161.236 29.6423 160.728 29.4755 160.076 29.4755Z" fill="#161616"/>
<path d="M176.437 26.4082C177.626 26.4082 178.714 26.6257 179.7 27.0608C180.701 27.4959 181.557 28.076 182.267 28.8012C182.978 29.5263 183.529 30.382 183.921 31.3681C184.312 32.3398 184.508 33.3695 184.508 34.4572C184.508 35.5449 184.312 36.5819 183.921 37.5681C183.529 38.5397 182.978 39.3881 182.267 40.1133C181.557 40.8384 180.701 41.4185 179.7 41.8536C178.714 42.2887 177.626 42.5062 176.437 42.5062C175.248 42.5062 174.153 42.2887 173.152 41.8536C172.152 41.4185 171.296 40.8384 170.585 40.1133C169.875 39.3881 169.324 38.5397 168.932 37.5681C168.541 36.5819 168.345 35.5449 168.345 34.4572C168.345 33.3695 168.541 32.3398 168.932 31.3681C169.324 30.382 169.875 29.5263 170.585 28.8012C171.296 28.076 172.152 27.4959 173.152 27.0608C174.153 26.6257 175.248 26.4082 176.437 26.4082ZM176.437 39.6129C177.148 39.6129 177.801 39.4824 178.395 39.2214C179.004 38.9458 179.519 38.5832 179.94 38.1337C180.375 37.6696 180.716 37.1257 180.962 36.5021C181.209 35.864 181.332 35.1824 181.332 34.4572C181.332 33.7321 181.209 33.0577 180.962 32.4341C180.716 31.796 180.375 31.2521 179.94 30.8025C179.519 30.3384 179.004 29.9759 178.395 29.7148C177.801 29.4393 177.148 29.3015 176.437 29.3015C175.727 29.3015 175.067 29.4393 174.458 29.7148C173.849 29.9759 173.326 30.3384 172.891 30.8025C172.471 31.2521 172.137 31.796 171.891 32.4341C171.644 33.0577 171.521 33.7321 171.521 34.4572C171.521 35.1824 171.644 35.864 171.891 36.5021C172.137 37.1257 172.471 37.6696 172.891 38.1337C173.326 38.5832 173.849 38.9458 174.458 39.2214C175.067 39.4824 175.727 39.6129 176.437 39.6129Z" fill="#161616"/>
</svg>
