<svg width="191" height="182" viewBox="0 0 191 182" fill="none" xmlns="http://www.w3.org/2000/svg">
<path d="M169.538 74.5599C170.574 75.814 156.257 84.7933 154.357 85.979C153.834 87.7781 139.189 137.713 129.692 142.738C124.694 145.383 118.889 145.534 114.675 145.022L108.311 144.2L114.171 124.771L150.318 64.844L153.141 63.6939C157.062 60.5036 163.059 55.9689 164.13 57.1217C165.724 58.8579 158.746 66.3803 158.552 66.5939C158.763 66.4131 166.619 59.8437 168.473 61.8646C170.327 63.8856 162.618 70.5508 162.249 70.8712C162.597 70.6357 169.128 66.1804 170.612 67.8042C172.096 69.4281 163.492 75.4717 163.218 75.6744C163.467 75.5785 168.454 73.2646 169.538 74.5599Z" fill="white"/>
<path d="M114.609 145.558C114.464 145.541 114.331 145.466 114.241 145.351C114.151 145.236 114.11 145.09 114.127 144.945C114.144 144.8 114.219 144.667 114.334 144.577C114.449 144.486 114.595 144.445 114.74 144.463C117.928 144.849 124.076 145.076 129.435 142.237C138.792 137.283 153.694 86.2747 153.845 85.7599C153.885 85.6204 153.98 85.5029 154.107 85.433C154.235 85.3632 154.384 85.3468 154.524 85.3874C154.663 85.4281 154.781 85.5225 154.851 85.6499C154.921 85.7772 154.937 85.9271 154.896 86.0666C154.28 88.1861 139.709 138.036 129.949 143.206C125.365 145.649 119.727 146.188 114.609 145.558Z" fill="#000091"/>
<path d="M154.149 86.6554C154.031 86.6523 153.917 86.6112 153.824 86.5383C153.732 86.4654 153.665 86.3646 153.634 86.2507C153.603 86.1369 153.61 86.0162 153.654 85.9066C153.697 85.7969 153.774 85.7042 153.875 85.6421C159.858 81.9617 168.224 76.285 169.01 74.8118C168.333 74.4503 165.957 75.0281 163.467 76.181C163.402 76.2157 163.33 76.2367 163.256 76.2427C163.182 76.2487 163.107 76.2397 163.037 76.2161C162.967 76.1925 162.902 76.1548 162.846 76.1054C162.791 76.0559 162.746 75.9958 162.715 75.9285C162.684 75.8613 162.666 75.7883 162.664 75.7142C162.662 75.64 162.674 75.5661 162.701 75.497C162.728 75.4279 162.769 75.365 162.821 75.3122C162.873 75.2594 162.936 75.2177 163.005 75.1897C164.691 74.401 168.755 72.7251 169.974 74.2011C170.047 74.2928 170.1 74.3991 170.129 74.513C170.158 74.6268 170.162 74.7455 170.141 74.8611C170.07 75.2883 169.903 76.285 162.572 81.2881C158.527 84.0484 154.488 86.5403 154.45 86.565C154.36 86.6239 154.256 86.6553 154.149 86.6554Z" fill="#000091"/>
<path d="M163.212 76.2467C163.089 76.2466 162.97 76.2052 162.874 76.1291C162.777 76.053 162.709 75.9467 162.68 75.8272C162.651 75.7078 162.664 75.5821 162.715 75.4705C162.766 75.3588 162.854 75.2676 162.963 75.2116C163.763 74.716 169.984 70.0908 170.233 68.3492C170.25 68.2342 170.233 68.2068 170.212 68.1931C169.557 67.4756 166.271 68.8284 162.571 71.334C162.351 71.043 162.146 70.7405 161.958 70.4276C168.286 66.1393 170.351 66.7253 171.019 67.4537C171.277 67.7276 171.51 68.2479 171.143 69.0968C170.28 71.0602 166.301 74.1464 164.57 75.417C163.437 76.2467 163.412 76.2467 163.212 76.2467Z" fill="#000091"/>
<path d="M162.238 71.449C162.124 71.4493 162.012 71.4137 161.919 71.3474C161.826 71.2811 161.756 71.1874 161.719 71.0793C161.682 70.9713 161.679 70.8543 161.712 70.7448C161.745 70.6353 161.811 70.5387 161.901 70.4687C164.043 68.6121 168.104 64.6167 168.199 62.7327C168.212 62.6477 168.206 62.5609 168.183 62.4783C168.159 62.3956 168.118 62.319 168.063 62.2535C167.863 62.0372 166.921 61.5114 163.183 63.8965C161.695 64.8595 160.265 65.9092 158.9 67.0402C158.789 67.1147 158.655 67.1461 158.522 67.1284C158.39 67.1107 158.268 67.0452 158.181 66.9442C158.093 66.8432 158.046 66.7137 158.047 66.5801C158.048 66.4465 158.098 66.3179 158.188 66.2187C159.592 65.055 161.064 63.9743 162.594 62.9819C165.825 60.9281 167.879 60.4544 168.868 61.536C169.023 61.709 169.14 61.9121 169.213 62.1326C169.286 62.3531 169.313 62.5863 169.292 62.8176C169.139 65.5149 163.736 70.34 162.613 71.3066C162.511 71.3999 162.377 71.4507 162.238 71.449Z" fill="#000091"/>
<path d="M158.549 67.1634C158.439 67.1631 158.331 67.1295 158.24 67.0669C158.149 67.0043 158.079 66.9156 158.039 66.8126C158 66.7095 157.992 66.5969 158.018 66.4894C158.043 66.382 158.1 66.2847 158.182 66.2105C159.396 64.8962 160.539 63.5177 161.605 62.081C164.344 58.3622 163.796 57.5873 163.73 57.5106C163.686 57.4887 162.375 56.8972 153.489 64.1238C153.375 64.2069 153.234 64.2433 153.095 64.2254C152.955 64.2075 152.828 64.1367 152.74 64.0276C152.651 63.9186 152.608 63.7796 152.619 63.6395C152.63 63.4994 152.694 63.3689 152.798 63.2749C155.403 61.1554 157.629 59.4904 159.409 58.3266C162.282 56.4508 163.815 55.9853 164.535 56.7712C165.056 57.3353 165.045 58.2144 164.497 59.4576C163.949 60.7008 162.854 62.363 161.227 64.3621C158.957 67.1634 158.752 67.1634 158.549 67.1634ZM144.37 63.954C144.276 63.954 144.184 63.9299 144.102 63.884C144.02 63.8382 143.952 63.7721 143.903 63.6921C143.854 63.6122 143.826 63.521 143.823 63.4273C143.819 63.3337 143.84 63.2406 143.882 63.1572C144.759 61.4457 147.135 57.1738 149.066 57.1053C149.254 57.0962 149.441 57.1285 149.615 57.2C149.788 57.2714 149.944 57.3803 150.071 57.5188C150.125 57.5698 150.167 57.6311 150.197 57.699C150.226 57.767 150.241 57.8402 150.242 57.9142C150.242 57.9882 150.227 58.0615 150.198 58.1296C150.169 58.1978 150.127 58.2593 150.074 58.3107C150.02 58.362 149.957 58.4019 149.888 58.4281C149.819 58.4543 149.745 58.4662 149.671 58.4631C149.597 58.46 149.524 58.4419 149.458 58.41C149.391 58.3781 149.331 58.3329 149.282 58.2773C149.261 58.2514 149.233 58.2308 149.203 58.217C149.172 58.2033 149.138 58.1967 149.104 58.1979C148.973 58.1979 148.466 58.3129 147.461 59.5315C147.398 59.6246 146.287 60.8761 144.865 63.6555C144.819 63.7466 144.748 63.8228 144.66 63.8756C144.573 63.9283 144.472 63.9555 144.37 63.954ZM149.992 65.5341C149.883 65.5341 149.777 65.502 149.687 65.4418C149.597 65.3816 149.527 65.2961 149.486 65.196C149.444 65.0959 149.433 64.9858 149.454 64.8796C149.476 64.7733 149.528 64.6757 149.604 64.5991C149.681 64.5225 149.779 64.4704 149.885 64.4493C149.991 64.4281 150.101 64.439 150.201 64.4804C150.301 64.5219 150.387 64.5921 150.447 64.6821C150.507 64.7722 150.539 64.8781 150.539 64.9864C150.539 65.1317 150.482 65.271 150.379 65.3737C150.276 65.4764 150.137 65.5341 149.992 65.5341ZM151.005 72.8182C150.896 72.8182 150.791 72.7861 150.701 72.7259C150.61 72.6658 150.54 72.5802 150.499 72.4801C150.457 72.3801 150.447 72.2699 150.468 72.1637C150.489 72.0575 150.541 71.9599 150.618 71.8833C150.694 71.8067 150.792 71.7545 150.898 71.7334C151.004 71.7123 151.114 71.7231 151.214 71.7646C151.314 71.806 151.4 71.8762 151.46 71.9663C151.52 72.0563 151.552 72.1622 151.552 72.2706C151.552 72.4158 151.495 72.5551 151.392 72.6578C151.289 72.7605 151.15 72.8182 151.005 72.8182Z" fill="#000091"/>
<path d="M95.832 58.1213H125.133V68.5272H95.832V58.1213Z" fill="#18753C"/>
<path d="M149.504 74.2778L116.917 71.5394V55.109L149.504 52.3706V74.2778Z" fill="#18753C"/>
<path d="M145.396 75.0993L178.257 77.8377V48.263L145.396 51.0014V75.0993Z" fill="#18753C"/>
<path d="M176.847 44.1554H182.953C187.206 44.1554 190.656 52.6143 190.656 63.0504C190.656 73.4864 187.206 81.9453 182.953 81.9453H176.847C172.594 81.9453 169.144 73.4864 169.144 63.0504C169.144 52.6143 172.594 44.1554 176.847 44.1554Z" fill="#000091"/>
<path d="M182.954 79.0372C186.245 79.0372 188.913 71.8796 188.913 63.0504C188.913 54.2211 186.245 47.0636 182.954 47.0636C179.663 47.0636 176.995 54.2211 176.995 63.0504C176.995 71.8796 179.663 79.0372 182.954 79.0372Z" fill="white"/>
<path d="M81.2222 114.532C83.4129 114.532 88.6159 114.532 91.6281 113.711C104.126 104.408 123.035 84.492 128.049 77.9198C127.038 73.7164 123.689 66.5719 125.31 66.068C127.43 65.4136 132.704 70.5179 132.704 70.5179C132.704 70.5179 134.854 53.6138 137.233 53.8603C139.613 54.1067 138.942 64.7153 138.942 64.7153C138.942 64.7153 140.859 54.2382 143.63 54.523C146.402 54.8078 143.97 65.3698 143.97 65.3698C143.97 65.3698 146.922 57.3161 149.173 57.5489C151.424 57.7817 147.426 67.8672 147.426 67.8672C147.426 67.8672 151.117 63.0394 152.84 63.305C154.562 63.5706 149.134 78.1444 146.7 82.2575C145.043 85.0397 124.965 116.479 106.142 132.058C98.2003 138.63 90.8942 139.471 78.21 137.535L81.2222 114.532Z" fill="white"/>
<path d="M28.1573 51.5902C17.0832 49.9006 8.31761 49.8513 1.00334 50.8344C-0.141306 55.3007 1.00334 60.4708 3.26252 65.9777L11.1354 63.4584L4.25656 67.9987C4.89187 71.0848 7.7891 75.0993 10.5905 76.1235L20.1749 69.9977C19.4839 71.1918 19.2251 72.5874 19.442 73.9499C19.6589 75.3123 20.3384 76.5586 21.3661 77.479C21.3661 77.479 21.7741 71.9091 25.3751 67.4893C27.6238 64.6701 29.4409 61.5323 30.767 58.1787L28.1573 51.5902Z" fill="#000091"/>
<path d="M114.283 124.497C114.283 124.596 114.14 125.73 114.099 126.064C113.243 133.507 110.608 140.635 106.415 146.845C101.026 145.917 94.8702 144.337 90.0999 141.612C90.0342 140.106 90.5792 154.009 90.5983 154.557C90.7982 160.926 90.623 151.903 91.1789 176.543C91.1789 176.795 91.1789 177.036 91.1953 177.222C54.9225 186.949 16.437 177.222 14.2463 177.222C14.6351 166.751 14.1833 160.373 13.3207 150.277C11.6311 131.091 9.91687 121.271 16.8368 109.704C17.316 108.883 17.683 108.313 18.321 107.421C24.3921 98.9316 34.3598 96.1932 44.6644 96.1932L44.6836 96.2151C48.0819 100.462 53.7203 105.868 59.0465 107.1C60.6129 107.486 62.2285 107.434 63.1897 107.147C66.7797 106.128 66.4539 99.6381 65.8542 95.9193C68.609 95.9193 78.333 98.4277 80.2088 99.0657C85.7952 100.9 93.0465 105.449 97.8743 108.65C97.8606 108.667 97.9646 108.576 96.6995 109.647C92.6439 113.064 91.8197 113.519 91.628 113.713C88.6157 114.483 84.2781 114.535 81.2221 114.535C81.0386 114.261 80.9756 114.187 80.8606 114.039C84.9819 119.461 81.7999 131.549 78.1222 137.524C83.3416 138.373 87.0247 138.501 89.9822 138.422C95.0647 138.11 98.9915 137.116 103.729 133.893C107.952 130.979 113.535 125.234 114.283 124.497Z" fill="#FCC63A"/>
<path d="M20.9913 77.8843C20.0968 77.084 19.4411 76.052 19.0965 74.9023C18.752 73.7526 18.732 72.53 19.0388 71.3697L10.8866 76.5726C10.8158 76.6182 10.7356 76.6468 10.652 76.6563C10.5684 76.6658 10.4838 76.6559 10.4046 76.6274C7.26366 75.491 4.36096 71.2218 3.72565 68.1082C3.7038 68.001 3.71455 67.8897 3.75653 67.7887C3.7985 67.6877 3.86977 67.6015 3.96115 67.5414L7.52107 65.1946L3.4299 66.5008C3.29859 66.5427 3.15631 66.5336 3.03144 66.4752C2.90658 66.4168 2.80831 66.3135 2.75626 66.1859C0.132869 59.7808 -0.592806 54.8599 0.472431 50.6975C0.499762 50.5922 0.55786 50.4973 0.639311 50.4252C0.720763 50.353 0.821875 50.3067 0.929744 50.2922C8.93135 49.216 17.8667 49.4707 28.2425 51.0508C28.3372 51.0651 28.4265 51.104 28.5014 51.1635C28.5764 51.2231 28.6344 51.3013 28.6697 51.3903L31.2712 57.9898C31.3188 58.1151 31.3188 58.2535 31.2712 58.3787C29.9295 61.7871 28.0833 64.9746 25.7944 67.8344C22.3468 72.0597 21.9114 77.4653 21.9086 77.5201C21.9013 77.623 21.8652 77.7217 21.8043 77.8049C21.7434 77.8881 21.6602 77.9525 21.5644 77.9905C21.4686 78.0286 21.3639 78.0388 21.2625 78.02C21.1611 78.0012 21.0671 77.9542 20.9913 77.8843ZM20.1697 69.4501C20.2661 69.4497 20.3608 69.4747 20.4443 69.5226C20.5279 69.5705 20.5973 69.6396 20.6457 69.7229C20.694 69.8063 20.7195 69.9009 20.7196 69.9972C20.7197 70.0935 20.6944 70.1882 20.6462 70.2716C20.1123 71.1907 19.8592 72.2461 19.9181 73.3074C19.977 74.3687 20.3453 75.3896 20.9776 76.244C21.3034 74.3271 22.2591 70.4468 24.951 67.1416C27.1092 64.4261 28.8685 61.4163 30.1758 58.2035L27.7661 52.0968C17.7873 50.5934 9.16959 50.347 1.4473 51.3383C0.595659 55.0872 1.27752 59.5535 3.58051 65.3041L10.9742 62.9409C11.0998 62.9017 11.2354 62.9091 11.356 62.9616C11.4767 63.0142 11.5744 63.1084 11.6312 63.2271C11.6881 63.3458 11.7003 63.481 11.6656 63.608C11.631 63.7349 11.5517 63.8452 11.4425 63.9185L4.8703 68.2479C5.56585 70.9014 8.0441 74.4394 10.5278 75.5129C20.7037 69.0037 19.9342 69.4501 20.1697 69.4501Z" fill="#000091"/>
<path d="M34.8808 62.0801C38.4586 59.8148 39.2603 54.6637 36.6714 50.5747C34.0825 46.4858 29.0834 45.0075 25.5055 47.2728C21.9277 49.5381 21.1261 54.6892 23.715 58.7781C26.3039 62.867 31.303 64.3454 34.8808 62.0801Z" fill="#18753C"/>
<path d="M31.1727 63.6802C28.259 63.6802 25.1674 62.0782 23.256 59.0605C20.5176 54.7229 21.3884 49.2214 25.2167 46.798C29.0449 44.3745 34.3958 45.9409 37.1342 50.2785C41.0008 56.3796 37.4984 63.6802 31.1727 63.6802ZM29.2257 46.7487C23.6613 46.7487 20.8352 53.1921 24.1816 58.4745C26.5037 62.144 31.1343 63.7952 34.5875 61.6072C38.0406 59.4192 38.5171 54.5038 36.2059 50.8563C34.5519 48.2438 31.8381 46.7569 29.2257 46.7569V46.7487Z" fill="#000091"/>
<path d="M51.1002 66.2022L44.6924 96.1986C44.6924 96.1986 54.5643 108.962 62.9548 107.202C67.8045 106.186 65.8876 96.0234 65.8876 96.0234L68.0427 82.1452L51.1002 66.2022Z" fill="white"/>
<path d="M50.3217 102.779C48.1059 100.897 46.074 98.8079 44.2534 96.541C44.2045 96.4782 44.1698 96.4055 44.1518 96.3279C44.1339 96.2504 44.133 96.1698 44.1494 96.0919L45.7924 88.4792C45.8253 88.3396 45.9116 88.2185 46.0328 88.1419C46.1539 88.0653 46.3003 88.0392 46.4405 88.0693C46.5807 88.0994 46.7035 88.1833 46.7825 88.303C46.8615 88.4226 46.8904 88.5684 46.8631 88.7092L45.2885 96.0673C46.5701 97.6528 55.4507 108.22 62.8499 106.67C64.5833 106.309 65.5417 104.48 65.6951 101.229C65.7508 99.52 65.6316 97.8096 65.3391 96.1248C65.3117 95.9824 65.194 96.8641 67.4942 82.0603C67.5203 81.9202 67.6001 81.7958 67.7164 81.7135C67.8328 81.6312 67.9767 81.5976 68.1175 81.6197C68.2583 81.6418 68.385 81.7179 68.4706 81.8319C68.5562 81.9459 68.5939 82.0887 68.5759 82.2301L66.4344 96.0152C66.6343 97.1435 68.1788 106.668 63.069 107.738C58.5479 108.686 53.8378 105.742 50.3217 102.779Z" fill="#000091"/>
<path d="M61.1985 83.5801C67.4968 86.3733 74.5783 87.381 80.5206 86.0775C93.6458 83.1968 90.587 65.6272 89.6012 54.5038C87.9883 36.2962 74.6495 32.3036 61.8119 35.7951C48.9743 39.2865 41.6162 53.2578 45.3486 66.9964C46.3837 70.7973 48.5416 74.171 51.3978 77.008L61.1985 83.5801Z" fill="white"/>
<path d="M60.9774 84.0813C60.9116 84.0521 60.8521 84.0103 60.8025 83.9582C60.7528 83.9061 60.7139 83.8448 60.688 83.7776C60.6621 83.7105 60.6496 83.6389 60.6513 83.567C60.6531 83.495 60.6689 83.4241 60.6981 83.3583C60.7272 83.2925 60.769 83.2331 60.8211 83.1834C60.8732 83.1338 60.9346 83.0949 61.0017 83.0689C61.0688 83.043 61.1404 83.0305 61.2123 83.0323C61.2843 83.034 61.3552 83.0499 61.421 83.079C67.7741 85.8996 74.6913 86.795 80.4036 85.5436C91.7187 83.0598 90.5055 69.157 89.3554 57.6557C89.2486 56.5822 89.1446 55.5444 89.0569 54.5586C88.3915 47.0499 85.7079 41.6059 81.0745 38.3828C76.244 35.0173 69.4527 34.2752 61.955 36.329C49.1037 39.8287 42.3179 53.7535 45.8861 66.8595C46.8527 70.4194 48.8408 73.6918 51.7928 76.6246C51.8479 76.6743 51.8922 76.7347 51.9233 76.8021C51.9543 76.8695 51.9713 76.9425 51.9732 77.0167C51.9752 77.0908 51.9621 77.1646 51.9346 77.2335C51.9072 77.3025 51.8661 77.3651 51.8137 77.4177C51.7613 77.4702 51.6988 77.5116 51.63 77.5393C51.5612 77.5669 51.4874 77.5803 51.4133 77.5786C51.3391 77.5769 51.266 77.5602 51.1985 77.5294C51.131 77.4986 51.0705 77.4544 51.0206 77.3996C47.9289 74.3325 45.8477 70.8822 44.829 67.147C40.9433 52.869 48.7778 38.7799 61.6675 35.272C69.4828 33.1443 76.5972 33.9302 81.7016 37.4819C86.6115 40.9022 89.454 46.6145 90.1468 54.46C91.171 66.0133 94.175 83.6459 80.6391 86.617C74.2449 88.0163 67.0046 86.7567 60.9774 84.0813Z" fill="#000091"/>
<path d="M81.4962 71.3888C81.3509 71.3757 81.2168 71.3055 81.1234 71.1935C81.0299 71.0816 80.9847 70.9371 80.9978 70.7918C81.0109 70.6466 81.0811 70.5125 81.1931 70.419C81.305 70.3255 81.4495 70.2804 81.5948 70.2934C81.9918 70.3263 83.194 70.2934 83.4788 69.6663C83.6513 69.2884 82.5861 67.911 81.2881 66.8348C81.1806 66.7409 81.1139 66.6088 81.1024 66.4665C81.0909 66.3242 81.1354 66.183 81.2265 66.0731C81.3175 65.9631 81.4479 65.893 81.5898 65.8778C81.7318 65.8625 81.8741 65.9033 81.9864 65.9914C84.9356 68.4286 84.6372 69.7677 84.4783 70.1209C83.9936 71.1697 82.608 71.4764 81.4962 71.3888ZM73.0072 65.2411C72.8784 65.2409 72.7538 65.1954 72.6553 65.1126C72.5568 65.0297 72.4906 64.9148 72.4684 64.7879C72.4461 64.6611 72.4693 64.5305 72.5338 64.4191C72.5983 64.3077 72.6999 64.2225 72.821 64.1786L74.7214 63.4858C74.8551 63.4461 74.9988 63.4589 75.1234 63.5215C75.2479 63.5841 75.3439 63.6919 75.3917 63.8229C75.4396 63.9538 75.4357 64.0981 75.3808 64.2263C75.326 64.3544 75.2243 64.4569 75.0966 64.5127C73.0455 65.263 73.1413 65.2411 73.0072 65.2411ZM86.0995 64.4743C85.9694 64.4763 85.8428 64.432 85.7425 64.3492C85.6421 64.2664 85.5745 64.1506 85.5518 64.0225L85.2286 62.1878C85.2043 62.045 85.2375 61.8984 85.3209 61.78C85.4044 61.6616 85.5314 61.5812 85.674 61.5562C85.8167 61.5312 85.9635 61.5637 86.0822 61.6467C86.2009 61.7297 86.282 61.8563 86.3076 61.9988L86.6307 63.8335C86.6442 63.9115 86.6406 63.9914 86.6202 64.0678C86.5998 64.1443 86.5631 64.2154 86.5126 64.2763C86.4621 64.3372 86.3991 64.3864 86.3277 64.4206C86.2564 64.4548 86.1785 64.4731 86.0995 64.4743ZM71.638 62.2289C71.5207 62.2285 71.4067 62.1906 71.3126 62.1206C71.2185 62.0506 71.1494 61.9523 71.1154 61.8401C71.0813 61.7279 71.0842 61.6078 71.1236 61.4973C71.1629 61.3869 71.2367 61.292 71.334 61.2266C73.1715 59.9998 74.8364 60.4927 74.9076 60.5146C75.0399 60.5623 75.1487 60.6591 75.2115 60.7849C75.2744 60.9106 75.2865 61.0557 75.2453 61.1902C75.2042 61.3246 75.1129 61.438 74.9904 61.507C74.8678 61.576 74.7235 61.5952 74.5872 61.5607C74.5297 61.5443 73.3248 61.2156 71.9419 62.1357C71.852 62.1961 71.7463 62.2286 71.638 62.2289ZM83.1748 55.4376C83.076 55.4376 82.979 55.4108 82.8941 55.3601C82.8092 55.3094 82.7397 55.2367 82.6928 55.1497C82.6459 55.0626 82.6234 54.9646 82.6278 54.8658C82.6321 54.767 82.6632 54.6713 82.7175 54.5887C83.6048 53.2359 85.0999 53.3893 85.7654 53.6577C85.8957 53.7148 85.9986 53.8204 86.0524 53.9521C86.1062 54.0838 86.1066 54.2313 86.0536 54.3633C86.0006 54.4953 85.8983 54.6016 85.7683 54.6595C85.6384 54.7174 85.491 54.7224 85.3573 54.6736C85.2396 54.627 84.2346 54.2738 83.6322 55.1912C83.5823 55.2669 83.5144 55.329 83.4346 55.3721C83.3548 55.4151 83.2655 55.4376 83.1748 55.4376ZM76.8738 75.5649C76.8672 75.4774 76.8817 75.3897 76.9161 75.309C76.9504 75.2284 77.0037 75.1571 77.0713 75.1013C77.1389 75.0455 77.2189 75.0067 77.3047 74.9883C77.3904 74.9698 77.4793 74.9722 77.5639 74.9953C79.6834 75.5703 82.2191 75.7511 83.487 75.417C83.5787 75.3925 83.6752 75.3923 83.7669 75.4164C83.8587 75.4404 83.9427 75.4879 84.0106 75.5541C84.0785 75.6204 84.1281 75.7032 84.1544 75.7943C84.1807 75.8855 84.1829 75.9819 84.1607 76.0742C83.1201 80.4584 77.2873 80.8993 76.8738 75.5649ZM78.0787 76.2495C78.7468 79.185 81.718 78.84 82.8024 76.6356C81.2175 76.7332 79.6267 76.6032 78.0787 76.2495Z" fill="#000091"/>
<path d="M77.4212 75.5238C79.6941 76.1399 82.3175 76.2933 83.6264 75.9482C82.7392 79.6862 77.7881 80.2694 77.4212 75.5238ZM58.6029 50.4538C54.0791 53.2305 54.9992 67.6865 54.3173 69.2857C53.9969 70.0333 51.1545 66.687 49.8647 65.8408C45.3573 66.9964 50.1084 83.7445 47.1427 83.9635C42.7613 84.2894 27.3852 65.7888 29.8497 43.6078C31.3285 30.3156 45.6065 23.0698 59.6107 19.8083C74.7869 16.2676 89.1991 14.0221 93.1068 32.3803C94.454 38.706 90.0945 48.5369 82.427 49.6322C81.8793 47.1677 81.6055 45.2508 79.8639 44.1719C77.2788 51.4149 67.0865 57.1218 62.1628 57.2998C62.4367 54.0137 61.3413 51.5491 58.6029 50.4538Z" fill="#000091"/>
<path d="M41.601 81.0334C38.0603 77.3722 34.7304 71.931 32.4794 66.1447C29.5904 58.751 28.4978 50.9357 29.3193 43.5557C30.861 29.6665 45.8921 22.4563 59.4992 19.2825C69.5957 16.9275 79.2157 15.1749 85.9439 19.4441C89.8188 21.9086 92.3408 26.1011 93.6553 32.2735C95.1121 39.1195 90.3473 49.0626 82.5182 50.1826C82.3813 50.2024 82.2419 50.1697 82.1281 50.0909C82.0143 50.0122 81.9345 49.8933 81.9048 49.7581C81.4968 47.9508 81.2229 46.0887 80.1112 45.0591C78.7776 48.189 76.0036 51.2889 72.1972 53.8521C68.7304 56.1934 64.8035 57.7652 62.1829 57.8611C62.1055 57.8637 62.0284 57.8498 61.9568 57.8205C61.8851 57.7911 61.8205 57.7469 61.7672 57.6908C61.7139 57.6346 61.6731 57.5678 61.6475 57.4947C61.6219 57.4216 61.6121 57.344 61.6187 57.2668C61.8762 54.1752 60.8821 52.0967 58.664 51.089C54.7426 54.0383 55.5313 67.8453 54.8302 69.513C54.786 69.6209 54.7159 69.7163 54.6261 69.7908C54.5364 69.8653 54.4297 69.9166 54.3154 69.9401C53.713 70.0634 53.0366 69.4828 51.3936 67.9165C50.8185 67.3688 50.2243 66.8019 49.7861 66.4651C47.9815 67.3332 48.3183 72.6786 48.5675 76.6218C48.8414 81.1292 49.0577 84.3852 47.1983 84.5221C45.3691 84.6508 42.8854 82.3588 41.601 81.0334ZM75.5079 17.927C70.7048 17.927 65.2992 19.0443 59.7375 20.3423C46.5931 23.4065 31.877 30.3374 30.3955 43.6679C27.9693 65.5121 43.1345 83.6787 47.0997 83.4186C47.1408 83.4186 47.5105 83.3391 47.6146 81.6687C47.9158 76.7067 45.6238 66.3638 49.7231 65.3095C49.7967 65.2905 49.8734 65.2871 49.9483 65.2993C50.0233 65.3116 50.0949 65.3393 50.1585 65.3807C51.1498 66.0325 52.9243 67.9822 53.8965 68.6668C54.3757 65.3369 53.7842 52.7512 58.3135 49.9717C58.3863 49.9272 58.4686 49.9002 58.5537 49.8931C58.6388 49.8859 58.7244 49.8988 58.8037 49.9307C61.4955 51.0096 62.8483 53.3372 62.7415 56.689C67.4844 56.1167 76.8716 50.8973 79.3444 43.9746C79.3727 43.8986 79.4176 43.8299 79.4758 43.7733C79.5339 43.7167 79.6039 43.6738 79.6807 43.6476C79.7575 43.6214 79.8391 43.6126 79.9197 43.6218C80.0003 43.631 80.0779 43.658 80.1468 43.7008C81.9897 44.84 82.3813 46.839 82.8468 48.9996C89.7284 47.6304 93.8552 38.5362 92.5681 32.4898C90.3993 22.2893 84.8951 17.927 75.5079 17.927Z" fill="#000091"/>
<path d="M52.0779 77.123C51.1413 78.3115 49.9255 79.3411 48.3536 79.771C44.4459 80.8335 40.0891 77.5529 38.7035 72.4677C37.641 68.56 40.467 64.0855 44.539 64.1813C46.4246 64.2839 48.255 64.8542 49.8652 65.8408L52.0779 77.123Z" fill="white"/>
<path d="M38.1743 72.6101C37.0406 68.4395 40.0063 63.6336 44.4124 63.6336C46.0253 63.6336 48.1668 64.1813 50.1439 65.3697C50.2151 65.4004 50.279 65.4458 50.3313 65.503C50.3837 65.5602 50.4233 65.6278 50.4476 65.7014C50.4718 65.7751 50.4802 65.853 50.4721 65.9301C50.464 66.0072 50.4396 66.0817 50.4005 66.1487C50.3615 66.2157 50.3086 66.2736 50.2455 66.3186C50.1824 66.3637 50.1105 66.3948 50.0345 66.4099C49.9584 66.4251 49.88 66.4239 49.8045 66.4065C49.7289 66.3891 49.6579 66.3559 49.5962 66.309C48.0637 65.3702 46.3219 64.8273 44.5274 64.729C40.7621 64.6578 38.2839 68.8366 39.2341 72.3225C40.9182 78.5031 47.3507 82.2355 51.65 76.7834C51.6946 76.7269 51.7499 76.6798 51.8127 76.6447C51.8755 76.6096 51.9446 76.5872 52.016 76.5788C52.0875 76.5705 52.1599 76.5762 52.2291 76.5958C52.2983 76.6154 52.363 76.6484 52.4195 76.693C52.4759 76.7376 52.5231 76.7929 52.5582 76.8557C52.5933 76.9185 52.6156 76.9876 52.624 77.0591C52.6324 77.1305 52.6267 77.2029 52.6071 77.2722C52.5875 77.3414 52.5544 77.4061 52.5099 77.4625C47.6766 83.5856 40.1186 79.7518 38.1743 72.6101Z" fill="#000091"/>
<path d="M48.1675 75.9017C48.0829 75.9016 47.9995 75.8819 47.9238 75.8442C44.5282 74.1518 45.7824 71.093 48.4715 71.1615C48.0799 69.8498 47.2666 69.1241 46.0453 69.0009C44.3639 68.8229 42.6332 69.8662 42.4087 70.4522C42.3518 70.5806 42.2477 70.6822 42.1181 70.736C41.9884 70.7898 41.8431 70.7918 41.712 70.7416C41.5809 70.6913 41.4741 70.5926 41.4137 70.4659C41.3533 70.3392 41.3438 70.1941 41.3873 70.0607C42.1896 67.9548 48.7618 65.8298 49.7147 71.7037C49.7291 71.7923 49.7215 71.883 49.6926 71.968C49.6636 72.0529 49.6143 72.1295 49.5488 72.1909C49.4834 72.2523 49.4038 72.2966 49.3172 72.3201C49.2306 72.3435 49.1395 72.3453 49.052 72.3253C47.9567 72.0734 47.1872 72.4814 47.001 72.9935C46.7874 73.5932 47.3378 74.3243 48.4058 74.8556C48.5205 74.9078 48.6138 74.998 48.6697 75.111C48.7257 75.224 48.741 75.3528 48.713 75.4757C48.685 75.5987 48.6154 75.7082 48.516 75.7858C48.4167 75.8634 48.2936 75.9043 48.1675 75.9017Z" fill="#000091"/>
<path d="M86.5215 60.5858H98.0228V66.0626H86.5215V60.5858Z" fill="#18753C"/>
<path d="M87.4519 68.2533C86.7982 68.2533 86.1714 67.9937 85.7092 67.5315C85.247 67.0693 84.9873 66.4424 84.9873 65.7888V60.8596C84.9873 60.206 85.247 59.5791 85.7092 59.1169C86.1714 58.6547 86.7982 58.3951 87.4519 58.3951C88.1055 58.3951 88.7324 58.6547 89.1946 59.1169C89.6568 59.5791 89.9164 60.206 89.9164 60.8596V65.7888C89.9164 66.4424 89.6568 67.0693 89.1946 67.5315C88.7324 67.9937 88.1055 68.2533 87.4519 68.2533Z" fill="#FCC63A"/>
<path d="M106.415 147.393C102.353 146.751 98.3648 145.708 94.5084 144.279C94.4414 144.253 94.3802 144.213 94.3284 144.163C94.2766 144.113 94.2353 144.053 94.2067 143.987C94.1781 143.92 94.1628 143.849 94.1617 143.777C94.1606 143.705 94.1738 143.633 94.2004 143.566C94.227 143.499 94.2666 143.438 94.3168 143.386C94.3671 143.334 94.427 143.293 94.4933 143.264C94.5595 143.236 94.6307 143.22 94.7029 143.219C94.775 143.218 94.8467 143.231 94.9137 143.258C98.5592 144.618 102.329 145.618 106.169 146.246C110.475 139.738 113.071 132.249 113.716 124.473C113.721 124.401 113.741 124.331 113.774 124.266C113.807 124.202 113.852 124.145 113.907 124.098C113.962 124.051 114.026 124.016 114.094 123.994C114.163 123.971 114.235 123.963 114.307 123.969C114.379 123.975 114.449 123.994 114.513 124.027C114.578 124.06 114.635 124.105 114.682 124.16C114.728 124.215 114.764 124.279 114.786 124.347C114.808 124.416 114.817 124.488 114.811 124.56C114.139 132.65 111.405 140.433 106.87 147.166C106.818 147.238 106.749 147.296 106.67 147.335C106.591 147.375 106.504 147.395 106.415 147.393ZM87.8377 103.05C87.7423 103.052 87.6479 103.03 87.5639 102.984C84.004 101.068 80.9588 99.7613 78.5025 99.1123C68.4909 96.4698 66.4837 96.4588 66.1386 96.4944C66.0561 96.5446 65.9614 96.5712 65.8648 96.5711C65.7568 96.5723 65.6508 96.5415 65.5602 96.4826C65.4696 96.4237 65.3985 96.3393 65.3557 96.2401C65.313 96.1408 65.3006 96.0312 65.32 95.9249C65.3394 95.8186 65.3899 95.7204 65.465 95.6428C65.7251 95.3443 66.3988 94.7829 78.7873 98.0553C81.3285 98.7235 84.4558 100.06 88.0979 102.02C88.2051 102.078 88.29 102.17 88.3391 102.282C88.3882 102.394 88.3986 102.518 88.3687 102.637C88.3389 102.755 88.2704 102.86 88.1742 102.935C88.078 103.009 87.9596 103.05 87.8377 103.05ZM91.2059 178.145C91.0649 178.145 90.9292 178.091 90.8271 177.994C90.7251 177.896 90.6646 177.763 90.6583 177.622C90.6583 177.513 90.6583 177.485 90.6391 176.957C89.8669 144.794 90.2584 161.989 89.604 143.039C89.5989 142.894 89.6517 142.752 89.7508 142.646C89.85 142.54 89.9872 142.477 90.1325 142.472C90.2777 142.467 90.4191 142.52 90.5254 142.619C90.6317 142.718 90.6942 142.855 90.6993 143.001C91.3593 162.484 90.9567 144.644 91.7345 176.924C91.7481 177.436 91.7481 177.472 91.7509 177.567C91.755 177.642 91.7439 177.716 91.7184 177.786C91.6929 177.855 91.6534 177.919 91.6025 177.973C91.5515 178.027 91.49 178.071 91.4219 178.1C91.3537 178.13 91.2802 178.145 91.2059 178.145ZM14.2706 177.77C14.197 177.77 14.1242 177.755 14.0565 177.727C13.9888 177.698 13.9275 177.656 13.8764 177.603C13.8253 177.55 13.7854 177.487 13.759 177.419C13.7326 177.35 13.7204 177.277 13.7229 177.203C14.1556 165.215 13.4491 157.5 12.3291 145.268C10.8449 129.092 10.0233 120.182 16.3792 109.425C16.8584 108.604 17.239 108.007 17.888 107.103C22.5652 100.607 29.4687 97.3241 37.3854 96.1494C37.5251 96.1224 37.6699 96.1509 37.789 96.2287C37.9081 96.3066 37.9922 96.4278 38.0235 96.5666C38.0548 96.7054 38.0309 96.8509 37.9568 96.9724C37.8827 97.0938 37.7642 97.1817 37.6264 97.2173L37.4621 97.2447C29.8466 98.3593 23.1978 101.61 18.778 107.746C18.1537 108.617 17.784 109.206 17.3212 109.989C11.1324 120.433 11.9402 129.218 13.419 145.167C14.5609 157.533 15.251 165.258 14.8155 177.242C14.8106 177.383 14.7511 177.517 14.6495 177.616C14.5479 177.714 14.4121 177.769 14.2706 177.77Z" fill="#000091"/>
<path d="M27.7225 133.142C27.5798 133.115 27.4537 133.032 27.3721 132.912C27.2904 132.792 27.2598 132.644 27.2871 132.502C27.3143 132.359 27.3971 132.233 27.5173 132.151C27.6374 132.07 27.7851 132.039 27.9278 132.066C28.3523 132.148 69.8856 140.04 75.9046 139.753C81.4827 132.833 84.5662 118.788 80.0834 113.965L32.4352 105.75C32.2922 105.725 32.1648 105.645 32.0811 105.526C31.9974 105.408 31.9643 105.261 31.9889 105.118C32.0136 104.975 32.0942 104.847 32.2128 104.764C32.3314 104.68 32.4784 104.647 32.6215 104.671C83.8295 113.486 80.5435 112.862 80.7406 113.056C86.253 118.623 82.1098 133.945 76.5974 140.618C76.5524 140.674 76.4968 140.719 76.4337 140.753C76.3707 140.786 76.3016 140.807 76.2305 140.813C71.1617 141.333 32.7748 134.106 27.7225 133.142Z" fill="#000091"/>
<path d="M78.1279 138.077C77.9827 138.055 77.852 137.977 77.7647 137.859C77.6774 137.74 77.6406 137.592 77.6624 137.447C77.6842 137.302 77.7628 137.171 77.8809 137.084C77.999 136.997 78.147 136.96 78.2922 136.982C91.7323 139.033 98.414 137.732 105.794 131.625C125.384 115.436 146.04 82.3013 146.229 81.9782C148.839 77.5803 153.037 65.5998 152.621 63.839C151.665 63.9349 149.463 66.1064 147.867 68.1931C147.788 68.3066 147.67 68.3864 147.536 68.4166C147.401 68.4469 147.26 68.4252 147.141 68.3561C147.022 68.2869 146.933 68.1754 146.892 68.0437C146.852 67.9119 146.862 67.7697 146.922 67.6454C148.239 64.3155 149.816 59.1564 149.189 58.124C149.159 58.0775 149.148 58.0747 149.121 58.072C148.242 57.9871 146.226 60.8104 144.493 65.5369C144.446 65.6684 144.35 65.7768 144.225 65.84C144.101 65.9032 143.957 65.9164 143.823 65.8769C143.689 65.8373 143.575 65.748 143.504 65.6273C143.434 65.5066 143.413 65.3635 143.444 65.2274C144.162 62.1139 144.928 56.6644 143.945 55.2898C143.908 55.2239 143.855 55.1678 143.792 55.1259C143.729 55.0841 143.656 55.0576 143.581 55.0488C142.185 54.9146 140.369 59.9971 139.49 64.7947C139.472 64.94 139.397 65.0722 139.282 65.1624C139.167 65.2525 139.02 65.2931 138.875 65.2753C138.73 65.2575 138.598 65.1828 138.508 65.0675C138.417 64.9522 138.377 64.8058 138.395 64.6606C138.395 64.6359 138.559 62.0016 138.433 59.3782C138.244 55.5198 137.554 54.4244 137.176 54.3861C137.143 54.3861 136.081 54.712 134.558 62.4616C133.769 66.498 133.252 70.5262 133.246 70.5673C133.234 70.668 133.193 70.7632 133.129 70.8422C133.066 70.9212 132.981 70.9809 132.885 71.0147C132.79 71.0485 132.687 71.0551 132.587 71.0336C132.488 71.0121 132.397 70.9635 132.324 70.8932C130.226 68.8667 126.71 66.1886 125.464 66.572C124.798 67.3497 127.761 74.4449 128.561 77.772C128.58 77.8512 128.581 77.9336 128.564 78.0132C128.547 78.0928 128.512 78.1675 128.462 78.2321C123.227 85.1356 104.2 105.03 91.9568 114.149C91.9013 114.189 91.8392 114.22 91.7734 114.239C88.6899 115.08 83.4568 115.08 81.2223 115.08C81.077 115.08 80.9377 115.022 80.835 114.92C80.7323 114.817 80.6746 114.678 80.6746 114.532C80.6746 114.387 80.7323 114.248 80.835 114.145C80.9377 114.042 81.077 113.985 81.2223 113.985C83.3884 113.985 88.4298 113.985 91.3845 113.21C103.442 104.209 122.024 84.8042 127.441 77.7912C126.173 72.821 122.786 66.2625 125.149 65.5396C127.066 64.9508 130.626 67.8645 132.313 69.3898C132.526 67.8645 132.967 64.9043 133.548 61.9961C135.106 54.1697 136.319 53.2332 137.297 53.3208C139.263 53.5235 139.487 57.7872 139.556 59.8738C140.457 56.9164 141.853 53.7919 143.693 53.9835C145.961 54.2191 145.583 58.6607 145.304 60.9719C146.399 58.8552 147.837 56.8643 149.236 57.0095C149.419 57.0264 149.596 57.0873 149.751 57.1869C149.906 57.2865 150.034 57.422 150.126 57.5818C150.89 58.8442 149.888 62.5109 148.981 65.2219C150.241 63.9102 151.813 62.6013 152.927 62.7574C153.069 62.7803 153.203 62.8387 153.316 62.9273C153.429 63.0159 153.517 63.1318 153.574 63.264C154.031 64.2334 153.36 67.2648 151.583 72.2815C150.115 76.4138 148.297 80.6336 147.171 82.5368C146.982 82.8572 126.214 116.156 106.492 132.48C97.7513 139.712 89.4676 139.808 78.1279 138.077Z" fill="#000091"/>
<path d="M19.3624 33.5222C19.283 33.5222 20.3565 33.7221 3.20586 30.447C3.06315 30.4197 2.9371 30.3369 2.85545 30.2167C2.77379 30.0966 2.74322 29.9489 2.77046 29.8062C2.79769 29.6635 2.8805 29.5374 3.00067 29.4558C3.12084 29.3741 3.26853 29.3435 3.41124 29.3708L19.4555 32.435C19.6008 32.4485 19.7347 32.5191 19.828 32.6313C19.9212 32.7435 19.966 32.8881 19.9525 33.0334C19.9391 33.1786 19.8685 33.3126 19.7563 33.4058C19.6441 33.499 19.4995 33.5438 19.3542 33.5304L19.3624 33.5222ZM24.4257 23.056C24.2939 23.0559 24.1665 23.0083 24.067 22.9218L11.7059 12.2421C11.6427 12.1982 11.5895 12.1415 11.5497 12.0756C11.5099 12.0098 11.4844 11.9363 11.4749 11.8599C11.4655 11.7836 11.4721 11.7061 11.4946 11.6325C11.517 11.559 11.5547 11.4909 11.6052 11.4329C11.6557 11.3749 11.7179 11.3281 11.7877 11.2957C11.8574 11.2633 11.9332 11.2459 12.0102 11.2448C12.0871 11.2436 12.1634 11.2586 12.2341 11.2889C12.3048 11.3192 12.3684 11.3641 12.4206 11.4206L24.7817 22.1003C24.8638 22.1738 24.9218 22.2702 24.9482 22.3771C24.9746 22.484 24.9681 22.5964 24.9297 22.6996C24.8913 22.8028 24.8226 22.892 24.7327 22.9556C24.6428 23.0192 24.5358 23.0542 24.4257 23.056ZM34.6399 18.2392C34.5259 18.2391 34.4148 18.2034 34.322 18.1372C34.2292 18.0709 34.1594 17.9773 34.1224 17.8695L28.1582 0.727117C28.1106 0.589852 28.1195 0.439317 28.1829 0.308618C28.2463 0.17792 28.3591 0.0777692 28.4964 0.0301986C28.6336 -0.0173719 28.7842 -0.00846312 28.9149 0.0549602C29.0456 0.118384 29.1457 0.231122 29.1933 0.368387L35.1575 17.5108C35.1864 17.5934 35.195 17.6817 35.1828 17.7683C35.1705 17.855 35.1376 17.9374 35.087 18.0087C35.0363 18.0801 34.9692 18.1382 34.8915 18.1783C34.8137 18.2184 34.7275 18.2393 34.6399 18.2392Z" fill="#CE0500"/>
</svg>
