<svg width="336" height="340" viewBox="0 0 336 340" fill="none" xmlns="http://www.w3.org/2000/svg">
<path d="M306.514 175.102C304.885 175.102 303.292 174.619 301.938 173.714C300.583 172.809 299.527 171.522 298.903 170.017C298.28 168.511 298.117 166.855 298.435 165.257C298.752 163.659 299.537 162.191 300.689 161.039C301.841 159.887 303.309 159.102 304.907 158.784C306.505 158.466 308.162 158.63 309.667 159.253C311.172 159.877 312.459 160.933 313.364 162.287C314.27 163.642 314.753 165.235 314.753 166.864C314.751 169.049 313.882 171.143 312.338 172.687C310.793 174.232 308.699 175.101 306.514 175.102ZM306.514 160.048C305.166 160.048 303.849 160.448 302.728 161.197C301.607 161.946 300.733 163.01 300.217 164.256C299.701 165.501 299.566 166.872 299.829 168.194C300.092 169.516 300.742 170.731 301.695 171.684C302.648 172.637 303.863 173.286 305.185 173.549C306.507 173.812 307.877 173.677 309.123 173.161C310.368 172.645 311.433 171.772 312.182 170.651C312.931 169.53 313.33 168.212 313.33 166.864C313.33 165.056 312.611 163.323 311.333 162.044C310.055 160.766 308.322 160.047 306.514 160.045V160.048ZM110.493 339.38C110.35 339.379 110.211 339.336 110.093 339.255C109.975 339.174 109.884 339.06 109.833 338.926C109.781 338.793 109.77 338.648 109.802 338.508C109.835 338.369 109.908 338.243 110.013 338.146L123.578 325.673C123.646 325.607 123.726 325.555 123.815 325.52C123.903 325.486 123.998 325.469 124.093 325.472C124.188 325.474 124.281 325.496 124.368 325.535C124.455 325.574 124.532 325.631 124.597 325.7C124.661 325.77 124.711 325.852 124.743 325.942C124.775 326.031 124.789 326.126 124.784 326.221C124.779 326.316 124.755 326.409 124.713 326.494C124.671 326.58 124.613 326.656 124.541 326.718L110.973 339.195C110.842 339.314 110.671 339.38 110.493 339.38Z" fill="#FCC63A"/>
<path d="M123.513 339.927C123.415 339.927 123.317 339.906 123.227 339.866C123.137 339.827 123.057 339.769 122.99 339.696L110.514 326.132C110.451 326.063 110.402 325.982 110.369 325.894C110.337 325.806 110.323 325.713 110.327 325.62C110.331 325.526 110.353 325.435 110.393 325.35C110.432 325.265 110.488 325.189 110.557 325.125C110.625 325.062 110.706 325.013 110.794 324.981C110.882 324.949 110.975 324.934 111.068 324.938C111.162 324.942 111.254 324.965 111.338 325.004C111.423 325.044 111.499 325.099 111.563 325.168L124.036 338.736C124.129 338.838 124.19 338.964 124.213 339.1C124.235 339.236 124.218 339.376 124.162 339.502C124.107 339.628 124.016 339.735 123.901 339.811C123.785 339.886 123.651 339.927 123.513 339.927ZM141.853 49.8472H123.911C123.786 49.8471 123.664 49.8141 123.556 49.7517C123.448 49.6892 123.358 49.5994 123.296 49.4913C123.234 49.3833 123.201 49.2607 123.201 49.1359C123.201 49.0112 123.234 48.8886 123.296 48.7806L132.26 33.2534C132.322 33.1448 132.412 33.0546 132.52 32.9919C132.628 32.9291 132.751 32.8961 132.877 32.8961C133.002 32.8961 133.125 32.9291 133.233 32.9919C133.341 33.0546 133.431 33.1448 133.493 33.2534L142.457 48.7806C142.519 48.8878 142.552 49.0094 142.552 49.1333C142.553 49.2572 142.521 49.379 142.46 49.4868C142.399 49.5946 142.311 49.6845 142.204 49.7477C142.098 49.8109 141.976 49.8452 141.853 49.8472ZM125.141 48.425H140.622L132.885 35.0312L125.141 48.425Z" fill="#FCC63A"/>
<path d="M266.663 119.614H81.6359C75.0478 119.614 69.707 124.955 69.707 131.543V259.899C69.707 266.487 75.0478 271.828 81.6359 271.828H266.663C273.252 271.828 278.592 266.487 278.592 259.899V131.543C278.592 124.955 273.252 119.614 266.663 119.614Z" fill="#000091"/>
<path d="M193.458 263.429V306.75H154.845V263.429H167.741V277.534C167.741 279.236 168.417 280.868 169.62 282.071C170.823 283.274 172.455 283.95 174.157 283.95C175.858 283.95 177.49 283.274 178.694 282.071C179.897 280.868 180.573 279.236 180.573 277.534V263.429H193.458Z" fill="#18753C"/>
<path d="M69.707 241.822H278.578V259.906C278.578 263.07 277.321 266.104 275.084 268.341C272.847 270.578 269.813 271.835 266.649 271.835H81.6359C78.4722 271.835 75.438 270.578 73.2009 268.341C70.9638 266.104 69.707 263.07 69.707 259.906V241.822Z" fill="#FF0000"/>
<path d="M131.961 298.825H216.338V309.324H131.961V298.825Z" fill="#18753C"/>
<path d="M174.148 261.229C176.583 261.229 178.557 259.255 178.557 256.82C178.557 254.385 176.583 252.411 174.148 252.411C171.713 252.411 169.739 254.385 169.739 256.82C169.739 259.255 171.713 261.229 174.148 261.229Z" fill="white"/>
<path d="M269.191 225.328C248.882 225.328 232.42 235.707 232.42 235.707V270.285C232.42 277.937 234.287 285.475 237.861 292.242C241.434 299.01 246.605 304.803 252.925 309.118L269.191 320.233L285.458 309.118C291.777 304.802 296.946 299.008 300.518 292.241C304.091 285.474 305.957 277.937 305.956 270.285V235.707C305.956 235.707 289.497 225.328 269.191 225.328Z" fill="white"/>
<path d="M268.79 320.82L252.523 309.709C246.106 305.329 240.856 299.448 237.228 292.577C233.601 285.706 231.706 278.054 231.709 270.285V235.707C231.709 235.586 231.739 235.467 231.798 235.361C231.856 235.255 231.941 235.166 232.043 235.102C232.207 234.999 248.914 224.617 269.192 224.617C289.469 224.617 306.169 234.999 306.34 235.102C306.443 235.166 306.527 235.255 306.586 235.361C306.644 235.467 306.675 235.586 306.674 235.707V270.285C306.676 278.054 304.781 285.706 301.154 292.576C297.526 299.447 292.277 305.328 285.86 309.709L269.593 320.82C269.475 320.901 269.335 320.944 269.192 320.944C269.048 320.944 268.908 320.901 268.79 320.82ZM233.131 236.105V270.285C233.13 277.823 234.97 285.247 238.491 291.913C242.012 298.578 247.107 304.283 253.334 308.532L269.202 319.373L285.067 308.532C291.29 304.281 296.381 298.575 299.897 291.909C303.414 285.244 305.249 277.821 305.245 270.285V236.105C302.82 234.683 287.467 226.039 269.185 226.039C250.902 226.039 235.556 234.672 233.131 236.105Z" fill="#18753C"/>
<path d="M255.908 304.756C250.298 300.926 245.708 295.785 242.536 289.778C239.365 283.771 237.709 277.081 237.711 270.288V238.804C242.781 236.158 255.083 230.626 269.192 230.626C283.3 230.626 295.595 236.162 300.673 238.804V270.285C300.677 277.077 299.023 283.767 295.854 289.774C292.686 295.782 288.098 300.924 282.49 304.756L269.192 313.83L255.908 304.756Z" fill="#FCC63A"/>
<path d="M249.562 265.611L254.857 260.316L270.347 275.806L265.052 281.101L249.562 265.611Z" fill="white"/>
<path d="M283.525 252.043L288.82 257.337L265.054 281.104L259.759 275.809L283.525 252.043Z" fill="white"/>
<path d="M43.6412 110.409C36.1426 110.411 28.7742 108.449 22.2688 104.72C22.1052 104.626 21.9857 104.47 21.9367 104.288C21.8877 104.106 21.9131 103.911 22.0074 103.748C22.1017 103.584 22.2572 103.465 22.4395 103.416C22.6219 103.367 22.8163 103.392 22.9799 103.486C32.1547 108.761 42.9952 110.341 53.2941 107.904C63.5929 105.467 72.5758 99.1969 78.4136 90.3694C84.2515 81.5419 86.5053 70.8212 84.7164 60.3903C82.9274 49.9593 77.2301 40.6024 68.7844 34.2246C60.3388 27.8468 49.7798 24.9278 39.2575 26.0618C28.7352 27.1958 19.0407 32.2976 12.1479 40.3285C5.25507 48.3593 1.68225 58.7153 2.15688 69.2879C2.6315 79.8605 7.11788 89.8547 14.7025 97.2357C14.8379 97.3672 14.9154 97.5471 14.9181 97.7358C14.9207 97.9245 14.8483 98.1066 14.7168 98.2419C14.5852 98.3772 14.4053 98.4547 14.2166 98.4574C14.0279 98.4601 13.8459 98.3876 13.7105 98.2561C6.56281 91.3123 2.05152 82.0995 0.949234 72.1954C-0.153056 62.2913 2.22223 52.3121 7.66833 43.9666C13.1144 35.6212 21.2925 29.4287 30.8021 26.4498C40.3117 23.4708 50.5611 23.8906 59.7952 27.6373C69.0293 31.3841 76.6735 38.2246 81.4189 46.9875C86.1642 55.7504 87.7154 65.8904 85.8068 75.6712C83.8982 85.452 78.6486 94.265 70.9569 100.601C63.2652 106.937 53.61 110.402 43.6448 110.402L43.6412 110.409Z" fill="#FF0000"/>
<path d="M74.3362 85.1112C71.2318 90.5079 66.7595 94.9908 61.3702 98.108C55.981 101.225 49.8651 102.867 43.6393 102.867C37.4134 102.867 31.2976 101.225 25.9083 98.108C20.519 94.9908 16.0468 90.5079 12.9424 85.1112C16.0482 79.7164 20.521 75.2353 25.9101 72.1194C31.2992 69.0036 37.4143 67.363 43.6393 67.363C49.8643 67.363 55.9794 69.0036 61.3685 72.1194C66.7576 75.2353 71.2303 79.7164 74.3362 85.1112Z" fill="#FF0000"/>
<path d="M43.641 68.905C52.1967 68.905 59.1325 61.9692 59.1325 53.4134C59.1325 44.8577 52.1967 37.9219 43.641 37.9219C35.0852 37.9219 28.1494 44.8577 28.1494 53.4134C28.1494 61.9692 35.0852 68.905 43.641 68.905Z" fill="#FF0000"/>
<path d="M66.5638 218.128H62.2971C62.1085 218.128 61.9277 218.053 61.7943 217.92C61.6609 217.786 61.586 217.606 61.586 217.417C61.586 217.228 61.6609 217.048 61.7943 216.914C61.9277 216.781 62.1085 216.706 62.2971 216.706H66.5638C66.7524 216.706 66.9333 216.781 67.0666 216.914C67.2 217.048 67.2749 217.228 67.2749 217.417C67.2749 217.606 67.2 217.786 67.0666 217.92C66.9333 218.053 66.7524 218.128 66.5638 218.128ZM58.0305 218.128H53.7638C53.5752 218.128 53.3943 218.053 53.261 217.92C53.1276 217.786 53.0527 217.606 53.0527 217.417C53.0527 217.228 53.1276 217.048 53.261 216.914C53.3943 216.781 53.5752 216.706 53.7638 216.706H58.0305C58.2191 216.706 58.3999 216.781 58.5333 216.914C58.6666 217.048 58.7416 217.228 58.7416 217.417C58.7416 217.606 58.6666 217.786 58.5333 217.92C58.3999 218.053 58.2191 218.128 58.0305 218.128ZM49.4971 218.128H45.2305C45.0419 218.128 44.861 218.053 44.7276 217.92C44.5943 217.786 44.5193 217.606 44.5193 217.417C44.5193 217.228 44.5943 217.048 44.7276 216.914C44.861 216.781 45.0419 216.706 45.2305 216.706H49.4971C49.6857 216.706 49.8666 216.781 50 216.914C50.1333 217.048 50.2082 217.228 50.2082 217.417C50.2082 217.606 50.1333 217.786 50 217.92C49.8666 218.053 49.6857 218.128 49.4971 218.128ZM44.2385 214.85C44.0499 214.85 43.869 214.775 43.7356 214.642C43.6023 214.508 43.5273 214.327 43.5273 214.139V209.872C43.5273 209.684 43.6023 209.503 43.7356 209.369C43.869 209.236 44.0499 209.161 44.2385 209.161C44.4271 209.161 44.6079 209.236 44.7413 209.369C44.8746 209.503 44.9496 209.684 44.9496 209.872V214.139C44.9496 214.327 44.8746 214.508 44.7413 214.642C44.6079 214.775 44.4271 214.85 44.2385 214.85ZM44.2385 206.317C44.0499 206.317 43.869 206.242 43.7356 206.108C43.6023 205.975 43.5273 205.794 43.5273 205.605V201.339C43.5273 201.15 43.6023 200.969 43.7356 200.836C43.869 200.703 44.0499 200.628 44.2385 200.628C44.4271 200.628 44.6079 200.703 44.7413 200.836C44.8746 200.969 44.9496 201.15 44.9496 201.339V205.605C44.9496 205.794 44.8746 205.975 44.7413 206.108C44.6079 206.242 44.4271 206.317 44.2385 206.317ZM44.2385 197.783C44.0499 197.783 43.869 197.708 43.7356 197.575C43.6023 197.442 43.5273 197.261 43.5273 197.072V192.805C43.5273 192.617 43.6023 192.436 43.7356 192.303C43.869 192.169 44.0499 192.094 44.2385 192.094C44.4271 192.094 44.6079 192.169 44.7413 192.303C44.8746 192.436 44.9496 192.617 44.9496 192.805V197.072C44.9496 197.261 44.8746 197.442 44.7413 197.575C44.6079 197.708 44.4271 197.783 44.2385 197.783ZM44.2385 189.25C44.0499 189.25 43.869 189.175 43.7356 189.042C43.6023 188.908 43.5273 188.727 43.5273 188.539V184.272C43.5273 184.084 43.6023 183.903 43.7356 183.769C43.869 183.636 44.0499 183.561 44.2385 183.561C44.4271 183.561 44.6079 183.636 44.7413 183.769C44.8746 183.903 44.9496 184.084 44.9496 184.272V188.539C44.9496 188.727 44.8746 188.908 44.7413 189.042C44.6079 189.175 44.4271 189.25 44.2385 189.25ZM44.2385 180.717C44.0499 180.717 43.869 180.642 43.7356 180.508C43.6023 180.375 43.5273 180.194 43.5273 180.005V175.739C43.5273 175.55 43.6023 175.369 43.7356 175.236C43.869 175.103 44.0499 175.028 44.2385 175.028C44.4271 175.028 44.6079 175.103 44.7413 175.236C44.8746 175.369 44.9496 175.55 44.9496 175.739V180.005C44.9496 180.194 44.8746 180.375 44.7413 180.508C44.6079 180.642 44.4271 180.717 44.2385 180.717ZM44.2385 172.183C44.0499 172.183 43.869 172.108 43.7356 171.975C43.6023 171.842 43.5273 171.661 43.5273 171.472V167.205C43.5273 167.017 43.6023 166.836 43.7356 166.703C43.869 166.569 44.0499 166.494 44.2385 166.494C44.4271 166.494 44.6079 166.569 44.7413 166.703C44.8746 166.836 44.9496 167.017 44.9496 167.205V171.472C44.9496 171.661 44.8746 171.842 44.7413 171.975C44.6079 172.108 44.4271 172.183 44.2385 172.183ZM44.2385 163.65C44.0499 163.65 43.869 163.575 43.7356 163.442C43.6023 163.308 43.5273 163.127 43.5273 162.939V158.672C43.5273 158.484 43.6023 158.303 43.7356 158.169C43.869 158.036 44.0499 157.961 44.2385 157.961C44.4271 157.961 44.6079 158.036 44.7413 158.169C44.8746 158.303 44.9496 158.484 44.9496 158.672V162.939C44.9496 163.127 44.8746 163.308 44.7413 163.442C44.6079 163.575 44.4271 163.65 44.2385 163.65ZM44.2385 155.117C44.0499 155.117 43.869 155.042 43.7356 154.908C43.6023 154.775 43.5273 154.594 43.5273 154.405V150.139C43.5273 149.95 43.6023 149.769 43.7356 149.636C43.869 149.503 44.0499 149.428 44.2385 149.428C44.4271 149.428 44.6079 149.503 44.7413 149.636C44.8746 149.769 44.9496 149.95 44.9496 150.139V154.405C44.9496 154.594 44.8746 154.775 44.7413 154.908C44.6079 155.042 44.4271 155.117 44.2385 155.117ZM44.2385 146.583C44.0499 146.583 43.869 146.508 43.7356 146.375C43.6023 146.242 43.5273 146.061 43.5273 145.872V141.605C43.5273 141.417 43.6023 141.236 43.7356 141.103C43.869 140.969 44.0499 140.894 44.2385 140.894C44.4271 140.894 44.6079 140.969 44.7413 141.103C44.8746 141.236 44.9496 141.417 44.9496 141.605V145.872C44.9496 146.061 44.8746 146.242 44.7413 146.375C44.6079 146.508 44.4271 146.583 44.2385 146.583ZM44.2385 138.05C44.0499 138.05 43.869 137.975 43.7356 137.842C43.6023 137.708 43.5273 137.527 43.5273 137.339V133.072C43.5273 132.884 43.6023 132.703 43.7356 132.569C43.869 132.436 44.0499 132.361 44.2385 132.361C44.4271 132.361 44.6079 132.436 44.7413 132.569C44.8746 132.703 44.9496 132.884 44.9496 133.072V137.339C44.9496 137.527 44.8746 137.708 44.7413 137.842C44.6079 137.975 44.4271 138.05 44.2385 138.05ZM44.2385 129.517C44.0499 129.517 43.869 129.442 43.7356 129.308C43.6023 129.175 43.5273 128.994 43.5273 128.805V124.539C43.5273 124.35 43.6023 124.169 43.7356 124.036C43.869 123.903 44.0499 123.828 44.2385 123.828C44.4271 123.828 44.6079 123.903 44.7413 124.036C44.8746 124.169 44.9496 124.35 44.9496 124.539V128.805C44.9496 128.994 44.8746 129.175 44.7413 129.308C44.6079 129.442 44.4271 129.517 44.2385 129.517ZM44.2385 120.983C44.0499 120.983 43.869 120.908 43.7356 120.775C43.6023 120.642 43.5273 120.461 43.5273 120.272V116.005C43.5273 115.817 43.6023 115.636 43.7356 115.503C43.869 115.369 44.0499 115.294 44.2385 115.294C44.4271 115.294 44.6079 115.369 44.7413 115.503C44.8746 115.636 44.9496 115.817 44.9496 116.005V120.272C44.9496 120.461 44.8746 120.642 44.7413 120.775C44.6079 120.908 44.4271 120.983 44.2385 120.983ZM179.094 118.722C178.905 118.722 178.724 118.647 178.591 118.514C178.457 118.38 178.382 118.199 178.382 118.011V113.744C178.382 113.556 178.457 113.375 178.591 113.241C178.724 113.108 178.905 113.033 179.094 113.033C179.282 113.033 179.463 113.108 179.596 113.241C179.73 113.375 179.805 113.556 179.805 113.744V118.011C179.805 118.199 179.73 118.38 179.596 118.514C179.463 118.647 179.282 118.722 179.094 118.722ZM179.094 110.189C178.905 110.189 178.724 110.114 178.591 109.98C178.457 109.847 178.382 109.666 178.382 109.477V105.211C178.382 105.022 178.457 104.841 178.591 104.708C178.724 104.575 178.905 104.5 179.094 104.5C179.282 104.5 179.463 104.575 179.596 104.708C179.73 104.841 179.805 105.022 179.805 105.211V109.477C179.805 109.666 179.73 109.847 179.596 109.98C179.463 110.114 179.282 110.189 179.094 110.189ZM179.094 101.655C178.905 101.655 178.724 101.58 178.591 101.447C178.457 101.314 178.382 101.133 178.382 100.944V96.6774C178.382 96.4888 178.457 96.308 178.591 96.1746C178.724 96.0412 178.905 95.9663 179.094 95.9663C179.282 95.9663 179.463 96.0412 179.596 96.1746C179.73 96.308 179.805 96.4888 179.805 96.6774V100.944C179.805 101.133 179.73 101.314 179.596 101.447C179.463 101.58 179.282 101.655 179.094 101.655ZM179.094 93.1219C178.905 93.1219 178.724 93.047 178.591 92.9136C178.457 92.7802 178.382 92.5994 178.382 92.4108V88.1441C178.382 87.9555 178.457 87.7746 178.591 87.6413C178.724 87.5079 178.905 87.433 179.094 87.433C179.282 87.433 179.463 87.5079 179.596 87.6413C179.73 87.7746 179.805 87.9555 179.805 88.1441V92.4108C179.805 92.5994 179.73 92.7802 179.596 92.9136C179.463 93.047 179.282 93.1219 179.094 93.1219ZM179.094 84.5886C178.905 84.5886 178.724 84.5136 178.591 84.3803C178.457 84.2469 178.382 84.066 178.382 83.8774V79.6108C178.382 79.4222 178.457 79.2413 178.591 79.1079C178.724 78.9746 178.905 78.8997 179.094 78.8997C179.282 78.8997 179.463 78.9746 179.596 79.1079C179.73 79.2413 179.805 79.4222 179.805 79.6108V83.8774C179.805 84.066 179.73 84.2469 179.596 84.3803C179.463 84.5136 179.282 84.5886 179.094 84.5886ZM240.455 76.2757H239.033C238.845 76.2757 238.664 76.2007 238.53 76.0674C238.397 75.934 238.322 75.7531 238.322 75.5646C238.322 75.376 238.397 75.1951 238.53 75.0617C238.664 74.9284 238.845 74.8534 239.033 74.8534H240.455C240.644 74.8534 240.825 74.9284 240.958 75.0617C241.092 75.1951 241.166 75.376 241.166 75.5646C241.166 75.7531 241.092 75.934 240.958 76.0674C240.825 76.2007 240.644 76.2757 240.455 76.2757ZM234.766 76.2757H230.5C230.311 76.2757 230.13 76.2007 229.997 76.0674C229.864 75.934 229.789 75.7531 229.789 75.5646C229.789 75.376 229.864 75.1951 229.997 75.0617C230.13 74.9284 230.311 74.8534 230.5 74.8534H234.766C234.955 74.8534 235.136 74.9284 235.269 75.0617C235.403 75.1951 235.478 75.376 235.478 75.5646C235.478 75.7531 235.403 75.934 235.269 76.0674C235.136 76.2007 234.955 76.2757 234.766 76.2757ZM226.233 76.2757H221.966C221.778 76.2757 221.597 76.2007 221.464 76.0674C221.33 75.934 221.255 75.7531 221.255 75.5646C221.255 75.376 221.33 75.1951 221.464 75.0617C221.597 74.9284 221.778 74.8534 221.966 74.8534H226.233C226.422 74.8534 226.603 74.9284 226.736 75.0617C226.869 75.1951 226.944 75.376 226.944 75.5646C226.944 75.7531 226.869 75.934 226.736 76.0674C226.603 76.2007 226.422 76.2757 226.233 76.2757ZM217.7 76.2757H213.433C213.245 76.2757 213.064 76.2007 212.93 76.0674C212.797 75.934 212.722 75.7531 212.722 75.5646C212.722 75.376 212.797 75.1951 212.93 75.0617C213.064 74.9284 213.245 74.8534 213.433 74.8534H217.7C217.888 74.8534 218.069 74.9284 218.203 75.0617C218.336 75.1951 218.411 75.376 218.411 75.5646C218.411 75.7531 218.336 75.934 218.203 76.0674C218.069 76.2007 217.888 76.2757 217.7 76.2757ZM209.166 76.2757H204.9C204.711 76.2757 204.53 76.2007 204.397 76.0674C204.264 75.934 204.189 75.7531 204.189 75.5646C204.189 75.376 204.264 75.1951 204.397 75.0617C204.53 74.9284 204.711 74.8534 204.9 74.8534H209.166C209.355 74.8534 209.536 74.9284 209.669 75.0617C209.803 75.1951 209.878 75.376 209.878 75.5646C209.878 75.7531 209.803 75.934 209.669 76.0674C209.536 76.2007 209.355 76.2757 209.166 76.2757ZM200.633 76.2757H196.366C196.178 76.2757 195.997 76.2007 195.864 76.0674C195.73 75.934 195.655 75.7531 195.655 75.5646C195.655 75.376 195.73 75.1951 195.864 75.0617C195.997 74.9284 196.178 74.8534 196.366 74.8534H200.633C200.822 74.8534 201.003 74.9284 201.136 75.0617C201.269 75.1951 201.344 75.376 201.344 75.5646C201.344 75.7531 201.269 75.934 201.136 76.0674C201.003 76.2007 200.822 76.2757 200.633 76.2757ZM192.1 76.2757H187.833C187.645 76.2757 187.464 76.2007 187.33 76.0674C187.197 75.934 187.122 75.7531 187.122 75.5646C187.122 75.376 187.197 75.1951 187.33 75.0617C187.464 74.9284 187.645 74.8534 187.833 74.8534H192.1C192.288 74.8534 192.469 74.9284 192.603 75.0617C192.736 75.1951 192.811 75.376 192.811 75.5646C192.811 75.7531 192.736 75.934 192.603 76.0674C192.469 76.2007 192.288 76.2757 192.1 76.2757ZM183.566 76.2757H179.3C179.111 76.2757 178.93 76.2007 178.797 76.0674C178.664 75.934 178.589 75.7531 178.589 75.5646C178.589 75.376 178.664 75.1951 178.797 75.0617C178.93 74.9284 179.111 74.8534 179.3 74.8534H183.566C183.755 74.8534 183.936 74.9284 184.069 75.0617C184.203 75.1951 184.278 75.376 184.278 75.5646C184.278 75.7531 184.203 75.934 184.069 76.0674C183.936 76.2007 183.755 76.2757 183.566 76.2757Z" fill="#000091"/>
<path d="M322.144 11.4472V111.653H247.954V28.5672L265.074 11.4472H322.144Z" fill="white"/>
<path d="M322.148 112.365H247.954C247.766 112.365 247.585 112.29 247.451 112.156C247.318 112.023 247.243 111.842 247.243 111.653V28.5672C247.244 28.3789 247.319 28.1986 247.453 28.0659L264.573 10.9423C264.706 10.8101 264.886 10.736 265.074 10.7361H322.148C322.337 10.7361 322.518 10.811 322.651 10.9444C322.784 11.0778 322.859 11.2586 322.859 11.4472V111.653C322.859 111.842 322.784 112.023 322.651 112.156C322.518 112.29 322.337 112.365 322.148 112.365ZM248.665 110.942H321.437V12.1583H265.369L248.658 28.8695L248.665 110.942Z" fill="#000091"/>
<path d="M334.606 101.701H322.144C321.956 101.701 321.775 101.627 321.641 101.493C321.508 101.36 321.433 101.179 321.433 100.99C321.433 100.802 321.508 100.621 321.641 100.487C321.775 100.354 321.956 100.279 322.144 100.279H333.895V1.49522H261.127V16.105C261.127 16.2936 261.052 16.4745 260.919 16.6078C260.786 16.7412 260.605 16.8161 260.416 16.8161C260.228 16.8161 260.047 16.7412 259.913 16.6078C259.78 16.4745 259.705 16.2936 259.705 16.105V0.784109C259.705 0.595511 259.78 0.414636 259.913 0.281277C260.047 0.147918 260.228 0.072998 260.416 0.072998H334.606C334.795 0.072998 334.976 0.147918 335.109 0.281277C335.243 0.414636 335.318 0.595511 335.318 0.784109V100.99C335.318 101.179 335.243 101.36 335.109 101.493C334.976 101.627 334.795 101.701 334.606 101.701Z" fill="#000091"/>
<path d="M265.067 29.2783H247.954C247.814 29.2777 247.677 29.2357 247.561 29.1575C247.444 29.0794 247.354 28.9685 247.3 28.839C247.246 28.7094 247.232 28.5669 247.26 28.4293C247.287 28.2918 247.354 28.1653 247.453 28.0659L264.573 10.9423C264.673 10.8457 264.799 10.7805 264.936 10.7547C265.072 10.729 265.214 10.744 265.342 10.7977C265.47 10.8514 265.58 10.9416 265.657 11.0571C265.735 11.1725 265.777 11.3082 265.778 11.4472V28.5672C265.778 28.7558 265.703 28.9367 265.57 29.0701C265.437 29.2034 265.256 29.2783 265.067 29.2783ZM249.664 27.8561H264.356V13.1646L249.664 27.8561Z" fill="#000091"/>
<path d="M265.074 11.4472V28.5672H247.954L265.074 11.4472ZM308.21 45.1752H261.892C261.703 45.1752 261.522 45.1003 261.389 44.9669C261.256 44.8336 261.181 44.6527 261.181 44.4641V36.0552C261.181 35.8666 261.256 35.6857 261.389 35.5524C261.522 35.419 261.703 35.3441 261.892 35.3441H308.21C308.399 35.3441 308.58 35.419 308.713 35.5524C308.846 35.6857 308.921 35.8666 308.921 36.0552V44.4641C308.921 44.6527 308.846 44.8336 308.713 44.9669C308.58 45.1003 308.399 45.1752 308.21 45.1752ZM262.603 43.753H307.499V36.7663H262.603V43.753ZM308.21 57.7903H261.892C261.703 57.7903 261.522 57.7154 261.389 57.582C261.256 57.4487 261.181 57.2678 261.181 57.0792C261.181 56.8906 261.256 56.7097 261.389 56.5764C261.522 56.443 261.703 56.3681 261.892 56.3681H308.21C308.399 56.3681 308.58 56.443 308.713 56.5764C308.846 56.7097 308.921 56.8906 308.921 57.0792C308.921 57.2678 308.846 57.4487 308.713 57.582C308.58 57.7154 308.399 57.7903 308.21 57.7903ZM308.21 64.8623H261.892C261.703 64.8623 261.522 64.7874 261.389 64.654C261.256 64.5207 261.181 64.3398 261.181 64.1512C261.181 63.9626 261.256 63.7817 261.389 63.6484C261.522 63.515 261.703 63.4401 261.892 63.4401H308.21C308.399 63.4401 308.58 63.515 308.713 63.6484C308.846 63.7817 308.921 63.9626 308.921 64.1512C308.921 64.3398 308.846 64.5207 308.713 64.654C308.58 64.7874 308.399 64.8623 308.21 64.8623ZM308.21 71.9379H261.892C261.703 71.9379 261.522 71.863 261.389 71.7296C261.256 71.5962 261.181 71.4154 261.181 71.2268C261.181 71.0382 261.256 70.8573 261.389 70.7239C261.522 70.5906 261.703 70.5157 261.892 70.5157H308.21C308.399 70.5157 308.58 70.5906 308.713 70.7239C308.846 70.8573 308.921 71.0382 308.921 71.2268C308.921 71.4154 308.846 71.5962 308.713 71.7296C308.58 71.863 308.399 71.9379 308.21 71.9379ZM308.21 79.0134H261.892C261.703 79.0134 261.522 78.9385 261.389 78.8051C261.256 78.6718 261.181 78.4909 261.181 78.3023C261.181 78.1137 261.256 77.9328 261.389 77.7995C261.522 77.6661 261.703 77.5912 261.892 77.5912H308.21C308.399 77.5912 308.58 77.6661 308.713 77.7995C308.846 77.9328 308.921 78.1137 308.921 78.3023C308.921 78.4909 308.846 78.6718 308.713 78.8051C308.58 78.9385 308.399 79.0134 308.21 79.0134ZM308.21 86.089H261.892C261.703 86.089 261.522 86.0141 261.389 85.8807C261.256 85.7473 261.181 85.5665 261.181 85.3779C261.181 85.1893 261.256 85.0084 261.389 84.875C261.522 84.7417 261.703 84.6668 261.892 84.6668H308.21C308.399 84.6668 308.58 84.7417 308.713 84.875C308.846 85.0084 308.921 85.1893 308.921 85.3779C308.921 85.5665 308.846 85.7473 308.713 85.8807C308.58 86.0141 308.399 86.089 308.21 86.089ZM293.988 93.161H261.892C261.703 93.161 261.522 93.0861 261.389 92.9527C261.256 92.8193 261.181 92.6385 261.181 92.4499C261.181 92.2613 261.256 92.0804 261.389 91.947C261.522 91.8137 261.703 91.7388 261.892 91.7388H293.988C294.176 91.7388 294.357 91.8137 294.491 91.947C294.624 92.0804 294.699 92.2613 294.699 92.4499C294.699 92.6385 294.624 92.8193 294.491 92.9527C294.357 93.0861 294.176 93.161 293.988 93.161Z" fill="#000091"/>
<path d="M305.998 223.732C305.893 223.733 305.789 223.712 305.693 223.668C305.597 223.625 305.512 223.561 305.444 223.48C305.376 223.4 305.327 223.306 305.299 223.204C305.272 223.102 305.268 222.996 305.287 222.892L307.356 211.6C307.369 211.505 307.401 211.413 307.451 211.33C307.5 211.248 307.565 211.176 307.643 211.119C307.721 211.063 307.81 211.022 307.904 211.001C307.997 210.98 308.095 210.978 308.189 210.995C308.284 211.012 308.374 211.049 308.454 211.102C308.535 211.155 308.603 211.224 308.656 211.305C308.709 211.385 308.745 211.476 308.761 211.57C308.778 211.665 308.776 211.762 308.754 211.856L306.699 223.138C306.671 223.304 306.585 223.454 306.457 223.563C306.329 223.672 306.166 223.731 305.998 223.732ZM313.379 227.223C313.243 227.224 313.11 227.185 312.995 227.112C312.88 227.039 312.788 226.935 312.731 226.811C312.673 226.688 312.653 226.55 312.671 226.415C312.69 226.28 312.747 226.153 312.835 226.05L320.259 217.307C320.315 217.222 320.388 217.149 320.473 217.095C320.559 217.04 320.655 217.005 320.756 216.99C320.856 216.976 320.959 216.984 321.056 217.012C321.153 217.041 321.243 217.09 321.32 217.156C321.397 217.222 321.459 217.304 321.501 217.397C321.544 217.489 321.566 217.589 321.567 217.691C321.567 217.792 321.546 217.892 321.505 217.985C321.463 218.078 321.402 218.16 321.326 218.228L313.92 226.971C313.853 227.049 313.771 227.113 313.677 227.156C313.584 227.2 313.482 227.223 313.379 227.223ZM316.825 234.356C316.658 234.355 316.496 234.296 316.368 234.189C316.24 234.081 316.154 233.932 316.125 233.767C316.096 233.603 316.126 233.433 316.21 233.288C316.294 233.144 316.426 233.033 316.583 232.976L328.587 228.684C328.76 228.635 328.946 228.653 329.107 228.736C329.268 228.819 329.391 228.959 329.451 229.13C329.512 229.3 329.506 229.487 329.433 229.652C329.361 229.818 329.229 229.95 329.063 230.021C316.267 234.612 317.013 234.356 316.825 234.356Z" fill="#FF0000"/>
<path d="M199.808 216.83H135.563C135.374 216.83 135.193 216.756 135.06 216.622C134.926 216.489 134.852 216.308 134.852 216.119V174.733C134.852 174.544 134.926 174.363 135.06 174.23C135.193 174.096 135.374 174.022 135.563 174.022C135.751 174.022 135.932 174.096 136.066 174.23C136.199 174.363 136.274 174.544 136.274 174.733V215.408H199.097V172.386H169.067C168.879 172.386 168.699 172.312 168.565 172.18L161.17 164.774H136.281V170.662C136.281 170.85 136.206 171.031 136.073 171.164C135.939 171.298 135.758 171.373 135.57 171.373C135.381 171.373 135.2 171.298 135.067 171.164C134.934 171.031 134.859 170.85 134.859 170.662V164.062C134.859 163.874 134.934 163.693 135.067 163.56C135.2 163.426 135.381 163.351 135.57 163.351H161.472C161.66 163.352 161.841 163.428 161.973 163.561L169.383 170.967H199.815C200.004 170.967 200.185 171.042 200.318 171.176C200.451 171.309 200.526 171.49 200.526 171.678V216.123C200.526 216.217 200.507 216.309 200.47 216.396C200.434 216.482 200.381 216.56 200.314 216.626C200.247 216.692 200.168 216.744 200.082 216.779C199.995 216.814 199.902 216.831 199.808 216.83Z" fill="white"/>
<path d="M199.808 181.861H135.563C135.374 181.861 135.193 181.787 135.06 181.653C134.926 181.52 134.852 181.339 134.852 181.15C134.852 180.962 134.926 180.781 135.06 180.647C135.193 180.514 135.374 180.439 135.563 180.439H199.808C199.997 180.439 200.177 180.514 200.311 180.647C200.444 180.781 200.519 180.962 200.519 181.15C200.519 181.339 200.444 181.52 200.311 181.653C200.177 181.787 199.997 181.861 199.808 181.861Z" fill="white"/>
<path d="M206.126 210.356H199.808C199.619 210.356 199.438 210.281 199.305 210.147C199.172 210.014 199.097 209.833 199.097 209.644C199.097 209.456 199.172 209.275 199.305 209.142C199.438 209.008 199.619 208.933 199.808 208.933H205.415V165.911H175.399C175.211 165.911 175.031 165.837 174.898 165.705L167.488 158.295H142.599V164.183C142.599 164.372 142.524 164.553 142.391 164.686C142.257 164.819 142.076 164.894 141.888 164.894C141.699 164.894 141.518 164.819 141.385 164.686C141.252 164.553 141.177 164.372 141.177 164.183V157.588C141.177 157.399 141.252 157.218 141.385 157.085C141.518 156.951 141.699 156.876 141.888 156.876H167.794C167.982 156.877 168.162 156.953 168.295 157.086L175.705 164.492H206.137C206.325 164.492 206.506 164.567 206.64 164.701C206.773 164.834 206.848 165.015 206.848 165.204V209.648C206.847 209.742 206.828 209.835 206.792 209.922C206.755 210.008 206.702 210.087 206.635 210.152C206.567 210.218 206.488 210.27 206.401 210.305C206.313 210.34 206.22 210.357 206.126 210.356Z" fill="white"/>
<path d="M212.736 203.749H206.126C205.938 203.749 205.757 203.674 205.623 203.541C205.49 203.408 205.415 203.227 205.415 203.038C205.415 202.85 205.49 202.669 205.623 202.535C205.757 202.402 205.938 202.327 206.126 202.327H212.025V159.305H182.005C181.818 159.305 181.637 159.231 181.504 159.099L174.094 151.689H149.205V157.577C149.205 157.766 149.13 157.946 148.997 158.08C148.864 158.213 148.683 158.288 148.494 158.288C148.306 158.288 148.125 158.213 147.991 158.08C147.858 157.946 147.783 157.766 147.783 157.577V150.981C147.783 150.793 147.858 150.612 147.991 150.479C148.125 150.345 148.306 150.27 148.494 150.27H174.4C174.588 150.271 174.769 150.346 174.901 150.48L182.311 157.886H212.747C212.935 157.886 213.116 157.961 213.25 158.095C213.383 158.228 213.458 158.409 213.458 158.597V203.042C213.457 203.136 213.438 203.229 213.402 203.315C213.365 203.402 213.312 203.48 213.245 203.546C213.177 203.612 213.098 203.664 213.011 203.699C212.923 203.734 212.83 203.751 212.736 203.749Z" fill="white"/>
<path d="M85.6432 329.815H60.1534C59.9648 329.815 59.784 329.74 59.6506 329.607C59.5173 329.474 59.4423 329.293 59.4423 329.104C59.4423 328.916 59.5173 328.735 59.6506 328.601C59.784 328.468 59.9648 328.393 60.1534 328.393H85.6432C87.0764 328.388 88.4505 327.822 89.4699 326.814C90.4893 325.807 91.0725 324.439 91.0939 323.006V256.418L79.0726 266.53C78.9451 266.637 78.784 266.696 78.6174 266.697H10.3508C8.90604 266.701 7.52165 267.277 6.50073 268.299C5.47981 269.321 4.90554 270.706 4.90367 272.151V322.942C4.90555 324.388 5.48091 325.774 6.50347 326.796C7.52603 327.818 8.91224 328.392 10.3579 328.393H52.1534C52.342 328.393 52.5229 328.468 52.6563 328.601C52.7896 328.735 52.8646 328.916 52.8646 329.104C52.8646 329.293 52.7896 329.474 52.6563 329.607C52.5229 329.74 52.342 329.815 52.1534 329.815H10.3579C8.53534 329.813 6.78792 329.089 5.49884 327.8C4.20977 326.512 3.48427 324.765 3.48145 322.942V272.151C3.48709 270.331 4.21383 268.586 5.5026 267.3C6.79137 266.014 8.53718 265.291 10.3579 265.289H78.3579L91.3499 254.363C91.4536 254.276 91.5797 254.221 91.7135 254.204C91.8473 254.187 91.9833 254.208 92.1056 254.265C92.2279 254.322 92.3314 254.412 92.4041 254.526C92.4768 254.64 92.5157 254.772 92.5161 254.907V323.031C92.4863 324.837 91.7499 326.558 90.4649 327.827C89.1799 329.095 87.4488 329.809 85.6432 329.815Z" fill="#000091"/>
<path d="M77.2128 286.601H18.7844C18.5958 286.601 18.4149 286.526 18.2815 286.393C18.1482 286.259 18.0732 286.078 18.0732 285.89C18.0732 285.701 18.1482 285.52 18.2815 285.387C18.4149 285.254 18.5958 285.179 18.7844 285.179H77.2128C77.4014 285.179 77.5823 285.254 77.7156 285.387C77.849 285.52 77.9239 285.701 77.9239 285.89C77.9239 286.078 77.849 286.259 77.7156 286.393C77.5823 286.526 77.4014 286.601 77.2128 286.601ZM77.2128 299.22H18.7844C18.5958 299.22 18.4149 299.145 18.2815 299.011C18.1482 298.878 18.0732 298.697 18.0732 298.509C18.0732 298.32 18.1482 298.139 18.2815 298.006C18.4149 297.872 18.5958 297.797 18.7844 297.797H77.2128C77.4014 297.797 77.5823 297.872 77.7156 298.006C77.849 298.139 77.9239 298.32 77.9239 298.509C77.9239 298.697 77.849 298.878 77.7156 299.011C77.5823 299.145 77.4014 299.22 77.2128 299.22ZM61.4652 311.842H18.7986C18.61 311.842 18.4291 311.767 18.2957 311.634C18.1624 311.5 18.0875 311.319 18.0875 311.131C18.0875 310.942 18.1624 310.761 18.2957 310.628C18.4291 310.495 18.61 310.42 18.7986 310.42H61.4652C61.6538 310.42 61.8347 310.495 61.9681 310.628C62.1014 310.761 62.1763 310.942 62.1763 311.131C62.1763 311.319 62.1014 311.5 61.9681 311.634C61.8347 311.767 61.6538 311.842 61.4652 311.842Z" fill="#000091"/>
</svg>
