<svg width="410" height="369" viewBox="0 0 410 369" fill="none" xmlns="http://www.w3.org/2000/svg">
<path d="M64.169 92.3057L327.89 92.3057C334.242 92.3057 339.39 97.4526 339.39 103.804V108.23V284.952C339.39 293.746 332.258 300.875 323.459 300.875H68.6C59.8014 300.875 52.669 293.746 52.669 284.952V108.23L52.669 103.799C52.669 97.4483 57.8174 92.3057 64.169 92.3057Z" fill="#EDEDED" stroke="#000091"/>
<path d="M222.625 289.812V349.457H169.439V289.812H187.202V309.232C187.202 311.575 188.133 313.822 189.79 315.479C191.448 317.135 193.696 318.066 196.04 318.066C198.383 318.066 200.631 317.135 202.289 315.479C203.946 313.822 204.877 311.575 204.877 309.232V289.812H222.625Z" fill="#000091"/>
<path d="M52.1686 260.063H339.87V284.961C339.87 289.317 338.139 293.495 335.058 296.575C331.976 299.655 327.797 301.385 323.439 301.385L73.1724 301.431C61.5729 301.433 52.1685 292.031 52.1685 280.431L52.1686 260.063Z" fill="#000091"/>
<path d="M137.918 338.546H254.14V353.002H137.918V338.546Z" fill="#000091"/>
<path d="M196.027 286.783C199.381 286.783 202.1 284.065 202.1 280.713C202.1 277.36 199.381 274.643 196.027 274.643C192.673 274.643 189.955 277.36 189.955 280.713C189.955 284.065 192.673 286.783 196.027 286.783Z" fill="white"/>
<path d="M326.941 237.354C298.966 237.354 276.291 251.644 276.291 251.644V299.251C276.291 309.788 278.863 320.165 283.785 329.483C288.707 338.8 295.83 346.776 304.535 352.718L326.941 368.021L349.346 352.718C358.05 346.775 365.171 338.799 370.091 329.481C375.011 320.164 377.582 309.787 377.58 299.251V251.644C377.58 251.644 354.91 237.354 326.941 237.354Z" fill="white"/>
<path d="M326.388 368.828L303.982 353.53C295.143 347.5 287.911 339.403 282.915 329.944C277.919 320.484 275.309 309.948 275.313 299.251V251.644C275.312 251.477 275.354 251.313 275.435 251.168C275.515 251.022 275.632 250.9 275.773 250.811C275.998 250.669 299.011 236.375 326.942 236.375C354.872 236.375 377.875 250.669 378.11 250.811C378.251 250.9 378.368 251.022 378.448 251.168C378.529 251.313 378.571 251.477 378.571 251.644V299.251C378.573 309.948 375.963 320.483 370.966 329.943C365.97 339.402 358.739 347.499 349.901 353.53L327.495 368.828C327.332 368.94 327.139 369 326.942 369C326.744 369 326.551 368.94 326.388 368.828ZM277.271 252.192V299.251C277.27 309.63 279.804 319.852 284.654 329.029C289.503 338.206 296.522 346.061 305.099 351.91L326.956 366.836L348.809 351.91C357.38 346.057 364.392 338.201 369.236 329.024C374.079 319.847 376.608 309.627 376.602 299.251V252.192C373.262 250.234 352.115 238.333 326.932 238.333C301.749 238.333 280.612 250.219 277.271 252.192Z" fill="#18753C"/>
<path d="M308.644 346.711C300.917 341.439 294.594 334.36 290.226 326.09C285.858 317.82 283.576 308.608 283.579 299.256V255.908C290.563 252.266 307.508 244.648 326.941 244.648C346.374 244.648 363.31 252.27 370.303 255.908V299.251C370.31 308.602 368.031 317.814 363.667 326.085C359.302 334.356 352.983 341.436 345.258 346.711L326.941 359.204L308.644 346.711Z" fill="#FCC63A"/>
<path d="M299.904 292.816L307.197 285.526L328.532 306.853L321.239 314.143L299.904 292.816Z" fill="#18753C"/>
<path d="M346.684 274.135L353.977 281.425L321.241 314.147L313.948 306.857L346.684 274.135Z" fill="#18753C"/>
<path d="M377.638 235.156C377.493 235.159 377.35 235.129 377.218 235.069C377.086 235.009 376.969 234.921 376.875 234.81C376.781 234.7 376.713 234.57 376.676 234.43C376.639 234.29 376.633 234.144 376.659 234.001L379.509 218.453C379.527 218.322 379.571 218.196 379.639 218.082C379.707 217.968 379.797 217.869 379.904 217.791C380.012 217.714 380.134 217.658 380.263 217.629C380.392 217.599 380.526 217.597 380.656 217.621C380.787 217.644 380.911 217.694 381.022 217.768C381.132 217.841 381.226 217.936 381.299 218.047C381.372 218.158 381.421 218.282 381.444 218.413C381.468 218.543 381.464 218.677 381.434 218.806L378.603 234.339C378.565 234.567 378.447 234.774 378.27 234.924C378.094 235.074 377.87 235.156 377.638 235.156ZM387.805 239.964C387.618 239.965 387.434 239.912 387.275 239.811C387.117 239.71 386.991 239.567 386.912 239.396C386.833 239.226 386.805 239.037 386.83 238.851C386.856 238.665 386.934 238.491 387.056 238.348L397.282 226.31C397.358 226.193 397.459 226.094 397.577 226.019C397.695 225.944 397.827 225.895 397.966 225.875C398.104 225.855 398.245 225.866 398.379 225.905C398.513 225.944 398.637 226.012 398.743 226.103C398.849 226.195 398.934 226.307 398.993 226.434C399.051 226.561 399.082 226.699 399.083 226.839C399.083 226.979 399.054 227.117 398.997 227.245C398.94 227.372 398.856 227.486 398.751 227.578L388.55 239.616C388.458 239.724 388.344 239.812 388.216 239.872C388.087 239.932 387.947 239.963 387.805 239.964ZM392.551 249.784C392.321 249.783 392.098 249.702 391.922 249.554C391.746 249.406 391.627 249.2 391.587 248.974C391.548 248.747 391.589 248.513 391.704 248.314C391.82 248.115 392.002 247.963 392.218 247.884L408.752 241.976C408.991 241.907 409.248 241.933 409.469 242.047C409.69 242.16 409.86 242.354 409.943 242.588C410.027 242.823 410.018 243.08 409.918 243.308C409.819 243.536 409.637 243.718 409.408 243.816C391.782 250.136 392.811 249.784 392.551 249.784Z" fill="#18753C"/>
<g clip-path="url(#clip0_505_8330)" filter="url(#filter0_d_505_8330)">
<path d="M253.493 157.401L256.396 197.757L263.761 204.478L260.945 163.781L253.493 157.401Z" fill="white"/>
<path d="M106.33 209.473L113.666 216.307L262.318 205.623L254.834 198.799L106.33 209.473Z" fill="white"/>
<path d="M251.576 156.61L102.665 167.312L105.57 207.705L254.482 197.003L251.576 156.61Z" fill="#000091"/>
<path d="M253.331 154.625L100.681 165.596L103.853 209.688L113.209 218.236L113.243 218.196L265.819 207.231L262.65 163.176L253.331 154.625ZM102.664 167.312L251.576 156.61L254.482 197.003L105.57 207.705L102.664 167.312ZM113.666 216.307L106.33 209.472L254.834 198.799L262.318 205.623L113.666 216.307ZM263.761 204.478L256.396 197.757L253.493 157.401L260.945 163.782L263.761 204.478Z" fill="#000091"/>
<path d="M222.483 205.14L222.685 207.951L224.192 209.256L230.544 219.991L241.725 219.262L242.926 216.312L243.995 212.034L243.292 202.269L241.822 200.962L238.909 199.758L234.628 198.69L230.447 198.991L229.944 192L227.168 192.199L228.273 207.55L225.258 204.941L222.483 205.14Z" fill="white"/>
<path d="M225.762 192.3L227.168 192.199L228.273 207.55L226.866 207.651L226.765 206.245L225.359 206.346L225.258 204.941L226.664 204.839L225.762 192.3ZM243.292 202.269L243.995 212.034L245.401 211.933L244.699 202.168L243.292 202.269ZM220.978 203.872L221.279 208.052L222.685 207.951L222.485 205.177L225.261 204.978L225.16 203.572L220.978 203.872ZM225.761 211.932L225.561 209.157L224.155 209.258L224.355 212.033L225.761 211.932ZM227.367 214.605L227.167 211.831L225.761 211.932L225.96 214.706L227.367 214.605ZM228.975 217.315L229.276 221.495L243.227 220.492L242.926 216.312L241.52 216.413L241.72 219.188L230.544 219.991L230.344 217.217L228.975 217.315L228.776 214.541L227.369 214.642L227.569 217.416L228.975 217.315ZM242.926 216.312L244.333 216.211L244.032 212.031L242.626 212.132L242.926 216.312ZM224.192 209.256L224.091 207.85L222.685 207.951L222.786 209.357L224.192 209.256ZM241.822 200.961L241.923 202.367L243.329 202.266L243.228 200.86L241.822 200.961ZM238.909 199.758L239.31 205.343L240.717 205.242L240.416 201.063L241.822 200.961L241.721 199.556L238.909 199.758ZM234.628 198.69L235.03 204.275L236.436 204.174L236.136 199.994L238.911 199.795L238.81 198.389L234.628 198.69ZM231.752 197.484L231.35 191.898L229.944 191.999L230.846 204.539L232.252 204.438L231.85 198.852L234.626 198.653L234.525 197.247L231.749 197.447L231.752 197.484ZM227.067 190.793L227.168 192.199L229.944 191.999L229.843 190.594L227.067 190.793Z" fill="#000091"/>
<path d="M152.228 182.236L152.936 181.479C153.234 181.799 153.553 182.04 153.884 182.195C154.222 182.349 154.577 182.413 154.939 182.387C155.365 182.356 155.682 182.215 155.894 181.958C156.114 181.704 156.214 181.396 156.189 181.04C156.159 180.622 155.943 180.314 155.538 180.113C155.133 179.904 154.694 179.698 154.215 179.502C153.742 179.298 153.304 179.039 152.891 178.734C152.479 178.429 152.252 177.966 152.207 177.348C152.187 177.067 152.223 176.793 152.316 176.534C152.409 176.267 152.548 176.03 152.738 175.83C152.924 175.624 153.154 175.455 153.419 175.32C153.692 175.189 153.996 175.112 154.321 175.088C154.873 175.048 155.359 175.133 155.787 175.343C156.214 175.543 156.584 175.825 156.903 176.182L156.171 176.918C155.919 176.609 155.641 176.376 155.348 176.226C155.061 176.069 154.744 176.002 154.404 176.027C154.037 176.053 153.753 176.185 153.547 176.423C153.348 176.653 153.26 176.931 153.283 177.249C153.313 177.667 153.529 177.978 153.934 178.187C154.339 178.389 154.774 178.595 155.247 178.799C155.726 178.995 156.168 179.25 156.581 179.555C156.993 179.86 157.22 180.327 157.265 180.952C157.288 181.277 157.247 181.585 157.141 181.868C157.042 182.143 156.892 182.388 156.688 182.596C156.494 182.803 156.25 182.969 155.961 183.098C155.68 183.222 155.366 183.297 155.025 183.321C154.444 183.363 153.926 183.293 153.474 183.11C153.018 182.927 152.606 182.633 152.232 182.236L152.228 182.236ZM159.063 177.975L158.182 178.038L158.915 174.981L159.999 174.903L159.063 177.975ZM162.061 175.484C161.876 175.497 161.712 175.446 161.566 175.33C161.431 175.206 161.356 175.051 161.343 174.862C161.329 174.674 161.382 174.529 161.498 174.39C161.622 174.247 161.776 174.169 161.965 174.156C162.154 174.142 162.31 174.198 162.449 174.322C162.584 174.438 162.658 174.586 162.671 174.767C162.684 174.948 162.633 175.115 162.517 175.261C162.4 175.396 162.249 175.47 162.061 175.484ZM162.093 182.602L161.688 176.979L162.636 176.911L163.04 182.533L162.093 182.602ZM164.363 179.613C164.333 179.202 164.372 178.813 164.479 178.437C164.593 178.053 164.762 177.717 164.99 177.426C165.222 177.134 165.513 176.89 165.857 176.702C166.2 176.514 166.594 176.403 167.035 176.372C167.438 176.343 167.81 176.39 168.157 176.514C168.508 176.63 168.823 176.82 169.094 177.075L168.851 173.705L169.799 173.637L170.401 182.004L169.453 182.073L169.408 181.447C169.176 181.739 168.892 181.972 168.561 182.137C168.239 182.309 167.874 182.409 167.471 182.438C167.031 182.47 166.629 182.417 166.258 182.28C165.887 182.143 165.568 181.943 165.297 181.687C165.033 181.431 164.813 181.123 164.647 180.771C164.487 180.407 164.392 180.023 164.363 179.613ZM165.369 179.54C165.39 179.836 165.459 180.114 165.574 180.366C165.688 180.618 165.838 180.838 166.026 181.018C166.217 181.197 166.443 181.333 166.695 181.43C166.948 181.528 167.226 181.56 167.522 181.538C167.91 181.511 168.259 181.396 168.576 181.195C168.888 180.987 169.143 180.704 169.334 180.356L169.176 178.17C168.93 177.846 168.633 177.603 168.295 177.449C167.956 177.295 167.595 177.231 167.214 177.259C166.918 177.28 166.648 177.355 166.412 177.484C166.175 177.612 165.972 177.779 165.808 177.988C165.652 178.193 165.535 178.432 165.454 178.698C165.376 178.964 165.348 179.248 165.369 179.544L165.369 179.54ZM177.336 180.577C177.102 180.947 176.781 181.248 176.382 181.485C175.986 181.722 175.531 181.859 175.009 181.896C174.539 181.93 174.108 181.879 173.707 181.745C173.315 181.609 172.977 181.41 172.69 181.156C172.412 180.901 172.185 180.593 172.018 180.241C171.851 179.878 171.753 179.494 171.723 179.084C171.694 178.673 171.731 178.258 171.837 177.875C171.943 177.491 172.109 177.16 172.327 176.876C172.551 176.585 172.835 176.345 173.172 176.165C173.52 175.984 173.907 175.878 174.34 175.847C174.721 175.819 175.069 175.858 175.389 175.961C175.709 176.057 175.987 176.204 176.217 176.407C176.455 176.606 176.648 176.856 176.788 177.151C176.928 177.438 177.01 177.759 177.035 178.107C177.043 178.218 177.044 178.329 177.037 178.441C177.03 178.546 177.021 178.636 177.012 178.711L172.704 179.021L172.706 179.043C172.75 179.661 172.98 180.161 173.398 180.54C173.823 180.915 174.344 181.078 174.969 181.033C175.328 181.007 175.645 180.91 175.923 180.741C176.2 180.565 176.426 180.341 176.593 180.076L177.335 180.573L177.336 180.577ZM174.405 176.66C173.95 176.693 173.578 176.846 173.282 177.124C172.989 177.398 172.801 177.783 172.725 178.275L176.063 178.036C176.019 177.633 175.846 177.3 175.541 177.032C175.246 176.756 174.865 176.631 174.402 176.664L174.405 176.66ZM178.886 181.395L178.482 175.772L179.429 175.704L179.475 176.34C179.686 176.072 179.938 175.846 180.223 175.669C180.514 175.485 180.871 175.377 181.289 175.347C181.915 175.302 182.451 175.472 182.896 175.86C183.352 176.248 183.606 176.835 183.663 177.634L183.908 181.037L182.95 181.106L182.707 177.737C182.671 177.237 182.514 176.862 182.231 176.603C181.952 176.341 181.594 176.221 181.165 176.252C180.761 176.281 180.432 176.409 180.173 176.636C179.921 176.855 179.713 177.123 179.557 177.431L179.837 181.326L178.89 181.394L178.886 181.395ZM186.008 178.99L185.801 176.124L184.739 176.2L184.677 175.331L185.739 175.254L185.638 173.849L186.596 173.78L186.697 175.185L188.651 175.045L188.714 175.914L186.76 176.055L186.966 178.921C186.998 179.362 187.119 179.65 187.33 179.791C187.548 179.932 187.831 179.989 188.172 179.965C188.357 179.952 188.515 179.929 188.651 179.897C188.782 179.865 188.898 179.824 189.002 179.771L189.063 180.619C188.934 180.68 188.792 180.727 188.635 180.761C188.481 180.802 188.305 180.829 188.101 180.844C187.476 180.889 186.98 180.765 186.616 180.467C186.259 180.166 186.053 179.671 186.004 178.987L186.008 178.99ZM190.478 173.441C190.292 173.455 190.129 173.403 189.983 173.287C189.847 173.163 189.773 173.009 189.76 172.82C189.746 172.631 189.799 172.486 189.915 172.348C190.039 172.205 190.193 172.127 190.382 172.113C190.571 172.1 190.727 172.156 190.866 172.279C191.001 172.396 191.075 172.543 191.088 172.724C191.101 172.906 191.05 173.073 190.934 173.219C190.817 173.354 190.666 173.428 190.478 173.441ZM190.506 180.559L190.102 174.937L191.049 174.869L191.453 180.491L190.506 180.559ZM192.322 174.777L193.384 174.701L193.334 174.009C193.291 173.406 193.437 172.901 193.776 172.498C194.111 172.083 194.582 171.856 195.185 171.813C195.496 171.79 195.781 171.822 196.032 171.908C196.284 171.987 196.5 172.101 196.675 172.256L196.133 172.99C196.028 172.886 195.904 172.806 195.754 172.75C195.616 172.685 195.447 172.66 195.254 172.674C194.947 172.696 194.703 172.818 194.518 173.039C194.34 173.26 194.265 173.556 194.291 173.918L194.342 174.632L196.296 174.492L196.359 175.361L194.405 175.501L194.747 180.255L193.788 180.324L193.446 175.57L192.384 175.647L192.322 174.777ZM197.823 172.913C197.638 172.927 197.471 172.876 197.329 172.759C197.193 172.635 197.119 172.481 197.105 172.292C197.092 172.103 197.144 171.958 197.261 171.82C197.385 171.677 197.539 171.599 197.728 171.585C197.916 171.572 198.073 171.628 198.212 171.751C198.347 171.868 198.421 172.015 198.434 172.197C198.447 172.378 198.396 172.545 198.28 172.691C198.163 172.826 198.012 172.9 197.823 172.913ZM197.855 180.031L197.451 174.409L198.398 174.341L198.803 179.963L197.855 180.031ZM205.741 178.535C205.508 178.905 205.187 179.207 204.788 179.444C204.392 179.68 203.937 179.817 203.415 179.855C202.945 179.889 202.513 179.838 202.113 179.703C201.72 179.568 201.382 179.369 201.096 179.114C200.817 178.859 200.591 178.552 200.424 178.2C200.257 177.836 200.158 177.453 200.129 177.042C200.099 176.632 200.136 176.216 200.243 175.833C200.349 175.45 200.511 175.118 200.733 174.835C200.957 174.543 201.241 174.304 201.578 174.123C201.926 173.942 202.312 173.836 202.745 173.805C203.126 173.778 203.475 173.816 203.795 173.919C204.114 174.015 204.393 174.163 204.623 174.366C204.861 174.564 205.053 174.814 205.194 175.109C205.333 175.396 205.416 175.718 205.441 176.065C205.449 176.176 205.45 176.288 205.443 176.4C205.435 176.505 205.427 176.594 205.417 176.669L201.11 176.979L201.112 177.001C201.156 177.619 201.385 178.119 201.803 178.498C202.228 178.873 202.75 179.036 203.375 178.991C203.734 178.966 204.051 178.868 204.329 178.7C204.606 178.524 204.832 178.299 204.999 178.034L205.741 178.531L205.741 178.535ZM202.811 174.618C202.356 174.651 201.984 174.804 201.688 175.082C201.395 175.356 201.207 175.741 201.131 176.234L204.469 175.994C204.425 175.592 204.252 175.259 203.946 174.99C203.651 174.714 203.27 174.589 202.808 174.622L202.811 174.618ZM207.292 179.353L206.887 173.731L207.835 173.663L207.885 174.365C208.075 174.106 208.297 173.89 208.546 173.723C208.802 173.556 209.111 173.459 209.466 173.434C209.555 173.427 209.641 173.429 209.723 173.438C209.805 173.439 209.88 173.449 209.948 173.466L210.019 174.446C209.936 174.43 209.849 174.417 209.759 174.409C209.67 174.401 209.569 174.4 209.458 174.408C209.095 174.434 208.791 174.546 208.552 174.741C208.313 174.929 208.115 175.174 207.965 175.468L208.239 179.285L207.292 179.353ZM216.293 178.933C215.742 178.973 215.287 178.86 214.922 178.593C214.561 178.329 214.359 177.949 214.323 177.457C214.292 177.024 214.422 176.651 214.715 176.328C215.012 176.01 215.46 175.777 216.056 175.637L217.921 175.191L217.893 174.799C217.865 174.41 217.717 174.12 217.447 173.924C217.18 173.727 216.846 173.643 216.454 173.671C216.125 173.695 215.834 173.787 215.577 173.946C215.328 174.098 215.127 174.302 214.982 174.562L214.228 174.066C214.448 173.715 214.748 173.426 215.119 173.206C215.49 172.986 215.923 172.858 216.415 172.823C217.129 172.771 217.702 172.924 218.13 173.283C218.56 173.635 218.796 174.117 218.84 174.734L219.112 178.504L218.164 178.572L218.113 177.858C217.927 178.169 217.67 178.421 217.348 178.608C217.027 178.795 216.674 178.902 216.293 178.929L216.293 178.933ZM215.272 177.355C215.289 177.592 215.4 177.789 215.604 177.938C215.808 178.087 216.073 178.149 216.391 178.126C216.765 178.1 217.088 177.983 217.363 177.778C217.646 177.572 217.875 177.298 218.045 176.967L217.968 175.894L216.327 176.302C215.946 176.389 215.666 176.524 215.493 176.707C215.328 176.89 215.254 177.108 215.272 177.352L215.272 177.355ZM219.732 172.807L220.757 172.734L222.889 177.236L224.354 172.475L225.379 172.402L223.586 178.182L222.335 178.272L219.732 172.807ZM231.79 176.663C231.556 177.033 231.236 177.335 230.836 177.572C230.44 177.808 229.985 177.945 229.463 177.983C228.993 178.016 228.562 177.966 228.162 177.831C227.769 177.695 227.431 177.497 227.145 177.242C226.866 176.987 226.639 176.68 226.473 176.327C226.305 175.964 226.207 175.581 226.177 175.17C226.148 174.759 226.185 174.344 226.291 173.961C226.398 173.578 226.56 173.246 226.781 172.963C227.006 172.671 227.29 172.432 227.626 172.251C227.974 172.07 228.361 171.964 228.794 171.933C229.175 171.906 229.524 171.944 229.843 172.047C230.163 172.143 230.441 172.291 230.672 172.493C230.909 172.692 231.102 172.942 231.242 173.237C231.382 173.524 231.464 173.846 231.489 174.193C231.497 174.304 231.498 174.416 231.491 174.528C231.484 174.632 231.475 174.722 231.466 174.797L227.158 175.107L227.16 175.129C227.205 175.747 227.434 176.247 227.852 176.626C228.277 177.001 228.798 177.164 229.423 177.119C229.782 177.093 230.099 176.996 230.377 176.828C230.655 176.651 230.88 176.427 231.047 176.162L231.79 176.659L231.79 176.663ZM228.863 172.746C228.408 172.779 228.036 172.932 227.74 173.21C227.447 173.484 227.259 173.869 227.183 174.361L230.521 174.122C230.477 173.719 230.304 173.386 229.999 173.118C229.704 172.842 229.323 172.717 228.86 172.75L228.863 172.746ZM235.864 176.627C236.205 176.602 236.51 176.506 236.773 176.338C237.036 176.163 237.247 175.94 237.399 175.676L238.199 176.202C237.966 176.572 237.652 176.874 237.268 177.109C236.879 177.346 236.431 177.482 235.917 177.519C235.455 177.552 235.031 177.501 234.638 177.365C234.245 177.23 233.907 177.031 233.621 176.777C233.342 176.522 233.112 176.215 232.938 175.863C232.77 175.499 232.672 175.116 232.642 174.705C232.613 174.295 232.655 173.905 232.77 173.529C232.891 173.144 233.071 172.808 233.314 172.515C233.561 172.223 233.871 171.977 234.236 171.787C234.602 171.597 235.018 171.486 235.481 171.452C235.988 171.416 236.447 171.491 236.866 171.676C237.291 171.854 237.644 172.108 237.928 172.429L237.211 173.064C237.023 172.825 236.779 172.638 236.487 172.51C236.198 172.375 235.885 172.319 235.545 172.344C235.245 172.365 234.972 172.441 234.72 172.57C234.477 172.7 234.269 172.867 234.106 173.076C233.942 173.281 233.814 173.521 233.729 173.787C233.644 174.053 233.613 174.338 233.634 174.634C233.655 174.93 233.728 175.211 233.85 175.47C233.973 175.721 234.13 175.941 234.325 176.12C234.523 176.292 234.752 176.424 235.016 176.52C235.275 176.613 235.561 176.648 235.864 176.627ZM153.677 194.424L153.083 186.157L155.814 185.96C156.72 185.895 157.451 186.066 158 186.469C158.561 186.871 158.867 187.455 158.922 188.221C158.977 188.986 158.757 189.593 158.26 190.072C157.769 190.549 157.075 190.822 156.168 190.887L155.117 190.963L155.358 194.307L153.681 194.427L153.677 194.424ZM155.987 187.379L154.865 187.46L155.014 189.528L156.135 189.447C156.491 189.422 156.758 189.313 156.945 189.118C157.135 188.922 157.22 188.655 157.196 188.315C157.173 188.001 157.052 187.76 156.835 187.594C156.626 187.426 156.342 187.358 155.987 187.383L155.987 187.379ZM160.505 193.933L160.077 187.978L161.579 187.87L161.622 188.462C161.804 188.252 162.017 188.069 162.26 187.918C162.508 187.758 162.803 187.667 163.144 187.642C163.247 187.635 163.34 187.635 163.43 187.644C163.516 187.653 163.599 187.669 163.671 187.686L163.784 189.258C163.686 189.243 163.585 189.228 163.473 189.221C163.368 189.214 163.249 189.215 163.116 189.224C162.753 189.25 162.456 189.354 162.224 189.538C161.999 189.721 161.837 189.907 161.739 190.097L162.008 193.829L160.505 193.937L160.505 193.933ZM167.535 187.204C168.016 187.169 168.462 187.223 168.878 187.368C169.294 187.505 169.65 187.706 169.956 187.978C170.269 188.242 170.515 188.562 170.703 188.947C170.891 189.331 170.998 189.74 171.03 190.184C171.062 190.628 171.014 191.047 170.883 191.455C170.752 191.858 170.555 192.218 170.284 192.531C170.012 192.845 169.695 193.087 169.304 193.29C168.913 193.485 168.478 193.598 167.997 193.633C167.516 193.667 167.07 193.618 166.655 193.48C166.239 193.335 165.878 193.131 165.566 192.871C165.26 192.599 165.017 192.274 164.829 191.89C164.642 191.509 164.534 191.097 164.502 190.653C164.47 190.209 164.518 189.789 164.649 189.382C164.78 188.978 164.974 188.622 165.238 188.317C165.502 188.012 165.837 187.75 166.229 187.558C166.619 187.355 167.054 187.238 167.535 187.204ZM167.917 192.211C168.391 192.177 168.775 191.978 169.076 191.618C169.373 191.247 169.505 190.806 169.468 190.296C169.432 189.785 169.237 189.357 168.891 189.044C168.544 188.726 168.133 188.589 167.659 188.623C167.163 188.658 166.761 188.858 166.456 189.219C166.158 189.582 166.027 190.023 166.064 190.541C166.101 191.059 166.295 191.48 166.641 191.793C166.995 192.11 167.421 192.246 167.917 192.211ZM176.555 191.437C177.028 191.403 177.439 191.27 177.787 191.04C178.142 190.803 178.425 190.504 178.638 190.146L180.036 191.068C179.695 191.606 179.236 192.052 178.659 192.402C178.081 192.752 177.419 192.956 176.671 193.009C176.024 193.056 175.423 192.98 174.862 192.782C174.301 192.585 173.812 192.304 173.399 191.939C172.986 191.575 172.653 191.134 172.4 190.621C172.151 190.099 172.003 189.545 171.961 188.953C171.918 188.361 171.985 187.795 172.158 187.255C172.331 186.703 172.597 186.219 172.957 185.795C173.314 185.376 173.757 185.024 174.285 184.752C174.812 184.476 175.399 184.315 176.043 184.269C176.79 184.215 177.475 184.326 178.097 184.597C178.719 184.861 179.236 185.229 179.649 185.697L178.399 186.821C178.137 186.498 177.814 186.249 177.43 186.073C177.052 185.888 176.626 185.811 176.152 185.845C175.767 185.872 175.414 185.972 175.092 186.148C174.772 186.312 174.502 186.532 174.283 186.801C174.071 187.061 173.911 187.37 173.803 187.728C173.694 188.077 173.654 188.448 173.682 188.84C173.71 189.233 173.804 189.601 173.962 189.936C174.12 190.267 174.322 190.546 174.57 190.784C174.824 191.012 175.123 191.187 175.463 191.315C175.803 191.432 176.167 191.477 176.555 191.449L176.555 191.437ZM183.669 186.044C184.15 186.01 184.597 186.063 185.013 186.208C185.428 186.345 185.785 186.547 186.091 186.818C186.404 187.082 186.65 187.403 186.837 187.787C187.025 188.172 187.133 188.58 187.165 189.024C187.196 189.468 187.149 189.888 187.018 190.295C186.887 190.699 186.69 191.059 186.418 191.372C186.147 191.685 185.83 191.927 185.439 192.13C185.047 192.326 184.613 192.439 184.132 192.473C183.651 192.508 183.205 192.458 182.789 192.32C182.373 192.176 182.013 191.971 181.7 191.711C181.394 191.439 181.151 191.115 180.964 190.73C180.776 190.35 180.669 189.937 180.637 189.493C180.605 189.049 180.653 188.63 180.783 188.222C180.914 187.819 181.108 187.463 181.373 187.157C181.637 186.852 181.972 186.59 182.363 186.398C182.754 186.196 183.188 186.079 183.669 186.044ZM184.052 191.051C184.526 191.017 184.909 190.818 185.211 190.458C185.508 190.088 185.64 189.647 185.603 189.136C185.566 188.626 185.372 188.197 185.026 187.884C184.679 187.567 184.267 187.429 183.794 187.463C183.298 187.499 182.896 187.699 182.591 188.059C182.293 188.422 182.161 188.863 182.198 189.381C182.236 189.899 182.43 190.32 182.776 190.633C183.13 190.95 183.556 191.087 184.052 191.051ZM188.744 191.904L188.316 185.948L189.818 185.84L189.852 186.314C190.042 186.103 190.274 185.919 190.549 185.765C190.832 185.604 191.167 185.509 191.563 185.481C191.885 185.458 192.189 185.491 192.474 185.582C192.767 185.673 193.023 185.822 193.243 186.025C193.469 186.232 193.656 186.494 193.798 186.818C193.948 187.139 194.038 187.522 194.07 187.963L194.325 191.506L192.8 191.616L192.55 188.131C192.521 187.739 192.392 187.433 192.164 187.222C191.944 187 191.65 186.902 191.288 186.928C190.925 186.954 190.618 187.08 190.411 187.3C190.214 187.511 190.065 187.715 189.967 187.912L190.247 191.799L188.745 191.907L188.744 191.904ZM196.027 191.38L195.599 185.425L197.101 185.317L197.135 185.79C197.325 185.58 197.557 185.396 197.832 185.242C198.114 185.08 198.45 184.986 198.846 184.957C199.168 184.934 199.471 184.968 199.757 185.059C200.05 185.15 200.306 185.298 200.525 185.502C200.752 185.709 200.938 185.971 201.081 186.295C201.23 186.615 201.321 186.999 201.353 187.439L201.608 190.983L200.083 191.092L199.832 187.608C199.804 187.216 199.674 186.909 199.447 186.699C199.227 186.477 198.933 186.379 198.57 186.405C198.208 186.431 197.901 186.557 197.693 186.776C197.496 186.988 197.348 187.192 197.25 187.388L197.53 191.276L196.027 191.384L196.027 191.38ZM208.724 189.494C208.473 189.883 208.136 190.205 207.7 190.459C207.268 190.702 206.768 190.846 206.21 190.886C205.68 190.924 205.204 190.873 204.774 190.729C204.35 190.585 203.989 190.377 203.684 190.109C203.385 189.836 203.15 189.515 202.974 189.137C202.805 188.755 202.705 188.346 202.674 187.913C202.643 187.48 202.679 187.054 202.785 186.66C202.897 186.257 203.076 185.899 203.314 185.588C203.552 185.277 203.854 185.025 204.223 184.835C204.588 184.634 205.015 184.518 205.503 184.482C206.321 184.424 207.002 184.628 207.545 185.094C208.084 185.554 208.382 186.176 208.437 186.952C208.449 187.119 208.449 187.275 208.434 187.428C208.43 187.578 208.417 187.709 208.402 187.81L204.232 188.11C204.315 188.595 204.527 188.962 204.869 189.217C205.211 189.471 205.636 189.578 206.139 189.542C206.461 189.519 206.749 189.435 206.999 189.29C207.248 189.139 207.447 188.95 207.587 188.724L208.725 189.497L208.724 189.494ZM205.589 185.729C205.227 185.755 204.93 185.873 204.7 186.08C204.468 186.278 204.315 186.576 204.239 186.968L206.922 186.775C206.893 186.483 206.76 186.233 206.522 186.019C206.294 185.798 205.982 185.701 205.586 185.73L205.589 185.729ZM212.883 188.979C213.176 188.958 213.426 188.877 213.639 188.735C213.859 188.585 214.032 188.402 214.158 188.188L215.419 189.012C215.167 189.395 214.837 189.712 214.419 189.962C214.01 190.214 213.533 190.356 212.989 190.395C212.478 190.432 212.009 190.38 211.586 190.236C211.163 190.092 210.802 189.883 210.496 189.615C210.198 189.343 209.963 189.022 209.787 188.644C209.61 188.262 209.503 187.854 209.472 187.421C209.441 186.988 209.485 186.572 209.609 186.177C209.729 185.774 209.919 185.414 210.172 185.102C210.436 184.79 210.763 184.532 211.161 184.332C211.56 184.129 212.012 184.011 212.527 183.974C213.071 183.935 213.564 184.011 214.005 184.199C214.454 184.389 214.83 184.652 215.13 184.995L214 185.991C213.845 185.798 213.648 185.645 213.409 185.535C213.178 185.418 212.91 185.37 212.603 185.393C212.114 185.428 211.72 185.627 211.422 185.987C211.124 186.35 210.992 186.791 211.03 187.309C211.067 187.827 211.261 188.248 211.607 188.561C211.961 188.878 212.387 189.015 212.883 188.979ZM216.882 187.695L216.709 185.287L215.599 185.367L215.501 183.998L216.611 183.918L216.504 182.431L218.017 182.323L218.124 183.81L219.945 183.679L220.044 185.047L218.223 185.178L218.396 187.586C218.42 187.915 218.518 188.146 218.695 188.279C218.879 188.407 219.117 188.46 219.406 188.44C219.609 188.425 219.783 188.401 219.925 188.365C220.064 188.333 220.184 188.291 220.285 188.243L220.379 189.552C220.235 189.625 220.068 189.686 219.882 189.729C219.703 189.775 219.493 189.805 219.249 189.823C218.509 189.876 217.943 189.716 217.551 189.339C217.16 188.962 216.938 188.412 216.886 187.687L216.882 187.695Z" fill="white"/>
<path d="M138.248 179.991L128.908 175.45L120.318 181.332C120.265 181.369 120.224 181.417 120.195 181.475C120.165 181.533 120.155 181.597 120.16 181.66L120.888 191.787C120.893 191.85 120.919 191.912 120.956 191.961C120.994 192.014 121.041 192.055 121.096 192.085L130.428 196.579L139.02 190.73C139.07 190.693 139.11 190.641 139.14 190.587C139.169 190.529 139.184 190.469 139.179 190.406L138.452 180.293C138.447 180.23 138.428 180.168 138.39 180.115C138.353 180.062 138.306 180.021 138.248 179.991Z" fill="#000091"/>
<path d="M126.102 181.165L123.464 186.538L120.346 181.252L123.435 179.159L126.254 180.857L126.102 181.169L126.102 181.165ZM139.184 190.424L138.455 180.289C138.451 180.226 138.428 180.164 138.394 180.111C138.357 180.058 138.309 180.016 138.251 179.987L128.915 175.445" fill="#FCC63A"/>
<path d="M120.888 191.739L128.912 175.45L130.432 196.582L121.096 192.085C121.041 192.055 120.993 192.01 120.956 191.961C120.919 191.908 120.896 191.85 120.888 191.787L120.16 181.66L120.885 191.743L120.888 191.739ZM134.748 178.287L138.147 179.939L135.858 185.599L132.241 180.312L134.751 178.287L134.748 178.287Z" fill="#0063CB"/>
<path d="M140.888 178.124L128.939 172.365C128.859 172.333 128.772 172.317 128.687 172.323C128.602 172.329 128.518 172.354 128.443 172.4L117.441 179.809C117.374 179.859 117.323 179.926 117.288 180.002C117.253 180.079 117.236 180.159 117.238 180.244L118.184 193.394C118.19 193.479 118.222 193.558 118.268 193.626C118.314 193.697 118.377 193.752 118.448 193.795L130.393 199.555C130.473 199.586 130.56 199.602 130.645 199.596C130.73 199.59 130.814 199.565 130.889 199.519L141.891 192.11C141.958 192.057 142.009 191.994 142.044 191.917C142.08 191.84 142.096 191.757 142.094 191.675L141.148 178.526C141.138 178.444 141.11 178.365 141.064 178.294C141.018 178.223 140.955 178.168 140.885 178.124L140.888 178.124ZM124.422 189.971L124.47 189.968C124.444 189.97 124.422 189.975 124.424 190.001C124.428 190.06 124.513 189.994 124.546 190.051C124.406 190.065 124.273 190.134 124.181 190.245C124.183 190.275 124.242 190.27 124.272 190.268C124.232 190.331 124.137 190.308 124.112 190.369C124.128 190.383 124.151 190.392 124.173 190.394C124.143 190.396 124.114 190.399 124.116 190.428L124.122 190.517C124.048 190.522 124.023 190.584 123.962 190.618C124.087 190.698 124.158 190.604 124.277 190.595C123.971 190.736 123.727 190.921 123.416 191.036C123.357 191.04 123.422 191.125 123.363 191.129C123.456 191.182 123.498 191.09 123.587 191.083C123.211 191.337 122.821 191.559 122.418 191.848C122.387 191.883 122.371 191.925 122.367 191.97L122.249 191.979C122.192 192.013 122.226 192.085 122.172 192.152C122.315 192.231 122.463 192.012 122.564 192.124C122.594 192.121 122.507 192.157 122.448 192.162C122.418 192.164 122.422 192.223 122.393 192.225L122.3 192.232C122.244 192.28 122.187 192.314 122.194 192.407C122.168 192.405 122.142 192.41 122.117 192.42C122.092 192.433 122.074 192.452 122.061 192.476C122.705 192.429 123.333 192.265 123.916 191.997C124.366 191.726 124.765 191.382 125.096 190.975C125.112 190.989 125.125 191.01 125.13 191.032C125.06 191.301 124.91 191.539 124.695 191.71C124.535 191.811 124.427 191.956 124.298 192.025C124.212 192.079 124.131 192.141 124.054 192.21C123.685 192.355 123.303 192.465 122.914 192.541L122.735 192.58C122.603 192.608 122.467 192.64 122.339 192.671L121.099 192.076C121.053 192.054 121.013 192.019 120.98 191.977C120.948 191.939 120.922 191.892 120.907 191.841C120.925 191.829 120.942 191.816 120.96 191.8C120.94 191.783 120.917 191.77 120.89 191.764L120.862 191.376C121.48 191.22 122.077 190.987 122.639 190.683C122.064 190.341 121.426 190.112 120.764 190.011L120.699 189.105C121.036 189.136 121.367 189.19 121.696 189.267C121.951 189.342 122.196 189.439 122.428 189.56C122.523 189.639 122.625 189.706 122.729 189.766C122.806 189.801 122.886 189.821 122.971 189.819C123.053 189.817 123.137 189.799 123.212 189.761L123.409 189.746C123.833 189.645 124.219 189.428 124.528 189.123C124.53 189.153 124.56 189.151 124.589 189.149C124.558 189.389 124.49 189.624 124.383 189.844C124.385 189.873 124.36 189.938 124.425 189.963L124.422 189.971ZM126.259 191.984C126.406 191.914 126.487 191.801 126.62 191.732C126.593 191.763 126.597 191.823 126.569 191.854C126.463 191.933 126.362 192.022 126.272 192.117C125.957 192.441 125.662 192.782 125.394 193.147C125.255 193.336 125.104 193.514 124.953 193.692C124.898 193.752 124.842 193.804 124.779 193.853L123.207 193.096C123.423 193.099 123.64 193.072 123.848 193.017C124.023 192.956 124.188 192.877 124.345 192.784L124.349 192.843C124.755 192.646 125.047 192.25 125.459 192.083C125.474 192.082 125.537 192.137 125.598 192.103C125.696 191.962 125.825 191.845 125.979 191.759C126.129 191.674 126.297 191.628 126.471 191.62C126.473 191.649 126.475 191.679 126.505 191.677L126.519 191.676C126.436 191.756 126.334 191.841 126.236 191.923C126.205 191.955 126.236 191.982 126.266 191.98L126.259 191.984ZM120.669 188.687L120.661 188.576C120.966 188.472 121.282 188.412 121.604 188.396C121.699 188.375 121.795 188.368 121.889 188.376C121.467 188.406 121.054 188.51 120.669 188.687ZM139.183 190.412C139.188 190.475 139.17 190.54 139.144 190.594C139.115 190.651 139.074 190.699 139.024 190.736L133.251 194.665C132.545 194.515 131.847 194.33 131.162 194.105C131.05 193.901 130.982 193.679 130.958 193.446C130.938 193.217 130.962 192.985 131.035 192.764C131.07 192.576 131.128 192.393 131.208 192.22C131.222 192.204 131.236 192.188 131.235 192.173C131.238 192.173 131.242 192.173 131.245 192.169C131.249 192.165 131.249 192.161 131.248 192.158C131.307 192.038 131.373 191.922 131.45 191.808L131.457 191.8L131.467 191.789L131.474 191.781C131.474 191.781 131.487 191.75 131.501 191.734C131.513 191.703 131.542 191.687 131.554 191.656C131.65 191.537 131.761 191.429 131.881 191.331C132.003 191.278 132.134 191.231 132.265 191.196C132.753 191.198 133.238 191.226 133.723 191.288C133.782 191.291 133.84 191.309 133.893 191.335C134.077 191.356 134.262 191.335 134.432 191.267C134.545 191.236 134.649 191.181 134.732 191.1C134.816 191.02 134.879 190.919 134.912 190.809C134.957 190.709 134.979 190.599 134.978 190.488C134.974 190.376 134.948 190.271 134.896 190.174C134.777 190.015 134.87 189.912 134.978 189.815L135.016 189.779C135.066 189.738 135.11 189.69 135.144 189.639C135.207 189.482 135.068 189.403 135.028 189.268C134.994 189.211 134.889 189.249 134.823 189.164C135.028 189.06 135.316 188.872 135.164 188.626C135.065 188.496 134.911 188.265 135.068 188.12C135.271 187.987 135.573 187.995 135.651 187.792C135.672 187.675 135.664 187.557 135.626 187.444C135.588 187.332 135.521 187.233 135.43 187.157L135.382 187.098C135.333 187.038 135.283 186.974 135.242 186.914C135.134 186.762 135.02 186.622 134.895 186.486C134.748 186.31 134.63 186.114 134.537 185.905C134.432 185.686 134.536 185.481 134.52 185.256C134.496 184.819 134.402 184.391 134.232 183.99C134.143 183.785 134.097 183.561 133.99 183.372C133.97 183.247 133.913 183.128 133.828 183.034C133.811 183.005 133.801 182.972 133.799 182.939C133.797 182.906 133.802 182.872 133.814 182.841C133.93 182.748 134.038 182.643 134.142 182.532C134.17 182.455 134.171 182.373 134.143 182.297C134.116 182.221 134.063 182.158 133.993 182.118C133.79 182.044 133.829 182.327 133.697 182.396L133.608 182.403C133.573 182.331 133.63 182.293 133.685 182.23C133.683 182.2 133.678 182.141 133.649 182.143C133.53 182.152 133.421 182.13 133.387 182.073C133.073 181.735 132.669 181.496 132.218 181.383C132.331 181.409 132.451 181.422 132.57 181.418C132.777 181.447 132.982 181.41 133.169 181.315C133.303 181.261 133.315 181.018 133.364 180.877C133.371 180.81 133.366 180.743 133.346 180.678C133.327 180.612 133.293 180.555 133.248 180.506C133.097 180.32 132.901 180.174 132.676 180.094C132.569 180.057 132.396 179.976 132.253 179.912C132.207 179.882 132.153 179.86 132.096 179.849C130.26 179.089 126.666 180.12 126.397 180.259L126.394 180.259C126.144 180.351 125.899 180.466 125.667 180.598C125.342 180.744 125.057 180.961 124.831 181.234C124.605 181.507 124.442 181.827 124.359 182.171C124.035 182.421 123.78 182.752 123.628 183.131C123.407 183.627 123.06 184.079 123.162 184.615C123.255 185.076 123.393 185.49 123.516 185.965C123.554 186.126 123.606 186.282 123.669 186.434C123.74 186.596 123.696 186.811 123.794 186.938C123.845 187.023 123.823 187.133 123.95 187.183L123.958 187.301C123.99 187.329 123.992 187.358 124.051 187.354L124.06 187.473C124.337 187.705 124.58 187.978 124.784 188.283C124.855 188.445 124.505 188.392 124.368 188.343C124.108 188.198 123.865 188.022 123.65 187.822C123.636 187.838 123.626 187.861 123.624 187.883C123.758 188.085 124.198 188.31 123.982 188.463C123.868 188.531 123.72 188.393 123.607 188.52C123.58 188.567 123.614 188.624 123.619 188.687C123.444 188.58 123.27 188.652 123.1 188.605C122.979 188.584 122.929 188.361 122.796 188.37C122.435 188.307 122.067 188.27 121.698 188.252C121.35 188.225 121 188.217 120.651 188.231L120.18 181.676C120.175 181.613 120.189 181.549 120.215 181.491C120.244 181.433 120.285 181.386 120.338 181.349L128.921 175.467L138.26 180.008C138.318 180.038 138.366 180.079 138.403 180.132C138.44 180.185 138.46 180.247 138.464 180.31L139.192 190.43L139.183 190.412ZM134.073 185.816C134.057 185.847 134.032 185.871 134.004 185.888C133.975 185.905 133.942 185.915 133.909 185.917C133.854 185.973 133.802 186.029 133.751 186.092C133.81 186.088 133.757 186.181 133.816 186.176C133.704 186.318 133.89 186.588 133.728 186.659C133.51 186.734 133.281 186.75 133.055 186.707C133.087 186.697 133.12 186.691 133.154 186.689L133.206 186.685C133.243 186.686 133.28 186.68 133.316 186.662C133.351 186.645 133.379 186.621 133.403 186.589L133.395 186.471C133.393 186.441 133.363 186.443 133.333 186.445C133.32 186.465 133.298 186.474 133.276 186.479C133.274 186.453 133.261 186.428 133.245 186.407C133.229 186.386 133.202 186.373 133.179 186.367C133.102 186.384 133.02 186.379 132.94 186.358C132.864 186.334 132.794 186.294 132.738 186.235C132.816 186.189 132.908 186.175 132.995 186.187C133.073 186.182 133.03 186.051 133.118 185.985L133.211 185.978C133.38 185.743 133.712 185.66 133.755 185.433C133.751 185.374 133.581 185.387 133.457 185.366C133.292 185.359 133.126 185.378 132.97 185.43C132.758 185.475 132.551 185.546 132.353 185.638C132.511 185.504 132.692 185.395 132.884 185.318C133.021 185.256 133.159 185.205 133.305 185.168L133.381 185.148L133.458 185.128C133.563 185.087 133.681 185.078 133.791 185.104C133.932 185.153 134.162 185.137 134.201 185.223C134.272 185.381 134.132 185.555 133.974 185.685C133.944 185.736 134.069 185.76 134.073 185.816Z" fill="white"/>
<path d="M148.148 170.81L132.864 171.908C132.204 171.956 131.707 172.529 131.755 173.189L132.155 178.748C132.202 179.408 132.776 179.905 133.436 179.857L148.719 178.759C149.38 178.711 149.876 178.138 149.829 177.478L149.429 171.919C149.381 171.259 148.808 170.762 148.148 170.81Z" fill="#FCC63A"/>
<path d="M133.681 178.561L133.301 173.271L135.047 173.146C135.628 173.104 136.094 173.212 136.447 173.469C136.804 173.726 137.002 174.099 137.037 174.591C137.073 175.083 136.929 175.468 136.613 175.777C136.3 176.082 135.855 176.256 135.274 176.297L134.601 176.346L134.754 178.484L133.681 178.561ZM135.158 174.056L134.44 174.108L134.535 175.432L135.253 175.381C135.479 175.364 135.652 175.292 135.77 175.169C135.891 175.045 135.945 174.874 135.93 174.655C135.915 174.456 135.837 174.301 135.699 174.192C135.565 174.087 135.383 174.04 135.158 174.056Z" fill="#3A3A3A"/>
<path d="M138.266 178.231L137.886 172.941L139.503 172.825C140.084 172.783 140.553 172.891 140.91 173.148C141.267 173.405 141.465 173.777 141.5 174.269C141.523 174.587 141.469 174.87 141.334 175.118C141.203 175.361 141.012 175.554 140.751 175.699L142.581 177.921L141.297 178.013L139.737 175.976L139.186 176.016L139.339 178.154L138.266 178.231ZM139.628 173.735L139.025 173.778L139.12 175.102L139.723 175.059C139.949 175.043 140.122 174.971 140.24 174.847C140.357 174.723 140.408 174.552 140.393 174.334C140.378 174.134 140.304 173.98 140.17 173.87C140.035 173.765 139.854 173.718 139.628 173.735Z" fill="#3A3A3A"/>
<path d="M145.239 172.261C145.654 172.231 146.036 172.278 146.388 172.405C146.747 172.532 147.057 172.71 147.323 172.944C147.589 173.178 147.799 173.46 147.961 173.794C148.122 174.121 148.214 174.475 148.241 174.852C148.269 175.229 148.228 175.597 148.116 175.947C148.003 176.293 147.832 176.603 147.606 176.872C147.379 177.141 147.094 177.366 146.757 177.539C146.424 177.716 146.052 177.817 145.641 177.846C145.23 177.876 144.84 177.829 144.481 177.703C144.123 177.576 143.812 177.398 143.546 177.164C143.28 176.93 143.066 176.648 142.909 176.321C142.747 175.987 142.655 175.633 142.628 175.256C142.601 174.878 142.641 174.515 142.754 174.168C142.866 173.814 143.037 173.505 143.263 173.236C143.49 172.967 143.775 172.742 144.112 172.569C144.449 172.392 144.825 172.291 145.239 172.261ZM145.569 176.848C145.817 176.83 146.04 176.769 146.24 176.662C146.444 176.55 146.617 176.412 146.75 176.246C146.89 176.072 146.995 175.875 147.064 175.654C147.133 175.426 147.161 175.186 147.143 174.935C147.125 174.683 147.063 174.453 146.963 174.241C146.861 174.026 146.729 173.845 146.567 173.701C146.407 173.549 146.22 173.436 146.003 173.362C145.789 173.281 145.56 173.249 145.312 173.267C145.064 173.285 144.838 173.349 144.634 173.461C144.429 173.568 144.257 173.707 144.117 173.877C143.98 174.043 143.879 174.24 143.81 174.468C143.74 174.692 143.713 174.929 143.731 175.18C143.749 175.432 143.81 175.665 143.911 175.881C144.012 176.093 144.14 176.273 144.3 176.422C144.463 176.566 144.653 176.679 144.871 176.76C145.089 176.837 145.321 176.865 145.569 176.848Z" fill="#3A3A3A"/>
</g>
<path d="M31.5624 63.1065C26.0527 63.1077 20.6386 61.6672 15.8586 58.9283C15.7384 58.859 15.6507 58.7449 15.6146 58.6109C15.5786 58.477 15.5973 58.3342 15.6666 58.2141C15.7359 58.0939 15.8501 58.0062 15.9841 57.9702C16.1181 57.9342 16.2609 57.9529 16.3811 58.0221C23.1225 61.8964 31.0877 63.0568 38.655 61.267C46.2223 59.4772 52.8226 54.8717 57.112 48.3884C61.4015 41.905 63.0575 34.0313 61.7431 26.3703C60.4286 18.7093 56.2424 11.8371 50.0368 7.15294C43.8312 2.46879 36.0728 0.324892 28.3414 1.15777C20.6099 1.99064 13.4867 5.73767 8.42214 11.6359C3.35754 17.5342 0.732347 25.1401 1.08109 32.9052C1.42982 40.6702 4.72627 48.0104 10.2992 53.4313C10.3987 53.528 10.4556 53.6601 10.4576 53.7987C10.4595 53.9373 10.4063 54.071 10.3097 54.1704C10.213 54.2697 10.0808 54.3267 9.94217 54.3286C9.80352 54.3306 9.66977 54.2774 9.57034 54.1808C4.31842 49.0809 1.00367 42.3146 0.193749 35.0405C-0.616177 27.7665 1.12911 20.4372 5.13072 14.3079C9.13233 8.17864 15.1413 3.63062 22.1286 1.44271C29.116 -0.745188 36.6469 -0.436852 43.4318 2.31492C50.2167 5.0667 55.8335 10.0907 59.3202 16.5266C62.8069 22.9625 63.9467 30.4099 62.5443 37.5934C61.1419 44.7768 57.2847 51.2495 51.6331 55.903C45.9815 60.5564 38.8872 63.1011 31.565 63.1013L31.5624 63.1065Z" fill="#CE0500"/>
<path d="M54.116 44.5263C51.835 48.4899 48.5489 51.7824 44.5891 54.0718C40.6292 56.3612 36.1355 57.5667 31.5609 57.5667C26.9864 57.5667 22.4926 56.3612 18.5328 54.0718C14.5729 51.7824 11.2869 48.4899 9.00586 44.5263C11.2879 40.5641 14.5744 37.273 18.5341 34.9845C22.4938 32.6961 26.987 31.4912 31.5609 31.4912C36.1349 31.4912 40.628 32.6961 44.5877 34.9845C48.5475 37.273 51.8339 40.5641 54.116 44.5263Z" fill="#CE0500"/>
<path d="M31.5624 32.6237C37.8489 32.6237 42.9451 27.5297 42.9451 21.2459C42.9451 14.9622 37.8489 9.86816 31.5624 9.86816C25.2759 9.86816 20.1797 14.9622 20.1797 21.2459C20.1797 27.5297 25.2759 32.6237 31.5624 32.6237Z" fill="#CE0500"/>
<path d="M48.4049 142.22H45.2699C45.1314 142.22 44.9985 142.165 44.9005 142.067C44.8025 141.969 44.7474 141.836 44.7474 141.698C44.7474 141.559 44.8025 141.426 44.9005 141.329C44.9985 141.231 45.1314 141.176 45.2699 141.176H48.4049C48.5435 141.176 48.6764 141.231 48.7744 141.329C48.8724 141.426 48.9274 141.559 48.9274 141.698C48.9274 141.836 48.8724 141.969 48.7744 142.067C48.6764 142.165 48.5435 142.22 48.4049 142.22ZM42.1349 142.22H38.9999C38.8613 142.22 38.7284 142.165 38.6305 142.067C38.5325 141.969 38.4774 141.836 38.4774 141.698C38.4774 141.559 38.5325 141.426 38.6305 141.329C38.7284 141.231 38.8613 141.176 38.9999 141.176H42.1349C42.2735 141.176 42.4064 141.231 42.5044 141.329C42.6024 141.426 42.6574 141.559 42.6574 141.698C42.6574 141.836 42.6024 141.969 42.5044 142.067C42.4064 142.165 42.2735 142.22 42.1349 142.22ZM35.8649 142.22H32.7299C32.5913 142.22 32.4584 142.165 32.3604 142.067C32.2625 141.969 32.2074 141.836 32.2074 141.698C32.2074 141.559 32.2625 141.426 32.3604 141.329C32.4584 141.231 32.5913 141.176 32.7299 141.176H35.8649C36.0035 141.176 36.1364 141.231 36.2344 141.329C36.3324 141.426 36.3874 141.559 36.3874 141.698C36.3874 141.836 36.3324 141.969 36.2344 142.067C36.1364 142.165 36.0035 142.22 35.8649 142.22ZM32.001 139.812C31.8624 139.812 31.7295 139.757 31.6316 139.659C31.5336 139.562 31.4785 139.429 31.4785 139.29V136.157C31.4785 136.018 31.5336 135.885 31.6316 135.787C31.7295 135.689 31.8624 135.634 32.001 135.634C32.1396 135.634 32.2725 135.689 32.3705 135.787C32.4685 135.885 32.5235 136.018 32.5235 136.157V139.29C32.5235 139.429 32.4685 139.562 32.3705 139.659C32.2725 139.757 32.1396 139.812 32.001 139.812ZM32.001 133.545C31.8624 133.545 31.7295 133.49 31.6316 133.392C31.5336 133.294 31.4785 133.161 31.4785 133.023V129.889C31.4785 129.751 31.5336 129.618 31.6316 129.52C31.7295 129.422 31.8624 129.367 32.001 129.367C32.1396 129.367 32.2725 129.422 32.3705 129.52C32.4685 129.618 32.5235 129.751 32.5235 129.889V133.023C32.5235 133.161 32.4685 133.294 32.3705 133.392C32.2725 133.49 32.1396 133.545 32.001 133.545ZM32.001 127.278C31.8624 127.278 31.7295 127.223 31.6316 127.125C31.5336 127.027 31.4785 126.894 31.4785 126.756V123.622C31.4785 123.483 31.5336 123.351 31.6316 123.253C31.7295 123.155 31.8624 123.1 32.001 123.1C32.1396 123.1 32.2725 123.155 32.3705 123.253C32.4685 123.351 32.5235 123.483 32.5235 123.622V126.756C32.5235 126.894 32.4685 127.027 32.3705 127.125C32.2725 127.223 32.1396 127.278 32.001 127.278ZM32.001 121.011C31.8624 121.011 31.7295 120.956 31.6316 120.858C31.5336 120.76 31.4785 120.627 31.4785 120.488V117.355C31.4785 117.216 31.5336 117.083 31.6316 116.985C31.7295 116.887 31.8624 116.832 32.001 116.832C32.1396 116.832 32.2725 116.887 32.3705 116.985C32.4685 117.083 32.5235 117.216 32.5235 117.355V120.488C32.5235 120.627 32.4685 120.76 32.3705 120.858C32.2725 120.956 32.1396 121.011 32.001 121.011ZM32.001 114.743C31.8624 114.743 31.7295 114.688 31.6316 114.59C31.5336 114.492 31.4785 114.359 31.4785 114.221V111.087C31.4785 110.949 31.5336 110.816 31.6316 110.718C31.7295 110.62 31.8624 110.565 32.001 110.565C32.1396 110.565 32.2725 110.62 32.3705 110.718C32.4685 110.816 32.5235 110.949 32.5235 111.087V114.221C32.5235 114.359 32.4685 114.492 32.3705 114.59C32.2725 114.688 32.1396 114.743 32.001 114.743ZM32.001 108.476C31.8624 108.476 31.7295 108.421 31.6316 108.323C31.5336 108.225 31.4785 108.092 31.4785 107.954V104.82C31.4785 104.682 31.5336 104.549 31.6316 104.451C31.7295 104.353 31.8624 104.298 32.001 104.298C32.1396 104.298 32.2725 104.353 32.3705 104.451C32.4685 104.549 32.5235 104.682 32.5235 104.82V107.954C32.5235 108.092 32.4685 108.225 32.3705 108.323C32.2725 108.421 32.1396 108.476 32.001 108.476ZM32.001 102.209C31.8624 102.209 31.7295 102.154 31.6316 102.056C31.5336 101.958 31.4785 101.825 31.4785 101.686V98.5527C31.4785 98.4142 31.5336 98.2814 31.6316 98.1834C31.7295 98.0855 31.8624 98.0304 32.001 98.0304C32.1396 98.0304 32.2725 98.0855 32.3705 98.1834C32.4685 98.2814 32.5235 98.4142 32.5235 98.5527V101.686C32.5235 101.825 32.4685 101.958 32.3705 102.056C32.2725 102.154 32.1396 102.209 32.001 102.209ZM32.001 95.9413C31.8624 95.9413 31.7295 95.8863 31.6316 95.7884C31.5336 95.6904 31.4785 95.5576 31.4785 95.4191V92.2854C31.4785 92.1469 31.5336 92.0141 31.6316 91.9161C31.7295 91.8182 31.8624 91.7632 32.001 91.7632C32.1396 91.7632 32.2725 91.8182 32.3705 91.9161C32.4685 92.0141 32.5235 92.1469 32.5235 92.2854V95.4191C32.5235 95.5576 32.4685 95.6904 32.3705 95.7884C32.2725 95.8863 32.1396 95.9413 32.001 95.9413ZM32.001 89.6741C31.8624 89.6741 31.7295 89.619 31.6316 89.5211C31.5336 89.4231 31.4785 89.2903 31.4785 89.1518V86.0181C31.4785 85.8796 31.5336 85.7468 31.6316 85.6488C31.7295 85.5509 31.8624 85.4959 32.001 85.4959C32.1396 85.4959 32.2725 85.5509 32.3705 85.6488C32.4685 85.7468 32.5235 85.8796 32.5235 86.0181V89.1518C32.5235 89.2903 32.4685 89.4231 32.3705 89.5211C32.2725 89.619 32.1396 89.6741 32.001 89.6741ZM32.001 83.4068C31.8624 83.4068 31.7295 83.3517 31.6316 83.2538C31.5336 83.1558 31.4785 83.023 31.4785 82.8845V79.7508C31.4785 79.6123 31.5336 79.4795 31.6316 79.3815C31.7295 79.2836 31.8624 79.2286 32.001 79.2286C32.1396 79.2286 32.2725 79.2836 32.3705 79.3815C32.4685 79.4795 32.5235 79.6123 32.5235 79.7508V82.8845C32.5235 83.023 32.4685 83.1558 32.3705 83.2538C32.2725 83.3517 32.1396 83.4068 32.001 83.4068ZM32.001 77.1395C31.8624 77.1395 31.7295 77.0844 31.6316 76.9865C31.5336 76.8885 31.4785 76.7557 31.4785 76.6172V73.4835C31.4785 73.345 31.5336 73.2122 31.6316 73.1142C31.7295 73.0163 31.8624 72.9613 32.001 72.9613C32.1396 72.9613 32.2725 73.0163 32.3705 73.1142C32.4685 73.2122 32.5235 73.345 32.5235 73.4835V76.6172C32.5235 76.7557 32.4685 76.8885 32.3705 76.9865C32.2725 77.0844 32.1396 77.1395 32.001 77.1395ZM32.001 70.8722C31.8624 70.8722 31.7295 70.8171 31.6316 70.7192C31.5336 70.6212 31.4785 70.4884 31.4785 70.3499V67.2162C31.4785 67.0777 31.5336 66.9449 31.6316 66.8469C31.7295 66.749 31.8624 66.694 32.001 66.694C32.1396 66.694 32.2725 66.749 32.3705 66.8469C32.4685 66.9449 32.5235 67.0777 32.5235 67.2162V70.3499C32.5235 70.4884 32.4685 70.6212 32.3705 70.7192C32.2725 70.8171 32.1396 70.8722 32.001 70.8722Z" fill="#000091"/>
<defs>
<filter id="filter0_d_505_8330" x="94.6812" y="150.002" width="177.971" height="88.4004" filterUnits="userSpaceOnUse" color-interpolation-filters="sRGB">
<feFlood flood-opacity="0" result="BackgroundImageFix"/>
<feColorMatrix in="SourceAlpha" type="matrix" values="0 0 0 0 0 0 0 0 0 0 0 0 0 0 0 0 0 0 127 0" result="hardAlpha"/>
<feOffset dy="2"/>
<feGaussianBlur stdDeviation="3"/>
<feColorMatrix type="matrix" values="0 0 0 0 0 0 0 0 0 0 0 0 0 0 0.0705882 0 0 0 0.16 0"/>
<feBlend mode="normal" in2="BackgroundImageFix" result="effect1_dropShadow_505_8330"/>
<feBlend mode="normal" in="SourceGraphic" in2="effect1_dropShadow_505_8330" result="shape"/>
</filter>
<clipPath id="clip0_505_8330">
<rect width="161.725" height="64.9737" fill="white" transform="matrix(0.997427 -0.0716866 0.0717484 0.997423 100.681 165.596)"/>
</clipPath>
</defs>
</svg>
